G04 #@! TF.GenerationSoftware,KiCad,Pcbnew,(5.1.10-1-10_14)*
G04 #@! TF.CreationDate,2021-11-21T17:35:33-05:00*
G04 #@! TF.ProjectId,9DIN2VGA_Top,3944494e-3256-4474-915f-546f702e6b69,1*
G04 #@! TF.SameCoordinates,Original*
G04 #@! TF.FileFunction,Legend,Top*
G04 #@! TF.FilePolarity,Positive*
%FSLAX46Y46*%
G04 Gerber Fmt 4.6, Leading zero omitted, Abs format (unit mm)*
G04 Created by KiCad (PCBNEW (5.1.10-1-10_14)) date 2021-11-21 17:35:33*
%MOMM*%
%LPD*%
G01*
G04 APERTURE LIST*
%ADD10C,0.300000*%
%ADD11C,2.101600*%
G04 APERTURE END LIST*
D10*
X146265714Y-95808571D02*
X147122857Y-95808571D01*
X146694285Y-97308571D02*
X146694285Y-95808571D01*
X147908571Y-95808571D02*
X148194285Y-95808571D01*
X148337142Y-95880000D01*
X148480000Y-96022857D01*
X148551428Y-96308571D01*
X148551428Y-96808571D01*
X148480000Y-97094285D01*
X148337142Y-97237142D01*
X148194285Y-97308571D01*
X147908571Y-97308571D01*
X147765714Y-97237142D01*
X147622857Y-97094285D01*
X147551428Y-96808571D01*
X147551428Y-96308571D01*
X147622857Y-96022857D01*
X147765714Y-95880000D01*
X147908571Y-95808571D01*
X149194285Y-97308571D02*
X149194285Y-95808571D01*
X149765714Y-95808571D01*
X149908571Y-95880000D01*
X149980000Y-95951428D01*
X150051428Y-96094285D01*
X150051428Y-96308571D01*
X149980000Y-96451428D01*
X149908571Y-96522857D01*
X149765714Y-96594285D01*
X149194285Y-96594285D01*
%LPC*%
G36*
G01*
X150079200Y-91165400D02*
X150079200Y-88214600D01*
G75*
G02*
X150404600Y-87889200I325400J0D01*
G01*
X151055400Y-87889200D01*
G75*
G02*
X151380800Y-88214600I0J-325400D01*
G01*
X151380800Y-91165400D01*
G75*
G02*
X151055400Y-91490800I-325400J0D01*
G01*
X150404600Y-91490800D01*
G75*
G02*
X150079200Y-91165400I0J325400D01*
G01*
G37*
G36*
G01*
X147079200Y-91165400D02*
X147079200Y-88214600D01*
G75*
G02*
X147404600Y-87889200I325400J0D01*
G01*
X148055400Y-87889200D01*
G75*
G02*
X148380800Y-88214600I0J-325400D01*
G01*
X148380800Y-91165400D01*
G75*
G02*
X148055400Y-91490800I-325400J0D01*
G01*
X147404600Y-91490800D01*
G75*
G02*
X147079200Y-91165400I0J325400D01*
G01*
G37*
G36*
G01*
X145069200Y-91165400D02*
X145069200Y-88214600D01*
G75*
G02*
X145394600Y-87889200I325400J0D01*
G01*
X146045400Y-87889200D01*
G75*
G02*
X146370800Y-88214600I0J-325400D01*
G01*
X146370800Y-91165400D01*
G75*
G02*
X146045400Y-91490800I-325400J0D01*
G01*
X145394600Y-91490800D01*
G75*
G02*
X145069200Y-91165400I0J325400D01*
G01*
G37*
G36*
G01*
X144879200Y-106460400D02*
X144879200Y-104159600D01*
G75*
G02*
X145279600Y-103759200I400400J0D01*
G01*
X146080400Y-103759200D01*
G75*
G02*
X146480800Y-104159600I0J-400400D01*
G01*
X146480800Y-106460400D01*
G75*
G02*
X146080400Y-106860800I-400400J0D01*
G01*
X145279600Y-106860800D01*
G75*
G02*
X144879200Y-106460400I0J400400D01*
G01*
G37*
G36*
G01*
X147409200Y-106460400D02*
X147409200Y-104159600D01*
G75*
G02*
X147809600Y-103759200I400400J0D01*
G01*
X148610400Y-103759200D01*
G75*
G02*
X149010800Y-104159600I0J-400400D01*
G01*
X149010800Y-106460400D01*
G75*
G02*
X148610400Y-106860800I-400400J0D01*
G01*
X147809600Y-106860800D01*
G75*
G02*
X147409200Y-106460400I0J400400D01*
G01*
G37*
G36*
G01*
X149969200Y-106460400D02*
X149969200Y-104159600D01*
G75*
G02*
X150369600Y-103759200I400400J0D01*
G01*
X151170400Y-103759200D01*
G75*
G02*
X151570800Y-104159600I0J-400400D01*
G01*
X151570800Y-106460400D01*
G75*
G02*
X151170400Y-106860800I-400400J0D01*
G01*
X150369600Y-106860800D01*
G75*
G02*
X149969200Y-106460400I0J400400D01*
G01*
G37*
G36*
G01*
X145310400Y-102190800D02*
X143009600Y-102190800D01*
G75*
G02*
X142609200Y-101790400I0J400400D01*
G01*
X142609200Y-100989600D01*
G75*
G02*
X143009600Y-100589200I400400J0D01*
G01*
X145310400Y-100589200D01*
G75*
G02*
X145710800Y-100989600I0J-400400D01*
G01*
X145710800Y-101790400D01*
G75*
G02*
X145310400Y-102190800I-400400J0D01*
G01*
G37*
D11*
X152300000Y-99110000D03*
M02*
