G04 #@! TF.GenerationSoftware,KiCad,Pcbnew,(6.0.0-0)*
G04 #@! TF.CreationDate,2021-12-28T14:09:52-05:00*
G04 #@! TF.ProjectId,9DIN2VGA_Top,3944494e-3256-4474-915f-546f702e6b69,1*
G04 #@! TF.SameCoordinates,Original*
G04 #@! TF.FileFunction,Legend,Bot*
G04 #@! TF.FilePolarity,Positive*
%FSLAX46Y46*%
G04 Gerber Fmt 4.6, Leading zero omitted, Abs format (unit mm)*
G04 Created by KiCad (PCBNEW (6.0.0-0)) date 2021-12-28 14:09:52*
%MOMM*%
%LPD*%
G01*
G04 APERTURE LIST*
G04 Aperture macros list*
%AMRoundRect*
0 Rectangle with rounded corners*
0 $1 Rounding radius*
0 $2 $3 $4 $5 $6 $7 $8 $9 X,Y pos of 4 corners*
0 Add a 4 corners polygon primitive as box body*
4,1,4,$2,$3,$4,$5,$6,$7,$8,$9,$2,$3,0*
0 Add four circle primitives for the rounded corners*
1,1,$1+$1,$2,$3*
1,1,$1+$1,$4,$5*
1,1,$1+$1,$6,$7*
1,1,$1+$1,$8,$9*
0 Add four rect primitives between the rounded corners*
20,1,$1+$1,$2,$3,$4,$5,0*
20,1,$1+$1,$4,$5,$6,$7,0*
20,1,$1+$1,$6,$7,$8,$9,0*
20,1,$1+$1,$8,$9,$2,$3,0*%
G04 Aperture macros list end*
%ADD10C,0.127000*%
%ADD11RoundRect,0.350800X-0.300000X-1.450000X0.300000X-1.450000X0.300000X1.450000X-0.300000X1.450000X0*%
%ADD12RoundRect,0.425800X-0.375000X-1.125000X0.375000X-1.125000X0.375000X1.125000X-0.375000X1.125000X0*%
%ADD13RoundRect,0.425800X1.125000X-0.375000X1.125000X0.375000X-1.125000X0.375000X-1.125000X-0.375000X0*%
%ADD14RoundRect,0.550800X-0.500000X-0.500000X0.500000X-0.500000X0.500000X0.500000X-0.500000X0.500000X0*%
%ADD15C,2.101600*%
G04 APERTURE END LIST*
D10*
X147199304Y-92329142D02*
X147199304Y-92764571D01*
X147961304Y-92546857D02*
X147199304Y-92546857D01*
X147961304Y-93018571D02*
X147199304Y-93018571D01*
X147961304Y-93345142D02*
X147562161Y-93345142D01*
X147489590Y-93308857D01*
X147453304Y-93236285D01*
X147453304Y-93127428D01*
X147489590Y-93054857D01*
X147525875Y-93018571D01*
X147961304Y-93708000D02*
X147453304Y-93708000D01*
X147199304Y-93708000D02*
X147235590Y-93671714D01*
X147271875Y-93708000D01*
X147235590Y-93744285D01*
X147199304Y-93708000D01*
X147271875Y-93708000D01*
X147925018Y-94034571D02*
X147961304Y-94107142D01*
X147961304Y-94252285D01*
X147925018Y-94324857D01*
X147852447Y-94361142D01*
X147816161Y-94361142D01*
X147743590Y-94324857D01*
X147707304Y-94252285D01*
X147707304Y-94143428D01*
X147671018Y-94070857D01*
X147598447Y-94034571D01*
X147562161Y-94034571D01*
X147489590Y-94070857D01*
X147453304Y-94143428D01*
X147453304Y-94252285D01*
X147489590Y-94324857D01*
X147925018Y-95232000D02*
X147961304Y-95304571D01*
X147961304Y-95449714D01*
X147925018Y-95522285D01*
X147852447Y-95558571D01*
X147816161Y-95558571D01*
X147743590Y-95522285D01*
X147707304Y-95449714D01*
X147707304Y-95340857D01*
X147671018Y-95268285D01*
X147598447Y-95232000D01*
X147562161Y-95232000D01*
X147489590Y-95268285D01*
X147453304Y-95340857D01*
X147453304Y-95449714D01*
X147489590Y-95522285D01*
X147961304Y-95885142D02*
X147453304Y-95885142D01*
X147199304Y-95885142D02*
X147235590Y-95848857D01*
X147271875Y-95885142D01*
X147235590Y-95921428D01*
X147199304Y-95885142D01*
X147271875Y-95885142D01*
X147961304Y-96574571D02*
X147199304Y-96574571D01*
X147925018Y-96574571D02*
X147961304Y-96502000D01*
X147961304Y-96356857D01*
X147925018Y-96284285D01*
X147888732Y-96248000D01*
X147816161Y-96211714D01*
X147598447Y-96211714D01*
X147525875Y-96248000D01*
X147489590Y-96284285D01*
X147453304Y-96356857D01*
X147453304Y-96502000D01*
X147489590Y-96574571D01*
X147925018Y-97227714D02*
X147961304Y-97155142D01*
X147961304Y-97010000D01*
X147925018Y-96937428D01*
X147852447Y-96901142D01*
X147562161Y-96901142D01*
X147489590Y-96937428D01*
X147453304Y-97010000D01*
X147453304Y-97155142D01*
X147489590Y-97227714D01*
X147562161Y-97264000D01*
X147634732Y-97264000D01*
X147707304Y-96901142D01*
X147925018Y-98134857D02*
X147961304Y-98207428D01*
X147961304Y-98352571D01*
X147925018Y-98425142D01*
X147852447Y-98461428D01*
X147816161Y-98461428D01*
X147743590Y-98425142D01*
X147707304Y-98352571D01*
X147707304Y-98243714D01*
X147671018Y-98171142D01*
X147598447Y-98134857D01*
X147562161Y-98134857D01*
X147489590Y-98171142D01*
X147453304Y-98243714D01*
X147453304Y-98352571D01*
X147489590Y-98425142D01*
X147961304Y-98788000D02*
X147199304Y-98788000D01*
X147961304Y-99114571D02*
X147562161Y-99114571D01*
X147489590Y-99078285D01*
X147453304Y-99005714D01*
X147453304Y-98896857D01*
X147489590Y-98824285D01*
X147525875Y-98788000D01*
X147961304Y-99586285D02*
X147925018Y-99513714D01*
X147888732Y-99477428D01*
X147816161Y-99441142D01*
X147598447Y-99441142D01*
X147525875Y-99477428D01*
X147489590Y-99513714D01*
X147453304Y-99586285D01*
X147453304Y-99695142D01*
X147489590Y-99767714D01*
X147525875Y-99804000D01*
X147598447Y-99840285D01*
X147816161Y-99840285D01*
X147888732Y-99804000D01*
X147925018Y-99767714D01*
X147961304Y-99695142D01*
X147961304Y-99586285D01*
X147453304Y-100493428D02*
X147961304Y-100493428D01*
X147453304Y-100166857D02*
X147852447Y-100166857D01*
X147925018Y-100203142D01*
X147961304Y-100275714D01*
X147961304Y-100384571D01*
X147925018Y-100457142D01*
X147888732Y-100493428D01*
X147961304Y-100965142D02*
X147925018Y-100892571D01*
X147852447Y-100856285D01*
X147199304Y-100856285D01*
X147961304Y-101582000D02*
X147199304Y-101582000D01*
X147925018Y-101582000D02*
X147961304Y-101509428D01*
X147961304Y-101364285D01*
X147925018Y-101291714D01*
X147888732Y-101255428D01*
X147816161Y-101219142D01*
X147598447Y-101219142D01*
X147525875Y-101255428D01*
X147489590Y-101291714D01*
X147453304Y-101364285D01*
X147453304Y-101509428D01*
X147489590Y-101582000D01*
X149188124Y-93018571D02*
X148426124Y-93018571D01*
X149188124Y-93454000D01*
X148426124Y-93454000D01*
X148426124Y-93962000D02*
X148426124Y-94107142D01*
X148462410Y-94179714D01*
X148534981Y-94252285D01*
X148680124Y-94288571D01*
X148934124Y-94288571D01*
X149079267Y-94252285D01*
X149151838Y-94179714D01*
X149188124Y-94107142D01*
X149188124Y-93962000D01*
X149151838Y-93889428D01*
X149079267Y-93816857D01*
X148934124Y-93780571D01*
X148680124Y-93780571D01*
X148534981Y-93816857D01*
X148462410Y-93889428D01*
X148426124Y-93962000D01*
X148426124Y-94506285D02*
X148426124Y-94941714D01*
X149188124Y-94724000D02*
X148426124Y-94724000D01*
X149188124Y-95776285D02*
X148426124Y-95776285D01*
X148716410Y-95776285D02*
X148680124Y-95848857D01*
X148680124Y-95994000D01*
X148716410Y-96066571D01*
X148752695Y-96102857D01*
X148825267Y-96139142D01*
X149042981Y-96139142D01*
X149115552Y-96102857D01*
X149151838Y-96066571D01*
X149188124Y-95994000D01*
X149188124Y-95848857D01*
X149151838Y-95776285D01*
X149151838Y-96756000D02*
X149188124Y-96683428D01*
X149188124Y-96538285D01*
X149151838Y-96465714D01*
X149079267Y-96429428D01*
X148788981Y-96429428D01*
X148716410Y-96465714D01*
X148680124Y-96538285D01*
X148680124Y-96683428D01*
X148716410Y-96756000D01*
X148788981Y-96792285D01*
X148861552Y-96792285D01*
X148934124Y-96429428D01*
X148680124Y-97626857D02*
X149188124Y-97808285D01*
X148680124Y-97989714D01*
X149188124Y-98280000D02*
X148680124Y-98280000D01*
X148426124Y-98280000D02*
X148462410Y-98243714D01*
X148498695Y-98280000D01*
X148462410Y-98316285D01*
X148426124Y-98280000D01*
X148498695Y-98280000D01*
X149151838Y-98606571D02*
X149188124Y-98679142D01*
X149188124Y-98824285D01*
X149151838Y-98896857D01*
X149079267Y-98933142D01*
X149042981Y-98933142D01*
X148970410Y-98896857D01*
X148934124Y-98824285D01*
X148934124Y-98715428D01*
X148897838Y-98642857D01*
X148825267Y-98606571D01*
X148788981Y-98606571D01*
X148716410Y-98642857D01*
X148680124Y-98715428D01*
X148680124Y-98824285D01*
X148716410Y-98896857D01*
X149188124Y-99259714D02*
X148680124Y-99259714D01*
X148426124Y-99259714D02*
X148462410Y-99223428D01*
X148498695Y-99259714D01*
X148462410Y-99296000D01*
X148426124Y-99259714D01*
X148498695Y-99259714D01*
X149188124Y-99622571D02*
X148426124Y-99622571D01*
X148716410Y-99622571D02*
X148680124Y-99695142D01*
X148680124Y-99840285D01*
X148716410Y-99912857D01*
X148752695Y-99949142D01*
X148825267Y-99985428D01*
X149042981Y-99985428D01*
X149115552Y-99949142D01*
X149151838Y-99912857D01*
X149188124Y-99840285D01*
X149188124Y-99695142D01*
X149151838Y-99622571D01*
X149188124Y-100420857D02*
X149151838Y-100348285D01*
X149079267Y-100312000D01*
X148426124Y-100312000D01*
X149151838Y-101001428D02*
X149188124Y-100928857D01*
X149188124Y-100783714D01*
X149151838Y-100711142D01*
X149079267Y-100674857D01*
X148788981Y-100674857D01*
X148716410Y-100711142D01*
X148680124Y-100783714D01*
X148680124Y-100928857D01*
X148716410Y-101001428D01*
X148788981Y-101037714D01*
X148861552Y-101037714D01*
X148934124Y-100674857D01*
%LPC*%
D11*
X151230000Y-89690000D03*
X145230000Y-89690000D03*
D12*
X150770000Y-105310000D03*
X148210000Y-105310000D03*
X145680000Y-105310000D03*
D13*
X144160000Y-101390000D03*
D14*
X151830000Y-99110000D03*
D15*
X152300000Y-99110000D03*
M02*
