G04 #@! TF.GenerationSoftware,KiCad,Pcbnew,(6.0.0-0)*
G04 #@! TF.CreationDate,2021-12-28T14:09:52-05:00*
G04 #@! TF.ProjectId,9DIN2VGA_Top,3944494e-3256-4474-915f-546f702e6b69,1*
G04 #@! TF.SameCoordinates,Original*
G04 #@! TF.FileFunction,Copper,L2,Bot*
G04 #@! TF.FilePolarity,Positive*
%FSLAX46Y46*%
G04 Gerber Fmt 4.6, Leading zero omitted, Abs format (unit mm)*
G04 Created by KiCad (PCBNEW (6.0.0-0)) date 2021-12-28 14:09:52*
%MOMM*%
%LPD*%
G01*
G04 APERTURE LIST*
G04 Aperture macros list*
%AMRoundRect*
0 Rectangle with rounded corners*
0 $1 Rounding radius*
0 $2 $3 $4 $5 $6 $7 $8 $9 X,Y pos of 4 corners*
0 Add a 4 corners polygon primitive as box body*
4,1,4,$2,$3,$4,$5,$6,$7,$8,$9,$2,$3,0*
0 Add four circle primitives for the rounded corners*
1,1,$1+$1,$2,$3*
1,1,$1+$1,$4,$5*
1,1,$1+$1,$6,$7*
1,1,$1+$1,$8,$9*
0 Add four rect primitives between the rounded corners*
20,1,$1+$1,$2,$3,$4,$5,0*
20,1,$1+$1,$4,$5,$6,$7,0*
20,1,$1+$1,$6,$7,$8,$9,0*
20,1,$1+$1,$8,$9,$2,$3,0*%
G04 Aperture macros list end*
G04 #@! TA.AperFunction,SMDPad,CuDef*
%ADD10RoundRect,0.300000X-0.300000X-1.450000X0.300000X-1.450000X0.300000X1.450000X-0.300000X1.450000X0*%
G04 #@! TD*
G04 #@! TA.AperFunction,ComponentPad*
%ADD11C,0.700000*%
G04 #@! TD*
G04 #@! TA.AperFunction,ComponentPad*
%ADD12RoundRect,0.375000X-0.375000X-1.125000X0.375000X-1.125000X0.375000X1.125000X-0.375000X1.125000X0*%
G04 #@! TD*
G04 #@! TA.AperFunction,ComponentPad*
%ADD13RoundRect,0.375000X1.125000X-0.375000X1.125000X0.375000X-1.125000X0.375000X-1.125000X-0.375000X0*%
G04 #@! TD*
G04 #@! TA.AperFunction,ComponentPad*
%ADD14RoundRect,0.500000X-0.500000X-0.500000X0.500000X-0.500000X0.500000X0.500000X-0.500000X0.500000X0*%
G04 #@! TD*
G04 #@! TA.AperFunction,ComponentPad*
%ADD15C,2.000000*%
G04 #@! TD*
G04 #@! TA.AperFunction,ViaPad*
%ADD16C,0.700000*%
G04 #@! TD*
G04 #@! TA.AperFunction,Conductor*
%ADD17C,0.250000*%
G04 #@! TD*
G04 APERTURE END LIST*
D10*
X151230000Y-89690000D03*
X145230000Y-89690000D03*
D11*
X149260000Y-91990000D03*
D12*
X150770000Y-105310000D03*
X148210000Y-105310000D03*
X145680000Y-105310000D03*
D13*
X144160000Y-101390000D03*
D14*
X151830000Y-99110000D03*
D15*
X152300000Y-99110000D03*
D16*
X150380000Y-93920000D03*
X146680000Y-101110000D03*
X144950000Y-93790000D03*
X151250000Y-101590000D03*
D17*
X150190000Y-102250000D02*
X150770000Y-102830000D01*
X151230000Y-89440000D02*
X151230000Y-94580000D01*
X150190000Y-95620000D02*
X150190000Y-102250000D01*
X150770000Y-102830000D02*
X150770000Y-104954990D01*
X151230000Y-94580000D02*
X150190000Y-95620000D01*
X149250000Y-92060000D02*
X149250000Y-91940000D01*
G04 #@! TA.AperFunction,Conductor*
G36*
X152132002Y-91269179D02*
G01*
X152150000Y-91319376D01*
X152150000Y-105081000D01*
X152131518Y-105131780D01*
X152084718Y-105158800D01*
X152071000Y-105160000D01*
X151789500Y-105160000D01*
X151738720Y-105141518D01*
X151711700Y-105094718D01*
X151710500Y-105081000D01*
X151710500Y-104147932D01*
X151695945Y-104037375D01*
X151638964Y-103899810D01*
X151548320Y-103781680D01*
X151430190Y-103691036D01*
X151425409Y-103689056D01*
X151425408Y-103689055D01*
X151297408Y-103636036D01*
X151297407Y-103636036D01*
X151292625Y-103634055D01*
X151274527Y-103631672D01*
X151184637Y-103619838D01*
X151184634Y-103619838D01*
X151182068Y-103619500D01*
X151164500Y-103619500D01*
X151113720Y-103601018D01*
X151086700Y-103554218D01*
X151085500Y-103540500D01*
X151085500Y-102847221D01*
X151085801Y-102840336D01*
X151088546Y-102808964D01*
X151088546Y-102808962D01*
X151089148Y-102802079D01*
X151079207Y-102764978D01*
X151077717Y-102758257D01*
X151072247Y-102727234D01*
X151071047Y-102720428D01*
X151067591Y-102714443D01*
X151065227Y-102707947D01*
X151065339Y-102707906D01*
X151065170Y-102707499D01*
X151065063Y-102707549D01*
X151062140Y-102701281D01*
X151060352Y-102694607D01*
X151056387Y-102688944D01*
X151038316Y-102663135D01*
X151034613Y-102657324D01*
X151018870Y-102630057D01*
X151015415Y-102624072D01*
X150985991Y-102599382D01*
X150980911Y-102594726D01*
X150757965Y-102371780D01*
X150528639Y-102142455D01*
X150505801Y-102093479D01*
X150505500Y-102086594D01*
X150505500Y-95783406D01*
X150523982Y-95732626D01*
X150528639Y-95727545D01*
X151440906Y-94815278D01*
X151445987Y-94810621D01*
X151470120Y-94790371D01*
X151475415Y-94785928D01*
X151494621Y-94752662D01*
X151498321Y-94746855D01*
X151516386Y-94721056D01*
X151516387Y-94721055D01*
X151520351Y-94715393D01*
X151522140Y-94708717D01*
X151525061Y-94702453D01*
X151525169Y-94702503D01*
X151525339Y-94702093D01*
X151525228Y-94702052D01*
X151527592Y-94695556D01*
X151531047Y-94689572D01*
X151537719Y-94651734D01*
X151539207Y-94645024D01*
X151549148Y-94607922D01*
X151545801Y-94569664D01*
X151545500Y-94562780D01*
X151545500Y-91704742D01*
X151563982Y-91653962D01*
X151615971Y-91626204D01*
X151620258Y-91625739D01*
X151631489Y-91624519D01*
X151631492Y-91624518D01*
X151636411Y-91623984D01*
X151641042Y-91622248D01*
X151641046Y-91622247D01*
X151727950Y-91589668D01*
X151767972Y-91574665D01*
X151880403Y-91490403D01*
X151964665Y-91377972D01*
X151986631Y-91319376D01*
X151997027Y-91291645D01*
X152032158Y-91250584D01*
X152085464Y-91241711D01*
X152132002Y-91269179D01*
G37*
G04 #@! TD.AperFunction*
G04 #@! TA.AperFunction,Conductor*
G36*
X150417830Y-88068482D02*
G01*
X150444850Y-88115282D01*
X150445588Y-88137530D01*
X150439500Y-88193569D01*
X150439501Y-91186430D01*
X150446016Y-91246411D01*
X150447752Y-91251042D01*
X150447753Y-91251046D01*
X150473369Y-91319376D01*
X150495335Y-91377972D01*
X150579597Y-91490403D01*
X150692028Y-91574665D01*
X150823589Y-91623984D01*
X150828509Y-91624518D01*
X150828511Y-91624519D01*
X150844033Y-91626205D01*
X150892520Y-91650064D01*
X150914500Y-91704743D01*
X150914500Y-94416594D01*
X150896018Y-94467374D01*
X150891361Y-94472455D01*
X149979094Y-95384722D01*
X149974013Y-95389379D01*
X149944585Y-95414072D01*
X149941130Y-95420057D01*
X149925382Y-95447333D01*
X149921679Y-95453145D01*
X149899649Y-95484607D01*
X149897860Y-95491283D01*
X149894939Y-95497547D01*
X149894831Y-95497497D01*
X149894661Y-95497907D01*
X149894772Y-95497948D01*
X149892408Y-95504444D01*
X149888953Y-95510428D01*
X149887753Y-95517233D01*
X149882282Y-95548261D01*
X149880793Y-95554976D01*
X149870852Y-95592078D01*
X149871454Y-95598961D01*
X149871454Y-95598963D01*
X149874199Y-95630335D01*
X149874500Y-95637220D01*
X149874500Y-102232783D01*
X149874199Y-102239669D01*
X149872787Y-102255812D01*
X149870852Y-102277922D01*
X149880793Y-102315024D01*
X149882281Y-102321734D01*
X149888953Y-102359572D01*
X149892408Y-102365556D01*
X149894772Y-102372052D01*
X149894661Y-102372093D01*
X149894831Y-102372503D01*
X149894939Y-102372453D01*
X149897860Y-102378717D01*
X149899649Y-102385393D01*
X149903613Y-102391055D01*
X149903614Y-102391056D01*
X149921679Y-102416855D01*
X149925379Y-102422662D01*
X149944585Y-102455928D01*
X149949880Y-102460371D01*
X149974015Y-102480623D01*
X149979095Y-102485279D01*
X150431361Y-102937546D01*
X150454199Y-102986522D01*
X150454500Y-102993407D01*
X150454500Y-103540500D01*
X150436018Y-103591280D01*
X150389218Y-103618300D01*
X150375500Y-103619500D01*
X150357932Y-103619500D01*
X150355366Y-103619838D01*
X150355363Y-103619838D01*
X150265473Y-103631672D01*
X150247375Y-103634055D01*
X150242593Y-103636036D01*
X150242592Y-103636036D01*
X150114592Y-103689055D01*
X150114591Y-103689056D01*
X150109810Y-103691036D01*
X149991680Y-103781680D01*
X149901036Y-103899810D01*
X149844055Y-104037375D01*
X149829500Y-104147932D01*
X149829500Y-105081000D01*
X149811018Y-105131780D01*
X149764218Y-105158800D01*
X149750500Y-105160000D01*
X149229500Y-105160000D01*
X149178720Y-105141518D01*
X149151700Y-105094718D01*
X149150500Y-105081000D01*
X149150500Y-104147932D01*
X149135945Y-104037375D01*
X149078964Y-103899810D01*
X148988320Y-103781680D01*
X148870190Y-103691036D01*
X148865409Y-103689056D01*
X148865408Y-103689055D01*
X148737408Y-103636036D01*
X148737407Y-103636036D01*
X148732625Y-103634055D01*
X148714527Y-103631672D01*
X148624637Y-103619838D01*
X148624634Y-103619838D01*
X148622068Y-103619500D01*
X147797932Y-103619500D01*
X147795366Y-103619838D01*
X147795363Y-103619838D01*
X147705473Y-103631672D01*
X147687375Y-103634055D01*
X147682593Y-103636036D01*
X147682592Y-103636036D01*
X147554592Y-103689055D01*
X147554591Y-103689056D01*
X147549810Y-103691036D01*
X147431680Y-103781680D01*
X147341036Y-103899810D01*
X147284055Y-104037375D01*
X147269500Y-104147932D01*
X147269500Y-105081000D01*
X147251018Y-105131780D01*
X147204218Y-105158800D01*
X147190500Y-105160000D01*
X146699500Y-105160000D01*
X146648720Y-105141518D01*
X146621700Y-105094718D01*
X146620500Y-105081000D01*
X146620500Y-104147932D01*
X146605945Y-104037375D01*
X146548964Y-103899810D01*
X146458320Y-103781680D01*
X146340190Y-103691036D01*
X146335409Y-103689056D01*
X146335408Y-103689055D01*
X146207408Y-103636036D01*
X146207407Y-103636036D01*
X146202625Y-103634055D01*
X146184527Y-103631672D01*
X146094637Y-103619838D01*
X146094634Y-103619838D01*
X146092068Y-103619500D01*
X145267932Y-103619500D01*
X145265366Y-103619838D01*
X145265363Y-103619838D01*
X145175473Y-103631672D01*
X145157375Y-103634055D01*
X145152593Y-103636036D01*
X145152592Y-103636036D01*
X145024592Y-103689055D01*
X145024591Y-103689056D01*
X145019810Y-103691036D01*
X144901680Y-103781680D01*
X144811036Y-103899810D01*
X144754055Y-104037375D01*
X144739500Y-104147932D01*
X144739500Y-105081000D01*
X144721018Y-105131780D01*
X144674218Y-105158800D01*
X144660500Y-105160000D01*
X144379000Y-105160000D01*
X144328220Y-105141518D01*
X144301200Y-105094718D01*
X144300000Y-105081000D01*
X144300000Y-102409500D01*
X144318482Y-102358720D01*
X144365282Y-102331700D01*
X144379000Y-102330500D01*
X145322068Y-102330500D01*
X145324634Y-102330162D01*
X145324637Y-102330162D01*
X145427490Y-102316621D01*
X145432625Y-102315945D01*
X145508309Y-102284596D01*
X145565408Y-102260945D01*
X145565409Y-102260944D01*
X145570190Y-102258964D01*
X145688320Y-102168320D01*
X145778964Y-102050190D01*
X145835945Y-101912625D01*
X145850500Y-101802068D01*
X145850500Y-100977932D01*
X145835945Y-100867375D01*
X145778964Y-100729810D01*
X145688320Y-100611680D01*
X145570190Y-100521036D01*
X145565409Y-100519056D01*
X145565408Y-100519055D01*
X145437408Y-100466036D01*
X145437407Y-100466036D01*
X145432625Y-100464055D01*
X145414527Y-100461672D01*
X145324637Y-100449838D01*
X145324634Y-100449838D01*
X145322068Y-100449500D01*
X144379000Y-100449500D01*
X144328220Y-100431018D01*
X144301200Y-100384218D01*
X144300000Y-100370500D01*
X144300000Y-91292700D01*
X144318482Y-91241920D01*
X144365282Y-91214900D01*
X144418500Y-91224284D01*
X144452973Y-91264969D01*
X144495335Y-91377972D01*
X144579597Y-91490403D01*
X144692028Y-91574665D01*
X144823589Y-91623984D01*
X144828509Y-91624518D01*
X144828511Y-91624519D01*
X144878522Y-91629952D01*
X144883569Y-91630500D01*
X145230000Y-91630500D01*
X145576430Y-91630499D01*
X145636411Y-91623984D01*
X145641042Y-91622248D01*
X145641046Y-91622247D01*
X145727950Y-91589668D01*
X145767972Y-91574665D01*
X145880403Y-91490403D01*
X145964665Y-91377972D01*
X146013984Y-91246411D01*
X146020500Y-91186431D01*
X146020499Y-88193570D01*
X146014412Y-88137531D01*
X146027303Y-88085052D01*
X146070911Y-88053136D01*
X146092950Y-88050000D01*
X150367050Y-88050000D01*
X150417830Y-88068482D01*
G37*
G04 #@! TD.AperFunction*
M02*
