G04 #@! TF.GenerationSoftware,KiCad,Pcbnew,(6.0.0-0)*
G04 #@! TF.CreationDate,2021-12-28T14:09:52-05:00*
G04 #@! TF.ProjectId,9DIN2VGA_Top,3944494e-3256-4474-915f-546f702e6b69,1*
G04 #@! TF.SameCoordinates,Original*
G04 #@! TF.FileFunction,Copper,L1,Top*
G04 #@! TF.FilePolarity,Positive*
%FSLAX46Y46*%
G04 Gerber Fmt 4.6, Leading zero omitted, Abs format (unit mm)*
G04 Created by KiCad (PCBNEW (6.0.0-0)) date 2021-12-28 14:09:52*
%MOMM*%
%LPD*%
G01*
G04 APERTURE LIST*
G04 Aperture macros list*
%AMRoundRect*
0 Rectangle with rounded corners*
0 $1 Rounding radius*
0 $2 $3 $4 $5 $6 $7 $8 $9 X,Y pos of 4 corners*
0 Add a 4 corners polygon primitive as box body*
4,1,4,$2,$3,$4,$5,$6,$7,$8,$9,$2,$3,0*
0 Add four circle primitives for the rounded corners*
1,1,$1+$1,$2,$3*
1,1,$1+$1,$4,$5*
1,1,$1+$1,$6,$7*
1,1,$1+$1,$8,$9*
0 Add four rect primitives between the rounded corners*
20,1,$1+$1,$2,$3,$4,$5,0*
20,1,$1+$1,$4,$5,$6,$7,0*
20,1,$1+$1,$6,$7,$8,$9,0*
20,1,$1+$1,$8,$9,$2,$3,0*%
G04 Aperture macros list end*
G04 #@! TA.AperFunction,SMDPad,CuDef*
%ADD10RoundRect,0.300000X-0.300000X-1.450000X0.300000X-1.450000X0.300000X1.450000X-0.300000X1.450000X0*%
G04 #@! TD*
G04 #@! TA.AperFunction,ComponentPad*
%ADD11C,0.700000*%
G04 #@! TD*
G04 #@! TA.AperFunction,ComponentPad*
%ADD12RoundRect,0.375000X-0.375000X-1.125000X0.375000X-1.125000X0.375000X1.125000X-0.375000X1.125000X0*%
G04 #@! TD*
G04 #@! TA.AperFunction,ComponentPad*
%ADD13RoundRect,0.375000X1.125000X-0.375000X1.125000X0.375000X-1.125000X0.375000X-1.125000X-0.375000X0*%
G04 #@! TD*
G04 #@! TA.AperFunction,ComponentPad*
%ADD14RoundRect,0.500000X-0.500000X-0.500000X0.500000X-0.500000X0.500000X0.500000X-0.500000X0.500000X0*%
G04 #@! TD*
G04 #@! TA.AperFunction,ComponentPad*
%ADD15C,2.000000*%
G04 #@! TD*
G04 #@! TA.AperFunction,ViaPad*
%ADD16C,0.700000*%
G04 #@! TD*
G04 #@! TA.AperFunction,Conductor*
%ADD17C,0.250000*%
G04 #@! TD*
G04 APERTURE END LIST*
D10*
X150730000Y-89690000D03*
X147730000Y-89690000D03*
X145720000Y-89690000D03*
D11*
X149260000Y-91990000D03*
D12*
X150770000Y-105310000D03*
X148210000Y-105310000D03*
X145680000Y-105310000D03*
D13*
X144160000Y-101390000D03*
D14*
X151830000Y-99110000D03*
D15*
X152300000Y-99110000D03*
D16*
X150380000Y-93920000D03*
X146680000Y-101110000D03*
X144950000Y-93790000D03*
X151250000Y-101590000D03*
D17*
X150730000Y-89440000D02*
X150730000Y-92170000D01*
X150730000Y-92170000D02*
X149070000Y-93830000D01*
X149070000Y-93830000D02*
X149070000Y-103720000D01*
X149070000Y-103720000D02*
X148230000Y-104560000D01*
X145720000Y-89440000D02*
X145720000Y-100330000D01*
X145720000Y-100570000D02*
X144920000Y-101370000D01*
X145720000Y-100330000D02*
X145720000Y-100570000D01*
X147730000Y-89440000D02*
X147710000Y-89460000D01*
X147710000Y-101970000D02*
X145680000Y-104000000D01*
X147690000Y-101970000D02*
X145650000Y-104010000D01*
X147710000Y-101970000D02*
X147690000Y-101970000D01*
X147710000Y-89460000D02*
X147710000Y-101970000D01*
G04 #@! TA.AperFunction,Conductor*
G36*
X152121780Y-88068482D02*
G01*
X152148800Y-88115282D01*
X152150000Y-88129000D01*
X152150000Y-105081000D01*
X152131518Y-105131780D01*
X152084718Y-105158800D01*
X152071000Y-105160000D01*
X151789500Y-105160000D01*
X151738720Y-105141518D01*
X151711700Y-105094718D01*
X151710500Y-105081000D01*
X151710500Y-104147932D01*
X151695945Y-104037375D01*
X151693964Y-104032592D01*
X151640945Y-103904592D01*
X151640944Y-103904591D01*
X151638964Y-103899810D01*
X151548320Y-103781680D01*
X151483920Y-103732264D01*
X151434298Y-103694188D01*
X151434297Y-103694187D01*
X151430190Y-103691036D01*
X151425409Y-103689056D01*
X151425408Y-103689055D01*
X151297408Y-103636036D01*
X151297407Y-103636036D01*
X151292625Y-103634055D01*
X151272420Y-103631395D01*
X151184637Y-103619838D01*
X151184634Y-103619838D01*
X151182068Y-103619500D01*
X150357932Y-103619500D01*
X150355366Y-103619838D01*
X150355363Y-103619838D01*
X150267580Y-103631395D01*
X150247375Y-103634055D01*
X150242593Y-103636036D01*
X150242592Y-103636036D01*
X150114592Y-103689055D01*
X150114591Y-103689056D01*
X150109810Y-103691036D01*
X150105703Y-103694187D01*
X150105702Y-103694188D01*
X150056080Y-103732264D01*
X149991680Y-103781680D01*
X149901036Y-103899810D01*
X149899056Y-103904591D01*
X149899055Y-103904592D01*
X149846036Y-104032592D01*
X149844055Y-104037375D01*
X149829500Y-104147932D01*
X149829500Y-105081000D01*
X149811018Y-105131780D01*
X149764218Y-105158800D01*
X149750500Y-105160000D01*
X149229500Y-105160000D01*
X149178720Y-105141518D01*
X149151700Y-105094718D01*
X149150500Y-105081000D01*
X149150500Y-104147932D01*
X149148343Y-104131551D01*
X149160038Y-104078794D01*
X149170806Y-104065378D01*
X149280906Y-103955278D01*
X149285987Y-103950621D01*
X149310120Y-103930371D01*
X149315415Y-103925928D01*
X149334617Y-103892669D01*
X149338321Y-103886855D01*
X149356386Y-103861057D01*
X149356387Y-103861055D01*
X149360351Y-103855394D01*
X149362140Y-103848717D01*
X149365061Y-103842453D01*
X149365169Y-103842503D01*
X149365339Y-103842092D01*
X149365228Y-103842052D01*
X149367592Y-103835556D01*
X149371047Y-103829572D01*
X149377718Y-103791740D01*
X149379210Y-103785012D01*
X149387358Y-103754602D01*
X149387358Y-103754598D01*
X149389147Y-103747922D01*
X149385801Y-103709673D01*
X149385500Y-103702788D01*
X149385500Y-93993406D01*
X149403982Y-93942626D01*
X149408639Y-93937545D01*
X150940912Y-92405273D01*
X150945993Y-92400616D01*
X150970120Y-92380371D01*
X150975415Y-92375928D01*
X150994616Y-92342671D01*
X150998316Y-92336865D01*
X151016387Y-92311056D01*
X151016388Y-92311055D01*
X151020352Y-92305393D01*
X151022140Y-92298719D01*
X151025063Y-92292451D01*
X151025170Y-92292501D01*
X151025339Y-92292094D01*
X151025227Y-92292053D01*
X151027591Y-92285557D01*
X151031047Y-92279572D01*
X151037717Y-92241743D01*
X151039209Y-92235013D01*
X151047360Y-92204595D01*
X151047360Y-92204594D01*
X151049148Y-92197921D01*
X151045801Y-92159664D01*
X151045500Y-92152779D01*
X151045500Y-91704742D01*
X151063982Y-91653962D01*
X151115971Y-91626204D01*
X151120935Y-91625665D01*
X151131489Y-91624519D01*
X151131492Y-91624518D01*
X151136411Y-91623984D01*
X151141042Y-91622248D01*
X151141046Y-91622247D01*
X151227950Y-91589668D01*
X151267972Y-91574665D01*
X151380403Y-91490403D01*
X151464665Y-91377972D01*
X151513984Y-91246411D01*
X151520500Y-91186431D01*
X151520499Y-88193570D01*
X151514412Y-88137531D01*
X151527303Y-88085052D01*
X151570911Y-88053136D01*
X151592950Y-88050000D01*
X152071000Y-88050000D01*
X152121780Y-88068482D01*
G37*
G04 #@! TD.AperFunction*
G04 #@! TA.AperFunction,Conductor*
G36*
X149917830Y-88068482D02*
G01*
X149944850Y-88115282D01*
X149945588Y-88137530D01*
X149939500Y-88193569D01*
X149939501Y-91186430D01*
X149946016Y-91246411D01*
X149947752Y-91251042D01*
X149947753Y-91251046D01*
X149980332Y-91337950D01*
X149995335Y-91377972D01*
X150079597Y-91490403D01*
X150192028Y-91574665D01*
X150323589Y-91623984D01*
X150328509Y-91624518D01*
X150328511Y-91624519D01*
X150344033Y-91626205D01*
X150392520Y-91650064D01*
X150414500Y-91704743D01*
X150414500Y-92006593D01*
X150396018Y-92057373D01*
X150391361Y-92062454D01*
X148859094Y-93594722D01*
X148854013Y-93599379D01*
X148824585Y-93624072D01*
X148821130Y-93630057D01*
X148805382Y-93657333D01*
X148801679Y-93663145D01*
X148779649Y-93694607D01*
X148777860Y-93701283D01*
X148774939Y-93707547D01*
X148774831Y-93707497D01*
X148774661Y-93707907D01*
X148774772Y-93707948D01*
X148772408Y-93714444D01*
X148768953Y-93720428D01*
X148767753Y-93727233D01*
X148762282Y-93758261D01*
X148760793Y-93764976D01*
X148750852Y-93802078D01*
X148751454Y-93808961D01*
X148751454Y-93808963D01*
X148754199Y-93840335D01*
X148754500Y-93847220D01*
X148754500Y-103546853D01*
X148736018Y-103597633D01*
X148689218Y-103624653D01*
X148665190Y-103625177D01*
X148622068Y-103619500D01*
X147797932Y-103619500D01*
X147795366Y-103619838D01*
X147795363Y-103619838D01*
X147707580Y-103631395D01*
X147687375Y-103634055D01*
X147682593Y-103636036D01*
X147682592Y-103636036D01*
X147554592Y-103689055D01*
X147554591Y-103689056D01*
X147549810Y-103691036D01*
X147545703Y-103694187D01*
X147545702Y-103694188D01*
X147496080Y-103732264D01*
X147431680Y-103781680D01*
X147341036Y-103899810D01*
X147339056Y-103904591D01*
X147339055Y-103904592D01*
X147286036Y-104032592D01*
X147284055Y-104037375D01*
X147269500Y-104147932D01*
X147269500Y-105081000D01*
X147251018Y-105131780D01*
X147204218Y-105158800D01*
X147190500Y-105160000D01*
X146699500Y-105160000D01*
X146648720Y-105141518D01*
X146621700Y-105094718D01*
X146620500Y-105081000D01*
X146620500Y-104147932D01*
X146605945Y-104037375D01*
X146603964Y-104032592D01*
X146550945Y-103904592D01*
X146550944Y-103904591D01*
X146548964Y-103899810D01*
X146458320Y-103781680D01*
X146456360Y-103780176D01*
X146433958Y-103732135D01*
X146447944Y-103679937D01*
X146456796Y-103669389D01*
X147896368Y-102229817D01*
X147904725Y-102223404D01*
X147904648Y-102223313D01*
X147909941Y-102218872D01*
X147915928Y-102215415D01*
X147921053Y-102209308D01*
X147929504Y-102199237D01*
X147939238Y-102189503D01*
X147950122Y-102180370D01*
X147950123Y-102180368D01*
X147955415Y-102175928D01*
X147965974Y-102157641D01*
X147973869Y-102146366D01*
X147983001Y-102135483D01*
X147983004Y-102135478D01*
X147987446Y-102130184D01*
X147989810Y-102123688D01*
X147993265Y-102117704D01*
X147993369Y-102117764D01*
X147993574Y-102117369D01*
X147993467Y-102117319D01*
X147996389Y-102111053D01*
X148000352Y-102105393D01*
X148002140Y-102098720D01*
X148005063Y-102092451D01*
X148005170Y-102092501D01*
X148005339Y-102092095D01*
X148005226Y-102092054D01*
X148007590Y-102085559D01*
X148011047Y-102079572D01*
X148014713Y-102058778D01*
X148018278Y-102045474D01*
X148023136Y-102032127D01*
X148023136Y-102032125D01*
X148025500Y-102025631D01*
X148025500Y-102018720D01*
X148026700Y-102011914D01*
X148026817Y-102011935D01*
X148026875Y-102011492D01*
X148026757Y-102011482D01*
X148027360Y-102004596D01*
X148029148Y-101997921D01*
X148025801Y-101959664D01*
X148025500Y-101952779D01*
X148025500Y-91706915D01*
X148043982Y-91656135D01*
X148095969Y-91628377D01*
X148131490Y-91624519D01*
X148131494Y-91624518D01*
X148136411Y-91623984D01*
X148141042Y-91622248D01*
X148141046Y-91622247D01*
X148227950Y-91589668D01*
X148267972Y-91574665D01*
X148380403Y-91490403D01*
X148464665Y-91377972D01*
X148513984Y-91246411D01*
X148520500Y-91186431D01*
X148520499Y-88193570D01*
X148514412Y-88137531D01*
X148527303Y-88085052D01*
X148570911Y-88053136D01*
X148592950Y-88050000D01*
X149867050Y-88050000D01*
X149917830Y-88068482D01*
G37*
G04 #@! TD.AperFunction*
G04 #@! TA.AperFunction,Conductor*
G36*
X146917830Y-88068482D02*
G01*
X146944850Y-88115282D01*
X146945588Y-88137530D01*
X146939500Y-88193569D01*
X146939501Y-91186430D01*
X146946016Y-91246411D01*
X146947752Y-91251042D01*
X146947753Y-91251046D01*
X146980332Y-91337950D01*
X146995335Y-91377972D01*
X147079597Y-91490403D01*
X147192028Y-91574665D01*
X147323589Y-91623984D01*
X147328511Y-91624519D01*
X147333332Y-91625665D01*
X147332704Y-91628305D01*
X147372504Y-91647875D01*
X147394500Y-91702570D01*
X147394500Y-101786593D01*
X147376018Y-101837373D01*
X147371361Y-101842454D01*
X145617455Y-103596361D01*
X145568479Y-103619199D01*
X145561594Y-103619500D01*
X145267932Y-103619500D01*
X145265366Y-103619838D01*
X145265363Y-103619838D01*
X145177580Y-103631395D01*
X145157375Y-103634055D01*
X145152593Y-103636036D01*
X145152592Y-103636036D01*
X145024592Y-103689055D01*
X145024591Y-103689056D01*
X145019810Y-103691036D01*
X145015703Y-103694187D01*
X145015702Y-103694188D01*
X144966080Y-103732264D01*
X144901680Y-103781680D01*
X144811036Y-103899810D01*
X144809056Y-103904591D01*
X144809055Y-103904592D01*
X144756036Y-104032592D01*
X144754055Y-104037375D01*
X144739500Y-104147932D01*
X144739500Y-105081000D01*
X144721018Y-105131780D01*
X144674218Y-105158800D01*
X144660500Y-105160000D01*
X144379000Y-105160000D01*
X144328220Y-105141518D01*
X144301200Y-105094718D01*
X144300000Y-105081000D01*
X144300000Y-102409500D01*
X144318482Y-102358720D01*
X144365282Y-102331700D01*
X144379000Y-102330500D01*
X145322068Y-102330500D01*
X145324634Y-102330162D01*
X145324637Y-102330162D01*
X145427490Y-102316621D01*
X145432625Y-102315945D01*
X145437408Y-102313964D01*
X145565408Y-102260945D01*
X145565409Y-102260944D01*
X145570190Y-102258964D01*
X145616652Y-102223313D01*
X145684216Y-102171469D01*
X145688320Y-102168320D01*
X145747053Y-102091777D01*
X145775812Y-102054298D01*
X145775813Y-102054297D01*
X145778964Y-102050190D01*
X145794819Y-102011914D01*
X145833964Y-101917408D01*
X145833964Y-101917407D01*
X145835945Y-101912625D01*
X145845852Y-101837373D01*
X145850162Y-101804637D01*
X145850162Y-101804634D01*
X145850500Y-101802068D01*
X145850500Y-100977932D01*
X145844853Y-100935041D01*
X145856549Y-100882284D01*
X145867316Y-100868868D01*
X145930918Y-100805267D01*
X145935999Y-100800612D01*
X145960117Y-100780375D01*
X145960121Y-100780370D01*
X145965415Y-100775928D01*
X145984616Y-100742671D01*
X145988316Y-100736865D01*
X146006387Y-100711056D01*
X146006388Y-100711055D01*
X146010352Y-100705393D01*
X146012140Y-100698719D01*
X146015063Y-100692451D01*
X146015170Y-100692501D01*
X146015339Y-100692094D01*
X146015227Y-100692053D01*
X146017591Y-100685557D01*
X146021047Y-100679572D01*
X146027717Y-100641743D01*
X146029209Y-100635013D01*
X146037360Y-100604595D01*
X146037360Y-100604594D01*
X146039148Y-100597921D01*
X146035801Y-100559664D01*
X146035500Y-100552779D01*
X146035500Y-91704742D01*
X146053982Y-91653962D01*
X146105971Y-91626204D01*
X146110935Y-91625665D01*
X146121489Y-91624519D01*
X146121492Y-91624518D01*
X146126411Y-91623984D01*
X146131042Y-91622248D01*
X146131046Y-91622247D01*
X146217950Y-91589668D01*
X146257972Y-91574665D01*
X146370403Y-91490403D01*
X146454665Y-91377972D01*
X146503984Y-91246411D01*
X146510500Y-91186431D01*
X146510499Y-88193570D01*
X146504412Y-88137531D01*
X146517303Y-88085052D01*
X146560911Y-88053136D01*
X146582950Y-88050000D01*
X146867050Y-88050000D01*
X146917830Y-88068482D01*
G37*
G04 #@! TD.AperFunction*
G04 #@! TA.AperFunction,Conductor*
G36*
X144907830Y-88068482D02*
G01*
X144934850Y-88115282D01*
X144935588Y-88137530D01*
X144929500Y-88193569D01*
X144929501Y-91186430D01*
X144936016Y-91246411D01*
X144937752Y-91251042D01*
X144937753Y-91251046D01*
X144970332Y-91337950D01*
X144985335Y-91377972D01*
X145069597Y-91490403D01*
X145182028Y-91574665D01*
X145313589Y-91623984D01*
X145318509Y-91624518D01*
X145318511Y-91624519D01*
X145334033Y-91626205D01*
X145382520Y-91650064D01*
X145404500Y-91704743D01*
X145404500Y-100370725D01*
X145386018Y-100421505D01*
X145339218Y-100448525D01*
X145322068Y-100449461D01*
X145322068Y-100449500D01*
X144379000Y-100449500D01*
X144328220Y-100431018D01*
X144301200Y-100384218D01*
X144300000Y-100370500D01*
X144300000Y-88129000D01*
X144318482Y-88078220D01*
X144365282Y-88051200D01*
X144379000Y-88050000D01*
X144857050Y-88050000D01*
X144907830Y-88068482D01*
G37*
G04 #@! TD.AperFunction*
M02*
