G04 #@! TF.GenerationSoftware,KiCad,Pcbnew,(5.1.10-1-10_14)*
G04 #@! TF.CreationDate,2021-11-21T17:35:33-05:00*
G04 #@! TF.ProjectId,9DIN2VGA_Top,3944494e-3256-4474-915f-546f702e6b69,1*
G04 #@! TF.SameCoordinates,Original*
G04 #@! TF.FileFunction,Legend,Bot*
G04 #@! TF.FilePolarity,Positive*
%FSLAX46Y46*%
G04 Gerber Fmt 4.6, Leading zero omitted, Abs format (unit mm)*
G04 Created by KiCad (PCBNEW (5.1.10-1-10_14)) date 2021-11-21 17:35:33*
%MOMM*%
%LPD*%
G01*
G04 APERTURE LIST*
%ADD10C,0.127000*%
%ADD11C,2.101600*%
G04 APERTURE END LIST*
D10*
X147177714Y-92329142D02*
X147177714Y-92764571D01*
X147939714Y-92546857D02*
X147177714Y-92546857D01*
X147939714Y-93018571D02*
X147177714Y-93018571D01*
X147939714Y-93345142D02*
X147540571Y-93345142D01*
X147468000Y-93308857D01*
X147431714Y-93236285D01*
X147431714Y-93127428D01*
X147468000Y-93054857D01*
X147504285Y-93018571D01*
X147939714Y-93708000D02*
X147431714Y-93708000D01*
X147177714Y-93708000D02*
X147214000Y-93671714D01*
X147250285Y-93708000D01*
X147214000Y-93744285D01*
X147177714Y-93708000D01*
X147250285Y-93708000D01*
X147903428Y-94034571D02*
X147939714Y-94107142D01*
X147939714Y-94252285D01*
X147903428Y-94324857D01*
X147830857Y-94361142D01*
X147794571Y-94361142D01*
X147722000Y-94324857D01*
X147685714Y-94252285D01*
X147685714Y-94143428D01*
X147649428Y-94070857D01*
X147576857Y-94034571D01*
X147540571Y-94034571D01*
X147468000Y-94070857D01*
X147431714Y-94143428D01*
X147431714Y-94252285D01*
X147468000Y-94324857D01*
X147903428Y-95232000D02*
X147939714Y-95304571D01*
X147939714Y-95449714D01*
X147903428Y-95522285D01*
X147830857Y-95558571D01*
X147794571Y-95558571D01*
X147722000Y-95522285D01*
X147685714Y-95449714D01*
X147685714Y-95340857D01*
X147649428Y-95268285D01*
X147576857Y-95232000D01*
X147540571Y-95232000D01*
X147468000Y-95268285D01*
X147431714Y-95340857D01*
X147431714Y-95449714D01*
X147468000Y-95522285D01*
X147939714Y-95885142D02*
X147431714Y-95885142D01*
X147177714Y-95885142D02*
X147214000Y-95848857D01*
X147250285Y-95885142D01*
X147214000Y-95921428D01*
X147177714Y-95885142D01*
X147250285Y-95885142D01*
X147939714Y-96574571D02*
X147177714Y-96574571D01*
X147903428Y-96574571D02*
X147939714Y-96502000D01*
X147939714Y-96356857D01*
X147903428Y-96284285D01*
X147867142Y-96248000D01*
X147794571Y-96211714D01*
X147576857Y-96211714D01*
X147504285Y-96248000D01*
X147468000Y-96284285D01*
X147431714Y-96356857D01*
X147431714Y-96502000D01*
X147468000Y-96574571D01*
X147903428Y-97227714D02*
X147939714Y-97155142D01*
X147939714Y-97010000D01*
X147903428Y-96937428D01*
X147830857Y-96901142D01*
X147540571Y-96901142D01*
X147468000Y-96937428D01*
X147431714Y-97010000D01*
X147431714Y-97155142D01*
X147468000Y-97227714D01*
X147540571Y-97264000D01*
X147613142Y-97264000D01*
X147685714Y-96901142D01*
X147903428Y-98134857D02*
X147939714Y-98207428D01*
X147939714Y-98352571D01*
X147903428Y-98425142D01*
X147830857Y-98461428D01*
X147794571Y-98461428D01*
X147722000Y-98425142D01*
X147685714Y-98352571D01*
X147685714Y-98243714D01*
X147649428Y-98171142D01*
X147576857Y-98134857D01*
X147540571Y-98134857D01*
X147468000Y-98171142D01*
X147431714Y-98243714D01*
X147431714Y-98352571D01*
X147468000Y-98425142D01*
X147939714Y-98788000D02*
X147177714Y-98788000D01*
X147939714Y-99114571D02*
X147540571Y-99114571D01*
X147468000Y-99078285D01*
X147431714Y-99005714D01*
X147431714Y-98896857D01*
X147468000Y-98824285D01*
X147504285Y-98788000D01*
X147939714Y-99586285D02*
X147903428Y-99513714D01*
X147867142Y-99477428D01*
X147794571Y-99441142D01*
X147576857Y-99441142D01*
X147504285Y-99477428D01*
X147468000Y-99513714D01*
X147431714Y-99586285D01*
X147431714Y-99695142D01*
X147468000Y-99767714D01*
X147504285Y-99804000D01*
X147576857Y-99840285D01*
X147794571Y-99840285D01*
X147867142Y-99804000D01*
X147903428Y-99767714D01*
X147939714Y-99695142D01*
X147939714Y-99586285D01*
X147431714Y-100493428D02*
X147939714Y-100493428D01*
X147431714Y-100166857D02*
X147830857Y-100166857D01*
X147903428Y-100203142D01*
X147939714Y-100275714D01*
X147939714Y-100384571D01*
X147903428Y-100457142D01*
X147867142Y-100493428D01*
X147939714Y-100965142D02*
X147903428Y-100892571D01*
X147830857Y-100856285D01*
X147177714Y-100856285D01*
X147939714Y-101582000D02*
X147177714Y-101582000D01*
X147903428Y-101582000D02*
X147939714Y-101509428D01*
X147939714Y-101364285D01*
X147903428Y-101291714D01*
X147867142Y-101255428D01*
X147794571Y-101219142D01*
X147576857Y-101219142D01*
X147504285Y-101255428D01*
X147468000Y-101291714D01*
X147431714Y-101364285D01*
X147431714Y-101509428D01*
X147468000Y-101582000D01*
X149209714Y-93018571D02*
X148447714Y-93018571D01*
X149209714Y-93454000D01*
X148447714Y-93454000D01*
X148447714Y-93962000D02*
X148447714Y-94107142D01*
X148484000Y-94179714D01*
X148556571Y-94252285D01*
X148701714Y-94288571D01*
X148955714Y-94288571D01*
X149100857Y-94252285D01*
X149173428Y-94179714D01*
X149209714Y-94107142D01*
X149209714Y-93962000D01*
X149173428Y-93889428D01*
X149100857Y-93816857D01*
X148955714Y-93780571D01*
X148701714Y-93780571D01*
X148556571Y-93816857D01*
X148484000Y-93889428D01*
X148447714Y-93962000D01*
X148447714Y-94506285D02*
X148447714Y-94941714D01*
X149209714Y-94724000D02*
X148447714Y-94724000D01*
X149209714Y-95776285D02*
X148447714Y-95776285D01*
X148738000Y-95776285D02*
X148701714Y-95848857D01*
X148701714Y-95994000D01*
X148738000Y-96066571D01*
X148774285Y-96102857D01*
X148846857Y-96139142D01*
X149064571Y-96139142D01*
X149137142Y-96102857D01*
X149173428Y-96066571D01*
X149209714Y-95994000D01*
X149209714Y-95848857D01*
X149173428Y-95776285D01*
X149173428Y-96756000D02*
X149209714Y-96683428D01*
X149209714Y-96538285D01*
X149173428Y-96465714D01*
X149100857Y-96429428D01*
X148810571Y-96429428D01*
X148738000Y-96465714D01*
X148701714Y-96538285D01*
X148701714Y-96683428D01*
X148738000Y-96756000D01*
X148810571Y-96792285D01*
X148883142Y-96792285D01*
X148955714Y-96429428D01*
X148701714Y-97626857D02*
X149209714Y-97808285D01*
X148701714Y-97989714D01*
X149209714Y-98280000D02*
X148701714Y-98280000D01*
X148447714Y-98280000D02*
X148484000Y-98243714D01*
X148520285Y-98280000D01*
X148484000Y-98316285D01*
X148447714Y-98280000D01*
X148520285Y-98280000D01*
X149173428Y-98606571D02*
X149209714Y-98679142D01*
X149209714Y-98824285D01*
X149173428Y-98896857D01*
X149100857Y-98933142D01*
X149064571Y-98933142D01*
X148992000Y-98896857D01*
X148955714Y-98824285D01*
X148955714Y-98715428D01*
X148919428Y-98642857D01*
X148846857Y-98606571D01*
X148810571Y-98606571D01*
X148738000Y-98642857D01*
X148701714Y-98715428D01*
X148701714Y-98824285D01*
X148738000Y-98896857D01*
X149209714Y-99259714D02*
X148701714Y-99259714D01*
X148447714Y-99259714D02*
X148484000Y-99223428D01*
X148520285Y-99259714D01*
X148484000Y-99296000D01*
X148447714Y-99259714D01*
X148520285Y-99259714D01*
X149209714Y-99622571D02*
X148447714Y-99622571D01*
X148738000Y-99622571D02*
X148701714Y-99695142D01*
X148701714Y-99840285D01*
X148738000Y-99912857D01*
X148774285Y-99949142D01*
X148846857Y-99985428D01*
X149064571Y-99985428D01*
X149137142Y-99949142D01*
X149173428Y-99912857D01*
X149209714Y-99840285D01*
X149209714Y-99695142D01*
X149173428Y-99622571D01*
X149209714Y-100420857D02*
X149173428Y-100348285D01*
X149100857Y-100312000D01*
X148447714Y-100312000D01*
X149173428Y-101001428D02*
X149209714Y-100928857D01*
X149209714Y-100783714D01*
X149173428Y-100711142D01*
X149100857Y-100674857D01*
X148810571Y-100674857D01*
X148738000Y-100711142D01*
X148701714Y-100783714D01*
X148701714Y-100928857D01*
X148738000Y-101001428D01*
X148810571Y-101037714D01*
X148883142Y-101037714D01*
X148955714Y-100674857D01*
%LPC*%
G36*
G01*
X144579200Y-91165400D02*
X144579200Y-88214600D01*
G75*
G02*
X144904600Y-87889200I325400J0D01*
G01*
X145555400Y-87889200D01*
G75*
G02*
X145880800Y-88214600I0J-325400D01*
G01*
X145880800Y-91165400D01*
G75*
G02*
X145555400Y-91490800I-325400J0D01*
G01*
X144904600Y-91490800D01*
G75*
G02*
X144579200Y-91165400I0J325400D01*
G01*
G37*
G36*
G01*
X150579200Y-91165400D02*
X150579200Y-88214600D01*
G75*
G02*
X150904600Y-87889200I325400J0D01*
G01*
X151555400Y-87889200D01*
G75*
G02*
X151880800Y-88214600I0J-325400D01*
G01*
X151880800Y-91165400D01*
G75*
G02*
X151555400Y-91490800I-325400J0D01*
G01*
X150904600Y-91490800D01*
G75*
G02*
X150579200Y-91165400I0J325400D01*
G01*
G37*
G36*
G01*
X144879200Y-106460400D02*
X144879200Y-104159600D01*
G75*
G02*
X145279600Y-103759200I400400J0D01*
G01*
X146080400Y-103759200D01*
G75*
G02*
X146480800Y-104159600I0J-400400D01*
G01*
X146480800Y-106460400D01*
G75*
G02*
X146080400Y-106860800I-400400J0D01*
G01*
X145279600Y-106860800D01*
G75*
G02*
X144879200Y-106460400I0J400400D01*
G01*
G37*
G36*
G01*
X147409200Y-106460400D02*
X147409200Y-104159600D01*
G75*
G02*
X147809600Y-103759200I400400J0D01*
G01*
X148610400Y-103759200D01*
G75*
G02*
X149010800Y-104159600I0J-400400D01*
G01*
X149010800Y-106460400D01*
G75*
G02*
X148610400Y-106860800I-400400J0D01*
G01*
X147809600Y-106860800D01*
G75*
G02*
X147409200Y-106460400I0J400400D01*
G01*
G37*
G36*
G01*
X149969200Y-106460400D02*
X149969200Y-104159600D01*
G75*
G02*
X150369600Y-103759200I400400J0D01*
G01*
X151170400Y-103759200D01*
G75*
G02*
X151570800Y-104159600I0J-400400D01*
G01*
X151570800Y-106460400D01*
G75*
G02*
X151170400Y-106860800I-400400J0D01*
G01*
X150369600Y-106860800D01*
G75*
G02*
X149969200Y-106460400I0J400400D01*
G01*
G37*
G36*
G01*
X145310400Y-102190800D02*
X143009600Y-102190800D01*
G75*
G02*
X142609200Y-101790400I0J400400D01*
G01*
X142609200Y-100989600D01*
G75*
G02*
X143009600Y-100589200I400400J0D01*
G01*
X145310400Y-100589200D01*
G75*
G02*
X145710800Y-100989600I0J-400400D01*
G01*
X145710800Y-101790400D01*
G75*
G02*
X145310400Y-102190800I-400400J0D01*
G01*
G37*
D11*
X152300000Y-99110000D03*
M02*
