G04 #@! TF.GenerationSoftware,KiCad,Pcbnew,(6.0.0-0)*
G04 #@! TF.CreationDate,2021-12-28T14:09:52-05:00*
G04 #@! TF.ProjectId,9DIN2VGA_Top,3944494e-3256-4474-915f-546f702e6b69,1*
G04 #@! TF.SameCoordinates,Original*
G04 #@! TF.FileFunction,Legend,Top*
G04 #@! TF.FilePolarity,Positive*
%FSLAX46Y46*%
G04 Gerber Fmt 4.6, Leading zero omitted, Abs format (unit mm)*
G04 Created by KiCad (PCBNEW (6.0.0-0)) date 2021-12-28 14:09:52*
%MOMM*%
%LPD*%
G01*
G04 APERTURE LIST*
G04 Aperture macros list*
%AMRoundRect*
0 Rectangle with rounded corners*
0 $1 Rounding radius*
0 $2 $3 $4 $5 $6 $7 $8 $9 X,Y pos of 4 corners*
0 Add a 4 corners polygon primitive as box body*
4,1,4,$2,$3,$4,$5,$6,$7,$8,$9,$2,$3,0*
0 Add four circle primitives for the rounded corners*
1,1,$1+$1,$2,$3*
1,1,$1+$1,$4,$5*
1,1,$1+$1,$6,$7*
1,1,$1+$1,$8,$9*
0 Add four rect primitives between the rounded corners*
20,1,$1+$1,$2,$3,$4,$5,0*
20,1,$1+$1,$4,$5,$6,$7,0*
20,1,$1+$1,$6,$7,$8,$9,0*
20,1,$1+$1,$8,$9,$2,$3,0*%
G04 Aperture macros list end*
%ADD10C,0.300000*%
%ADD11RoundRect,0.350800X-0.300000X-1.450000X0.300000X-1.450000X0.300000X1.450000X-0.300000X1.450000X0*%
%ADD12RoundRect,0.425800X-0.375000X-1.125000X0.375000X-1.125000X0.375000X1.125000X-0.375000X1.125000X0*%
%ADD13RoundRect,0.425800X1.125000X-0.375000X1.125000X0.375000X-1.125000X0.375000X-1.125000X-0.375000X0*%
%ADD14RoundRect,0.550800X-0.500000X-0.500000X0.500000X-0.500000X0.500000X0.500000X-0.500000X0.500000X0*%
%ADD15C,2.101600*%
G04 APERTURE END LIST*
D10*
X146265714Y-95808571D02*
X147122857Y-95808571D01*
X146694285Y-97308571D02*
X146694285Y-95808571D01*
X147908571Y-95808571D02*
X148194285Y-95808571D01*
X148337142Y-95880000D01*
X148480000Y-96022857D01*
X148551428Y-96308571D01*
X148551428Y-96808571D01*
X148480000Y-97094285D01*
X148337142Y-97237142D01*
X148194285Y-97308571D01*
X147908571Y-97308571D01*
X147765714Y-97237142D01*
X147622857Y-97094285D01*
X147551428Y-96808571D01*
X147551428Y-96308571D01*
X147622857Y-96022857D01*
X147765714Y-95880000D01*
X147908571Y-95808571D01*
X149194285Y-97308571D02*
X149194285Y-95808571D01*
X149765714Y-95808571D01*
X149908571Y-95880000D01*
X149980000Y-95951428D01*
X150051428Y-96094285D01*
X150051428Y-96308571D01*
X149980000Y-96451428D01*
X149908571Y-96522857D01*
X149765714Y-96594285D01*
X149194285Y-96594285D01*
%LPC*%
D11*
X150730000Y-89690000D03*
X147730000Y-89690000D03*
X145720000Y-89690000D03*
D12*
X150770000Y-105310000D03*
X148210000Y-105310000D03*
X145680000Y-105310000D03*
D13*
X144160000Y-101390000D03*
D14*
X151830000Y-99110000D03*
D15*
X152300000Y-99110000D03*
M02*
