G04 #@! TF.GenerationSoftware,KiCad,Pcbnew,(5.1.10-1-10_14)*
G04 #@! TF.CreationDate,2021-12-27T15:36:47-05:00*
G04 #@! TF.ProjectId,9DIN2VGA,3944494e-3256-4474-912e-6b696361645f,1*
G04 #@! TF.SameCoordinates,Original*
G04 #@! TF.FileFunction,Paste,Top*
G04 #@! TF.FilePolarity,Positive*
%FSLAX46Y46*%
G04 Gerber Fmt 4.6, Leading zero omitted, Abs format (unit mm)*
G04 Created by KiCad (PCBNEW (5.1.10-1-10_14)) date 2021-12-27 15:36:47*
%MOMM*%
%LPD*%
G01*
G04 APERTURE LIST*
G04 APERTURE END LIST*
G36*
G01*
X132115000Y-90209999D02*
X132115000Y-91510001D01*
G75*
G02*
X131865001Y-91760000I-249999J0D01*
G01*
X131214999Y-91760000D01*
G75*
G02*
X130965000Y-91510001I0J249999D01*
G01*
X130965000Y-90209999D01*
G75*
G02*
X131214999Y-89960000I249999J0D01*
G01*
X131865001Y-89960000D01*
G75*
G02*
X132115000Y-90209999I0J-249999D01*
G01*
G37*
G36*
G01*
X135065000Y-90209999D02*
X135065000Y-91510001D01*
G75*
G02*
X134815001Y-91760000I-249999J0D01*
G01*
X134164999Y-91760000D01*
G75*
G02*
X133915000Y-91510001I0J249999D01*
G01*
X133915000Y-90209999D01*
G75*
G02*
X134164999Y-89960000I249999J0D01*
G01*
X134815001Y-89960000D01*
G75*
G02*
X135065000Y-90209999I0J-249999D01*
G01*
G37*
G36*
G01*
X132115000Y-92939999D02*
X132115000Y-94240001D01*
G75*
G02*
X131865001Y-94490000I-249999J0D01*
G01*
X131214999Y-94490000D01*
G75*
G02*
X130965000Y-94240001I0J249999D01*
G01*
X130965000Y-92939999D01*
G75*
G02*
X131214999Y-92690000I249999J0D01*
G01*
X131865001Y-92690000D01*
G75*
G02*
X132115000Y-92939999I0J-249999D01*
G01*
G37*
G36*
G01*
X135065000Y-92939999D02*
X135065000Y-94240001D01*
G75*
G02*
X134815001Y-94490000I-249999J0D01*
G01*
X134164999Y-94490000D01*
G75*
G02*
X133915000Y-94240001I0J249999D01*
G01*
X133915000Y-92939999D01*
G75*
G02*
X134164999Y-92690000I249999J0D01*
G01*
X134815001Y-92690000D01*
G75*
G02*
X135065000Y-92939999I0J-249999D01*
G01*
G37*
G36*
G01*
X132115000Y-95679999D02*
X132115000Y-96980001D01*
G75*
G02*
X131865001Y-97230000I-249999J0D01*
G01*
X131214999Y-97230000D01*
G75*
G02*
X130965000Y-96980001I0J249999D01*
G01*
X130965000Y-95679999D01*
G75*
G02*
X131214999Y-95430000I249999J0D01*
G01*
X131865001Y-95430000D01*
G75*
G02*
X132115000Y-95679999I0J-249999D01*
G01*
G37*
G36*
G01*
X135065000Y-95679999D02*
X135065000Y-96980001D01*
G75*
G02*
X134815001Y-97230000I-249999J0D01*
G01*
X134164999Y-97230000D01*
G75*
G02*
X133915000Y-96980001I0J249999D01*
G01*
X133915000Y-95679999D01*
G75*
G02*
X134164999Y-95430000I249999J0D01*
G01*
X134815001Y-95430000D01*
G75*
G02*
X135065000Y-95679999I0J-249999D01*
G01*
G37*
G36*
G01*
X127625000Y-95480000D02*
X127625000Y-95980000D01*
G75*
G02*
X127400000Y-96205000I-225000J0D01*
G01*
X126950000Y-96205000D01*
G75*
G02*
X126725000Y-95980000I0J225000D01*
G01*
X126725000Y-95480000D01*
G75*
G02*
X126950000Y-95255000I225000J0D01*
G01*
X127400000Y-95255000D01*
G75*
G02*
X127625000Y-95480000I0J-225000D01*
G01*
G37*
G36*
G01*
X129175000Y-95480000D02*
X129175000Y-95980000D01*
G75*
G02*
X128950000Y-96205000I-225000J0D01*
G01*
X128500000Y-96205000D01*
G75*
G02*
X128275000Y-95980000I0J225000D01*
G01*
X128275000Y-95480000D01*
G75*
G02*
X128500000Y-95255000I225000J0D01*
G01*
X128950000Y-95255000D01*
G75*
G02*
X129175000Y-95480000I0J-225000D01*
G01*
G37*
G36*
G01*
X137290000Y-101930000D02*
X137790000Y-101930000D01*
G75*
G02*
X138015000Y-102155000I0J-225000D01*
G01*
X138015000Y-102605000D01*
G75*
G02*
X137790000Y-102830000I-225000J0D01*
G01*
X137290000Y-102830000D01*
G75*
G02*
X137065000Y-102605000I0J225000D01*
G01*
X137065000Y-102155000D01*
G75*
G02*
X137290000Y-101930000I225000J0D01*
G01*
G37*
G36*
G01*
X137290000Y-100380000D02*
X137790000Y-100380000D01*
G75*
G02*
X138015000Y-100605000I0J-225000D01*
G01*
X138015000Y-101055000D01*
G75*
G02*
X137790000Y-101280000I-225000J0D01*
G01*
X137290000Y-101280000D01*
G75*
G02*
X137065000Y-101055000I0J225000D01*
G01*
X137065000Y-100605000D01*
G75*
G02*
X137290000Y-100380000I225000J0D01*
G01*
G37*
G36*
G01*
X147086804Y-97563357D02*
X144836804Y-97563357D01*
G75*
G02*
X144461804Y-97188357I0J375000D01*
G01*
X144461804Y-96438357D01*
G75*
G02*
X144836804Y-96063357I375000J0D01*
G01*
X147086804Y-96063357D01*
G75*
G02*
X147461804Y-96438357I0J-375000D01*
G01*
X147461804Y-97188357D01*
G75*
G02*
X147086804Y-97563357I-375000J0D01*
G01*
G37*
G36*
G01*
X151831804Y-101838357D02*
X151831804Y-99588357D01*
G75*
G02*
X152206804Y-99213357I375000J0D01*
G01*
X152956804Y-99213357D01*
G75*
G02*
X153331804Y-99588357I0J-375000D01*
G01*
X153331804Y-101838357D01*
G75*
G02*
X152956804Y-102213357I-375000J0D01*
G01*
X152206804Y-102213357D01*
G75*
G02*
X151831804Y-101838357I0J375000D01*
G01*
G37*
G36*
G01*
X149281804Y-101838357D02*
X149281804Y-99588357D01*
G75*
G02*
X149656804Y-99213357I375000J0D01*
G01*
X150406804Y-99213357D01*
G75*
G02*
X150781804Y-99588357I0J-375000D01*
G01*
X150781804Y-101838357D01*
G75*
G02*
X150406804Y-102213357I-375000J0D01*
G01*
X149656804Y-102213357D01*
G75*
G02*
X149281804Y-101838357I0J375000D01*
G01*
G37*
G36*
G01*
X146751804Y-101838357D02*
X146751804Y-99588357D01*
G75*
G02*
X147126804Y-99213357I375000J0D01*
G01*
X147876804Y-99213357D01*
G75*
G02*
X148251804Y-99588357I0J-375000D01*
G01*
X148251804Y-101838357D01*
G75*
G02*
X147876804Y-102213357I-375000J0D01*
G01*
X147126804Y-102213357D01*
G75*
G02*
X146751804Y-101838357I0J375000D01*
G01*
G37*
G36*
G01*
X141525000Y-93235000D02*
X141525000Y-93785000D01*
G75*
G02*
X141325000Y-93985000I-200000J0D01*
G01*
X140925000Y-93985000D01*
G75*
G02*
X140725000Y-93785000I0J200000D01*
G01*
X140725000Y-93235000D01*
G75*
G02*
X140925000Y-93035000I200000J0D01*
G01*
X141325000Y-93035000D01*
G75*
G02*
X141525000Y-93235000I0J-200000D01*
G01*
G37*
G36*
G01*
X143175000Y-93235000D02*
X143175000Y-93785000D01*
G75*
G02*
X142975000Y-93985000I-200000J0D01*
G01*
X142575000Y-93985000D01*
G75*
G02*
X142375000Y-93785000I0J200000D01*
G01*
X142375000Y-93235000D01*
G75*
G02*
X142575000Y-93035000I200000J0D01*
G01*
X142975000Y-93035000D01*
G75*
G02*
X143175000Y-93235000I0J-200000D01*
G01*
G37*
M02*
