M48
; DRILL file {KiCad (5.1.10-1-10_14)} date Monday, December 27, 2021 at 03:36:48 PM
; FORMAT={-:-/ absolute / inch / decimal}
; #@! TF.CreationDate,2021-12-27T15:36:48-05:00
; #@! TF.GenerationSoftware,Kicad,Pcbnew,(5.1.10-1-10_14)
FMAT,2
INCH
T1C0.0118
T2C0.0394
T3C0.0591
T4C0.1260
%
G90
G05
T1
X4.961Y-3.8366
X5.1787Y-3.6846
X5.3417Y-3.5772
X5.3417Y-3.6846
X5.3417Y-3.7925
X5.415Y-3.8996
X5.4165Y-4.0933
X5.5331Y-3.8047
X5.5358Y-3.872
X5.5559Y-3.5657
X5.5559Y-3.6819
X5.6213Y-3.6815
X5.6394Y-3.8272
X5.8713Y-4.0772
X6.0686Y-3.7182
T2
X4.928Y-3.9965
X4.973Y-3.9185
X4.973Y-4.0744
X5.0181Y-3.9965
X5.0632Y-3.9185
X5.0632Y-4.0744
X5.1083Y-3.9965
X5.1533Y-3.9185
X5.1533Y-4.0744
X5.1984Y-3.9965
X5.2435Y-3.9185
X5.2435Y-4.0744
X5.2886Y-3.9965
X5.3337Y-3.9185
X5.3337Y-4.0744
T3
X6.0686Y-3.7182
T4
X4.6614Y-3.9965
X5.6453Y-3.9965
T2
G00X4.5949Y-3.6441
M15
G01X4.5949Y-3.6835
M16
G05
G00X4.6894Y-3.7228
M15
G01X4.6894Y-3.7622
M16
G05
G00X4.835Y-3.6441
M15
G01X4.835Y-3.6835
M16
G05
G00X4.9059Y-3.7228
M15
G01X4.9059Y-3.7622
M16
G05
G00X5.0516Y-3.6441
M15
G01X5.0516Y-3.6835
M16
G05
T0
M30
