G04 #@! TF.GenerationSoftware,KiCad,Pcbnew,(6.0.0-0)*
G04 #@! TF.CreationDate,2021-12-28T23:34:06-05:00*
G04 #@! TF.ProjectId,9DIN2VGA,3944494e-3256-4474-912e-6b696361645f,1*
G04 #@! TF.SameCoordinates,Original*
G04 #@! TF.FileFunction,Copper,L2,Bot*
G04 #@! TF.FilePolarity,Positive*
%FSLAX46Y46*%
G04 Gerber Fmt 4.6, Leading zero omitted, Abs format (unit mm)*
G04 Created by KiCad (PCBNEW (6.0.0-0)) date 2021-12-28 23:34:06*
%MOMM*%
%LPD*%
G01*
G04 APERTURE LIST*
G04 Aperture macros list*
%AMRoundRect*
0 Rectangle with rounded corners*
0 $1 Rounding radius*
0 $2 $3 $4 $5 $6 $7 $8 $9 X,Y pos of 4 corners*
0 Add a 4 corners polygon primitive as box body*
4,1,4,$2,$3,$4,$5,$6,$7,$8,$9,$2,$3,0*
0 Add four circle primitives for the rounded corners*
1,1,$1+$1,$2,$3*
1,1,$1+$1,$4,$5*
1,1,$1+$1,$6,$7*
1,1,$1+$1,$8,$9*
0 Add four rect primitives between the rounded corners*
20,1,$1+$1,$2,$3,$4,$5,0*
20,1,$1+$1,$4,$5,$6,$7,0*
20,1,$1+$1,$6,$7,$8,$9,0*
20,1,$1+$1,$8,$9,$2,$3,0*%
G04 Aperture macros list end*
G04 #@! TA.AperFunction,SMDPad,CuDef*
%ADD10RoundRect,0.375000X-0.375000X-1.125000X0.375000X-1.125000X0.375000X1.125000X-0.375000X1.125000X0*%
G04 #@! TD*
G04 #@! TA.AperFunction,SMDPad,CuDef*
%ADD11RoundRect,0.375000X1.125000X-0.375000X1.125000X0.375000X-1.125000X0.375000X-1.125000X-0.375000X0*%
G04 #@! TD*
G04 #@! TA.AperFunction,ComponentPad*
%ADD12C,2.000000*%
G04 #@! TD*
G04 #@! TA.AperFunction,ComponentPad*
%ADD13RoundRect,0.500000X-0.500000X-0.500000X0.500000X-0.500000X0.500000X0.500000X-0.500000X0.500000X0*%
G04 #@! TD*
G04 #@! TA.AperFunction,ComponentPad*
%ADD14O,1.508000X3.016000*%
G04 #@! TD*
G04 #@! TA.AperFunction,ComponentPad*
%ADD15R,1.700000X1.700000*%
G04 #@! TD*
G04 #@! TA.AperFunction,ComponentPad*
%ADD16C,1.700000*%
G04 #@! TD*
G04 #@! TA.AperFunction,ComponentPad*
%ADD17C,4.066000*%
G04 #@! TD*
G04 #@! TA.AperFunction,SMDPad,CuDef*
%ADD18RoundRect,0.200000X0.200000X0.275000X-0.200000X0.275000X-0.200000X-0.275000X0.200000X-0.275000X0*%
G04 #@! TD*
G04 #@! TA.AperFunction,SMDPad,CuDef*
%ADD19RoundRect,0.249999X0.650001X-0.325001X0.650001X0.325001X-0.650001X0.325001X-0.650001X-0.325001X0*%
G04 #@! TD*
G04 #@! TA.AperFunction,ViaPad*
%ADD20C,0.700000*%
G04 #@! TD*
G04 #@! TA.AperFunction,Conductor*
%ADD21C,0.250000*%
G04 #@! TD*
G04 APERTURE END LIST*
D10*
X152581804Y-100713357D03*
X150031804Y-100713357D03*
X147499247Y-100713540D03*
D11*
X146312804Y-96813357D03*
D12*
X154141804Y-94443357D03*
D13*
X153641804Y-94443357D03*
D14*
X116710000Y-93060000D03*
X119110000Y-95060000D03*
X124610000Y-95060000D03*
X128310000Y-93060000D03*
X122810000Y-93060000D03*
D15*
X126315000Y-99530000D03*
D16*
X128605000Y-99530000D03*
X130895000Y-99530000D03*
X133185000Y-99530000D03*
X135475000Y-99530000D03*
X125170000Y-101510000D03*
X127460000Y-101510000D03*
X129750000Y-101510000D03*
X132040000Y-101510000D03*
X134330000Y-101510000D03*
X126315000Y-103490000D03*
X128605000Y-103490000D03*
X130895000Y-103490000D03*
X133185000Y-103490000D03*
X135475000Y-103490000D03*
D17*
X143390000Y-101510000D03*
X118400000Y-101510000D03*
D18*
X138220000Y-90860000D03*
X136570000Y-90860000D03*
X138230000Y-93590000D03*
X136580000Y-93590000D03*
X138220000Y-96330000D03*
X136570000Y-96330000D03*
D19*
X141110000Y-93510000D03*
X141110000Y-90560000D03*
D20*
X135680000Y-90860000D03*
X131540000Y-93590000D03*
X135680000Y-93590000D03*
X135680000Y-96330000D03*
X126009999Y-97450000D03*
X137540000Y-99049996D03*
X143320000Y-97430000D03*
X149130002Y-103560000D03*
X140609998Y-98350000D03*
X137580000Y-103970000D03*
X141190000Y-93520000D03*
X141120000Y-90570000D03*
X140540000Y-96640000D03*
X142850000Y-93520000D03*
D21*
X135680000Y-90860000D02*
X136570000Y-90860000D01*
X131540000Y-93590000D02*
X128892893Y-96237107D01*
X128600000Y-96944214D02*
X128600000Y-99530000D01*
X128600001Y-96944214D02*
G75*
G02*
X128892894Y-96237108I999993J3D01*
G01*
X135680000Y-93590000D02*
X136570000Y-93590000D01*
X135680000Y-96330000D02*
X136560000Y-96330000D01*
X123914214Y-97450000D02*
X126009999Y-97450000D01*
X122450000Y-103715786D02*
X122450000Y-98914214D01*
X128610000Y-103490000D02*
X126982893Y-105117107D01*
X123437107Y-105117107D02*
X122742893Y-104422893D01*
X126275786Y-105410000D02*
X124144214Y-105410000D01*
X122742893Y-98207107D02*
X123207107Y-97742893D01*
X123437107Y-105117107D02*
G75*
G03*
X124144214Y-105410000I707106J707106D01*
G01*
X122450001Y-103715786D02*
G75*
G03*
X122742894Y-104422892I999993J-3D01*
G01*
X126275786Y-105409999D02*
G75*
G03*
X126982892Y-105117106I3J999993D01*
G01*
X123207107Y-97742893D02*
G75*
G02*
X123914214Y-97450000I707106J-707106D01*
G01*
X122742893Y-98207107D02*
G75*
G03*
X122450000Y-98914214I707106J-707106D01*
G01*
X131552893Y-90682893D02*
X132787107Y-91917107D01*
X133372893Y-96172893D02*
X134467107Y-97267107D01*
X122810000Y-93060000D02*
X125187107Y-90682893D01*
X136342897Y-97852893D02*
X137540000Y-99049996D01*
X133080000Y-92624214D02*
X133080000Y-95465786D01*
X135174214Y-97560000D02*
X135635790Y-97560000D01*
X125894214Y-90390000D02*
X130845786Y-90390000D01*
X133079999Y-92624214D02*
G75*
G03*
X132787106Y-91917108I-999993J3D01*
G01*
X135635790Y-97560001D02*
G75*
G02*
X136342896Y-97852894I3J-999993D01*
G01*
X125894214Y-90390001D02*
G75*
G03*
X125187108Y-90682894I-3J-999993D01*
G01*
X130845786Y-90390001D02*
G75*
G02*
X131552892Y-90682894I3J-999993D01*
G01*
X133372893Y-96172893D02*
G75*
G02*
X133080000Y-95465786I707106J707106D01*
G01*
X135174214Y-97559999D02*
G75*
G02*
X134467108Y-97267106I-3J999993D01*
G01*
X138220000Y-90925786D02*
X138220000Y-90860000D01*
X139470000Y-93805786D02*
X139470000Y-93004214D01*
X142387107Y-97137107D02*
X139762893Y-94512893D01*
X143320000Y-97430000D02*
X143094214Y-97430000D01*
X139177107Y-92297107D02*
X138512893Y-91632893D01*
X138220001Y-90925786D02*
G75*
G03*
X138512894Y-91632892I999993J-3D01*
G01*
X139762893Y-94512893D02*
G75*
G02*
X139470000Y-93805786I707106J707106D01*
G01*
X139177107Y-92297107D02*
G75*
G02*
X139470000Y-93004214I-707106J-707106D01*
G01*
X142387107Y-97137107D02*
G75*
G03*
X143094214Y-97430000I707106J707106D01*
G01*
X138230000Y-94275786D02*
X138230000Y-93680000D01*
X147952895Y-104737107D02*
X149130002Y-103560000D01*
X141624214Y-105030000D02*
X147245788Y-105030000D01*
X139792893Y-103612893D02*
X140917107Y-104737107D01*
X138522893Y-94982893D02*
X139207107Y-95667107D01*
X139500000Y-96374214D02*
X139500000Y-102905786D01*
X139207107Y-95667107D02*
G75*
G02*
X139500000Y-96374214I-707106J-707106D01*
G01*
X141624214Y-105029999D02*
G75*
G02*
X140917108Y-104737106I-3J999993D01*
G01*
X138230001Y-94275786D02*
G75*
G03*
X138522894Y-94982892I999993J-3D01*
G01*
X147245788Y-105029999D02*
G75*
G03*
X147952894Y-104737106I3J999993D01*
G01*
X139792893Y-103612893D02*
G75*
G02*
X139500000Y-102905786I707106J707106D01*
G01*
X147869988Y-105820000D02*
X141304214Y-105820000D01*
X138650000Y-103165786D02*
X138650000Y-97174214D01*
X138357107Y-96467107D02*
X138220000Y-96330000D01*
X152560000Y-100720000D02*
X152560000Y-101129988D01*
X140597107Y-105527107D02*
X138942893Y-103872893D01*
X152267107Y-101837095D02*
X148577095Y-105527107D01*
X147869988Y-105819999D02*
G75*
G03*
X148577094Y-105527106I3J999993D01*
G01*
X140597107Y-105527107D02*
G75*
G03*
X141304214Y-105820000I707104J707101D01*
G01*
X138650001Y-103165786D02*
G75*
G03*
X138942894Y-103872892I999993J-3D01*
G01*
X138649999Y-97174214D02*
G75*
G03*
X138357106Y-96467108I-999993J3D01*
G01*
X152267107Y-101837095D02*
G75*
G03*
X152560000Y-101129988I-707101J707104D01*
G01*
X149738911Y-101531089D02*
X147302893Y-103967107D01*
X150031804Y-100713357D02*
X150031804Y-100823982D01*
X140609998Y-102735784D02*
X140609998Y-98350000D01*
X141427107Y-103967107D02*
X140902891Y-103442891D01*
X146595786Y-104260000D02*
X142134214Y-104260000D01*
X147302893Y-103967107D02*
G75*
G02*
X146595786Y-104260000I-707106J707106D01*
G01*
X141427107Y-103967107D02*
G75*
G03*
X142134214Y-104260000I707106J707106D01*
G01*
X149738911Y-101531089D02*
G75*
G03*
X150031804Y-100823982I-707106J707106D01*
G01*
X140609999Y-102735784D02*
G75*
G03*
X140902892Y-103442890I999993J-3D01*
G01*
X137252893Y-105137107D02*
X137287107Y-105102893D01*
X131187893Y-105037893D02*
X131287107Y-105137107D01*
X131994214Y-105430000D02*
X136545786Y-105430000D01*
X130895000Y-103490000D02*
X130895000Y-104330786D01*
X137580000Y-104395786D02*
X137580000Y-103970000D01*
X131187893Y-105037893D02*
G75*
G02*
X130895000Y-104330786I707106J707106D01*
G01*
X137287107Y-105102893D02*
G75*
G03*
X137580000Y-104395786I-707106J707106D01*
G01*
X131287107Y-105137107D02*
G75*
G03*
X131994214Y-105430000I707106J707106D01*
G01*
X137252893Y-105137107D02*
G75*
G02*
X136545786Y-105430000I-707106J707106D01*
G01*
X147499247Y-100713540D02*
X147047754Y-100713540D01*
X142287107Y-98387107D02*
X140540000Y-96640000D01*
X144185786Y-98680000D02*
X142994214Y-98680000D01*
X146340647Y-100420647D02*
X144892893Y-98972893D01*
X144892893Y-98972893D02*
G75*
G03*
X144185786Y-98680000I-707106J-707106D01*
G01*
X146340647Y-100420647D02*
G75*
G03*
X147047754Y-100713540I707106J707106D01*
G01*
X142287107Y-98387107D02*
G75*
G03*
X142994214Y-98680000I707106J707106D01*
G01*
X142850000Y-93520000D02*
X142850000Y-94465786D01*
X145194214Y-96810000D02*
X146310000Y-96810000D01*
X143142893Y-95172893D02*
X144487107Y-96517107D01*
X145194214Y-96809999D02*
G75*
G02*
X144487108Y-96517106I-3J999993D01*
G01*
X143142893Y-95172893D02*
G75*
G02*
X142850000Y-94465786I707106J707106D01*
G01*
G04 #@! TA.AperFunction,Conductor*
G36*
X144571780Y-89258482D02*
G01*
X144598800Y-89305282D01*
X144600000Y-89319000D01*
X144600000Y-94404954D01*
X144599601Y-94411298D01*
X144596511Y-94419347D01*
X144599476Y-94444970D01*
X144600000Y-94454051D01*
X144600000Y-94459494D01*
X144601137Y-94464123D01*
X144601211Y-94464736D01*
X144602757Y-94473331D01*
X144602998Y-94475410D01*
X144605547Y-94497440D01*
X144610737Y-94505077D01*
X144611110Y-94506289D01*
X144611761Y-94507377D01*
X144613964Y-94516346D01*
X144620286Y-94523516D01*
X144620286Y-94523517D01*
X144630019Y-94534556D01*
X144636092Y-94542385D01*
X144649735Y-94562461D01*
X144657873Y-94566824D01*
X144658766Y-94567727D01*
X144659846Y-94568389D01*
X144665953Y-94575316D01*
X144688626Y-94584020D01*
X144697628Y-94588142D01*
X144712619Y-94596180D01*
X144712621Y-94596181D01*
X144719019Y-94599611D01*
X144722098Y-94600000D01*
X144724954Y-94600000D01*
X144731298Y-94600399D01*
X144739347Y-94603489D01*
X144764973Y-94600524D01*
X144774051Y-94600000D01*
X145924954Y-94600000D01*
X145931298Y-94600399D01*
X145939347Y-94603489D01*
X145964973Y-94600524D01*
X145974051Y-94600000D01*
X145979494Y-94600000D01*
X145984123Y-94598863D01*
X145984736Y-94598789D01*
X145993331Y-94597243D01*
X146007944Y-94595552D01*
X146007945Y-94595552D01*
X146017440Y-94594453D01*
X146025077Y-94589263D01*
X146026289Y-94588890D01*
X146027377Y-94588239D01*
X146036346Y-94586036D01*
X146044622Y-94578740D01*
X146054556Y-94569981D01*
X146062385Y-94563908D01*
X146082461Y-94550265D01*
X146086824Y-94542127D01*
X146087727Y-94541234D01*
X146088389Y-94540154D01*
X146095316Y-94534047D01*
X146104020Y-94511374D01*
X146108142Y-94502372D01*
X146116180Y-94487381D01*
X146116181Y-94487379D01*
X146119611Y-94480981D01*
X146120000Y-94477902D01*
X146120000Y-94475046D01*
X146120399Y-94468702D01*
X146123489Y-94460653D01*
X146120524Y-94435027D01*
X146120000Y-94425949D01*
X146120000Y-94179427D01*
X152391804Y-94179427D01*
X152395688Y-94190098D01*
X152401332Y-94193357D01*
X153377874Y-94193357D01*
X153388545Y-94189473D01*
X153391804Y-94183829D01*
X153391804Y-93207288D01*
X153387920Y-93196617D01*
X153382276Y-93193358D01*
X153094006Y-93193358D01*
X153089942Y-93193568D01*
X152991693Y-93203761D01*
X152983282Y-93205578D01*
X152825845Y-93258103D01*
X152817584Y-93261973D01*
X152676676Y-93349169D01*
X152669528Y-93354834D01*
X152552454Y-93472114D01*
X152546810Y-93479260D01*
X152459855Y-93620326D01*
X152456001Y-93628592D01*
X152403745Y-93786136D01*
X152401947Y-93794522D01*
X152392008Y-93891527D01*
X152391804Y-93895531D01*
X152391804Y-94179427D01*
X146120000Y-94179427D01*
X146120000Y-89319000D01*
X146138482Y-89268220D01*
X146185282Y-89241200D01*
X146199000Y-89240000D01*
X153891000Y-89240000D01*
X153941780Y-89258482D01*
X153968800Y-89305282D01*
X153970000Y-89319000D01*
X153970000Y-93114650D01*
X153951518Y-93165430D01*
X153918019Y-93188886D01*
X153895063Y-93197241D01*
X153891804Y-93202885D01*
X153891804Y-95679426D01*
X153895688Y-95690097D01*
X153917586Y-95702740D01*
X153917571Y-95702766D01*
X153946862Y-95716425D01*
X153969699Y-95765402D01*
X153970000Y-95772286D01*
X153970000Y-102091003D01*
X153951518Y-102141783D01*
X153946861Y-102146864D01*
X149716865Y-106376861D01*
X149667889Y-106399699D01*
X149661004Y-106400000D01*
X115739000Y-106400000D01*
X115688220Y-106381518D01*
X115661200Y-106334718D01*
X115660000Y-106321000D01*
X115660000Y-103293422D01*
X116975626Y-103293422D01*
X116977022Y-103298633D01*
X117005270Y-103323406D01*
X117009368Y-103326551D01*
X117253898Y-103489941D01*
X117258370Y-103492523D01*
X117522136Y-103622597D01*
X117526915Y-103624577D01*
X117805388Y-103719106D01*
X117810394Y-103720447D01*
X118098832Y-103777821D01*
X118103949Y-103778495D01*
X118397422Y-103797730D01*
X118402578Y-103797730D01*
X118696051Y-103778495D01*
X118701168Y-103777821D01*
X118989606Y-103720447D01*
X118994612Y-103719106D01*
X119004395Y-103715785D01*
X122160096Y-103715785D01*
X122160873Y-103720190D01*
X122161297Y-103725578D01*
X122161297Y-103725582D01*
X122164172Y-103762114D01*
X122176401Y-103917504D01*
X122223637Y-104114255D01*
X122301070Y-104301195D01*
X122406793Y-104473720D01*
X122408810Y-104476082D01*
X122408811Y-104476083D01*
X122531001Y-104619149D01*
X122535335Y-104624224D01*
X122537900Y-104627887D01*
X122543563Y-104631852D01*
X122553017Y-104638472D01*
X122563566Y-104647324D01*
X123212679Y-105296437D01*
X123221528Y-105306981D01*
X123232114Y-105322100D01*
X123235765Y-105324656D01*
X123239904Y-105328191D01*
X123239905Y-105328192D01*
X123256446Y-105342319D01*
X123386279Y-105453208D01*
X123558805Y-105558931D01*
X123745744Y-105636364D01*
X123748761Y-105637088D01*
X123748763Y-105637089D01*
X123824097Y-105655175D01*
X123942496Y-105683600D01*
X124078687Y-105694318D01*
X124134405Y-105698703D01*
X124134407Y-105698703D01*
X124139820Y-105699129D01*
X124144214Y-105699904D01*
X124151020Y-105698704D01*
X124151021Y-105698704D01*
X124162385Y-105696700D01*
X124176103Y-105695500D01*
X126243896Y-105695500D01*
X126257614Y-105696700D01*
X126268978Y-105698704D01*
X126268979Y-105698704D01*
X126275785Y-105699904D01*
X126280190Y-105699127D01*
X126285578Y-105698703D01*
X126285582Y-105698703D01*
X126377218Y-105691491D01*
X126477504Y-105683599D01*
X126595898Y-105655175D01*
X126671236Y-105637088D01*
X126671238Y-105637087D01*
X126674255Y-105636363D01*
X126861195Y-105558930D01*
X127033720Y-105453207D01*
X127036083Y-105451189D01*
X127180117Y-105328173D01*
X127180119Y-105328171D01*
X127184224Y-105324665D01*
X127187887Y-105322100D01*
X127198064Y-105307565D01*
X127198472Y-105306983D01*
X127207324Y-105296434D01*
X128082345Y-104421413D01*
X128131321Y-104398575D01*
X128176746Y-104408313D01*
X128198490Y-104420465D01*
X128202152Y-104421655D01*
X128202157Y-104421657D01*
X128307964Y-104456035D01*
X128386960Y-104481702D01*
X128390797Y-104482160D01*
X128390799Y-104482160D01*
X128579892Y-104504708D01*
X128579895Y-104504708D01*
X128583735Y-104505166D01*
X128781320Y-104489963D01*
X128791614Y-104487089D01*
X128902836Y-104456035D01*
X128972190Y-104436671D01*
X129103986Y-104370096D01*
X129145619Y-104349066D01*
X129145621Y-104349065D01*
X129149073Y-104347321D01*
X129257540Y-104262577D01*
X129302190Y-104227693D01*
X129302192Y-104227691D01*
X129305232Y-104225316D01*
X129333707Y-104192327D01*
X129432196Y-104078228D01*
X129432200Y-104078223D01*
X129434720Y-104075303D01*
X129436626Y-104071947D01*
X129436630Y-104071942D01*
X129519489Y-103926083D01*
X129532604Y-103902996D01*
X129544503Y-103867226D01*
X129593935Y-103718630D01*
X129593936Y-103718625D01*
X129595156Y-103714958D01*
X129595912Y-103708978D01*
X129607191Y-103619691D01*
X129619993Y-103518351D01*
X129620389Y-103490000D01*
X129618999Y-103475823D01*
X129879710Y-103475823D01*
X129881926Y-103502209D01*
X129894352Y-103650188D01*
X129896292Y-103673297D01*
X129913070Y-103731809D01*
X129949184Y-103857752D01*
X129950915Y-103863790D01*
X130041498Y-104040045D01*
X130164590Y-104195348D01*
X130315504Y-104323786D01*
X130318878Y-104325672D01*
X130318880Y-104325673D01*
X130419749Y-104382047D01*
X130488490Y-104420465D01*
X130565638Y-104445532D01*
X130608220Y-104478800D01*
X130619980Y-104514464D01*
X130621400Y-104532504D01*
X130668636Y-104729256D01*
X130746069Y-104916195D01*
X130851792Y-105088721D01*
X130853805Y-105091077D01*
X130853805Y-105091078D01*
X130871275Y-105111533D01*
X130980344Y-105239235D01*
X130982900Y-105242886D01*
X130998019Y-105253472D01*
X131008563Y-105262321D01*
X131062679Y-105316437D01*
X131071528Y-105326981D01*
X131082114Y-105342100D01*
X131085765Y-105344656D01*
X131089904Y-105348191D01*
X131089905Y-105348192D01*
X131167057Y-105414086D01*
X131236279Y-105473208D01*
X131408805Y-105578931D01*
X131595744Y-105656364D01*
X131598761Y-105657088D01*
X131598763Y-105657089D01*
X131678450Y-105676220D01*
X131792496Y-105703600D01*
X131928687Y-105714318D01*
X131984405Y-105718703D01*
X131984407Y-105718703D01*
X131989820Y-105719129D01*
X131994214Y-105719904D01*
X132001020Y-105718704D01*
X132001021Y-105718704D01*
X132012385Y-105716700D01*
X132026103Y-105715500D01*
X136513897Y-105715500D01*
X136527615Y-105716700D01*
X136538979Y-105718704D01*
X136538980Y-105718704D01*
X136545786Y-105719904D01*
X136550180Y-105719129D01*
X136555593Y-105718703D01*
X136555595Y-105718703D01*
X136611313Y-105714318D01*
X136747504Y-105703600D01*
X136861550Y-105676220D01*
X136941237Y-105657089D01*
X136941239Y-105657088D01*
X136944256Y-105656364D01*
X137131195Y-105578931D01*
X137303721Y-105473208D01*
X137372944Y-105414086D01*
X137450095Y-105348192D01*
X137450096Y-105348191D01*
X137454235Y-105344656D01*
X137457886Y-105342100D01*
X137461850Y-105336439D01*
X137461852Y-105336437D01*
X137463988Y-105333386D01*
X137483386Y-105313988D01*
X137486437Y-105311852D01*
X137486439Y-105311850D01*
X137492100Y-105307886D01*
X137494656Y-105304235D01*
X137623208Y-105153721D01*
X137728931Y-104981195D01*
X137806364Y-104794256D01*
X137818598Y-104743300D01*
X137845354Y-104631852D01*
X137853600Y-104597504D01*
X137866686Y-104431221D01*
X137889095Y-104382047D01*
X137904107Y-104370096D01*
X137904649Y-104369763D01*
X137904650Y-104369762D01*
X137909445Y-104366818D01*
X137913218Y-104362650D01*
X137913220Y-104362648D01*
X138003799Y-104262577D01*
X138003800Y-104262576D01*
X138007576Y-104258404D01*
X138071335Y-104126805D01*
X138072690Y-104118755D01*
X138095090Y-103985610D01*
X138095090Y-103985607D01*
X138095596Y-103982601D01*
X138095750Y-103970000D01*
X138081032Y-103867226D01*
X138075818Y-103830816D01*
X138075817Y-103830814D01*
X138075020Y-103825246D01*
X138069959Y-103814114D01*
X138016827Y-103697257D01*
X138016826Y-103697255D01*
X138014495Y-103692129D01*
X138010820Y-103687864D01*
X138010818Y-103687861D01*
X137922716Y-103585615D01*
X137919041Y-103581350D01*
X137867798Y-103548136D01*
X137801054Y-103504874D01*
X137801051Y-103504872D01*
X137796332Y-103501814D01*
X137709425Y-103475823D01*
X137661621Y-103461526D01*
X137661619Y-103461526D01*
X137656233Y-103459915D01*
X137583711Y-103459472D01*
X137515630Y-103459056D01*
X137515628Y-103459056D01*
X137510005Y-103459022D01*
X137369404Y-103499206D01*
X137364645Y-103502209D01*
X137253080Y-103572601D01*
X137245732Y-103577237D01*
X137242011Y-103581450D01*
X137242010Y-103581451D01*
X137157618Y-103677006D01*
X137148932Y-103686841D01*
X137086786Y-103819209D01*
X137064288Y-103963699D01*
X137068522Y-103996073D01*
X137081123Y-104092435D01*
X137083249Y-104108695D01*
X137142143Y-104242542D01*
X137236236Y-104354479D01*
X137240922Y-104357598D01*
X137240924Y-104357600D01*
X137255239Y-104367129D01*
X137287268Y-104410653D01*
X137290083Y-104440635D01*
X137281533Y-104527440D01*
X137278511Y-104542628D01*
X137242372Y-104661763D01*
X137236446Y-104676071D01*
X137177752Y-104785880D01*
X137169149Y-104798756D01*
X137153974Y-104817247D01*
X137102318Y-104880189D01*
X137091504Y-104890208D01*
X137087777Y-104893935D01*
X137082114Y-104897900D01*
X137078150Y-104903561D01*
X137078149Y-104903562D01*
X137076012Y-104906614D01*
X137056614Y-104926012D01*
X137047900Y-104932114D01*
X137043935Y-104937777D01*
X137040208Y-104941504D01*
X137030189Y-104952318D01*
X136948757Y-105019148D01*
X136935880Y-105027752D01*
X136826071Y-105086446D01*
X136811763Y-105092372D01*
X136692628Y-105128511D01*
X136677439Y-105131533D01*
X136572599Y-105141859D01*
X136557850Y-105141296D01*
X136552591Y-105141296D01*
X136545786Y-105140096D01*
X136538980Y-105141296D01*
X136527615Y-105143300D01*
X136513897Y-105144500D01*
X132026103Y-105144500D01*
X132012385Y-105143300D01*
X132001020Y-105141296D01*
X131994214Y-105140096D01*
X131987409Y-105141296D01*
X131982150Y-105141296D01*
X131967401Y-105141859D01*
X131862561Y-105131533D01*
X131847372Y-105128511D01*
X131728237Y-105092372D01*
X131713929Y-105086446D01*
X131604120Y-105027752D01*
X131591243Y-105019148D01*
X131509811Y-104952318D01*
X131499780Y-104941491D01*
X131496063Y-104937774D01*
X131492100Y-104932114D01*
X131476986Y-104921532D01*
X131466438Y-104912680D01*
X131412321Y-104858563D01*
X131403468Y-104848013D01*
X131396851Y-104838562D01*
X131396850Y-104838561D01*
X131392886Y-104832900D01*
X131387223Y-104828935D01*
X131383496Y-104825208D01*
X131372682Y-104815189D01*
X131305852Y-104733757D01*
X131297248Y-104720880D01*
X131238554Y-104611071D01*
X131232628Y-104596763D01*
X131213443Y-104533518D01*
X131216389Y-104479559D01*
X131253330Y-104440118D01*
X131259167Y-104437515D01*
X131262190Y-104436671D01*
X131265639Y-104434929D01*
X131435619Y-104349066D01*
X131435621Y-104349065D01*
X131439073Y-104347321D01*
X131547540Y-104262577D01*
X131592190Y-104227693D01*
X131592192Y-104227691D01*
X131595232Y-104225316D01*
X131623707Y-104192327D01*
X131722196Y-104078228D01*
X131722200Y-104078223D01*
X131724720Y-104075303D01*
X131726626Y-104071947D01*
X131726630Y-104071942D01*
X131809489Y-103926083D01*
X131822604Y-103902996D01*
X131834503Y-103867226D01*
X131883935Y-103718630D01*
X131883936Y-103718625D01*
X131885156Y-103714958D01*
X131885912Y-103708978D01*
X131897191Y-103619691D01*
X131909993Y-103518351D01*
X131910389Y-103490000D01*
X131908999Y-103475823D01*
X132169710Y-103475823D01*
X132171926Y-103502209D01*
X132184352Y-103650188D01*
X132186292Y-103673297D01*
X132203070Y-103731809D01*
X132239184Y-103857752D01*
X132240915Y-103863790D01*
X132331498Y-104040045D01*
X132454590Y-104195348D01*
X132605504Y-104323786D01*
X132608878Y-104325672D01*
X132608880Y-104325673D01*
X132660422Y-104354479D01*
X132778490Y-104420465D01*
X132782152Y-104421655D01*
X132782157Y-104421657D01*
X132887964Y-104456035D01*
X132966960Y-104481702D01*
X132970797Y-104482160D01*
X132970799Y-104482160D01*
X133159892Y-104504708D01*
X133159895Y-104504708D01*
X133163735Y-104505166D01*
X133361320Y-104489963D01*
X133371614Y-104487089D01*
X133482836Y-104456035D01*
X133552190Y-104436671D01*
X133683986Y-104370096D01*
X133725619Y-104349066D01*
X133725621Y-104349065D01*
X133729073Y-104347321D01*
X133837540Y-104262577D01*
X133882190Y-104227693D01*
X133882192Y-104227691D01*
X133885232Y-104225316D01*
X133913707Y-104192327D01*
X134012196Y-104078228D01*
X134012200Y-104078223D01*
X134014720Y-104075303D01*
X134016626Y-104071947D01*
X134016630Y-104071942D01*
X134099489Y-103926083D01*
X134112604Y-103902996D01*
X134124503Y-103867226D01*
X134173935Y-103718630D01*
X134173936Y-103718625D01*
X134175156Y-103714958D01*
X134175912Y-103708978D01*
X134187191Y-103619691D01*
X134199993Y-103518351D01*
X134200389Y-103490000D01*
X134198999Y-103475823D01*
X134459710Y-103475823D01*
X134461926Y-103502209D01*
X134474352Y-103650188D01*
X134476292Y-103673297D01*
X134493070Y-103731809D01*
X134529184Y-103857752D01*
X134530915Y-103863790D01*
X134621498Y-104040045D01*
X134744590Y-104195348D01*
X134895504Y-104323786D01*
X134898878Y-104325672D01*
X134898880Y-104325673D01*
X134950422Y-104354479D01*
X135068490Y-104420465D01*
X135072152Y-104421655D01*
X135072157Y-104421657D01*
X135177964Y-104456035D01*
X135256960Y-104481702D01*
X135260797Y-104482160D01*
X135260799Y-104482160D01*
X135449892Y-104504708D01*
X135449895Y-104504708D01*
X135453735Y-104505166D01*
X135651320Y-104489963D01*
X135661614Y-104487089D01*
X135772836Y-104456035D01*
X135842190Y-104436671D01*
X135973986Y-104370096D01*
X136015619Y-104349066D01*
X136015621Y-104349065D01*
X136019073Y-104347321D01*
X136127540Y-104262577D01*
X136172190Y-104227693D01*
X136172192Y-104227691D01*
X136175232Y-104225316D01*
X136203707Y-104192327D01*
X136302196Y-104078228D01*
X136302200Y-104078223D01*
X136304720Y-104075303D01*
X136306626Y-104071947D01*
X136306630Y-104071942D01*
X136389489Y-103926083D01*
X136402604Y-103902996D01*
X136414503Y-103867226D01*
X136463935Y-103718630D01*
X136463936Y-103718625D01*
X136465156Y-103714958D01*
X136465912Y-103708978D01*
X136477191Y-103619691D01*
X136489993Y-103518351D01*
X136490389Y-103490000D01*
X136474363Y-103326551D01*
X136471428Y-103296621D01*
X136471428Y-103296620D01*
X136471051Y-103292777D01*
X136469385Y-103287257D01*
X136433466Y-103168289D01*
X136413774Y-103103065D01*
X136411963Y-103099660D01*
X136411961Y-103099654D01*
X136322551Y-102931500D01*
X136320739Y-102928092D01*
X136315617Y-102921811D01*
X136197930Y-102777514D01*
X136195490Y-102774522D01*
X136183415Y-102764532D01*
X136045773Y-102650665D01*
X136045772Y-102650664D01*
X136042798Y-102648204D01*
X136024979Y-102638569D01*
X135922252Y-102583025D01*
X135868479Y-102553950D01*
X135679172Y-102495350D01*
X135482089Y-102474636D01*
X135478243Y-102474986D01*
X135478242Y-102474986D01*
X135436036Y-102478827D01*
X135284735Y-102492596D01*
X135281028Y-102493687D01*
X135098338Y-102547456D01*
X135098335Y-102547457D01*
X135094629Y-102548548D01*
X134919010Y-102640359D01*
X134916003Y-102642777D01*
X134916001Y-102642778D01*
X134839988Y-102703894D01*
X134764570Y-102764532D01*
X134637189Y-102916339D01*
X134635327Y-102919727D01*
X134635325Y-102919729D01*
X134566359Y-103045178D01*
X134541720Y-103089996D01*
X134481800Y-103278889D01*
X134459710Y-103475823D01*
X134198999Y-103475823D01*
X134184363Y-103326551D01*
X134181428Y-103296621D01*
X134181428Y-103296620D01*
X134181051Y-103292777D01*
X134179385Y-103287257D01*
X134143466Y-103168289D01*
X134123774Y-103103065D01*
X134121963Y-103099660D01*
X134121961Y-103099654D01*
X134032551Y-102931500D01*
X134030739Y-102928092D01*
X134025617Y-102921811D01*
X133907930Y-102777514D01*
X133905490Y-102774522D01*
X133893415Y-102764532D01*
X133755773Y-102650665D01*
X133755772Y-102650664D01*
X133752798Y-102648204D01*
X133734979Y-102638569D01*
X133632252Y-102583025D01*
X133578479Y-102553950D01*
X133389172Y-102495350D01*
X133192089Y-102474636D01*
X133188243Y-102474986D01*
X133188242Y-102474986D01*
X133146036Y-102478827D01*
X132994735Y-102492596D01*
X132991028Y-102493687D01*
X132808338Y-102547456D01*
X132808335Y-102547457D01*
X132804629Y-102548548D01*
X132629010Y-102640359D01*
X132626003Y-102642777D01*
X132626001Y-102642778D01*
X132549988Y-102703894D01*
X132474570Y-102764532D01*
X132347189Y-102916339D01*
X132345327Y-102919727D01*
X132345325Y-102919729D01*
X132276359Y-103045178D01*
X132251720Y-103089996D01*
X132191800Y-103278889D01*
X132169710Y-103475823D01*
X131908999Y-103475823D01*
X131894363Y-103326551D01*
X131891428Y-103296621D01*
X131891428Y-103296620D01*
X131891051Y-103292777D01*
X131889385Y-103287257D01*
X131853466Y-103168289D01*
X131833774Y-103103065D01*
X131831963Y-103099660D01*
X131831961Y-103099654D01*
X131742551Y-102931500D01*
X131740739Y-102928092D01*
X131735617Y-102921811D01*
X131617930Y-102777514D01*
X131615490Y-102774522D01*
X131603415Y-102764532D01*
X131465773Y-102650665D01*
X131465772Y-102650664D01*
X131462798Y-102648204D01*
X131444979Y-102638569D01*
X131342252Y-102583025D01*
X131288479Y-102553950D01*
X131099172Y-102495350D01*
X130902089Y-102474636D01*
X130898243Y-102474986D01*
X130898242Y-102474986D01*
X130856036Y-102478827D01*
X130704735Y-102492596D01*
X130701028Y-102493687D01*
X130518338Y-102547456D01*
X130518335Y-102547457D01*
X130514629Y-102548548D01*
X130339010Y-102640359D01*
X130336003Y-102642777D01*
X130336001Y-102642778D01*
X130259988Y-102703894D01*
X130184570Y-102764532D01*
X130057189Y-102916339D01*
X130055327Y-102919727D01*
X130055325Y-102919729D01*
X129986359Y-103045178D01*
X129961720Y-103089996D01*
X129901800Y-103278889D01*
X129879710Y-103475823D01*
X129618999Y-103475823D01*
X129604363Y-103326551D01*
X129601428Y-103296621D01*
X129601428Y-103296620D01*
X129601051Y-103292777D01*
X129599385Y-103287257D01*
X129563466Y-103168289D01*
X129543774Y-103103065D01*
X129541963Y-103099660D01*
X129541961Y-103099654D01*
X129452551Y-102931500D01*
X129450739Y-102928092D01*
X129445617Y-102921811D01*
X129327930Y-102777514D01*
X129325490Y-102774522D01*
X129313415Y-102764532D01*
X129175773Y-102650665D01*
X129175772Y-102650664D01*
X129172798Y-102648204D01*
X129154979Y-102638569D01*
X129052252Y-102583025D01*
X128998479Y-102553950D01*
X128809172Y-102495350D01*
X128612089Y-102474636D01*
X128608243Y-102474986D01*
X128608242Y-102474986D01*
X128566036Y-102478827D01*
X128414735Y-102492596D01*
X128411028Y-102493687D01*
X128228338Y-102547456D01*
X128228335Y-102547457D01*
X128224629Y-102548548D01*
X128049010Y-102640359D01*
X128046003Y-102642777D01*
X128046001Y-102642778D01*
X127969988Y-102703894D01*
X127894570Y-102764532D01*
X127767189Y-102916339D01*
X127765327Y-102919727D01*
X127765325Y-102919729D01*
X127696359Y-103045178D01*
X127671720Y-103089996D01*
X127611800Y-103278889D01*
X127589710Y-103475823D01*
X127591926Y-103502209D01*
X127604352Y-103650188D01*
X127606292Y-103673297D01*
X127623070Y-103731809D01*
X127659184Y-103857752D01*
X127660915Y-103863790D01*
X127662677Y-103867219D01*
X127662680Y-103867226D01*
X127692814Y-103925858D01*
X127699588Y-103979471D01*
X127678412Y-104017831D01*
X127240207Y-104456035D01*
X126803568Y-104892674D01*
X126793020Y-104901526D01*
X126777899Y-104912114D01*
X126773933Y-104917778D01*
X126770206Y-104921505D01*
X126760188Y-104932319D01*
X126678755Y-104999149D01*
X126665878Y-105007753D01*
X126556073Y-105066445D01*
X126541765Y-105072371D01*
X126422627Y-105108510D01*
X126407439Y-105111532D01*
X126370891Y-105115132D01*
X126302593Y-105121859D01*
X126287876Y-105121296D01*
X126282593Y-105121296D01*
X126275787Y-105120096D01*
X126268981Y-105121296D01*
X126257616Y-105123300D01*
X126243898Y-105124500D01*
X124176103Y-105124500D01*
X124162385Y-105123300D01*
X124151020Y-105121296D01*
X124144214Y-105120096D01*
X124137409Y-105121296D01*
X124132150Y-105121296D01*
X124117401Y-105121859D01*
X124012561Y-105111533D01*
X123997372Y-105108511D01*
X123878237Y-105072372D01*
X123863929Y-105066446D01*
X123754120Y-105007752D01*
X123741243Y-104999148D01*
X123659811Y-104932318D01*
X123649780Y-104921491D01*
X123646063Y-104917774D01*
X123642100Y-104912114D01*
X123626979Y-104901526D01*
X123616437Y-104892679D01*
X122967326Y-104243568D01*
X122958474Y-104233020D01*
X122953079Y-104225316D01*
X122947886Y-104217899D01*
X122942222Y-104213933D01*
X122938495Y-104210206D01*
X122927681Y-104200188D01*
X122909630Y-104178192D01*
X122867457Y-104126805D01*
X122860851Y-104118755D01*
X122852247Y-104105878D01*
X122793555Y-103996073D01*
X122787629Y-103981765D01*
X122751490Y-103862627D01*
X122748468Y-103847439D01*
X122741611Y-103777821D01*
X122738141Y-103742593D01*
X122738704Y-103727876D01*
X122738704Y-103722593D01*
X122739904Y-103715787D01*
X122736700Y-103697614D01*
X122735500Y-103683898D01*
X122735500Y-103475823D01*
X125299710Y-103475823D01*
X125301926Y-103502209D01*
X125314352Y-103650188D01*
X125316292Y-103673297D01*
X125333070Y-103731809D01*
X125369184Y-103857752D01*
X125370915Y-103863790D01*
X125461498Y-104040045D01*
X125584590Y-104195348D01*
X125735504Y-104323786D01*
X125738878Y-104325672D01*
X125738880Y-104325673D01*
X125790422Y-104354479D01*
X125908490Y-104420465D01*
X125912152Y-104421655D01*
X125912157Y-104421657D01*
X126017964Y-104456035D01*
X126096960Y-104481702D01*
X126100797Y-104482160D01*
X126100799Y-104482160D01*
X126289892Y-104504708D01*
X126289895Y-104504708D01*
X126293735Y-104505166D01*
X126491320Y-104489963D01*
X126501614Y-104487089D01*
X126612836Y-104456035D01*
X126682190Y-104436671D01*
X126813986Y-104370096D01*
X126855619Y-104349066D01*
X126855621Y-104349065D01*
X126859073Y-104347321D01*
X126967540Y-104262577D01*
X127012190Y-104227693D01*
X127012192Y-104227691D01*
X127015232Y-104225316D01*
X127043707Y-104192327D01*
X127142196Y-104078228D01*
X127142200Y-104078223D01*
X127144720Y-104075303D01*
X127146626Y-104071947D01*
X127146630Y-104071942D01*
X127229489Y-103926083D01*
X127242604Y-103902996D01*
X127254503Y-103867226D01*
X127303935Y-103718630D01*
X127303936Y-103718625D01*
X127305156Y-103714958D01*
X127305912Y-103708978D01*
X127317191Y-103619691D01*
X127329993Y-103518351D01*
X127330389Y-103490000D01*
X127314363Y-103326551D01*
X127311428Y-103296621D01*
X127311428Y-103296620D01*
X127311051Y-103292777D01*
X127309385Y-103287257D01*
X127273466Y-103168289D01*
X127253774Y-103103065D01*
X127251963Y-103099660D01*
X127251961Y-103099654D01*
X127162551Y-102931500D01*
X127160739Y-102928092D01*
X127155617Y-102921811D01*
X127037930Y-102777514D01*
X127035490Y-102774522D01*
X127023415Y-102764532D01*
X126885773Y-102650665D01*
X126885772Y-102650664D01*
X126882798Y-102648204D01*
X126864979Y-102638569D01*
X126762252Y-102583025D01*
X126708479Y-102553950D01*
X126519172Y-102495350D01*
X126322089Y-102474636D01*
X126318243Y-102474986D01*
X126318242Y-102474986D01*
X126276036Y-102478827D01*
X126124735Y-102492596D01*
X126121028Y-102493687D01*
X125938338Y-102547456D01*
X125938335Y-102547457D01*
X125934629Y-102548548D01*
X125759010Y-102640359D01*
X125756003Y-102642777D01*
X125756001Y-102642778D01*
X125679988Y-102703894D01*
X125604570Y-102764532D01*
X125477189Y-102916339D01*
X125475327Y-102919727D01*
X125475325Y-102919729D01*
X125406359Y-103045178D01*
X125381720Y-103089996D01*
X125321800Y-103278889D01*
X125299710Y-103475823D01*
X122735500Y-103475823D01*
X122735500Y-102445169D01*
X124593878Y-102445169D01*
X124594823Y-102448698D01*
X124594934Y-102448807D01*
X124639863Y-102478827D01*
X124646204Y-102482270D01*
X124825297Y-102559214D01*
X124832161Y-102561444D01*
X125022274Y-102604463D01*
X125029425Y-102605404D01*
X125224191Y-102613057D01*
X125231408Y-102612678D01*
X125424304Y-102584710D01*
X125431321Y-102583025D01*
X125615896Y-102520371D01*
X125622488Y-102517436D01*
X125739432Y-102451944D01*
X125745270Y-102445169D01*
X126883878Y-102445169D01*
X126884823Y-102448698D01*
X126884934Y-102448807D01*
X126929863Y-102478827D01*
X126936204Y-102482270D01*
X127115297Y-102559214D01*
X127122161Y-102561444D01*
X127312274Y-102604463D01*
X127319425Y-102605404D01*
X127514191Y-102613057D01*
X127521408Y-102612678D01*
X127714304Y-102584710D01*
X127721321Y-102583025D01*
X127905896Y-102520371D01*
X127912488Y-102517436D01*
X128029432Y-102451944D01*
X128035270Y-102445169D01*
X129173878Y-102445169D01*
X129174823Y-102448698D01*
X129174934Y-102448807D01*
X129219863Y-102478827D01*
X129226204Y-102482270D01*
X129405297Y-102559214D01*
X129412161Y-102561444D01*
X129602274Y-102604463D01*
X129609425Y-102605404D01*
X129804191Y-102613057D01*
X129811408Y-102612678D01*
X130004304Y-102584710D01*
X130011321Y-102583025D01*
X130195896Y-102520371D01*
X130202488Y-102517436D01*
X130319432Y-102451944D01*
X130326844Y-102443342D01*
X130326870Y-102441364D01*
X130325282Y-102438835D01*
X129759851Y-101873404D01*
X129749557Y-101868604D01*
X129743263Y-101870290D01*
X129178678Y-102434875D01*
X129173878Y-102445169D01*
X128035270Y-102445169D01*
X128036844Y-102443342D01*
X128036870Y-102441364D01*
X128035282Y-102438835D01*
X127469851Y-101873404D01*
X127459557Y-101868604D01*
X127453263Y-101870290D01*
X126888678Y-102434875D01*
X126883878Y-102445169D01*
X125745270Y-102445169D01*
X125746844Y-102443342D01*
X125746870Y-102441364D01*
X125745282Y-102438835D01*
X125179851Y-101873404D01*
X125169557Y-101868604D01*
X125163263Y-101870290D01*
X124598678Y-102434875D01*
X124593878Y-102445169D01*
X122735500Y-102445169D01*
X122735500Y-101484698D01*
X124065903Y-101484698D01*
X124078651Y-101679201D01*
X124079780Y-101686328D01*
X124127759Y-101875243D01*
X124130172Y-101882057D01*
X124211774Y-102059068D01*
X124215377Y-102065308D01*
X124226287Y-102080746D01*
X124235617Y-102087218D01*
X124239595Y-102086852D01*
X124806596Y-101519851D01*
X124810983Y-101510443D01*
X125528604Y-101510443D01*
X125530290Y-101516737D01*
X126095287Y-102081734D01*
X126105581Y-102086534D01*
X126107491Y-102086023D01*
X126109493Y-102083808D01*
X126177436Y-101962488D01*
X126180371Y-101955896D01*
X126242153Y-101773891D01*
X126275977Y-101731747D01*
X126328978Y-101721204D01*
X126376355Y-101747197D01*
X126393529Y-101779839D01*
X126417759Y-101875243D01*
X126420172Y-101882057D01*
X126501774Y-102059068D01*
X126505377Y-102065308D01*
X126516287Y-102080746D01*
X126525617Y-102087218D01*
X126529595Y-102086852D01*
X127096596Y-101519851D01*
X127100983Y-101510443D01*
X127818604Y-101510443D01*
X127820290Y-101516737D01*
X128385287Y-102081734D01*
X128395581Y-102086534D01*
X128397491Y-102086023D01*
X128399493Y-102083808D01*
X128467436Y-101962488D01*
X128470371Y-101955896D01*
X128532153Y-101773891D01*
X128565977Y-101731747D01*
X128618978Y-101721204D01*
X128666355Y-101747197D01*
X128683529Y-101779839D01*
X128707759Y-101875243D01*
X128710172Y-101882057D01*
X128791774Y-102059068D01*
X128795377Y-102065308D01*
X128806287Y-102080746D01*
X128815617Y-102087218D01*
X128819595Y-102086852D01*
X129386596Y-101519851D01*
X129390983Y-101510443D01*
X130108604Y-101510443D01*
X130110290Y-101516737D01*
X130675287Y-102081734D01*
X130685581Y-102086534D01*
X130687491Y-102086023D01*
X130689493Y-102083808D01*
X130757436Y-101962488D01*
X130760371Y-101955896D01*
X130823025Y-101771321D01*
X130824710Y-101764304D01*
X130852864Y-101570127D01*
X130853260Y-101565486D01*
X130854652Y-101512327D01*
X130854500Y-101507685D01*
X130853410Y-101495823D01*
X131024710Y-101495823D01*
X131041292Y-101693297D01*
X131053238Y-101734958D01*
X131094818Y-101879963D01*
X131095915Y-101883790D01*
X131186498Y-102060045D01*
X131309590Y-102215348D01*
X131460504Y-102343786D01*
X131463878Y-102345672D01*
X131463880Y-102345673D01*
X131514635Y-102374039D01*
X131633490Y-102440465D01*
X131637152Y-102441655D01*
X131637157Y-102441657D01*
X131739736Y-102474986D01*
X131821960Y-102501702D01*
X131825797Y-102502160D01*
X131825799Y-102502160D01*
X132014892Y-102524708D01*
X132014895Y-102524708D01*
X132018735Y-102525166D01*
X132216320Y-102509963D01*
X132407190Y-102456671D01*
X132429960Y-102445169D01*
X133753878Y-102445169D01*
X133754823Y-102448698D01*
X133754934Y-102448807D01*
X133799863Y-102478827D01*
X133806204Y-102482270D01*
X133985297Y-102559214D01*
X133992161Y-102561444D01*
X134182274Y-102604463D01*
X134189425Y-102605404D01*
X134384191Y-102613057D01*
X134391408Y-102612678D01*
X134584304Y-102584710D01*
X134591321Y-102583025D01*
X134775896Y-102520371D01*
X134782488Y-102517436D01*
X134899432Y-102451944D01*
X134906844Y-102443342D01*
X134906870Y-102441364D01*
X134905282Y-102438835D01*
X134339851Y-101873404D01*
X134329557Y-101868604D01*
X134323263Y-101870290D01*
X133758678Y-102434875D01*
X133753878Y-102445169D01*
X132429960Y-102445169D01*
X132501858Y-102408851D01*
X132580619Y-102369066D01*
X132580621Y-102369065D01*
X132584073Y-102367321D01*
X132740232Y-102245316D01*
X132825214Y-102146864D01*
X132867196Y-102098228D01*
X132867200Y-102098223D01*
X132869720Y-102095303D01*
X132871626Y-102091947D01*
X132871630Y-102091942D01*
X132965695Y-101926356D01*
X132967604Y-101922996D01*
X132968824Y-101919329D01*
X133028935Y-101738630D01*
X133028936Y-101738625D01*
X133030156Y-101734958D01*
X133054993Y-101538351D01*
X133055389Y-101510000D01*
X133052908Y-101484698D01*
X133225903Y-101484698D01*
X133238651Y-101679201D01*
X133239780Y-101686328D01*
X133287759Y-101875243D01*
X133290172Y-101882057D01*
X133371774Y-102059068D01*
X133375377Y-102065308D01*
X133386287Y-102080746D01*
X133395617Y-102087218D01*
X133399595Y-102086852D01*
X133966596Y-101519851D01*
X133970983Y-101510443D01*
X134688604Y-101510443D01*
X134690290Y-101516737D01*
X135255287Y-102081734D01*
X135265581Y-102086534D01*
X135267491Y-102086023D01*
X135269493Y-102083808D01*
X135337436Y-101962488D01*
X135340371Y-101955896D01*
X135403025Y-101771321D01*
X135404710Y-101764304D01*
X135432864Y-101570127D01*
X135433260Y-101565486D01*
X135434652Y-101512327D01*
X135434500Y-101507685D01*
X135416545Y-101312288D01*
X135415230Y-101305195D01*
X135362321Y-101117592D01*
X135359736Y-101110858D01*
X135273698Y-100936389D01*
X135265990Y-100931336D01*
X135261710Y-100931843D01*
X134693404Y-101500149D01*
X134688604Y-101510443D01*
X133970983Y-101510443D01*
X133971396Y-101509557D01*
X133969710Y-101503263D01*
X133403455Y-100937008D01*
X133393161Y-100932208D01*
X133391797Y-100932573D01*
X133389208Y-100935512D01*
X133311066Y-101084037D01*
X133308304Y-101090703D01*
X133250502Y-101276857D01*
X133249002Y-101283919D01*
X133226092Y-101477481D01*
X133225903Y-101484698D01*
X133052908Y-101484698D01*
X133036051Y-101312777D01*
X132978774Y-101123065D01*
X132976963Y-101119660D01*
X132976961Y-101119654D01*
X132887551Y-100951500D01*
X132885739Y-100948092D01*
X132878919Y-100939729D01*
X132762930Y-100797514D01*
X132760490Y-100794522D01*
X132748415Y-100784532D01*
X132610773Y-100670665D01*
X132610772Y-100670664D01*
X132607798Y-100668204D01*
X132589979Y-100658569D01*
X132533805Y-100628196D01*
X132439532Y-100577223D01*
X133753890Y-100577223D01*
X133753923Y-100579759D01*
X133755040Y-100581487D01*
X134320149Y-101146596D01*
X134330443Y-101151396D01*
X134336737Y-101149710D01*
X134900912Y-100585535D01*
X134909270Y-100567611D01*
X134947482Y-100529399D01*
X135001315Y-100524690D01*
X135012053Y-100528413D01*
X135130297Y-100579214D01*
X135137161Y-100581444D01*
X135327274Y-100624463D01*
X135334425Y-100625404D01*
X135529191Y-100633057D01*
X135536408Y-100632678D01*
X135729304Y-100604710D01*
X135736321Y-100603025D01*
X135920896Y-100540371D01*
X135927488Y-100537436D01*
X136044432Y-100471944D01*
X136051844Y-100463342D01*
X136051870Y-100461364D01*
X136050282Y-100458835D01*
X135484851Y-99893404D01*
X135474557Y-99888604D01*
X135468263Y-99890290D01*
X134903678Y-100454875D01*
X134896062Y-100471207D01*
X134857851Y-100509418D01*
X134804017Y-100514128D01*
X134795190Y-100511196D01*
X134647121Y-100452122D01*
X134640200Y-100450072D01*
X134449024Y-100412045D01*
X134441854Y-100411292D01*
X134246952Y-100408739D01*
X134239752Y-100409306D01*
X134047653Y-100442315D01*
X134040675Y-100444185D01*
X133857805Y-100511649D01*
X133851298Y-100514753D01*
X133761076Y-100568429D01*
X133753890Y-100577223D01*
X132439532Y-100577223D01*
X132433479Y-100573950D01*
X132244172Y-100515350D01*
X132047089Y-100494636D01*
X132043243Y-100494986D01*
X132043242Y-100494986D01*
X132035243Y-100495714D01*
X131849735Y-100512596D01*
X131846028Y-100513687D01*
X131663338Y-100567456D01*
X131663335Y-100567457D01*
X131659629Y-100568548D01*
X131656202Y-100570340D01*
X131656201Y-100570340D01*
X131644192Y-100576618D01*
X131484010Y-100660359D01*
X131481003Y-100662777D01*
X131481001Y-100662778D01*
X131471192Y-100670665D01*
X131329570Y-100784532D01*
X131318677Y-100797514D01*
X131205962Y-100931843D01*
X131202189Y-100936339D01*
X131200327Y-100939727D01*
X131200325Y-100939729D01*
X131193854Y-100951500D01*
X131106720Y-101109996D01*
X131046800Y-101298889D01*
X131024710Y-101495823D01*
X130853410Y-101495823D01*
X130836545Y-101312288D01*
X130835230Y-101305195D01*
X130782321Y-101117592D01*
X130779736Y-101110858D01*
X130693698Y-100936389D01*
X130685990Y-100931336D01*
X130681710Y-100931843D01*
X130113404Y-101500149D01*
X130108604Y-101510443D01*
X129390983Y-101510443D01*
X129391396Y-101509557D01*
X129389710Y-101503263D01*
X128823455Y-100937008D01*
X128813161Y-100932208D01*
X128811797Y-100932573D01*
X128809208Y-100935512D01*
X128731066Y-101084037D01*
X128728304Y-101090702D01*
X128679756Y-101247056D01*
X128647046Y-101290071D01*
X128594340Y-101301997D01*
X128546298Y-101277254D01*
X128528275Y-101245073D01*
X128492321Y-101117592D01*
X128489736Y-101110858D01*
X128403698Y-100936389D01*
X128395990Y-100931336D01*
X128391710Y-100931843D01*
X127823404Y-101500149D01*
X127818604Y-101510443D01*
X127100983Y-101510443D01*
X127101396Y-101509557D01*
X127099710Y-101503263D01*
X126533455Y-100937008D01*
X126523161Y-100932208D01*
X126521797Y-100932573D01*
X126519208Y-100935512D01*
X126441066Y-101084037D01*
X126438304Y-101090702D01*
X126389756Y-101247056D01*
X126357046Y-101290071D01*
X126304340Y-101301997D01*
X126256298Y-101277254D01*
X126238275Y-101245073D01*
X126202321Y-101117592D01*
X126199736Y-101110858D01*
X126113698Y-100936389D01*
X126105990Y-100931336D01*
X126101710Y-100931843D01*
X125533404Y-101500149D01*
X125528604Y-101510443D01*
X124810983Y-101510443D01*
X124811396Y-101509557D01*
X124809710Y-101503263D01*
X124243455Y-100937008D01*
X124233161Y-100932208D01*
X124231797Y-100932573D01*
X124229208Y-100935512D01*
X124151066Y-101084037D01*
X124148304Y-101090703D01*
X124090502Y-101276857D01*
X124089002Y-101283919D01*
X124066092Y-101477481D01*
X124065903Y-101484698D01*
X122735500Y-101484698D01*
X122735500Y-100577223D01*
X124593890Y-100577223D01*
X124593923Y-100579759D01*
X124595040Y-100581487D01*
X125160149Y-101146596D01*
X125170443Y-101151396D01*
X125176737Y-101149710D01*
X125750762Y-100575685D01*
X125750916Y-100575839D01*
X125778852Y-100547902D01*
X125812240Y-100540500D01*
X126815544Y-100540500D01*
X126866324Y-100558982D01*
X126881892Y-100576618D01*
X126885037Y-100581484D01*
X127450149Y-101146596D01*
X127460443Y-101151396D01*
X127466737Y-101149710D01*
X128030911Y-100585536D01*
X128034787Y-100577223D01*
X129173890Y-100577223D01*
X129173923Y-100579759D01*
X129175040Y-100581487D01*
X129740149Y-101146596D01*
X129750443Y-101151396D01*
X129756737Y-101149710D01*
X130320911Y-100585536D01*
X130325711Y-100575242D01*
X130324909Y-100572250D01*
X130324111Y-100571488D01*
X130254590Y-100527625D01*
X130248167Y-100524353D01*
X130067121Y-100452122D01*
X130060200Y-100450072D01*
X129869024Y-100412045D01*
X129861854Y-100411292D01*
X129666952Y-100408739D01*
X129659752Y-100409306D01*
X129467653Y-100442315D01*
X129460675Y-100444185D01*
X129277805Y-100511649D01*
X129271298Y-100514753D01*
X129181076Y-100568429D01*
X129173890Y-100577223D01*
X128034787Y-100577223D01*
X128035711Y-100575242D01*
X128034909Y-100572250D01*
X128034111Y-100571488D01*
X127964590Y-100527625D01*
X127958167Y-100524353D01*
X127777121Y-100452122D01*
X127770200Y-100450072D01*
X127579024Y-100412045D01*
X127571854Y-100411292D01*
X127403466Y-100409087D01*
X127352932Y-100389942D01*
X127326527Y-100342793D01*
X127325500Y-100330094D01*
X127325500Y-99515823D01*
X127589710Y-99515823D01*
X127606292Y-99713297D01*
X127660915Y-99903790D01*
X127751498Y-100080045D01*
X127874590Y-100235348D01*
X128025504Y-100363786D01*
X128198490Y-100460465D01*
X128202152Y-100461655D01*
X128202157Y-100461657D01*
X128304736Y-100494986D01*
X128386960Y-100521702D01*
X128390797Y-100522160D01*
X128390799Y-100522160D01*
X128579892Y-100544708D01*
X128579895Y-100544708D01*
X128583735Y-100545166D01*
X128781320Y-100529963D01*
X128786872Y-100528413D01*
X128854904Y-100509418D01*
X128972190Y-100476671D01*
X129100128Y-100412045D01*
X129145619Y-100389066D01*
X129145621Y-100389065D01*
X129149073Y-100387321D01*
X129305232Y-100265316D01*
X129360655Y-100201108D01*
X129432196Y-100118228D01*
X129432200Y-100118223D01*
X129434720Y-100115303D01*
X129436626Y-100111947D01*
X129436630Y-100111942D01*
X129530695Y-99946356D01*
X129532604Y-99942996D01*
X129533824Y-99939329D01*
X129593935Y-99758630D01*
X129593936Y-99758625D01*
X129595156Y-99754958D01*
X129599400Y-99721367D01*
X129602926Y-99693449D01*
X129619993Y-99558351D01*
X129620389Y-99530000D01*
X129618999Y-99515823D01*
X129879710Y-99515823D01*
X129896292Y-99713297D01*
X129950915Y-99903790D01*
X130041498Y-100080045D01*
X130164590Y-100235348D01*
X130315504Y-100363786D01*
X130488490Y-100460465D01*
X130492152Y-100461655D01*
X130492157Y-100461657D01*
X130594736Y-100494986D01*
X130676960Y-100521702D01*
X130680797Y-100522160D01*
X130680799Y-100522160D01*
X130869892Y-100544708D01*
X130869895Y-100544708D01*
X130873735Y-100545166D01*
X131071320Y-100529963D01*
X131076872Y-100528413D01*
X131144904Y-100509418D01*
X131262190Y-100476671D01*
X131390128Y-100412045D01*
X131435619Y-100389066D01*
X131435621Y-100389065D01*
X131439073Y-100387321D01*
X131595232Y-100265316D01*
X131650655Y-100201108D01*
X131722196Y-100118228D01*
X131722200Y-100118223D01*
X131724720Y-100115303D01*
X131726626Y-100111947D01*
X131726630Y-100111942D01*
X131820695Y-99946356D01*
X131822604Y-99942996D01*
X131823824Y-99939329D01*
X131883935Y-99758630D01*
X131883936Y-99758625D01*
X131885156Y-99754958D01*
X131889400Y-99721367D01*
X131892926Y-99693449D01*
X131909993Y-99558351D01*
X131910389Y-99530000D01*
X131908999Y-99515823D01*
X132169710Y-99515823D01*
X132186292Y-99713297D01*
X132240915Y-99903790D01*
X132331498Y-100080045D01*
X132454590Y-100235348D01*
X132605504Y-100363786D01*
X132778490Y-100460465D01*
X132782152Y-100461655D01*
X132782157Y-100461657D01*
X132884736Y-100494986D01*
X132966960Y-100521702D01*
X132970797Y-100522160D01*
X132970799Y-100522160D01*
X133159892Y-100544708D01*
X133159895Y-100544708D01*
X133163735Y-100545166D01*
X133361320Y-100529963D01*
X133366872Y-100528413D01*
X133434904Y-100509418D01*
X133552190Y-100476671D01*
X133680128Y-100412045D01*
X133725619Y-100389066D01*
X133725621Y-100389065D01*
X133729073Y-100387321D01*
X133885232Y-100265316D01*
X133940655Y-100201108D01*
X134012196Y-100118228D01*
X134012200Y-100118223D01*
X134014720Y-100115303D01*
X134016626Y-100111947D01*
X134016630Y-100111942D01*
X134110695Y-99946356D01*
X134112604Y-99942996D01*
X134113824Y-99939329D01*
X134173935Y-99758630D01*
X134173936Y-99758625D01*
X134175156Y-99754958D01*
X134179400Y-99721367D01*
X134182926Y-99693449D01*
X134199993Y-99558351D01*
X134200389Y-99530000D01*
X134197908Y-99504698D01*
X134370903Y-99504698D01*
X134383651Y-99699201D01*
X134384780Y-99706328D01*
X134432759Y-99895243D01*
X134435172Y-99902057D01*
X134516774Y-100079068D01*
X134520377Y-100085308D01*
X134531287Y-100100746D01*
X134540617Y-100107218D01*
X134544595Y-100106852D01*
X135111596Y-99539851D01*
X135115983Y-99530443D01*
X135833604Y-99530443D01*
X135835290Y-99536737D01*
X136400287Y-100101734D01*
X136410581Y-100106534D01*
X136412491Y-100106023D01*
X136414493Y-100103808D01*
X136482436Y-99982488D01*
X136485371Y-99975896D01*
X136548025Y-99791321D01*
X136549710Y-99784304D01*
X136577864Y-99590127D01*
X136578260Y-99585486D01*
X136579652Y-99532327D01*
X136579500Y-99527685D01*
X136561545Y-99332288D01*
X136560230Y-99325195D01*
X136507321Y-99137592D01*
X136504736Y-99130858D01*
X136418698Y-98956389D01*
X136410990Y-98951336D01*
X136406710Y-98951843D01*
X135838404Y-99520149D01*
X135833604Y-99530443D01*
X135115983Y-99530443D01*
X135116396Y-99529557D01*
X135114710Y-99523263D01*
X134548455Y-98957008D01*
X134538161Y-98952208D01*
X134536797Y-98952573D01*
X134534208Y-98955512D01*
X134456066Y-99104037D01*
X134453304Y-99110703D01*
X134395502Y-99296857D01*
X134394002Y-99303919D01*
X134371092Y-99497481D01*
X134370903Y-99504698D01*
X134197908Y-99504698D01*
X134181051Y-99332777D01*
X134123774Y-99143065D01*
X134121963Y-99139660D01*
X134121961Y-99139654D01*
X134032551Y-98971500D01*
X134030739Y-98968092D01*
X134023919Y-98959729D01*
X133950495Y-98869704D01*
X133905490Y-98814522D01*
X133893415Y-98804532D01*
X133755773Y-98690665D01*
X133755772Y-98690664D01*
X133752798Y-98688204D01*
X133734979Y-98678569D01*
X133697464Y-98658285D01*
X133584532Y-98597223D01*
X134898890Y-98597223D01*
X134898923Y-98599759D01*
X134900040Y-98601487D01*
X135465149Y-99166596D01*
X135475443Y-99171396D01*
X135481737Y-99169710D01*
X136045911Y-98605536D01*
X136050711Y-98595242D01*
X136049909Y-98592250D01*
X136049111Y-98591488D01*
X135979590Y-98547625D01*
X135973167Y-98544353D01*
X135792121Y-98472122D01*
X135785200Y-98470072D01*
X135594024Y-98432045D01*
X135586854Y-98431292D01*
X135391952Y-98428739D01*
X135384752Y-98429306D01*
X135192653Y-98462315D01*
X135185675Y-98464185D01*
X135002805Y-98531649D01*
X134996298Y-98534753D01*
X134906076Y-98588429D01*
X134898890Y-98597223D01*
X133584532Y-98597223D01*
X133578479Y-98593950D01*
X133389172Y-98535350D01*
X133192089Y-98514636D01*
X133188243Y-98514986D01*
X133188242Y-98514986D01*
X133163266Y-98517259D01*
X132994735Y-98532596D01*
X132991028Y-98533687D01*
X132808338Y-98587456D01*
X132808335Y-98587457D01*
X132804629Y-98588548D01*
X132801202Y-98590340D01*
X132801201Y-98590340D01*
X132790784Y-98595786D01*
X132629010Y-98680359D01*
X132626003Y-98682777D01*
X132626001Y-98682778D01*
X132573702Y-98724828D01*
X132474570Y-98804532D01*
X132405035Y-98887401D01*
X132350962Y-98951843D01*
X132347189Y-98956339D01*
X132345327Y-98959727D01*
X132345325Y-98959729D01*
X132288318Y-99063425D01*
X132251720Y-99129996D01*
X132191800Y-99318889D01*
X132169710Y-99515823D01*
X131908999Y-99515823D01*
X131891051Y-99332777D01*
X131833774Y-99143065D01*
X131831963Y-99139660D01*
X131831961Y-99139654D01*
X131742551Y-98971500D01*
X131740739Y-98968092D01*
X131733919Y-98959729D01*
X131660495Y-98869704D01*
X131615490Y-98814522D01*
X131603415Y-98804532D01*
X131465773Y-98690665D01*
X131465772Y-98690664D01*
X131462798Y-98688204D01*
X131444979Y-98678569D01*
X131407464Y-98658285D01*
X131288479Y-98593950D01*
X131099172Y-98535350D01*
X130902089Y-98514636D01*
X130898243Y-98514986D01*
X130898242Y-98514986D01*
X130873266Y-98517259D01*
X130704735Y-98532596D01*
X130701028Y-98533687D01*
X130518338Y-98587456D01*
X130518335Y-98587457D01*
X130514629Y-98588548D01*
X130511202Y-98590340D01*
X130511201Y-98590340D01*
X130500784Y-98595786D01*
X130339010Y-98680359D01*
X130336003Y-98682777D01*
X130336001Y-98682778D01*
X130283702Y-98724828D01*
X130184570Y-98804532D01*
X130115035Y-98887401D01*
X130060962Y-98951843D01*
X130057189Y-98956339D01*
X130055327Y-98959727D01*
X130055325Y-98959729D01*
X129998318Y-99063425D01*
X129961720Y-99129996D01*
X129901800Y-99318889D01*
X129879710Y-99515823D01*
X129618999Y-99515823D01*
X129601051Y-99332777D01*
X129543774Y-99143065D01*
X129541963Y-99139660D01*
X129541961Y-99139654D01*
X129452551Y-98971500D01*
X129450739Y-98968092D01*
X129443919Y-98959729D01*
X129370495Y-98869704D01*
X129325490Y-98814522D01*
X129313415Y-98804532D01*
X129175773Y-98690665D01*
X129175772Y-98690664D01*
X129172798Y-98688204D01*
X129154979Y-98678569D01*
X129117464Y-98658285D01*
X128998479Y-98593950D01*
X128980644Y-98588429D01*
X128941139Y-98576200D01*
X128898095Y-98543528D01*
X128885500Y-98500733D01*
X128885500Y-96976102D01*
X128886700Y-96962384D01*
X128888704Y-96951019D01*
X128889904Y-96944213D01*
X128888704Y-96937407D01*
X128888704Y-96932114D01*
X128888141Y-96917404D01*
X128888196Y-96916851D01*
X128898468Y-96812561D01*
X128901490Y-96797373D01*
X128937629Y-96678235D01*
X128943555Y-96663927D01*
X129002247Y-96554122D01*
X129010851Y-96541245D01*
X129070391Y-96468695D01*
X129077682Y-96459811D01*
X129088495Y-96449794D01*
X129092222Y-96446067D01*
X129097886Y-96442101D01*
X129108474Y-96426980D01*
X129117326Y-96416432D01*
X131411313Y-94122445D01*
X131460289Y-94099607D01*
X131468621Y-94099319D01*
X131492468Y-94099756D01*
X131598120Y-94101692D01*
X131598121Y-94101692D01*
X131603747Y-94101795D01*
X131744829Y-94063332D01*
X131869445Y-93986818D01*
X131873218Y-93982650D01*
X131873220Y-93982648D01*
X131963799Y-93882577D01*
X131963800Y-93882576D01*
X131967576Y-93878404D01*
X131971468Y-93870372D01*
X132022518Y-93765004D01*
X132031335Y-93746805D01*
X132035321Y-93723116D01*
X132055090Y-93605610D01*
X132055090Y-93605607D01*
X132055596Y-93602601D01*
X132055750Y-93590000D01*
X132047093Y-93529550D01*
X132035818Y-93450816D01*
X132035817Y-93450814D01*
X132035020Y-93445246D01*
X132029521Y-93433152D01*
X131976827Y-93317257D01*
X131976826Y-93317255D01*
X131974495Y-93312129D01*
X131970820Y-93307864D01*
X131970818Y-93307861D01*
X131882716Y-93205615D01*
X131879041Y-93201350D01*
X131815801Y-93160360D01*
X131761054Y-93124874D01*
X131761051Y-93124872D01*
X131756332Y-93121814D01*
X131675467Y-93097630D01*
X131621621Y-93081526D01*
X131621619Y-93081526D01*
X131616233Y-93079915D01*
X131543711Y-93079472D01*
X131475630Y-93079056D01*
X131475628Y-93079056D01*
X131470005Y-93079022D01*
X131329404Y-93119206D01*
X131281188Y-93149628D01*
X131218968Y-93188886D01*
X131205732Y-93197237D01*
X131202011Y-93201450D01*
X131202010Y-93201451D01*
X131166255Y-93241936D01*
X131108932Y-93306841D01*
X131046786Y-93439209D01*
X131024288Y-93583699D01*
X131025018Y-93589280D01*
X131032918Y-93649691D01*
X131021176Y-93702439D01*
X131010446Y-93715796D01*
X128713566Y-96012676D01*
X128703017Y-96021528D01*
X128687900Y-96032113D01*
X128685335Y-96035776D01*
X128681829Y-96039881D01*
X128681827Y-96039883D01*
X128558811Y-96183917D01*
X128556793Y-96186280D01*
X128451070Y-96358805D01*
X128373637Y-96545745D01*
X128372913Y-96548762D01*
X128372912Y-96548764D01*
X128353857Y-96628136D01*
X128326401Y-96742496D01*
X128321497Y-96804813D01*
X128311479Y-96932114D01*
X128310873Y-96939810D01*
X128310096Y-96944215D01*
X128311296Y-96951019D01*
X128311296Y-96951022D01*
X128313300Y-96962386D01*
X128314500Y-96976104D01*
X128314500Y-98502998D01*
X128296018Y-98553778D01*
X128257804Y-98578784D01*
X128224629Y-98588548D01*
X128221202Y-98590340D01*
X128221201Y-98590340D01*
X128210784Y-98595786D01*
X128049010Y-98680359D01*
X128046003Y-98682777D01*
X128046001Y-98682778D01*
X127993702Y-98724828D01*
X127894570Y-98804532D01*
X127825035Y-98887401D01*
X127770962Y-98951843D01*
X127767189Y-98956339D01*
X127765327Y-98959727D01*
X127765325Y-98959729D01*
X127708318Y-99063425D01*
X127671720Y-99129996D01*
X127611800Y-99318889D01*
X127589710Y-99515823D01*
X127325500Y-99515823D01*
X127325500Y-98664194D01*
X127316187Y-98617376D01*
X127305571Y-98601487D01*
X127285035Y-98570753D01*
X127280714Y-98564286D01*
X127239120Y-98536494D01*
X127234094Y-98533136D01*
X127227624Y-98528813D01*
X127219995Y-98527295D01*
X127219994Y-98527295D01*
X127196059Y-98522534D01*
X127180806Y-98519500D01*
X125449194Y-98519500D01*
X125433941Y-98522534D01*
X125410006Y-98527295D01*
X125410005Y-98527295D01*
X125402376Y-98528813D01*
X125395906Y-98533136D01*
X125390880Y-98536494D01*
X125349286Y-98564286D01*
X125344965Y-98570753D01*
X125324430Y-98601487D01*
X125313813Y-98617376D01*
X125304500Y-98664194D01*
X125304500Y-100331547D01*
X125286018Y-100382327D01*
X125239218Y-100409347D01*
X125224466Y-100410540D01*
X125086952Y-100408739D01*
X125079752Y-100409306D01*
X124887653Y-100442315D01*
X124880675Y-100444185D01*
X124697805Y-100511649D01*
X124691298Y-100514753D01*
X124601076Y-100568429D01*
X124593890Y-100577223D01*
X122735500Y-100577223D01*
X122735500Y-98946103D01*
X122736700Y-98932385D01*
X122738704Y-98921020D01*
X122739904Y-98914214D01*
X122738704Y-98907409D01*
X122738704Y-98902150D01*
X122738141Y-98887401D01*
X122748467Y-98782561D01*
X122751489Y-98767372D01*
X122787628Y-98648237D01*
X122793554Y-98633929D01*
X122852248Y-98524120D01*
X122860852Y-98511243D01*
X122927682Y-98429811D01*
X122938509Y-98419780D01*
X122942226Y-98416063D01*
X122947886Y-98412100D01*
X122958472Y-98396981D01*
X122967321Y-98386437D01*
X123386437Y-97967321D01*
X123396981Y-97958472D01*
X123412100Y-97947886D01*
X123416063Y-97942226D01*
X123419780Y-97938509D01*
X123429811Y-97927682D01*
X123511243Y-97860852D01*
X123524120Y-97852248D01*
X123633929Y-97793554D01*
X123648237Y-97787628D01*
X123767372Y-97751489D01*
X123782561Y-97748467D01*
X123887401Y-97738141D01*
X123902150Y-97738704D01*
X123907409Y-97738704D01*
X123914214Y-97739904D01*
X123932386Y-97736700D01*
X123946103Y-97735500D01*
X125546238Y-97735500D01*
X125597018Y-97753982D01*
X125606711Y-97763667D01*
X125666235Y-97834479D01*
X125787963Y-97915508D01*
X125793337Y-97917187D01*
X125863526Y-97939116D01*
X125927540Y-97959116D01*
X125977055Y-97960023D01*
X126068119Y-97961692D01*
X126068120Y-97961692D01*
X126073746Y-97961795D01*
X126214828Y-97923332D01*
X126339444Y-97846818D01*
X126343217Y-97842650D01*
X126343219Y-97842648D01*
X126433798Y-97742577D01*
X126433799Y-97742576D01*
X126437575Y-97738404D01*
X126446170Y-97720665D01*
X126498880Y-97611870D01*
X126501334Y-97606805D01*
X126506297Y-97577310D01*
X126525089Y-97465610D01*
X126525089Y-97465607D01*
X126525595Y-97462601D01*
X126525749Y-97450000D01*
X126508132Y-97326985D01*
X126505817Y-97310816D01*
X126505816Y-97310814D01*
X126505019Y-97305246D01*
X126498458Y-97290816D01*
X126446826Y-97177257D01*
X126446825Y-97177255D01*
X126444494Y-97172129D01*
X126440819Y-97167864D01*
X126440817Y-97167861D01*
X126352715Y-97065615D01*
X126349040Y-97061350D01*
X126285506Y-97020169D01*
X126231053Y-96984874D01*
X126231050Y-96984872D01*
X126226331Y-96981814D01*
X126144400Y-96957311D01*
X126091620Y-96941526D01*
X126091618Y-96941526D01*
X126086232Y-96939915D01*
X126013710Y-96939472D01*
X125945629Y-96939056D01*
X125945627Y-96939056D01*
X125940004Y-96939022D01*
X125799403Y-96979206D01*
X125675731Y-97057237D01*
X125604583Y-97137797D01*
X125557116Y-97163622D01*
X125545371Y-97164500D01*
X123946103Y-97164500D01*
X123932385Y-97163300D01*
X123921021Y-97161296D01*
X123921020Y-97161296D01*
X123914214Y-97160096D01*
X123909820Y-97160871D01*
X123904407Y-97161297D01*
X123904405Y-97161297D01*
X123848687Y-97165682D01*
X123712496Y-97176400D01*
X123645918Y-97192384D01*
X123518763Y-97222911D01*
X123518761Y-97222912D01*
X123515744Y-97223636D01*
X123328805Y-97301069D01*
X123156279Y-97406792D01*
X123153923Y-97408805D01*
X123153922Y-97408805D01*
X123009905Y-97531808D01*
X123005765Y-97535344D01*
X123002114Y-97537900D01*
X122991528Y-97553019D01*
X122982679Y-97563563D01*
X122563563Y-97982679D01*
X122553019Y-97991528D01*
X122537900Y-98002114D01*
X122535344Y-98005765D01*
X122531809Y-98009904D01*
X122531808Y-98009905D01*
X122487443Y-98061850D01*
X122406792Y-98156279D01*
X122301069Y-98328805D01*
X122223636Y-98515744D01*
X122222912Y-98518761D01*
X122222911Y-98518763D01*
X122210292Y-98571326D01*
X122176400Y-98712496D01*
X122168564Y-98812063D01*
X122161475Y-98902150D01*
X122160871Y-98909820D01*
X122160096Y-98914214D01*
X122161296Y-98921020D01*
X122161296Y-98921021D01*
X122163300Y-98932385D01*
X122164500Y-98946103D01*
X122164500Y-103683896D01*
X122163300Y-103697613D01*
X122160096Y-103715785D01*
X119004395Y-103715785D01*
X119273085Y-103624577D01*
X119277864Y-103622597D01*
X119541630Y-103492523D01*
X119546102Y-103489941D01*
X119790632Y-103326551D01*
X119794730Y-103323406D01*
X119818952Y-103302164D01*
X119824414Y-103292207D01*
X119823361Y-103286915D01*
X118409851Y-101873404D01*
X118399557Y-101868604D01*
X118393263Y-101870290D01*
X116980426Y-103283128D01*
X116975626Y-103293422D01*
X115660000Y-103293422D01*
X115660000Y-101512578D01*
X116112270Y-101512578D01*
X116131505Y-101806051D01*
X116132179Y-101811168D01*
X116189553Y-102099606D01*
X116190894Y-102104612D01*
X116285423Y-102383085D01*
X116287403Y-102387864D01*
X116417477Y-102651629D01*
X116420059Y-102656102D01*
X116583449Y-102900632D01*
X116586594Y-102904730D01*
X116607836Y-102928952D01*
X116617793Y-102934414D01*
X116623085Y-102933361D01*
X118036596Y-101519851D01*
X118040983Y-101510443D01*
X118758604Y-101510443D01*
X118760290Y-101516737D01*
X120173128Y-102929574D01*
X120183422Y-102934374D01*
X120188633Y-102932978D01*
X120213406Y-102904730D01*
X120216551Y-102900632D01*
X120379941Y-102656102D01*
X120382523Y-102651629D01*
X120512597Y-102387864D01*
X120514577Y-102383085D01*
X120609106Y-102104612D01*
X120610447Y-102099606D01*
X120667821Y-101811168D01*
X120668495Y-101806051D01*
X120687730Y-101512578D01*
X120687730Y-101507422D01*
X120668495Y-101213949D01*
X120667821Y-101208832D01*
X120610447Y-100920394D01*
X120609106Y-100915388D01*
X120514577Y-100636915D01*
X120512597Y-100632136D01*
X120382523Y-100368371D01*
X120379941Y-100363898D01*
X120216551Y-100119368D01*
X120213406Y-100115270D01*
X120192164Y-100091048D01*
X120182207Y-100085586D01*
X120176915Y-100086639D01*
X118763404Y-101500149D01*
X118758604Y-101510443D01*
X118040983Y-101510443D01*
X118041396Y-101509557D01*
X118039710Y-101503263D01*
X116626872Y-100090426D01*
X116616578Y-100085626D01*
X116611367Y-100087022D01*
X116586594Y-100115270D01*
X116583449Y-100119368D01*
X116420059Y-100363898D01*
X116417477Y-100368371D01*
X116287403Y-100632136D01*
X116285423Y-100636915D01*
X116190894Y-100915388D01*
X116189553Y-100920394D01*
X116132179Y-101208832D01*
X116131505Y-101213949D01*
X116112270Y-101507422D01*
X116112270Y-101512578D01*
X115660000Y-101512578D01*
X115660000Y-99727793D01*
X116975586Y-99727793D01*
X116976639Y-99733085D01*
X118390149Y-101146596D01*
X118400443Y-101151396D01*
X118406737Y-101149710D01*
X119819574Y-99736872D01*
X119824374Y-99726578D01*
X119822978Y-99721367D01*
X119794730Y-99696594D01*
X119790632Y-99693449D01*
X119546102Y-99530059D01*
X119541630Y-99527477D01*
X119277864Y-99397403D01*
X119273085Y-99395423D01*
X118994612Y-99300894D01*
X118989606Y-99299553D01*
X118701168Y-99242179D01*
X118696051Y-99241505D01*
X118402578Y-99222270D01*
X118397422Y-99222270D01*
X118103949Y-99241505D01*
X118098832Y-99242179D01*
X117810394Y-99299553D01*
X117805388Y-99300894D01*
X117526915Y-99395423D01*
X117522136Y-99397403D01*
X117258371Y-99527477D01*
X117253898Y-99530059D01*
X117009368Y-99693449D01*
X117005270Y-99696594D01*
X116981048Y-99717836D01*
X116975586Y-99727793D01*
X115660000Y-99727793D01*
X115660000Y-95861924D01*
X118195500Y-95861924D01*
X118195717Y-95863985D01*
X118195717Y-95863992D01*
X118206990Y-95971243D01*
X118210557Y-96005182D01*
X118269961Y-96188009D01*
X118272030Y-96191592D01*
X118272031Y-96191595D01*
X118337334Y-96304702D01*
X118366079Y-96354490D01*
X118368851Y-96357569D01*
X118368852Y-96357570D01*
X118390714Y-96381850D01*
X118494710Y-96497349D01*
X118650231Y-96610342D01*
X118654020Y-96612029D01*
X118822064Y-96686848D01*
X118822067Y-96686849D01*
X118825847Y-96688532D01*
X118829893Y-96689392D01*
X118829896Y-96689393D01*
X119009838Y-96727641D01*
X119009843Y-96727642D01*
X119013882Y-96728500D01*
X119206118Y-96728500D01*
X119210157Y-96727642D01*
X119210162Y-96727641D01*
X119390108Y-96689392D01*
X119390110Y-96689391D01*
X119394153Y-96688532D01*
X119417280Y-96678235D01*
X119565989Y-96612025D01*
X119565992Y-96612023D01*
X119569768Y-96610342D01*
X119595463Y-96591674D01*
X119721937Y-96499785D01*
X119721936Y-96499785D01*
X119725290Y-96497349D01*
X119829286Y-96381850D01*
X119851148Y-96357570D01*
X119851149Y-96357569D01*
X119853921Y-96354490D01*
X119882666Y-96304702D01*
X119947969Y-96191595D01*
X119947970Y-96191592D01*
X119950039Y-96188009D01*
X120009443Y-96005182D01*
X120013010Y-95971243D01*
X120024283Y-95863992D01*
X120024283Y-95863985D01*
X120024500Y-95861924D01*
X120024500Y-94258076D01*
X120023737Y-94250810D01*
X120009876Y-94118936D01*
X120009876Y-94118934D01*
X120009443Y-94114818D01*
X119950039Y-93931991D01*
X119943508Y-93920678D01*
X119909586Y-93861924D01*
X121895500Y-93861924D01*
X121895717Y-93863985D01*
X121895717Y-93863992D01*
X121908627Y-93986818D01*
X121910557Y-94005182D01*
X121969961Y-94188009D01*
X121972030Y-94191592D01*
X121972031Y-94191595D01*
X122051174Y-94328674D01*
X122066079Y-94354490D01*
X122068851Y-94357569D01*
X122068852Y-94357570D01*
X122116293Y-94410258D01*
X122194710Y-94497349D01*
X122350231Y-94610342D01*
X122354020Y-94612029D01*
X122522064Y-94686848D01*
X122522067Y-94686849D01*
X122525847Y-94688532D01*
X122529893Y-94689392D01*
X122529896Y-94689393D01*
X122709838Y-94727641D01*
X122709843Y-94727642D01*
X122713882Y-94728500D01*
X122906118Y-94728500D01*
X122910157Y-94727642D01*
X122910162Y-94727641D01*
X123090108Y-94689392D01*
X123090110Y-94689391D01*
X123094153Y-94688532D01*
X123119773Y-94677125D01*
X123265989Y-94612025D01*
X123265992Y-94612023D01*
X123269768Y-94610342D01*
X123279201Y-94603489D01*
X123421937Y-94499785D01*
X123421936Y-94499785D01*
X123425290Y-94497349D01*
X123466882Y-94451157D01*
X123551149Y-94357569D01*
X123551150Y-94357567D01*
X123553921Y-94354490D01*
X123554047Y-94354604D01*
X123597388Y-94325370D01*
X123651131Y-94331018D01*
X123688670Y-94369891D01*
X123695500Y-94402023D01*
X123695500Y-95861924D01*
X123695717Y-95863985D01*
X123695717Y-95863992D01*
X123706990Y-95971243D01*
X123710557Y-96005182D01*
X123769961Y-96188009D01*
X123772030Y-96191592D01*
X123772031Y-96191595D01*
X123837334Y-96304702D01*
X123866079Y-96354490D01*
X123868851Y-96357569D01*
X123868852Y-96357570D01*
X123890714Y-96381850D01*
X123994710Y-96497349D01*
X124150231Y-96610342D01*
X124154020Y-96612029D01*
X124322064Y-96686848D01*
X124322067Y-96686849D01*
X124325847Y-96688532D01*
X124329893Y-96689392D01*
X124329896Y-96689393D01*
X124509838Y-96727641D01*
X124509843Y-96727642D01*
X124513882Y-96728500D01*
X124706118Y-96728500D01*
X124710157Y-96727642D01*
X124710162Y-96727641D01*
X124890108Y-96689392D01*
X124890110Y-96689391D01*
X124894153Y-96688532D01*
X124917280Y-96678235D01*
X125065989Y-96612025D01*
X125065992Y-96612023D01*
X125069768Y-96610342D01*
X125095463Y-96591674D01*
X125221937Y-96499785D01*
X125221936Y-96499785D01*
X125225290Y-96497349D01*
X125329286Y-96381850D01*
X125351148Y-96357570D01*
X125351149Y-96357569D01*
X125353921Y-96354490D01*
X125382666Y-96304702D01*
X125447969Y-96191595D01*
X125447970Y-96191592D01*
X125450039Y-96188009D01*
X125509443Y-96005182D01*
X125513010Y-95971243D01*
X125524283Y-95863992D01*
X125524283Y-95863985D01*
X125524500Y-95861924D01*
X125524500Y-94258076D01*
X125523737Y-94250810D01*
X125509876Y-94118936D01*
X125509876Y-94118934D01*
X125509443Y-94114818D01*
X125450039Y-93931991D01*
X125443508Y-93920678D01*
X125409586Y-93861924D01*
X127395500Y-93861924D01*
X127395717Y-93863985D01*
X127395717Y-93863992D01*
X127408627Y-93986818D01*
X127410557Y-94005182D01*
X127469961Y-94188009D01*
X127472030Y-94191592D01*
X127472031Y-94191595D01*
X127551174Y-94328674D01*
X127566079Y-94354490D01*
X127568851Y-94357569D01*
X127568852Y-94357570D01*
X127616293Y-94410258D01*
X127694710Y-94497349D01*
X127850231Y-94610342D01*
X127854020Y-94612029D01*
X128022064Y-94686848D01*
X128022067Y-94686849D01*
X128025847Y-94688532D01*
X128029893Y-94689392D01*
X128029896Y-94689393D01*
X128209838Y-94727641D01*
X128209843Y-94727642D01*
X128213882Y-94728500D01*
X128406118Y-94728500D01*
X128410157Y-94727642D01*
X128410162Y-94727641D01*
X128590108Y-94689392D01*
X128590110Y-94689391D01*
X128594153Y-94688532D01*
X128619773Y-94677125D01*
X128765989Y-94612025D01*
X128765992Y-94612023D01*
X128769768Y-94610342D01*
X128779201Y-94603489D01*
X128921937Y-94499785D01*
X128921936Y-94499785D01*
X128925290Y-94497349D01*
X129003707Y-94410258D01*
X129051148Y-94357570D01*
X129051149Y-94357569D01*
X129053921Y-94354490D01*
X129068826Y-94328674D01*
X129147969Y-94191595D01*
X129147970Y-94191592D01*
X129150039Y-94188009D01*
X129209443Y-94005182D01*
X129211373Y-93986818D01*
X129224283Y-93863992D01*
X129224283Y-93863985D01*
X129224500Y-93861924D01*
X129224500Y-92258076D01*
X129223013Y-92243922D01*
X129209876Y-92118936D01*
X129209876Y-92118934D01*
X129209443Y-92114818D01*
X129150039Y-91931991D01*
X129138649Y-91912262D01*
X129055992Y-91769097D01*
X129055988Y-91769091D01*
X129053921Y-91765510D01*
X128925290Y-91622651D01*
X128769769Y-91509658D01*
X128643790Y-91453568D01*
X128597936Y-91433152D01*
X128597933Y-91433151D01*
X128594153Y-91431468D01*
X128590107Y-91430608D01*
X128590104Y-91430607D01*
X128410162Y-91392359D01*
X128410157Y-91392358D01*
X128406118Y-91391500D01*
X128213882Y-91391500D01*
X128209843Y-91392358D01*
X128209838Y-91392359D01*
X128029892Y-91430608D01*
X128029890Y-91430609D01*
X128025847Y-91431468D01*
X128022070Y-91433150D01*
X128022069Y-91433150D01*
X127854011Y-91507975D01*
X127854008Y-91507977D01*
X127850232Y-91509658D01*
X127846884Y-91512090D01*
X127846883Y-91512091D01*
X127817797Y-91533223D01*
X127694710Y-91622651D01*
X127566079Y-91765510D01*
X127564012Y-91769091D01*
X127564008Y-91769097D01*
X127481352Y-91912262D01*
X127469961Y-91931991D01*
X127410557Y-92114818D01*
X127410124Y-92118934D01*
X127410124Y-92118936D01*
X127396988Y-92243922D01*
X127395500Y-92258076D01*
X127395500Y-93861924D01*
X125409586Y-93861924D01*
X125355992Y-93769097D01*
X125353921Y-93765510D01*
X125341640Y-93751870D01*
X125228064Y-93625732D01*
X125225290Y-93622651D01*
X125069769Y-93509658D01*
X124925099Y-93445246D01*
X124897936Y-93433152D01*
X124897933Y-93433151D01*
X124894153Y-93431468D01*
X124890107Y-93430608D01*
X124890104Y-93430607D01*
X124710162Y-93392359D01*
X124710157Y-93392358D01*
X124706118Y-93391500D01*
X124513882Y-93391500D01*
X124509843Y-93392358D01*
X124509838Y-93392359D01*
X124329892Y-93430608D01*
X124329890Y-93430609D01*
X124325847Y-93431468D01*
X124322070Y-93433150D01*
X124322069Y-93433150D01*
X124154011Y-93507975D01*
X124154008Y-93507977D01*
X124150232Y-93509658D01*
X124146884Y-93512090D01*
X124146883Y-93512091D01*
X124114512Y-93535610D01*
X123994710Y-93622651D01*
X123991936Y-93625732D01*
X123878361Y-93751870D01*
X123866079Y-93765510D01*
X123865953Y-93765396D01*
X123822612Y-93794630D01*
X123768869Y-93788982D01*
X123731330Y-93750109D01*
X123724500Y-93717977D01*
X123724500Y-92581980D01*
X123742982Y-92531200D01*
X123747639Y-92526119D01*
X125366432Y-90907326D01*
X125376980Y-90898474D01*
X125378309Y-90897543D01*
X125392101Y-90887886D01*
X125396067Y-90882222D01*
X125399794Y-90878495D01*
X125409812Y-90867681D01*
X125491245Y-90800851D01*
X125504122Y-90792247D01*
X125613927Y-90733555D01*
X125628235Y-90727629D01*
X125747373Y-90691490D01*
X125762561Y-90688468D01*
X125799109Y-90684868D01*
X125867407Y-90678141D01*
X125882124Y-90678704D01*
X125887407Y-90678704D01*
X125894213Y-90679904D01*
X125912385Y-90676700D01*
X125926102Y-90675500D01*
X130813898Y-90675500D01*
X130827615Y-90676700D01*
X130845787Y-90679904D01*
X130852593Y-90678704D01*
X130857876Y-90678704D01*
X130872593Y-90678141D01*
X130940891Y-90684868D01*
X130977439Y-90688468D01*
X130992627Y-90691490D01*
X131111765Y-90727629D01*
X131126073Y-90733555D01*
X131235878Y-90792247D01*
X131248755Y-90800851D01*
X131330188Y-90867681D01*
X131340206Y-90878495D01*
X131343933Y-90882222D01*
X131347899Y-90887886D01*
X131361691Y-90897543D01*
X131363020Y-90898474D01*
X131373568Y-90907326D01*
X132562674Y-92096432D01*
X132571526Y-92106980D01*
X132582114Y-92122101D01*
X132587778Y-92126067D01*
X132591505Y-92129794D01*
X132602319Y-92139812D01*
X132669149Y-92221245D01*
X132677753Y-92234122D01*
X132736445Y-92343927D01*
X132742371Y-92358235D01*
X132778510Y-92477373D01*
X132781532Y-92492561D01*
X132790340Y-92581980D01*
X132791859Y-92597404D01*
X132791296Y-92612124D01*
X132791296Y-92617407D01*
X132790096Y-92624213D01*
X132791296Y-92631019D01*
X132793300Y-92642384D01*
X132794500Y-92656102D01*
X132794500Y-95433897D01*
X132793300Y-95447614D01*
X132790096Y-95465786D01*
X132790871Y-95470180D01*
X132791297Y-95475593D01*
X132791297Y-95475595D01*
X132791786Y-95481811D01*
X132806400Y-95667504D01*
X132814866Y-95702766D01*
X132852424Y-95859206D01*
X132853636Y-95864256D01*
X132931069Y-96051195D01*
X133036792Y-96223721D01*
X133038805Y-96226077D01*
X133038805Y-96226078D01*
X133142425Y-96347401D01*
X133165344Y-96374235D01*
X133167900Y-96377886D01*
X133183019Y-96388472D01*
X133193563Y-96397321D01*
X134242676Y-97446434D01*
X134251528Y-97456983D01*
X134253842Y-97460288D01*
X134262113Y-97472100D01*
X134265776Y-97474665D01*
X134269881Y-97478171D01*
X134269883Y-97478173D01*
X134403006Y-97591870D01*
X134416280Y-97603207D01*
X134588805Y-97708930D01*
X134775745Y-97786363D01*
X134778762Y-97787087D01*
X134778764Y-97787088D01*
X134858209Y-97806161D01*
X134972496Y-97833599D01*
X135061051Y-97840568D01*
X135164418Y-97848703D01*
X135164422Y-97848703D01*
X135169810Y-97849127D01*
X135174215Y-97849904D01*
X135181021Y-97848704D01*
X135181022Y-97848704D01*
X135192386Y-97846700D01*
X135206104Y-97845500D01*
X135603902Y-97845500D01*
X135617620Y-97846700D01*
X135628980Y-97848703D01*
X135635791Y-97849904D01*
X135642597Y-97848704D01*
X135647880Y-97848704D01*
X135662597Y-97848141D01*
X135730895Y-97854868D01*
X135767443Y-97858468D01*
X135782631Y-97861490D01*
X135901769Y-97897629D01*
X135916077Y-97903555D01*
X136025882Y-97962247D01*
X136038759Y-97970851D01*
X136120192Y-98037681D01*
X136130210Y-98048495D01*
X136133937Y-98052222D01*
X136137903Y-98057886D01*
X136144667Y-98062622D01*
X136153024Y-98068474D01*
X136163572Y-98077326D01*
X137010151Y-98923905D01*
X137032989Y-98972881D01*
X137032350Y-98991915D01*
X137024288Y-99043695D01*
X137027153Y-99065606D01*
X137040767Y-99169710D01*
X137043249Y-99188691D01*
X137102143Y-99322538D01*
X137196236Y-99434475D01*
X137317964Y-99515504D01*
X137323338Y-99517183D01*
X137426184Y-99549315D01*
X137457541Y-99559112D01*
X137507056Y-99560019D01*
X137598120Y-99561688D01*
X137598121Y-99561688D01*
X137603747Y-99561791D01*
X137744829Y-99523328D01*
X137869445Y-99446814D01*
X137873218Y-99442646D01*
X137873220Y-99442644D01*
X137963799Y-99342573D01*
X137963800Y-99342572D01*
X137967576Y-99338400D01*
X138031335Y-99206801D01*
X138033753Y-99192432D01*
X138055090Y-99065606D01*
X138055090Y-99065603D01*
X138055596Y-99062597D01*
X138055672Y-99056365D01*
X138055713Y-99053048D01*
X138055713Y-99053041D01*
X138055750Y-99049996D01*
X138045506Y-98978467D01*
X138035818Y-98910812D01*
X138035817Y-98910810D01*
X138035020Y-98905242D01*
X138026908Y-98887401D01*
X137976827Y-98777253D01*
X137976826Y-98777251D01*
X137974495Y-98772125D01*
X137970820Y-98767860D01*
X137970818Y-98767857D01*
X137882716Y-98665611D01*
X137879041Y-98661346D01*
X137792937Y-98605536D01*
X137761054Y-98584870D01*
X137761051Y-98584868D01*
X137756332Y-98581810D01*
X137642027Y-98547625D01*
X137621621Y-98541522D01*
X137621619Y-98541522D01*
X137616233Y-98539911D01*
X137470005Y-98539018D01*
X137470015Y-98537414D01*
X137424016Y-98527475D01*
X137410243Y-98516481D01*
X136567328Y-97673566D01*
X136558476Y-97663017D01*
X136551856Y-97653563D01*
X136547891Y-97647900D01*
X136544228Y-97645335D01*
X136505046Y-97611870D01*
X136396087Y-97518811D01*
X136396086Y-97518810D01*
X136393724Y-97516793D01*
X136221199Y-97411070D01*
X136034259Y-97333637D01*
X136031242Y-97332913D01*
X136031240Y-97332912D01*
X135939203Y-97310816D01*
X135837508Y-97286401D01*
X135737222Y-97278509D01*
X135645586Y-97271297D01*
X135645582Y-97271297D01*
X135640194Y-97270873D01*
X135635789Y-97270096D01*
X135628983Y-97271296D01*
X135628982Y-97271296D01*
X135617618Y-97273300D01*
X135603900Y-97274500D01*
X135206102Y-97274500D01*
X135192384Y-97273300D01*
X135181019Y-97271296D01*
X135174213Y-97270096D01*
X135167407Y-97271296D01*
X135162124Y-97271296D01*
X135147407Y-97271859D01*
X135079109Y-97265132D01*
X135042561Y-97261532D01*
X135027373Y-97258510D01*
X134908235Y-97222371D01*
X134893927Y-97216445D01*
X134784122Y-97157753D01*
X134771245Y-97149149D01*
X134715833Y-97103674D01*
X134689811Y-97082318D01*
X134679794Y-97071505D01*
X134676067Y-97067778D01*
X134672101Y-97062114D01*
X134656980Y-97051526D01*
X134646432Y-97042674D01*
X133927457Y-96323699D01*
X135164288Y-96323699D01*
X135168070Y-96352622D01*
X135180992Y-96451434D01*
X135183249Y-96468695D01*
X135242143Y-96602542D01*
X135245765Y-96606851D01*
X135299509Y-96670787D01*
X135336236Y-96714479D01*
X135457964Y-96795508D01*
X135463338Y-96797187D01*
X135487776Y-96804822D01*
X135597541Y-96839116D01*
X135647056Y-96840023D01*
X135738120Y-96841692D01*
X135738121Y-96841692D01*
X135743747Y-96841795D01*
X135884829Y-96803332D01*
X135949851Y-96763409D01*
X136002795Y-96752590D01*
X136050308Y-96778333D01*
X136062100Y-96795915D01*
X136072824Y-96817757D01*
X136157762Y-96902547D01*
X136265585Y-96955253D01*
X136290215Y-96958846D01*
X136333001Y-96965088D01*
X136333006Y-96965088D01*
X136335828Y-96965500D01*
X136804172Y-96965500D01*
X136875026Y-96955070D01*
X136982757Y-96902176D01*
X137067547Y-96817238D01*
X137120253Y-96709415D01*
X137128541Y-96652601D01*
X137130088Y-96641999D01*
X137130088Y-96641994D01*
X137130500Y-96639172D01*
X137659500Y-96639172D01*
X137669930Y-96710026D01*
X137722824Y-96817757D01*
X137807762Y-96902547D01*
X137915585Y-96955253D01*
X137940215Y-96958846D01*
X137983001Y-96965088D01*
X137983006Y-96965088D01*
X137985828Y-96965500D01*
X138271152Y-96965500D01*
X138321932Y-96983982D01*
X138346752Y-97021576D01*
X138347633Y-97024479D01*
X138348514Y-97027384D01*
X138351532Y-97042561D01*
X138352978Y-97057237D01*
X138360913Y-97137796D01*
X138361859Y-97147404D01*
X138361296Y-97162124D01*
X138361296Y-97167407D01*
X138360096Y-97174213D01*
X138361296Y-97181019D01*
X138363300Y-97192384D01*
X138364500Y-97206102D01*
X138364500Y-103133896D01*
X138363300Y-103147613D01*
X138360096Y-103165785D01*
X138360873Y-103170190D01*
X138361297Y-103175578D01*
X138361297Y-103175582D01*
X138365467Y-103228564D01*
X138376401Y-103367504D01*
X138393617Y-103439213D01*
X138422443Y-103559280D01*
X138423637Y-103564255D01*
X138501070Y-103751195D01*
X138606793Y-103923720D01*
X138608810Y-103926082D01*
X138608811Y-103926083D01*
X138731392Y-104069607D01*
X138735335Y-104074224D01*
X138737900Y-104077887D01*
X138743563Y-104081852D01*
X138753017Y-104088472D01*
X138763566Y-104097324D01*
X140372676Y-105706434D01*
X140381528Y-105716983D01*
X140392113Y-105732100D01*
X140395776Y-105734665D01*
X140399881Y-105738171D01*
X140399885Y-105738175D01*
X140543915Y-105861189D01*
X140546279Y-105863208D01*
X140718804Y-105968931D01*
X140905744Y-106046364D01*
X140908761Y-106047088D01*
X140908763Y-106047089D01*
X140988450Y-106066220D01*
X141102496Y-106093600D01*
X141239122Y-106104352D01*
X141294406Y-106108703D01*
X141294408Y-106108703D01*
X141299821Y-106109129D01*
X141304215Y-106109904D01*
X141311021Y-106108704D01*
X141311022Y-106108704D01*
X141322386Y-106106700D01*
X141336104Y-106105500D01*
X147838098Y-106105500D01*
X147851816Y-106106700D01*
X147863180Y-106108704D01*
X147863181Y-106108704D01*
X147869987Y-106109904D01*
X147874392Y-106109127D01*
X147879780Y-106108703D01*
X147879784Y-106108703D01*
X147971420Y-106101491D01*
X148071706Y-106093599D01*
X148185993Y-106066161D01*
X148265438Y-106047088D01*
X148265440Y-106047087D01*
X148268457Y-106046363D01*
X148455397Y-105968930D01*
X148627922Y-105863207D01*
X148630285Y-105861189D01*
X148774319Y-105738173D01*
X148774321Y-105738171D01*
X148778426Y-105734665D01*
X148782089Y-105732100D01*
X148792674Y-105716983D01*
X148801526Y-105706434D01*
X152110964Y-102396996D01*
X152159940Y-102374158D01*
X152166825Y-102373857D01*
X152503553Y-102373857D01*
X152998410Y-102373856D01*
X153013463Y-102372035D01*
X153080702Y-102363899D01*
X153080705Y-102363898D01*
X153085740Y-102363289D01*
X153222155Y-102309279D01*
X153339020Y-102220573D01*
X153427726Y-102103708D01*
X153436817Y-102080746D01*
X153479867Y-101972014D01*
X153479867Y-101972013D01*
X153481736Y-101967293D01*
X153492304Y-101879964D01*
X153492303Y-99546751D01*
X153489461Y-99523263D01*
X153482346Y-99464459D01*
X153482345Y-99464456D01*
X153481736Y-99459421D01*
X153427726Y-99323006D01*
X153339020Y-99206141D01*
X153301796Y-99177886D01*
X153226442Y-99120689D01*
X153222155Y-99117435D01*
X153188315Y-99104037D01*
X153090461Y-99065294D01*
X153090460Y-99065294D01*
X153085740Y-99063425D01*
X153080705Y-99062816D01*
X153080702Y-99062815D01*
X153027324Y-99056356D01*
X152998411Y-99052857D01*
X152581892Y-99052857D01*
X152165198Y-99052858D01*
X152150145Y-99054679D01*
X152082906Y-99062815D01*
X152082903Y-99062816D01*
X152077868Y-99063425D01*
X151941453Y-99117435D01*
X151937166Y-99120689D01*
X151861812Y-99177886D01*
X151824588Y-99206141D01*
X151735882Y-99323006D01*
X151681872Y-99459421D01*
X151671304Y-99546750D01*
X151671305Y-101879963D01*
X151681623Y-101965233D01*
X151681872Y-101967293D01*
X151681409Y-101967349D01*
X151676316Y-102017885D01*
X151661025Y-102039419D01*
X148397770Y-105302674D01*
X148387222Y-105311526D01*
X148385893Y-105312457D01*
X148372101Y-105322114D01*
X148368135Y-105327778D01*
X148364408Y-105331505D01*
X148354391Y-105342318D01*
X148319077Y-105371300D01*
X148272957Y-105409149D01*
X148260080Y-105417753D01*
X148150275Y-105476445D01*
X148135967Y-105482371D01*
X148016829Y-105518510D01*
X148001641Y-105521532D01*
X147965093Y-105525132D01*
X147896795Y-105531859D01*
X147882078Y-105531296D01*
X147876795Y-105531296D01*
X147869989Y-105530096D01*
X147863183Y-105531296D01*
X147851818Y-105533300D01*
X147838100Y-105534500D01*
X141336102Y-105534500D01*
X141322384Y-105533300D01*
X141311019Y-105531296D01*
X141304213Y-105530096D01*
X141297408Y-105531296D01*
X141292149Y-105531296D01*
X141277400Y-105531859D01*
X141172560Y-105521533D01*
X141157371Y-105518511D01*
X141038236Y-105482373D01*
X141023927Y-105476447D01*
X141023924Y-105476445D01*
X140914117Y-105417752D01*
X140901243Y-105409149D01*
X140826967Y-105348192D01*
X140819811Y-105342319D01*
X140809799Y-105331510D01*
X140806066Y-105327777D01*
X140802101Y-105322114D01*
X140788309Y-105312457D01*
X140786980Y-105311526D01*
X140776432Y-105302674D01*
X139167326Y-103693568D01*
X139158474Y-103683020D01*
X139157543Y-103681691D01*
X139147886Y-103667899D01*
X139142222Y-103663933D01*
X139138495Y-103660206D01*
X139127681Y-103650188D01*
X139119415Y-103640115D01*
X139098700Y-103614875D01*
X139060851Y-103568755D01*
X139052247Y-103555878D01*
X138993555Y-103446073D01*
X138987629Y-103431765D01*
X138951490Y-103312627D01*
X138948468Y-103297439D01*
X138942603Y-103237897D01*
X138938141Y-103192593D01*
X138938704Y-103177876D01*
X138938704Y-103172593D01*
X138939904Y-103165787D01*
X138936700Y-103147614D01*
X138935500Y-103133898D01*
X138935500Y-97206104D01*
X138936700Y-97192386D01*
X138938704Y-97181022D01*
X138938704Y-97181019D01*
X138939904Y-97174215D01*
X138939127Y-97169810D01*
X138937890Y-97154085D01*
X138930600Y-97061457D01*
X138923599Y-96972496D01*
X138896161Y-96858209D01*
X138877088Y-96778764D01*
X138877087Y-96778762D01*
X138876363Y-96775745D01*
X138798930Y-96588805D01*
X138797309Y-96586159D01*
X138797306Y-96586154D01*
X138792141Y-96577725D01*
X138780500Y-96536449D01*
X138780500Y-96020828D01*
X138770070Y-95949974D01*
X138717176Y-95842243D01*
X138632238Y-95757453D01*
X138524415Y-95704747D01*
X138498225Y-95700926D01*
X138456999Y-95694912D01*
X138456994Y-95694912D01*
X138454172Y-95694500D01*
X137985828Y-95694500D01*
X137914974Y-95704930D01*
X137807243Y-95757824D01*
X137722453Y-95842762D01*
X137669747Y-95950585D01*
X137666396Y-95973558D01*
X137659916Y-96017978D01*
X137659500Y-96020828D01*
X137659500Y-96639172D01*
X137130500Y-96639172D01*
X137130500Y-96020828D01*
X137120070Y-95949974D01*
X137067176Y-95842243D01*
X136982238Y-95757453D01*
X136874415Y-95704747D01*
X136848225Y-95700926D01*
X136806999Y-95694912D01*
X136806994Y-95694912D01*
X136804172Y-95694500D01*
X136335828Y-95694500D01*
X136264974Y-95704930D01*
X136157243Y-95757824D01*
X136072453Y-95842762D01*
X136062149Y-95863841D01*
X136023246Y-95901344D01*
X135969335Y-95905067D01*
X135948207Y-95895438D01*
X135901053Y-95864874D01*
X135896332Y-95861814D01*
X135815467Y-95837630D01*
X135761621Y-95821526D01*
X135761619Y-95821526D01*
X135756233Y-95819915D01*
X135683711Y-95819472D01*
X135615630Y-95819056D01*
X135615628Y-95819056D01*
X135610005Y-95819022D01*
X135469404Y-95859206D01*
X135345732Y-95937237D01*
X135342011Y-95941450D01*
X135342010Y-95941451D01*
X135279106Y-96012676D01*
X135248932Y-96046841D01*
X135246540Y-96051936D01*
X135210349Y-96129022D01*
X135186786Y-96179209D01*
X135164288Y-96323699D01*
X133927457Y-96323699D01*
X133597321Y-95993563D01*
X133588472Y-95983019D01*
X133577886Y-95967900D01*
X133572226Y-95963937D01*
X133568509Y-95960220D01*
X133557682Y-95950189D01*
X133490852Y-95868757D01*
X133482248Y-95855880D01*
X133423554Y-95746071D01*
X133417628Y-95731763D01*
X133381489Y-95612628D01*
X133378467Y-95597439D01*
X133368141Y-95492599D01*
X133368704Y-95477850D01*
X133368704Y-95472591D01*
X133369904Y-95465786D01*
X133366700Y-95447614D01*
X133365500Y-95433897D01*
X133365500Y-93583699D01*
X135164288Y-93583699D01*
X135165018Y-93589280D01*
X135179816Y-93702439D01*
X135183249Y-93728695D01*
X135242143Y-93862542D01*
X135245765Y-93866851D01*
X135297507Y-93928405D01*
X135336236Y-93974479D01*
X135457964Y-94055508D01*
X135463338Y-94057187D01*
X135555788Y-94086071D01*
X135597541Y-94099116D01*
X135647056Y-94100023D01*
X135738120Y-94101692D01*
X135738121Y-94101692D01*
X135743747Y-94101795D01*
X135884829Y-94063332D01*
X135957535Y-94018691D01*
X136010479Y-94007872D01*
X136057992Y-94033615D01*
X136069784Y-94051198D01*
X136082824Y-94077757D01*
X136087445Y-94082370D01*
X136098760Y-94093665D01*
X136167762Y-94162547D01*
X136275585Y-94215253D01*
X136301775Y-94219074D01*
X136343001Y-94225088D01*
X136343006Y-94225088D01*
X136345828Y-94225500D01*
X136814172Y-94225500D01*
X136885026Y-94215070D01*
X136992757Y-94162176D01*
X137077547Y-94077238D01*
X137130253Y-93969415D01*
X137134950Y-93937218D01*
X137140088Y-93901999D01*
X137140088Y-93901994D01*
X137140500Y-93899172D01*
X137669500Y-93899172D01*
X137679930Y-93970026D01*
X137732824Y-94077757D01*
X137737445Y-94082370D01*
X137748760Y-94093665D01*
X137817762Y-94162547D01*
X137823625Y-94165413D01*
X137823628Y-94165415D01*
X137896989Y-94201275D01*
X137934494Y-94240180D01*
X137940982Y-94270762D01*
X137940096Y-94275785D01*
X137940873Y-94280190D01*
X137941297Y-94285578D01*
X137941297Y-94285581D01*
X137944873Y-94331018D01*
X137956401Y-94477504D01*
X138003637Y-94674255D01*
X138081070Y-94861195D01*
X138186793Y-95033720D01*
X138188810Y-95036082D01*
X138188811Y-95036083D01*
X138199268Y-95048326D01*
X138315335Y-95184224D01*
X138317900Y-95187887D01*
X138323563Y-95191852D01*
X138333017Y-95198472D01*
X138343566Y-95207324D01*
X138982679Y-95846437D01*
X138991528Y-95856981D01*
X139002114Y-95872100D01*
X139007774Y-95876063D01*
X139011491Y-95879780D01*
X139022318Y-95889811D01*
X139089148Y-95971243D01*
X139097752Y-95984120D01*
X139156446Y-96093929D01*
X139162372Y-96108237D01*
X139198511Y-96227372D01*
X139201533Y-96242561D01*
X139211859Y-96347401D01*
X139211296Y-96362150D01*
X139211296Y-96367409D01*
X139210096Y-96374214D01*
X139211296Y-96381020D01*
X139213300Y-96392385D01*
X139214500Y-96406103D01*
X139214500Y-102873897D01*
X139213300Y-102887614D01*
X139210096Y-102905786D01*
X139210871Y-102910180D01*
X139211297Y-102915593D01*
X139211297Y-102915595D01*
X139211622Y-102919729D01*
X139226400Y-103107504D01*
X139232736Y-103133896D01*
X139268564Y-103283128D01*
X139273636Y-103304256D01*
X139351069Y-103491195D01*
X139456792Y-103663721D01*
X139458805Y-103666077D01*
X139458805Y-103666078D01*
X139485741Y-103697616D01*
X139585344Y-103814235D01*
X139587900Y-103817886D01*
X139603019Y-103828472D01*
X139613563Y-103837321D01*
X140692676Y-104916434D01*
X140701528Y-104926983D01*
X140702346Y-104928151D01*
X140712113Y-104942100D01*
X140715776Y-104944665D01*
X140719881Y-104948171D01*
X140719883Y-104948173D01*
X140858364Y-105066446D01*
X140866280Y-105073207D01*
X141038805Y-105178930D01*
X141225745Y-105256363D01*
X141228762Y-105257087D01*
X141228764Y-105257088D01*
X141308209Y-105276161D01*
X141422496Y-105303599D01*
X141522782Y-105311491D01*
X141614418Y-105318703D01*
X141614422Y-105318703D01*
X141619810Y-105319127D01*
X141624215Y-105319904D01*
X141631021Y-105318704D01*
X141631022Y-105318704D01*
X141642386Y-105316700D01*
X141656104Y-105315500D01*
X147213898Y-105315500D01*
X147227616Y-105316700D01*
X147238980Y-105318704D01*
X147238981Y-105318704D01*
X147245787Y-105319904D01*
X147250192Y-105319127D01*
X147255580Y-105318703D01*
X147255584Y-105318703D01*
X147347220Y-105311491D01*
X147447506Y-105303599D01*
X147561793Y-105276161D01*
X147641238Y-105257088D01*
X147641240Y-105257087D01*
X147644257Y-105256363D01*
X147831197Y-105178930D01*
X148003722Y-105073207D01*
X148011638Y-105066446D01*
X148150119Y-104948173D01*
X148150121Y-104948171D01*
X148154226Y-104944665D01*
X148157889Y-104942100D01*
X148167656Y-104928151D01*
X148168474Y-104926983D01*
X148177326Y-104916434D01*
X149001315Y-104092445D01*
X149050291Y-104069607D01*
X149058623Y-104069319D01*
X149082470Y-104069756D01*
X149188122Y-104071692D01*
X149188123Y-104071692D01*
X149193749Y-104071795D01*
X149334831Y-104033332D01*
X149459447Y-103956818D01*
X149463220Y-103952650D01*
X149463222Y-103952648D01*
X149553801Y-103852577D01*
X149553802Y-103852576D01*
X149557578Y-103848404D01*
X149621337Y-103716805D01*
X149622294Y-103711120D01*
X149645092Y-103575610D01*
X149645092Y-103575607D01*
X149645598Y-103572601D01*
X149645752Y-103560000D01*
X149631650Y-103461526D01*
X149625820Y-103420816D01*
X149625819Y-103420814D01*
X149625022Y-103415246D01*
X149618190Y-103400220D01*
X149566829Y-103287257D01*
X149566828Y-103287255D01*
X149564497Y-103282129D01*
X149560822Y-103277864D01*
X149560820Y-103277861D01*
X149472718Y-103175615D01*
X149469043Y-103171350D01*
X149421926Y-103140810D01*
X149351056Y-103094874D01*
X149351053Y-103094872D01*
X149346334Y-103091814D01*
X149276284Y-103070864D01*
X149211623Y-103051526D01*
X149211621Y-103051526D01*
X149206235Y-103049915D01*
X149133713Y-103049472D01*
X149065632Y-103049056D01*
X149065630Y-103049056D01*
X149060007Y-103049022D01*
X148919406Y-103089206D01*
X148850410Y-103132739D01*
X148837622Y-103140808D01*
X148795734Y-103167237D01*
X148792013Y-103171450D01*
X148792012Y-103171451D01*
X148728328Y-103243559D01*
X148698934Y-103276841D01*
X148636788Y-103409209D01*
X148614290Y-103553699D01*
X148616046Y-103567125D01*
X148622920Y-103619691D01*
X148611178Y-103672439D01*
X148600448Y-103685796D01*
X147773570Y-104512674D01*
X147763022Y-104521526D01*
X147747901Y-104532114D01*
X147743935Y-104537778D01*
X147740208Y-104541505D01*
X147730190Y-104552319D01*
X147648757Y-104619149D01*
X147635880Y-104627753D01*
X147526075Y-104686445D01*
X147511767Y-104692371D01*
X147392629Y-104728510D01*
X147377441Y-104731532D01*
X147340893Y-104735132D01*
X147272595Y-104741859D01*
X147257878Y-104741296D01*
X147252595Y-104741296D01*
X147245789Y-104740096D01*
X147238983Y-104741296D01*
X147227618Y-104743300D01*
X147213900Y-104744500D01*
X141656102Y-104744500D01*
X141642384Y-104743300D01*
X141631019Y-104741296D01*
X141624213Y-104740096D01*
X141617407Y-104741296D01*
X141612124Y-104741296D01*
X141597407Y-104741859D01*
X141529109Y-104735132D01*
X141492561Y-104731532D01*
X141477373Y-104728510D01*
X141358235Y-104692371D01*
X141343927Y-104686445D01*
X141234122Y-104627753D01*
X141221245Y-104619149D01*
X141139812Y-104552319D01*
X141129794Y-104541505D01*
X141126067Y-104537778D01*
X141122101Y-104532114D01*
X141106980Y-104521526D01*
X141096432Y-104512674D01*
X140017321Y-103433563D01*
X140008472Y-103423019D01*
X139997886Y-103407900D01*
X139992226Y-103403937D01*
X139988509Y-103400220D01*
X139977682Y-103390189D01*
X139921058Y-103321193D01*
X139910851Y-103308756D01*
X139902248Y-103295880D01*
X139843554Y-103186071D01*
X139837628Y-103171763D01*
X139801489Y-103052628D01*
X139798467Y-103037439D01*
X139788141Y-102932599D01*
X139788704Y-102917850D01*
X139788704Y-102912591D01*
X139789904Y-102905786D01*
X139786700Y-102887614D01*
X139785500Y-102873897D01*
X139785500Y-98343699D01*
X140094286Y-98343699D01*
X140095016Y-98349280D01*
X140111080Y-98472122D01*
X140113247Y-98488695D01*
X140172141Y-98622542D01*
X140175763Y-98626851D01*
X140204759Y-98661346D01*
X140266234Y-98734479D01*
X140289198Y-98749765D01*
X140289273Y-98749815D01*
X140321303Y-98793339D01*
X140324498Y-98815578D01*
X140324498Y-102703894D01*
X140323298Y-102717611D01*
X140320094Y-102735783D01*
X140320871Y-102740188D01*
X140321295Y-102745576D01*
X140321295Y-102745580D01*
X140322634Y-102762594D01*
X140336399Y-102937502D01*
X140383635Y-103134253D01*
X140461068Y-103321193D01*
X140566791Y-103493718D01*
X140568808Y-103496080D01*
X140568809Y-103496081D01*
X140678555Y-103624577D01*
X140695333Y-103644222D01*
X140697898Y-103647885D01*
X140703561Y-103651850D01*
X140713015Y-103658470D01*
X140723564Y-103667322D01*
X141202679Y-104146437D01*
X141211528Y-104156981D01*
X141222114Y-104172100D01*
X141225765Y-104174656D01*
X141229904Y-104178191D01*
X141229905Y-104178192D01*
X141328707Y-104262577D01*
X141376279Y-104303208D01*
X141548805Y-104408931D01*
X141735744Y-104486364D01*
X141738761Y-104487088D01*
X141738763Y-104487089D01*
X141812152Y-104504708D01*
X141932496Y-104533600D01*
X142068687Y-104544318D01*
X142124405Y-104548703D01*
X142124407Y-104548703D01*
X142129820Y-104549129D01*
X142134214Y-104549904D01*
X142141020Y-104548704D01*
X142141021Y-104548704D01*
X142152385Y-104546700D01*
X142166103Y-104545500D01*
X146563897Y-104545500D01*
X146577615Y-104546700D01*
X146588979Y-104548704D01*
X146588980Y-104548704D01*
X146595786Y-104549904D01*
X146600180Y-104549129D01*
X146605593Y-104548703D01*
X146605595Y-104548703D01*
X146661313Y-104544318D01*
X146797504Y-104533600D01*
X146917848Y-104504708D01*
X146991237Y-104487089D01*
X146991239Y-104487088D01*
X146994256Y-104486364D01*
X147181195Y-104408931D01*
X147353721Y-104303208D01*
X147401294Y-104262577D01*
X147500095Y-104178192D01*
X147500096Y-104178191D01*
X147504235Y-104174656D01*
X147507886Y-104172100D01*
X147518472Y-104156981D01*
X147527321Y-104146437D01*
X149335436Y-102338322D01*
X149384412Y-102315484D01*
X149420377Y-102320731D01*
X149527868Y-102363289D01*
X149532903Y-102363898D01*
X149532906Y-102363899D01*
X149575606Y-102369066D01*
X149615197Y-102373857D01*
X150031716Y-102373857D01*
X150448410Y-102373856D01*
X150463463Y-102372035D01*
X150530702Y-102363899D01*
X150530705Y-102363898D01*
X150535740Y-102363289D01*
X150672155Y-102309279D01*
X150789020Y-102220573D01*
X150877726Y-102103708D01*
X150886817Y-102080746D01*
X150929867Y-101972014D01*
X150929867Y-101972013D01*
X150931736Y-101967293D01*
X150942304Y-101879964D01*
X150942303Y-99546751D01*
X150939461Y-99523263D01*
X150932346Y-99464459D01*
X150932345Y-99464456D01*
X150931736Y-99459421D01*
X150877726Y-99323006D01*
X150789020Y-99206141D01*
X150751796Y-99177886D01*
X150676442Y-99120689D01*
X150672155Y-99117435D01*
X150638315Y-99104037D01*
X150540461Y-99065294D01*
X150540460Y-99065294D01*
X150535740Y-99063425D01*
X150530705Y-99062816D01*
X150530702Y-99062815D01*
X150477324Y-99056356D01*
X150448411Y-99052857D01*
X150031892Y-99052857D01*
X149615198Y-99052858D01*
X149600145Y-99054679D01*
X149532906Y-99062815D01*
X149532903Y-99062816D01*
X149527868Y-99063425D01*
X149391453Y-99117435D01*
X149387166Y-99120689D01*
X149311812Y-99177886D01*
X149274588Y-99206141D01*
X149185882Y-99323006D01*
X149131872Y-99459421D01*
X149121304Y-99546750D01*
X149121305Y-100636915D01*
X149121305Y-101712215D01*
X149102823Y-101762995D01*
X149098166Y-101768076D01*
X147123563Y-103742679D01*
X147113019Y-103751528D01*
X147097900Y-103762114D01*
X147093937Y-103767774D01*
X147090220Y-103771491D01*
X147080189Y-103782318D01*
X147023954Y-103828469D01*
X146999664Y-103848404D01*
X146998757Y-103849148D01*
X146985880Y-103857752D01*
X146876071Y-103916446D01*
X146861763Y-103922372D01*
X146742628Y-103958511D01*
X146727439Y-103961533D01*
X146622599Y-103971859D01*
X146607850Y-103971296D01*
X146602591Y-103971296D01*
X146595786Y-103970096D01*
X146588980Y-103971296D01*
X146577615Y-103973300D01*
X146563897Y-103974500D01*
X142166103Y-103974500D01*
X142152385Y-103973300D01*
X142141020Y-103971296D01*
X142134214Y-103970096D01*
X142127409Y-103971296D01*
X142122150Y-103971296D01*
X142107401Y-103971859D01*
X142002561Y-103961533D01*
X141987372Y-103958511D01*
X141868237Y-103922372D01*
X141853929Y-103916446D01*
X141744120Y-103857752D01*
X141731243Y-103849148D01*
X141730337Y-103848404D01*
X141706046Y-103828469D01*
X141649811Y-103782318D01*
X141639780Y-103771491D01*
X141636063Y-103767774D01*
X141632100Y-103762114D01*
X141616981Y-103751528D01*
X141606437Y-103742679D01*
X141157180Y-103293422D01*
X141965626Y-103293422D01*
X141967022Y-103298633D01*
X141995270Y-103323406D01*
X141999368Y-103326551D01*
X142243898Y-103489941D01*
X142248370Y-103492523D01*
X142512136Y-103622597D01*
X142516915Y-103624577D01*
X142795388Y-103719106D01*
X142800394Y-103720447D01*
X143088832Y-103777821D01*
X143093949Y-103778495D01*
X143387422Y-103797730D01*
X143392578Y-103797730D01*
X143686051Y-103778495D01*
X143691168Y-103777821D01*
X143979606Y-103720447D01*
X143984612Y-103719106D01*
X144263085Y-103624577D01*
X144267864Y-103622597D01*
X144531630Y-103492523D01*
X144536102Y-103489941D01*
X144780632Y-103326551D01*
X144784730Y-103323406D01*
X144808952Y-103302164D01*
X144814414Y-103292207D01*
X144813361Y-103286915D01*
X143399851Y-101873404D01*
X143389557Y-101868604D01*
X143383263Y-101870290D01*
X141970426Y-103283128D01*
X141965626Y-103293422D01*
X141157180Y-103293422D01*
X141127324Y-103263566D01*
X141118472Y-103253018D01*
X141117541Y-103251689D01*
X141107884Y-103237897D01*
X141102220Y-103233931D01*
X141098493Y-103230204D01*
X141087679Y-103220186D01*
X141020849Y-103138753D01*
X141012245Y-103125876D01*
X140953553Y-103016071D01*
X140947627Y-103001763D01*
X140911488Y-102882625D01*
X140908466Y-102867437D01*
X140898139Y-102762594D01*
X140898702Y-102747874D01*
X140898702Y-102742591D01*
X140899902Y-102735785D01*
X140896698Y-102717612D01*
X140895498Y-102703896D01*
X140895498Y-101512578D01*
X141102270Y-101512578D01*
X141121505Y-101806051D01*
X141122179Y-101811168D01*
X141179553Y-102099606D01*
X141180894Y-102104612D01*
X141275423Y-102383085D01*
X141277403Y-102387864D01*
X141407477Y-102651629D01*
X141410059Y-102656102D01*
X141573449Y-102900632D01*
X141576594Y-102904730D01*
X141597836Y-102928952D01*
X141607793Y-102934414D01*
X141613085Y-102933361D01*
X143026596Y-101519851D01*
X143030983Y-101510443D01*
X143748604Y-101510443D01*
X143750290Y-101516737D01*
X145163128Y-102929574D01*
X145173422Y-102934374D01*
X145178633Y-102932978D01*
X145203406Y-102904730D01*
X145206551Y-102900632D01*
X145369941Y-102656102D01*
X145372523Y-102651629D01*
X145502597Y-102387864D01*
X145504577Y-102383085D01*
X145599106Y-102104612D01*
X145600447Y-102099606D01*
X145657821Y-101811168D01*
X145658495Y-101806051D01*
X145677730Y-101512578D01*
X145677730Y-101507422D01*
X145658495Y-101213949D01*
X145657821Y-101208832D01*
X145600447Y-100920394D01*
X145599106Y-100915388D01*
X145504577Y-100636915D01*
X145502597Y-100632136D01*
X145372523Y-100368371D01*
X145369941Y-100363898D01*
X145206551Y-100119368D01*
X145203406Y-100115270D01*
X145182164Y-100091048D01*
X145172207Y-100085586D01*
X145166915Y-100086639D01*
X143753404Y-101500149D01*
X143748604Y-101510443D01*
X143030983Y-101510443D01*
X143031396Y-101509557D01*
X143029710Y-101503263D01*
X141616872Y-100090426D01*
X141606578Y-100085626D01*
X141601367Y-100087022D01*
X141576594Y-100115270D01*
X141573449Y-100119368D01*
X141410059Y-100363898D01*
X141407477Y-100368371D01*
X141277403Y-100632136D01*
X141275423Y-100636915D01*
X141180894Y-100915388D01*
X141179553Y-100920394D01*
X141122179Y-101208832D01*
X141121505Y-101213949D01*
X141102270Y-101507422D01*
X141102270Y-101512578D01*
X140895498Y-101512578D01*
X140895498Y-99727793D01*
X141965586Y-99727793D01*
X141966639Y-99733085D01*
X143380149Y-101146596D01*
X143390443Y-101151396D01*
X143396737Y-101149710D01*
X144809574Y-99736872D01*
X144814374Y-99726578D01*
X144812978Y-99721367D01*
X144784730Y-99696594D01*
X144780632Y-99693449D01*
X144536102Y-99530059D01*
X144531630Y-99527477D01*
X144267864Y-99397403D01*
X144263085Y-99395423D01*
X143984612Y-99300894D01*
X143979606Y-99299553D01*
X143691168Y-99242179D01*
X143686051Y-99241505D01*
X143392578Y-99222270D01*
X143387422Y-99222270D01*
X143093949Y-99241505D01*
X143088832Y-99242179D01*
X142800394Y-99299553D01*
X142795388Y-99300894D01*
X142516915Y-99395423D01*
X142512136Y-99397403D01*
X142248371Y-99527477D01*
X142243898Y-99530059D01*
X141999368Y-99693449D01*
X141995270Y-99696594D01*
X141971048Y-99717836D01*
X141965586Y-99727793D01*
X140895498Y-99727793D01*
X140895498Y-98817998D01*
X140913980Y-98767218D01*
X140933158Y-98750678D01*
X140934646Y-98749765D01*
X140934654Y-98749759D01*
X140939443Y-98746818D01*
X140943216Y-98742650D01*
X140943218Y-98742648D01*
X141033797Y-98642577D01*
X141033798Y-98642576D01*
X141037574Y-98638404D01*
X141057057Y-98598192D01*
X141098879Y-98511870D01*
X141101333Y-98506805D01*
X141105319Y-98483116D01*
X141125088Y-98365610D01*
X141125088Y-98365607D01*
X141125594Y-98362601D01*
X141125748Y-98350000D01*
X141117414Y-98291805D01*
X141105816Y-98210816D01*
X141105815Y-98210814D01*
X141105018Y-98205246D01*
X141098764Y-98191491D01*
X141046825Y-98077257D01*
X141046824Y-98077255D01*
X141044493Y-98072129D01*
X141040818Y-98067864D01*
X141040816Y-98067861D01*
X140952714Y-97965615D01*
X140949039Y-97961350D01*
X140897096Y-97927682D01*
X140831052Y-97884874D01*
X140831049Y-97884872D01*
X140826330Y-97881814D01*
X140739731Y-97855915D01*
X140691619Y-97841526D01*
X140691617Y-97841526D01*
X140686231Y-97839915D01*
X140613709Y-97839472D01*
X140545628Y-97839056D01*
X140545626Y-97839056D01*
X140540003Y-97839022D01*
X140399402Y-97879206D01*
X140360811Y-97903555D01*
X140284273Y-97951847D01*
X140275730Y-97957237D01*
X140272009Y-97961450D01*
X140272008Y-97961451D01*
X140198611Y-98044557D01*
X140178930Y-98066841D01*
X140176538Y-98071936D01*
X140120408Y-98191491D01*
X140116784Y-98199209D01*
X140094286Y-98343699D01*
X139785500Y-98343699D01*
X139785500Y-96633699D01*
X140024288Y-96633699D01*
X140025511Y-96643052D01*
X140042488Y-96772875D01*
X140043249Y-96778695D01*
X140102143Y-96912542D01*
X140105765Y-96916851D01*
X140156282Y-96976948D01*
X140196236Y-97024479D01*
X140317964Y-97105508D01*
X140457541Y-97149116D01*
X140545369Y-97150725D01*
X140598124Y-97151692D01*
X140603747Y-97151795D01*
X140605596Y-97151291D01*
X140656773Y-97163012D01*
X140669723Y-97173481D01*
X142062679Y-98566437D01*
X142071528Y-98576981D01*
X142082114Y-98592100D01*
X142085765Y-98594656D01*
X142089904Y-98598191D01*
X142089905Y-98598192D01*
X142135100Y-98636792D01*
X142236279Y-98723208D01*
X142408805Y-98828931D01*
X142595744Y-98906364D01*
X142598761Y-98907088D01*
X142598763Y-98907089D01*
X142656795Y-98921021D01*
X142792496Y-98953600D01*
X142928687Y-98964318D01*
X142984405Y-98968703D01*
X142984407Y-98968703D01*
X142989820Y-98969129D01*
X142994214Y-98969904D01*
X143001020Y-98968704D01*
X143001021Y-98968704D01*
X143012385Y-98966700D01*
X143026103Y-98965500D01*
X144153897Y-98965500D01*
X144167615Y-98966700D01*
X144178975Y-98968703D01*
X144185786Y-98969904D01*
X144192591Y-98968704D01*
X144197850Y-98968704D01*
X144212599Y-98968141D01*
X144317439Y-98978467D01*
X144332628Y-98981489D01*
X144451763Y-99017628D01*
X144466071Y-99023554D01*
X144575880Y-99082248D01*
X144588757Y-99090852D01*
X144670189Y-99157682D01*
X144680220Y-99168509D01*
X144683937Y-99172226D01*
X144687900Y-99177886D01*
X144703019Y-99188472D01*
X144713563Y-99197321D01*
X146116219Y-100599977D01*
X146125068Y-100610521D01*
X146135654Y-100625640D01*
X146139305Y-100628196D01*
X146143444Y-100631731D01*
X146143445Y-100631732D01*
X146149514Y-100636915D01*
X146289819Y-100756748D01*
X146462345Y-100862471D01*
X146500410Y-100878238D01*
X146539980Y-100894629D01*
X146579822Y-100931137D01*
X146588748Y-100967615D01*
X146588748Y-101880146D01*
X146589034Y-101882509D01*
X146598684Y-101962260D01*
X146599315Y-101967476D01*
X146653325Y-102103891D01*
X146656579Y-102108178D01*
X146692813Y-102155914D01*
X146742031Y-102220756D01*
X146858896Y-102309462D01*
X146863902Y-102311444D01*
X146887359Y-102320731D01*
X146995311Y-102363472D01*
X147000346Y-102364081D01*
X147000349Y-102364082D01*
X147041537Y-102369066D01*
X147082640Y-102374040D01*
X147499159Y-102374040D01*
X147915853Y-102374039D01*
X147945101Y-102370500D01*
X147998145Y-102364082D01*
X147998148Y-102364081D01*
X148003183Y-102363472D01*
X148139598Y-102309462D01*
X148256463Y-102220756D01*
X148305681Y-102155914D01*
X148341915Y-102108178D01*
X148345169Y-102103891D01*
X148353120Y-102083808D01*
X148397310Y-101972197D01*
X148397311Y-101972195D01*
X148399179Y-101967476D01*
X148399811Y-101962260D01*
X148409461Y-101882509D01*
X148409747Y-101880147D01*
X148409746Y-99546934D01*
X148405518Y-99511989D01*
X148399789Y-99464642D01*
X148399788Y-99464639D01*
X148399179Y-99459604D01*
X148345169Y-99323189D01*
X148256463Y-99206324D01*
X148192380Y-99157682D01*
X148143885Y-99120872D01*
X148139598Y-99117618D01*
X148050263Y-99082248D01*
X148007904Y-99065477D01*
X148007903Y-99065477D01*
X148003183Y-99063608D01*
X147998148Y-99062999D01*
X147998145Y-99062998D01*
X147944767Y-99056539D01*
X147915854Y-99053040D01*
X147499335Y-99053040D01*
X147082641Y-99053041D01*
X147067588Y-99054862D01*
X147000349Y-99062998D01*
X147000346Y-99062999D01*
X146995311Y-99063608D01*
X146858896Y-99117618D01*
X146854609Y-99120872D01*
X146806114Y-99157682D01*
X146742031Y-99206324D01*
X146653325Y-99323189D01*
X146651343Y-99328195D01*
X146601257Y-99454700D01*
X146599315Y-99459604D01*
X146588747Y-99546933D01*
X146588747Y-100074267D01*
X146570265Y-100125047D01*
X146523465Y-100152067D01*
X146470247Y-100142683D01*
X146453886Y-100130128D01*
X145117321Y-98793563D01*
X145108472Y-98783019D01*
X145097886Y-98767900D01*
X145094235Y-98765344D01*
X145090095Y-98761808D01*
X144946078Y-98638805D01*
X144946077Y-98638805D01*
X144943721Y-98636792D01*
X144771195Y-98531069D01*
X144584256Y-98453636D01*
X144581239Y-98452912D01*
X144581237Y-98452911D01*
X144494323Y-98432045D01*
X144387504Y-98406400D01*
X144251313Y-98395682D01*
X144195595Y-98391297D01*
X144195593Y-98391297D01*
X144190180Y-98390871D01*
X144185786Y-98390096D01*
X144178980Y-98391296D01*
X144178979Y-98391296D01*
X144167615Y-98393300D01*
X144153897Y-98394500D01*
X143026103Y-98394500D01*
X143012385Y-98393300D01*
X143001020Y-98391296D01*
X142994214Y-98390096D01*
X142987409Y-98391296D01*
X142982150Y-98391296D01*
X142967401Y-98391859D01*
X142862561Y-98381533D01*
X142847372Y-98378511D01*
X142728237Y-98342372D01*
X142713929Y-98336446D01*
X142604120Y-98277752D01*
X142591243Y-98269148D01*
X142509811Y-98202318D01*
X142499780Y-98191491D01*
X142496063Y-98187774D01*
X142492100Y-98182114D01*
X142476981Y-98171528D01*
X142466437Y-98162679D01*
X141070106Y-96766348D01*
X141047268Y-96717372D01*
X141048062Y-96697384D01*
X141055596Y-96652601D01*
X141055750Y-96640000D01*
X141046832Y-96577725D01*
X141035818Y-96500816D01*
X141035817Y-96500814D01*
X141035020Y-96495246D01*
X141022948Y-96468695D01*
X140976827Y-96367257D01*
X140976826Y-96367255D01*
X140974495Y-96362129D01*
X140970820Y-96357864D01*
X140970818Y-96357861D01*
X140907606Y-96284501D01*
X140895827Y-96253411D01*
X140881711Y-96252176D01*
X140872129Y-96246870D01*
X140761054Y-96174874D01*
X140761051Y-96174872D01*
X140756332Y-96171814D01*
X140686283Y-96150865D01*
X140621621Y-96131526D01*
X140621619Y-96131526D01*
X140616233Y-96129915D01*
X140543711Y-96129472D01*
X140475630Y-96129056D01*
X140475628Y-96129056D01*
X140470005Y-96129022D01*
X140329404Y-96169206D01*
X140265016Y-96209832D01*
X140225409Y-96234822D01*
X140205732Y-96247237D01*
X140108932Y-96356841D01*
X140089927Y-96397321D01*
X140059037Y-96463116D01*
X140046786Y-96489209D01*
X140024288Y-96633699D01*
X139785500Y-96633699D01*
X139785500Y-96406103D01*
X139786700Y-96392385D01*
X139788704Y-96381021D01*
X139788704Y-96381020D01*
X139789904Y-96374214D01*
X139789129Y-96369820D01*
X139788526Y-96362150D01*
X139779871Y-96252176D01*
X139773600Y-96172496D01*
X139736509Y-96018001D01*
X139727089Y-95978763D01*
X139727088Y-95978761D01*
X139726364Y-95975744D01*
X139648931Y-95788805D01*
X139543208Y-95616279D01*
X139414656Y-95465765D01*
X139412100Y-95462114D01*
X139396981Y-95451528D01*
X139386437Y-95442679D01*
X138747326Y-94803568D01*
X138738474Y-94793020D01*
X138736084Y-94789607D01*
X138727886Y-94777899D01*
X138722222Y-94773933D01*
X138718495Y-94770206D01*
X138707681Y-94760188D01*
X138640851Y-94678755D01*
X138632247Y-94665878D01*
X138573555Y-94556073D01*
X138567629Y-94541765D01*
X138531490Y-94422627D01*
X138528468Y-94407439D01*
X138520710Y-94328674D01*
X138518141Y-94302593D01*
X138518704Y-94287876D01*
X138518704Y-94282593D01*
X138519904Y-94275787D01*
X138519099Y-94271220D01*
X138537186Y-94221525D01*
X138562886Y-94201391D01*
X138563123Y-94201275D01*
X138642757Y-94162176D01*
X138727547Y-94077238D01*
X138780253Y-93969415D01*
X138784950Y-93937218D01*
X138790088Y-93901999D01*
X138790088Y-93901994D01*
X138790500Y-93899172D01*
X138790500Y-93280828D01*
X138780070Y-93209974D01*
X138727176Y-93102243D01*
X138642238Y-93017453D01*
X138534415Y-92964747D01*
X138508225Y-92960926D01*
X138466999Y-92954912D01*
X138466994Y-92954912D01*
X138464172Y-92954500D01*
X137995828Y-92954500D01*
X137924974Y-92964930D01*
X137817243Y-93017824D01*
X137732453Y-93102762D01*
X137679747Y-93210585D01*
X137678862Y-93216653D01*
X137669916Y-93277978D01*
X137669500Y-93280828D01*
X137669500Y-93899172D01*
X137140500Y-93899172D01*
X137140500Y-93280828D01*
X137130070Y-93209974D01*
X137077176Y-93102243D01*
X136992238Y-93017453D01*
X136884415Y-92964747D01*
X136858225Y-92960926D01*
X136816999Y-92954912D01*
X136816994Y-92954912D01*
X136814172Y-92954500D01*
X136345828Y-92954500D01*
X136274974Y-92964930D01*
X136167243Y-93017824D01*
X136082453Y-93102762D01*
X136069743Y-93128762D01*
X136030840Y-93166266D01*
X135976929Y-93169989D01*
X135955801Y-93160360D01*
X135901053Y-93124874D01*
X135896332Y-93121814D01*
X135815467Y-93097630D01*
X135761621Y-93081526D01*
X135761619Y-93081526D01*
X135756233Y-93079915D01*
X135683711Y-93079472D01*
X135615630Y-93079056D01*
X135615628Y-93079056D01*
X135610005Y-93079022D01*
X135469404Y-93119206D01*
X135421188Y-93149628D01*
X135358968Y-93188886D01*
X135345732Y-93197237D01*
X135342011Y-93201450D01*
X135342010Y-93201451D01*
X135306255Y-93241936D01*
X135248932Y-93306841D01*
X135186786Y-93439209D01*
X135164288Y-93583699D01*
X133365500Y-93583699D01*
X133365500Y-92656104D01*
X133366700Y-92642386D01*
X133368704Y-92631022D01*
X133368704Y-92631019D01*
X133369904Y-92624215D01*
X133369127Y-92619810D01*
X133368680Y-92614120D01*
X133358229Y-92481326D01*
X133353599Y-92422496D01*
X133306363Y-92225745D01*
X133228930Y-92038805D01*
X133123207Y-91866280D01*
X133081405Y-91817336D01*
X132998173Y-91719883D01*
X132998171Y-91719881D01*
X132994665Y-91715776D01*
X132992100Y-91712113D01*
X132976983Y-91701528D01*
X132966434Y-91692676D01*
X132127457Y-90853699D01*
X135164288Y-90853699D01*
X135183249Y-90998695D01*
X135242143Y-91132542D01*
X135336236Y-91244479D01*
X135457964Y-91325508D01*
X135463338Y-91327187D01*
X135473600Y-91330393D01*
X135597541Y-91369116D01*
X135647056Y-91370023D01*
X135738120Y-91371692D01*
X135738121Y-91371692D01*
X135743747Y-91371795D01*
X135884829Y-91333332D01*
X135949851Y-91293409D01*
X136002795Y-91282590D01*
X136050308Y-91308333D01*
X136062100Y-91325915D01*
X136072824Y-91347757D01*
X136077445Y-91352370D01*
X136111697Y-91386562D01*
X136157762Y-91432547D01*
X136265585Y-91485253D01*
X136291775Y-91489074D01*
X136333001Y-91495088D01*
X136333006Y-91495088D01*
X136335828Y-91495500D01*
X136804172Y-91495500D01*
X136875026Y-91485070D01*
X136982757Y-91432176D01*
X137067547Y-91347238D01*
X137120253Y-91239415D01*
X137124074Y-91213225D01*
X137130088Y-91171999D01*
X137130088Y-91171994D01*
X137130500Y-91169172D01*
X137659500Y-91169172D01*
X137669930Y-91240026D01*
X137722824Y-91347757D01*
X137727445Y-91352370D01*
X137761697Y-91386562D01*
X137807762Y-91432547D01*
X137915585Y-91485253D01*
X137941775Y-91489074D01*
X137983001Y-91495088D01*
X137983006Y-91495088D01*
X137985828Y-91495500D01*
X138017210Y-91495500D01*
X138067990Y-91513982D01*
X138084568Y-91533222D01*
X138176793Y-91683720D01*
X138178810Y-91686082D01*
X138178811Y-91686083D01*
X138284975Y-91810385D01*
X138305335Y-91834224D01*
X138307900Y-91837887D01*
X138313563Y-91841852D01*
X138323017Y-91848472D01*
X138333566Y-91857324D01*
X138952679Y-92476437D01*
X138961528Y-92486981D01*
X138972114Y-92502100D01*
X138977774Y-92506063D01*
X138981491Y-92509780D01*
X138992318Y-92519811D01*
X139059148Y-92601243D01*
X139067752Y-92614120D01*
X139126446Y-92723929D01*
X139132372Y-92738237D01*
X139168511Y-92857372D01*
X139171533Y-92872561D01*
X139181859Y-92977401D01*
X139181296Y-92992150D01*
X139181296Y-92997409D01*
X139180096Y-93004214D01*
X139181296Y-93011020D01*
X139183300Y-93022385D01*
X139184500Y-93036103D01*
X139184500Y-93773897D01*
X139183300Y-93787614D01*
X139180096Y-93805786D01*
X139180871Y-93810180D01*
X139181297Y-93815593D01*
X139181297Y-93815595D01*
X139181786Y-93821811D01*
X139196400Y-94007504D01*
X139217991Y-94097438D01*
X139236388Y-94174064D01*
X139243636Y-94204256D01*
X139321069Y-94391195D01*
X139426792Y-94563721D01*
X139428805Y-94566077D01*
X139428805Y-94566078D01*
X139521198Y-94674255D01*
X139555344Y-94714235D01*
X139557900Y-94717886D01*
X139573019Y-94728472D01*
X139583563Y-94737321D01*
X140970959Y-96124717D01*
X140987901Y-96161049D01*
X141006054Y-96164006D01*
X141023314Y-96177072D01*
X142162679Y-97316437D01*
X142171528Y-97326981D01*
X142182114Y-97342100D01*
X142185765Y-97344656D01*
X142189904Y-97348191D01*
X142189905Y-97348192D01*
X142313448Y-97453708D01*
X142336279Y-97473208D01*
X142508805Y-97578931D01*
X142695744Y-97656364D01*
X142698761Y-97657088D01*
X142698763Y-97657089D01*
X142747031Y-97668677D01*
X142855346Y-97694681D01*
X142897377Y-97720665D01*
X142951603Y-97785174D01*
X142976236Y-97814479D01*
X143097964Y-97895508D01*
X143237541Y-97939116D01*
X143287056Y-97940023D01*
X143378120Y-97941692D01*
X143378121Y-97941692D01*
X143383747Y-97941795D01*
X143524829Y-97903332D01*
X143649445Y-97826818D01*
X143653218Y-97822650D01*
X143653220Y-97822648D01*
X143743799Y-97722577D01*
X143743800Y-97722576D01*
X143747576Y-97718404D01*
X143752952Y-97707309D01*
X143808881Y-97591870D01*
X143811335Y-97586805D01*
X143812933Y-97577310D01*
X143835090Y-97445610D01*
X143835090Y-97445607D01*
X143835596Y-97442601D01*
X143835750Y-97430000D01*
X143821846Y-97332912D01*
X143815818Y-97290816D01*
X143815817Y-97290814D01*
X143815020Y-97285246D01*
X143810134Y-97274500D01*
X143756827Y-97157257D01*
X143756826Y-97157255D01*
X143754495Y-97152129D01*
X143750820Y-97147864D01*
X143750818Y-97147861D01*
X143662716Y-97045615D01*
X143659041Y-97041350D01*
X143592731Y-96998370D01*
X143541054Y-96964874D01*
X143541051Y-96964872D01*
X143536332Y-96961814D01*
X143460122Y-96939022D01*
X143401621Y-96921526D01*
X143401619Y-96921526D01*
X143396233Y-96919915D01*
X143323711Y-96919472D01*
X143255630Y-96919056D01*
X143255628Y-96919056D01*
X143250005Y-96919022D01*
X143109404Y-96959206D01*
X143068723Y-96984874D01*
X142998418Y-97029233D01*
X142985732Y-97037237D01*
X142982011Y-97041450D01*
X142982010Y-97041451D01*
X142947637Y-97080371D01*
X142900169Y-97106197D01*
X142865494Y-97103674D01*
X142828227Y-97092369D01*
X142813927Y-97086446D01*
X142774956Y-97065615D01*
X142704117Y-97027751D01*
X142691243Y-97019148D01*
X142609811Y-96952318D01*
X142599780Y-96941491D01*
X142596063Y-96937774D01*
X142592100Y-96932114D01*
X142576979Y-96921526D01*
X142566437Y-96912679D01*
X139987321Y-94333563D01*
X139978472Y-94323019D01*
X139967886Y-94307900D01*
X139962226Y-94303937D01*
X139958509Y-94300220D01*
X139947682Y-94290189D01*
X139888734Y-94218361D01*
X139880851Y-94208756D01*
X139872248Y-94195880D01*
X139813554Y-94086071D01*
X139807628Y-94071763D01*
X139771489Y-93952628D01*
X139768467Y-93937439D01*
X139761560Y-93867308D01*
X140049500Y-93867308D01*
X140049985Y-93870368D01*
X140049985Y-93870372D01*
X140063752Y-93957291D01*
X140064725Y-93963433D01*
X140067547Y-93968971D01*
X140067547Y-93968972D01*
X140119922Y-94071763D01*
X140123759Y-94079294D01*
X140215706Y-94171241D01*
X140221245Y-94174063D01*
X140221246Y-94174064D01*
X140326028Y-94227453D01*
X140326029Y-94227453D01*
X140331567Y-94230275D01*
X140337708Y-94231248D01*
X140337709Y-94231248D01*
X140424628Y-94245015D01*
X140424632Y-94245015D01*
X140427692Y-94245500D01*
X141792308Y-94245500D01*
X141795368Y-94245015D01*
X141795372Y-94245015D01*
X141882291Y-94231248D01*
X141882292Y-94231248D01*
X141888433Y-94230275D01*
X141893971Y-94227453D01*
X141893972Y-94227453D01*
X141998754Y-94174064D01*
X141998755Y-94174063D01*
X142004294Y-94171241D01*
X142096241Y-94079294D01*
X142100078Y-94071763D01*
X142152453Y-93968972D01*
X142152453Y-93968971D01*
X142155275Y-93963433D01*
X142156248Y-93957291D01*
X142170015Y-93870372D01*
X142170015Y-93870368D01*
X142170500Y-93867308D01*
X142170500Y-93513699D01*
X142334288Y-93513699D01*
X142335018Y-93519280D01*
X142352072Y-93649691D01*
X142353249Y-93658695D01*
X142412143Y-93792542D01*
X142506236Y-93904479D01*
X142529200Y-93919765D01*
X142529275Y-93919815D01*
X142561305Y-93963339D01*
X142564500Y-93985578D01*
X142564500Y-94433897D01*
X142563300Y-94447614D01*
X142560096Y-94465786D01*
X142560871Y-94470180D01*
X142561297Y-94475593D01*
X142561297Y-94475595D01*
X142565195Y-94525125D01*
X142576400Y-94667504D01*
X142623636Y-94864256D01*
X142701069Y-95051195D01*
X142806792Y-95223721D01*
X142935344Y-95374235D01*
X142937900Y-95377886D01*
X142953019Y-95388472D01*
X142963563Y-95397321D01*
X144262676Y-96696434D01*
X144271528Y-96706983D01*
X144282113Y-96722100D01*
X144285776Y-96724665D01*
X144289881Y-96728171D01*
X144289883Y-96728173D01*
X144422918Y-96841795D01*
X144436280Y-96853207D01*
X144608805Y-96958930D01*
X144609535Y-96959233D01*
X144646027Y-96998370D01*
X144652305Y-97029233D01*
X144652305Y-97229963D01*
X144652591Y-97232326D01*
X144659105Y-97286157D01*
X144662872Y-97317293D01*
X144716882Y-97453708D01*
X144805588Y-97570573D01*
X144809871Y-97573824D01*
X144914923Y-97653563D01*
X144922453Y-97659279D01*
X145058868Y-97713289D01*
X145063903Y-97713898D01*
X145063906Y-97713899D01*
X145117284Y-97720358D01*
X145146197Y-97723857D01*
X146312558Y-97723857D01*
X147479410Y-97723856D01*
X147505782Y-97720665D01*
X147561702Y-97713899D01*
X147561705Y-97713898D01*
X147566740Y-97713289D01*
X147703155Y-97659279D01*
X147710686Y-97653563D01*
X147815737Y-97573824D01*
X147820020Y-97570573D01*
X147908726Y-97453708D01*
X147913124Y-97442601D01*
X147960867Y-97322014D01*
X147960868Y-97322012D01*
X147962736Y-97317293D01*
X147964700Y-97301069D01*
X147973018Y-97232326D01*
X147973304Y-97229964D01*
X147973303Y-96396751D01*
X147968392Y-96356161D01*
X147963346Y-96314459D01*
X147963345Y-96314456D01*
X147962736Y-96309421D01*
X147908726Y-96173006D01*
X147820020Y-96056141D01*
X147758074Y-96009121D01*
X147707442Y-95970689D01*
X147703155Y-95967435D01*
X147675923Y-95956653D01*
X147571461Y-95915294D01*
X147571460Y-95915294D01*
X147566740Y-95913425D01*
X147561705Y-95912816D01*
X147561702Y-95912815D01*
X147497673Y-95905067D01*
X147479411Y-95902857D01*
X146313050Y-95902857D01*
X145146198Y-95902858D01*
X145131145Y-95904679D01*
X145063906Y-95912815D01*
X145063903Y-95912816D01*
X145058868Y-95913425D01*
X144922453Y-95967435D01*
X144918166Y-95970689D01*
X144867534Y-96009121D01*
X144805588Y-96056141D01*
X144716882Y-96173006D01*
X144714902Y-96178006D01*
X144714899Y-96178012D01*
X144712902Y-96183056D01*
X144677022Y-96223465D01*
X144623562Y-96231357D01*
X144583590Y-96209832D01*
X143367321Y-94993563D01*
X143365300Y-94991155D01*
X152391805Y-94991155D01*
X152392015Y-94995219D01*
X152402208Y-95093468D01*
X152404025Y-95101879D01*
X152456550Y-95259316D01*
X152460420Y-95267577D01*
X152547616Y-95408485D01*
X152553281Y-95415633D01*
X152670561Y-95532707D01*
X152677707Y-95538351D01*
X152818773Y-95625306D01*
X152827039Y-95629160D01*
X152984583Y-95681416D01*
X152992969Y-95683214D01*
X153089974Y-95693153D01*
X153093978Y-95693357D01*
X153377874Y-95693357D01*
X153388545Y-95689473D01*
X153391804Y-95683829D01*
X153391804Y-94707287D01*
X153387920Y-94696616D01*
X153382276Y-94693357D01*
X152405735Y-94693357D01*
X152395064Y-94697241D01*
X152391805Y-94702885D01*
X152391805Y-94991155D01*
X143365300Y-94991155D01*
X143358472Y-94983019D01*
X143347886Y-94967900D01*
X143342226Y-94963937D01*
X143338509Y-94960220D01*
X143327682Y-94950189D01*
X143260852Y-94868757D01*
X143252248Y-94855880D01*
X143193554Y-94746071D01*
X143187628Y-94731763D01*
X143151489Y-94612628D01*
X143148467Y-94597439D01*
X143138141Y-94492599D01*
X143138704Y-94477850D01*
X143138704Y-94472591D01*
X143139904Y-94465786D01*
X143136700Y-94447614D01*
X143135500Y-94433897D01*
X143135500Y-93987998D01*
X143153982Y-93937218D01*
X143173160Y-93920678D01*
X143174648Y-93919765D01*
X143174656Y-93919759D01*
X143179445Y-93916818D01*
X143183218Y-93912650D01*
X143183220Y-93912648D01*
X143273799Y-93812577D01*
X143273800Y-93812576D01*
X143277576Y-93808404D01*
X143341335Y-93676805D01*
X143345321Y-93653116D01*
X143365090Y-93535610D01*
X143365090Y-93535607D01*
X143365596Y-93532601D01*
X143365750Y-93520000D01*
X143354180Y-93439209D01*
X143345818Y-93380816D01*
X143345817Y-93380814D01*
X143345020Y-93375246D01*
X143335739Y-93354834D01*
X143286827Y-93247257D01*
X143286826Y-93247255D01*
X143284495Y-93242129D01*
X143280820Y-93237864D01*
X143280818Y-93237861D01*
X143192716Y-93135615D01*
X143189041Y-93131350D01*
X143137809Y-93098143D01*
X143071054Y-93054874D01*
X143071051Y-93054872D01*
X143066332Y-93051814D01*
X142968130Y-93022445D01*
X142931621Y-93011526D01*
X142931619Y-93011526D01*
X142926233Y-93009915D01*
X142853711Y-93009472D01*
X142785630Y-93009056D01*
X142785628Y-93009056D01*
X142780005Y-93009022D01*
X142639404Y-93049206D01*
X142590787Y-93079881D01*
X142530911Y-93117660D01*
X142515732Y-93127237D01*
X142512011Y-93131450D01*
X142512010Y-93131451D01*
X142422658Y-93232622D01*
X142418932Y-93236841D01*
X142356786Y-93369209D01*
X142334288Y-93513699D01*
X142170500Y-93513699D01*
X142170500Y-93152692D01*
X142166469Y-93127237D01*
X142156248Y-93062709D01*
X142156248Y-93062708D01*
X142155275Y-93056567D01*
X142152033Y-93050203D01*
X142099064Y-92946246D01*
X142099063Y-92946245D01*
X142096241Y-92940706D01*
X142004294Y-92848759D01*
X141998754Y-92845936D01*
X141893972Y-92792547D01*
X141893971Y-92792547D01*
X141888433Y-92789725D01*
X141882292Y-92788752D01*
X141882291Y-92788752D01*
X141795372Y-92774985D01*
X141795368Y-92774985D01*
X141792308Y-92774500D01*
X140427692Y-92774500D01*
X140424632Y-92774985D01*
X140424628Y-92774985D01*
X140337709Y-92788752D01*
X140337708Y-92788752D01*
X140331567Y-92789725D01*
X140326029Y-92792547D01*
X140326028Y-92792547D01*
X140221246Y-92845936D01*
X140215706Y-92848759D01*
X140123759Y-92940706D01*
X140120937Y-92946245D01*
X140120936Y-92946246D01*
X140067968Y-93050203D01*
X140064725Y-93056567D01*
X140063752Y-93062708D01*
X140063752Y-93062709D01*
X140053532Y-93127237D01*
X140049500Y-93152692D01*
X140049500Y-93867308D01*
X139761560Y-93867308D01*
X139758141Y-93832599D01*
X139758704Y-93817850D01*
X139758704Y-93812591D01*
X139759904Y-93805786D01*
X139756700Y-93787614D01*
X139755500Y-93773897D01*
X139755500Y-93036103D01*
X139756700Y-93022385D01*
X139758704Y-93011021D01*
X139758704Y-93011020D01*
X139759904Y-93004214D01*
X139759129Y-92999820D01*
X139758526Y-92992150D01*
X139748505Y-92864822D01*
X139743600Y-92802496D01*
X139706795Y-92649192D01*
X139697089Y-92608763D01*
X139697088Y-92608761D01*
X139696364Y-92605744D01*
X139618931Y-92418805D01*
X139513208Y-92246279D01*
X139384656Y-92095765D01*
X139382100Y-92092114D01*
X139366981Y-92081528D01*
X139356437Y-92072679D01*
X138737326Y-91453568D01*
X138728475Y-91443021D01*
X138720589Y-91431759D01*
X138706602Y-91379561D01*
X138718378Y-91347644D01*
X138717547Y-91347238D01*
X138729694Y-91322389D01*
X138770253Y-91239415D01*
X138774074Y-91213225D01*
X138780088Y-91171999D01*
X138780088Y-91171994D01*
X138780500Y-91169172D01*
X138780500Y-90917308D01*
X140049500Y-90917308D01*
X140049985Y-90920368D01*
X140049985Y-90920372D01*
X140063206Y-91003844D01*
X140064725Y-91013433D01*
X140123759Y-91129294D01*
X140215706Y-91221241D01*
X140221245Y-91224063D01*
X140221246Y-91224064D01*
X140326028Y-91277453D01*
X140326029Y-91277453D01*
X140331567Y-91280275D01*
X140337708Y-91281248D01*
X140337709Y-91281248D01*
X140424628Y-91295015D01*
X140424632Y-91295015D01*
X140427692Y-91295500D01*
X141792308Y-91295500D01*
X141795368Y-91295015D01*
X141795372Y-91295015D01*
X141882291Y-91281248D01*
X141882292Y-91281248D01*
X141888433Y-91280275D01*
X141893971Y-91277453D01*
X141893972Y-91277453D01*
X141998754Y-91224064D01*
X141998755Y-91224063D01*
X142004294Y-91221241D01*
X142096241Y-91129294D01*
X142155275Y-91013433D01*
X142156794Y-91003844D01*
X142170015Y-90920372D01*
X142170015Y-90920368D01*
X142170500Y-90917308D01*
X142170500Y-90202692D01*
X142164503Y-90164826D01*
X142156248Y-90112709D01*
X142156248Y-90112708D01*
X142155275Y-90106567D01*
X142096241Y-89990706D01*
X142004294Y-89898759D01*
X141998754Y-89895936D01*
X141893972Y-89842547D01*
X141893971Y-89842547D01*
X141888433Y-89839725D01*
X141882292Y-89838752D01*
X141882291Y-89838752D01*
X141795372Y-89824985D01*
X141795368Y-89824985D01*
X141792308Y-89824500D01*
X140427692Y-89824500D01*
X140424632Y-89824985D01*
X140424628Y-89824985D01*
X140337709Y-89838752D01*
X140337708Y-89838752D01*
X140331567Y-89839725D01*
X140326029Y-89842547D01*
X140326028Y-89842547D01*
X140221246Y-89895936D01*
X140215706Y-89898759D01*
X140123759Y-89990706D01*
X140064725Y-90106567D01*
X140063752Y-90112708D01*
X140063752Y-90112709D01*
X140055498Y-90164826D01*
X140049500Y-90202692D01*
X140049500Y-90917308D01*
X138780500Y-90917308D01*
X138780500Y-90550828D01*
X138770070Y-90479974D01*
X138717176Y-90372243D01*
X138632238Y-90287453D01*
X138524415Y-90234747D01*
X138498225Y-90230926D01*
X138456999Y-90224912D01*
X138456994Y-90224912D01*
X138454172Y-90224500D01*
X137985828Y-90224500D01*
X137914974Y-90234930D01*
X137807243Y-90287824D01*
X137722453Y-90372762D01*
X137669747Y-90480585D01*
X137667108Y-90498677D01*
X137659916Y-90547978D01*
X137659500Y-90550828D01*
X137659500Y-91169172D01*
X137130500Y-91169172D01*
X137130500Y-90550828D01*
X137120070Y-90479974D01*
X137067176Y-90372243D01*
X136982238Y-90287453D01*
X136874415Y-90234747D01*
X136848225Y-90230926D01*
X136806999Y-90224912D01*
X136806994Y-90224912D01*
X136804172Y-90224500D01*
X136335828Y-90224500D01*
X136264974Y-90234930D01*
X136157243Y-90287824D01*
X136072453Y-90372762D01*
X136062149Y-90393841D01*
X136023246Y-90431344D01*
X135969335Y-90435067D01*
X135948207Y-90425438D01*
X135901053Y-90394874D01*
X135896332Y-90391814D01*
X135815467Y-90367630D01*
X135761621Y-90351526D01*
X135761619Y-90351526D01*
X135756233Y-90349915D01*
X135683711Y-90349472D01*
X135615630Y-90349056D01*
X135615628Y-90349056D01*
X135610005Y-90349022D01*
X135469404Y-90389206D01*
X135345732Y-90467237D01*
X135342011Y-90471450D01*
X135342010Y-90471451D01*
X135317965Y-90498677D01*
X135248932Y-90576841D01*
X135246540Y-90581936D01*
X135200545Y-90679904D01*
X135186786Y-90709209D01*
X135164288Y-90853699D01*
X132127457Y-90853699D01*
X131777324Y-90503566D01*
X131768472Y-90493017D01*
X131764016Y-90486653D01*
X131757887Y-90477900D01*
X131754224Y-90475335D01*
X131749677Y-90471451D01*
X131606083Y-90348811D01*
X131606082Y-90348810D01*
X131603720Y-90346793D01*
X131431195Y-90241070D01*
X131244255Y-90163637D01*
X131241238Y-90162913D01*
X131241236Y-90162912D01*
X131161791Y-90143839D01*
X131047504Y-90116401D01*
X130947218Y-90108509D01*
X130855582Y-90101297D01*
X130855578Y-90101297D01*
X130850190Y-90100873D01*
X130845785Y-90100096D01*
X130838979Y-90101296D01*
X130838978Y-90101296D01*
X130827614Y-90103300D01*
X130813896Y-90104500D01*
X125926104Y-90104500D01*
X125912386Y-90103300D01*
X125901022Y-90101296D01*
X125901021Y-90101296D01*
X125894215Y-90100096D01*
X125889810Y-90100873D01*
X125884422Y-90101297D01*
X125884418Y-90101297D01*
X125792782Y-90108509D01*
X125692496Y-90116401D01*
X125578209Y-90143839D01*
X125498764Y-90162912D01*
X125498762Y-90162913D01*
X125495745Y-90163637D01*
X125308805Y-90241070D01*
X125136280Y-90346793D01*
X125133918Y-90348810D01*
X125133917Y-90348811D01*
X124990324Y-90471451D01*
X124985776Y-90475335D01*
X124982113Y-90477900D01*
X124975984Y-90486653D01*
X124971528Y-90493017D01*
X124962676Y-90503566D01*
X123680457Y-91785785D01*
X123631481Y-91808623D01*
X123579283Y-91794637D01*
X123558742Y-91772217D01*
X123558426Y-91772447D01*
X123556407Y-91769668D01*
X123556177Y-91769417D01*
X123553921Y-91765510D01*
X123425290Y-91622651D01*
X123269769Y-91509658D01*
X123143790Y-91453568D01*
X123097936Y-91433152D01*
X123097933Y-91433151D01*
X123094153Y-91431468D01*
X123090107Y-91430608D01*
X123090104Y-91430607D01*
X122910162Y-91392359D01*
X122910157Y-91392358D01*
X122906118Y-91391500D01*
X122713882Y-91391500D01*
X122709843Y-91392358D01*
X122709838Y-91392359D01*
X122529892Y-91430608D01*
X122529890Y-91430609D01*
X122525847Y-91431468D01*
X122522070Y-91433150D01*
X122522069Y-91433150D01*
X122354011Y-91507975D01*
X122354008Y-91507977D01*
X122350232Y-91509658D01*
X122346884Y-91512090D01*
X122346883Y-91512091D01*
X122317797Y-91533223D01*
X122194710Y-91622651D01*
X122066079Y-91765510D01*
X122064012Y-91769091D01*
X122064008Y-91769097D01*
X121981352Y-91912262D01*
X121969961Y-91931991D01*
X121910557Y-92114818D01*
X121910124Y-92118934D01*
X121910124Y-92118936D01*
X121896988Y-92243922D01*
X121895500Y-92258076D01*
X121895500Y-93861924D01*
X119909586Y-93861924D01*
X119855992Y-93769097D01*
X119853921Y-93765510D01*
X119841640Y-93751870D01*
X119728064Y-93625732D01*
X119725290Y-93622651D01*
X119569769Y-93509658D01*
X119425099Y-93445246D01*
X119397936Y-93433152D01*
X119397933Y-93433151D01*
X119394153Y-93431468D01*
X119390107Y-93430608D01*
X119390104Y-93430607D01*
X119210162Y-93392359D01*
X119210157Y-93392358D01*
X119206118Y-93391500D01*
X119013882Y-93391500D01*
X119009843Y-93392358D01*
X119009838Y-93392359D01*
X118829892Y-93430608D01*
X118829890Y-93430609D01*
X118825847Y-93431468D01*
X118822070Y-93433150D01*
X118822069Y-93433150D01*
X118654011Y-93507975D01*
X118654008Y-93507977D01*
X118650232Y-93509658D01*
X118646884Y-93512090D01*
X118646883Y-93512091D01*
X118614512Y-93535610D01*
X118494710Y-93622651D01*
X118491936Y-93625732D01*
X118378361Y-93751870D01*
X118366079Y-93765510D01*
X118364008Y-93769097D01*
X118276493Y-93920678D01*
X118269961Y-93931991D01*
X118210557Y-94114818D01*
X118210124Y-94118934D01*
X118210124Y-94118936D01*
X118196264Y-94250810D01*
X118195500Y-94258076D01*
X118195500Y-95861924D01*
X115660000Y-95861924D01*
X115660000Y-94296161D01*
X115678482Y-94245381D01*
X115725282Y-94218361D01*
X115778500Y-94227745D01*
X115808095Y-94257861D01*
X115879376Y-94386456D01*
X115883917Y-94392989D01*
X116011443Y-94541775D01*
X116017216Y-94547273D01*
X116172053Y-94667377D01*
X116178811Y-94671600D01*
X116354635Y-94758116D01*
X116362104Y-94760893D01*
X116446521Y-94782882D01*
X116457825Y-94781813D01*
X116459516Y-94780098D01*
X116460000Y-94777880D01*
X116460000Y-94777690D01*
X116960000Y-94777690D01*
X116963884Y-94788361D01*
X116966043Y-94789607D01*
X117148635Y-94722426D01*
X117155802Y-94718931D01*
X117322343Y-94615671D01*
X117328651Y-94610813D01*
X117471039Y-94476164D01*
X117476238Y-94470141D01*
X117588639Y-94309615D01*
X117592522Y-94302668D01*
X117670349Y-94122818D01*
X117672759Y-94115222D01*
X117713029Y-93922459D01*
X117713809Y-93916462D01*
X117713946Y-93913832D01*
X117714000Y-93911780D01*
X117714000Y-93323930D01*
X117710116Y-93313259D01*
X117704472Y-93310000D01*
X116973930Y-93310000D01*
X116963259Y-93313884D01*
X116960000Y-93319528D01*
X116960000Y-94777690D01*
X116460000Y-94777690D01*
X116460000Y-92796070D01*
X116960000Y-92796070D01*
X116963884Y-92806741D01*
X116969528Y-92810000D01*
X117700070Y-92810000D01*
X117710741Y-92806116D01*
X117714000Y-92800472D01*
X117714000Y-92257020D01*
X117713799Y-92253040D01*
X117698970Y-92107055D01*
X117697370Y-92099259D01*
X117638768Y-91912262D01*
X117635630Y-91904941D01*
X117540624Y-91733544D01*
X117536083Y-91727011D01*
X117408557Y-91578225D01*
X117402784Y-91572727D01*
X117247947Y-91452623D01*
X117241189Y-91448400D01*
X117065365Y-91361884D01*
X117057896Y-91359107D01*
X116973479Y-91337118D01*
X116962175Y-91338187D01*
X116960484Y-91339902D01*
X116960000Y-91342120D01*
X116960000Y-92796070D01*
X116460000Y-92796070D01*
X116460000Y-91342310D01*
X116456116Y-91331639D01*
X116453957Y-91330393D01*
X116271365Y-91397574D01*
X116264198Y-91401069D01*
X116097657Y-91504329D01*
X116091349Y-91509187D01*
X115948961Y-91643836D01*
X115943762Y-91649859D01*
X115831361Y-91810385D01*
X115827476Y-91817336D01*
X115811503Y-91854248D01*
X115774373Y-91893512D01*
X115720692Y-91899723D01*
X115675578Y-91869976D01*
X115660000Y-91822874D01*
X115660000Y-89319000D01*
X115678482Y-89268220D01*
X115725282Y-89241200D01*
X115739000Y-89240000D01*
X144521000Y-89240000D01*
X144571780Y-89258482D01*
G37*
G04 #@! TD.AperFunction*
M02*
