G04 #@! TF.GenerationSoftware,KiCad,Pcbnew,(6.0.0-0)*
G04 #@! TF.CreationDate,2021-12-28T23:34:06-05:00*
G04 #@! TF.ProjectId,9DIN2VGA,3944494e-3256-4474-912e-6b696361645f,1*
G04 #@! TF.SameCoordinates,Original*
G04 #@! TF.FileFunction,Copper,L1,Top*
G04 #@! TF.FilePolarity,Positive*
%FSLAX46Y46*%
G04 Gerber Fmt 4.6, Leading zero omitted, Abs format (unit mm)*
G04 Created by KiCad (PCBNEW (6.0.0-0)) date 2021-12-28 23:34:06*
%MOMM*%
%LPD*%
G01*
G04 APERTURE LIST*
G04 Aperture macros list*
%AMRoundRect*
0 Rectangle with rounded corners*
0 $1 Rounding radius*
0 $2 $3 $4 $5 $6 $7 $8 $9 X,Y pos of 4 corners*
0 Add a 4 corners polygon primitive as box body*
4,1,4,$2,$3,$4,$5,$6,$7,$8,$9,$2,$3,0*
0 Add four circle primitives for the rounded corners*
1,1,$1+$1,$2,$3*
1,1,$1+$1,$4,$5*
1,1,$1+$1,$6,$7*
1,1,$1+$1,$8,$9*
0 Add four rect primitives between the rounded corners*
20,1,$1+$1,$2,$3,$4,$5,0*
20,1,$1+$1,$4,$5,$6,$7,0*
20,1,$1+$1,$6,$7,$8,$9,0*
20,1,$1+$1,$8,$9,$2,$3,0*%
%AMFreePoly0*
4,1,22,0.550000,-0.750000,0.000000,-0.750000,0.000000,-0.745033,-0.079941,-0.743568,-0.215256,-0.701293,-0.333266,-0.622738,-0.424486,-0.514219,-0.481581,-0.384460,-0.499164,-0.250000,-0.500000,-0.250000,-0.500000,0.250000,-0.499164,0.250000,-0.499963,0.256109,-0.478152,0.396186,-0.417904,0.524511,-0.324060,0.630769,-0.204165,0.706417,-0.067858,0.745374,0.000000,0.744959,0.000000,0.750000,
0.550000,0.750000,0.550000,-0.750000,0.550000,-0.750000,$1*%
%AMFreePoly1*
4,1,20,0.000000,0.744959,0.073905,0.744508,0.209726,0.703889,0.328688,0.626782,0.421226,0.519385,0.479903,0.390333,0.500000,0.250000,0.500000,-0.250000,0.499851,-0.262216,0.476331,-0.402017,0.414519,-0.529596,0.319384,-0.634700,0.198574,-0.708877,0.061801,-0.746166,0.000000,-0.745033,0.000000,-0.750000,-0.550000,-0.750000,-0.550000,0.750000,0.000000,0.750000,0.000000,0.744959,
0.000000,0.744959,$1*%
G04 Aperture macros list end*
G04 #@! TA.AperFunction,SMDPad,CuDef*
%ADD10RoundRect,0.249999X0.325001X0.650001X-0.325001X0.650001X-0.325001X-0.650001X0.325001X-0.650001X0*%
G04 #@! TD*
G04 #@! TA.AperFunction,SMDPad,CuDef*
%ADD11RoundRect,0.225000X0.225000X0.250000X-0.225000X0.250000X-0.225000X-0.250000X0.225000X-0.250000X0*%
G04 #@! TD*
G04 #@! TA.AperFunction,SMDPad,CuDef*
%ADD12RoundRect,0.225000X-0.250000X0.225000X-0.250000X-0.225000X0.250000X-0.225000X0.250000X0.225000X0*%
G04 #@! TD*
G04 #@! TA.AperFunction,SMDPad,CuDef*
%ADD13RoundRect,0.375000X-0.375000X-1.125000X0.375000X-1.125000X0.375000X1.125000X-0.375000X1.125000X0*%
G04 #@! TD*
G04 #@! TA.AperFunction,SMDPad,CuDef*
%ADD14RoundRect,0.375000X1.125000X-0.375000X1.125000X0.375000X-1.125000X0.375000X-1.125000X-0.375000X0*%
G04 #@! TD*
G04 #@! TA.AperFunction,ComponentPad*
%ADD15C,2.000000*%
G04 #@! TD*
G04 #@! TA.AperFunction,ComponentPad*
%ADD16RoundRect,0.500000X-0.500000X-0.500000X0.500000X-0.500000X0.500000X0.500000X-0.500000X0.500000X0*%
G04 #@! TD*
G04 #@! TA.AperFunction,SMDPad,CuDef*
%ADD17RoundRect,0.200000X0.200000X0.275000X-0.200000X0.275000X-0.200000X-0.275000X0.200000X-0.275000X0*%
G04 #@! TD*
G04 #@! TA.AperFunction,SMDPad,CuDef*
%ADD18FreePoly0,270.000000*%
G04 #@! TD*
G04 #@! TA.AperFunction,SMDPad,CuDef*
%ADD19R,1.500000X1.000000*%
G04 #@! TD*
G04 #@! TA.AperFunction,SMDPad,CuDef*
%ADD20FreePoly1,270.000000*%
G04 #@! TD*
G04 #@! TA.AperFunction,ComponentPad*
%ADD21O,1.508000X3.016000*%
G04 #@! TD*
G04 #@! TA.AperFunction,ComponentPad*
%ADD22R,1.700000X1.700000*%
G04 #@! TD*
G04 #@! TA.AperFunction,ComponentPad*
%ADD23C,1.700000*%
G04 #@! TD*
G04 #@! TA.AperFunction,ComponentPad*
%ADD24C,4.066000*%
G04 #@! TD*
G04 #@! TA.AperFunction,ViaPad*
%ADD25C,0.700000*%
G04 #@! TD*
G04 #@! TA.AperFunction,Conductor*
%ADD26C,0.250000*%
G04 #@! TD*
G04 APERTURE END LIST*
G36*
X138380000Y-93200000D02*
G01*
X137780000Y-93200000D01*
X137780000Y-92700000D01*
X138380000Y-92700000D01*
X138380000Y-93200000D01*
G37*
D10*
X134490000Y-90860000D03*
X131540000Y-90860000D03*
X134490000Y-93590000D03*
X131540000Y-93590000D03*
X134490000Y-96330000D03*
X131540000Y-96330000D03*
D11*
X128725000Y-95730000D03*
X127175000Y-95730000D03*
D12*
X137540000Y-100830000D03*
X137540000Y-102380000D03*
D13*
X152581804Y-100713357D03*
X150031804Y-100713357D03*
X147501804Y-100713357D03*
D14*
X145961804Y-96813357D03*
D15*
X154141804Y-94443357D03*
D16*
X153641804Y-94443357D03*
D17*
X142845000Y-93510000D03*
X141195000Y-93510000D03*
D18*
X138080000Y-92300000D03*
D19*
X138080000Y-93600000D03*
D20*
X138080000Y-94900000D03*
D21*
X116710000Y-93060000D03*
X119110000Y-95060000D03*
X124610000Y-95060000D03*
X128310000Y-93060000D03*
X122810000Y-93060000D03*
D22*
X126315000Y-99530000D03*
D23*
X128605000Y-99530000D03*
X130895000Y-99530000D03*
X133185000Y-99530000D03*
X135475000Y-99530000D03*
X125170000Y-101510000D03*
X127460000Y-101510000D03*
X129750000Y-101510000D03*
X132040000Y-101510000D03*
X134330000Y-101510000D03*
X126315000Y-103490000D03*
X128605000Y-103490000D03*
X130895000Y-103490000D03*
X133185000Y-103490000D03*
X135475000Y-103490000D03*
D24*
X143390000Y-101510000D03*
X118400000Y-101510000D03*
D25*
X135680000Y-90860000D03*
X131540000Y-93590000D03*
X135680000Y-93590000D03*
X135680000Y-96330000D03*
X126009999Y-97450000D03*
X137540000Y-99049996D03*
X143320000Y-97430000D03*
X149130002Y-103560000D03*
X140609998Y-98350000D03*
X137580000Y-103970000D03*
X141190000Y-93520000D03*
X141120000Y-90570000D03*
X140540000Y-96640000D03*
X142850000Y-93520000D03*
D26*
X135680000Y-90860000D02*
X134500000Y-90860000D01*
X130040000Y-92774214D02*
X130040000Y-96145786D01*
X131540000Y-90860000D02*
X130332893Y-92067107D01*
X126320000Y-99074214D02*
X126320000Y-99530000D01*
X126957107Y-98022893D02*
X126612893Y-98367107D01*
X129747107Y-96852893D02*
X129162893Y-97437107D01*
X128455786Y-97730000D02*
X127664214Y-97730000D01*
X130039999Y-96145786D02*
G75*
G02*
X129747106Y-96852892I-999993J-3D01*
G01*
X128455786Y-97729999D02*
G75*
G03*
X129162892Y-97437106I3J999993D01*
G01*
X126612893Y-98367107D02*
G75*
G03*
X126320000Y-99074214I707106J-707106D01*
G01*
X126957107Y-98022893D02*
G75*
G02*
X127664214Y-97730000I707106J-707106D01*
G01*
X130040001Y-92774214D02*
G75*
G02*
X130332894Y-92067108I999993J3D01*
G01*
X135680000Y-93590000D02*
X134510000Y-93590000D01*
X135680000Y-96330000D02*
X134490000Y-96330000D01*
X130890000Y-97674214D02*
X130890000Y-99530000D01*
X131540000Y-96330000D02*
X131540000Y-96610000D01*
X131540000Y-96610000D02*
X131182893Y-96967107D01*
X130890001Y-97674214D02*
G75*
G02*
X131182894Y-96967108I999993J3D01*
G01*
X128310000Y-93060000D02*
X128310000Y-95280000D01*
X128310000Y-95280000D02*
X128720000Y-95690000D01*
X128720000Y-95690000D02*
X128720000Y-95730000D01*
X127180000Y-95730000D02*
X127180000Y-96110000D01*
X126009999Y-97280001D02*
X126009999Y-97450000D01*
X127180000Y-96110000D02*
X126009999Y-97280001D01*
X136302107Y-102667893D02*
X135480000Y-103490000D01*
X137009214Y-102375000D02*
X137535000Y-102375000D01*
X136302107Y-102667893D02*
G75*
G02*
X137009214Y-102375000I707106J-707106D01*
G01*
X137540000Y-100830000D02*
X137540000Y-99049996D01*
X146120000Y-97460000D02*
X145970000Y-97310000D01*
X144935787Y-104454213D02*
X145534214Y-103855786D01*
X125418427Y-105040000D02*
X143521573Y-105040000D01*
X124610000Y-95060000D02*
X124610000Y-97221573D01*
X123110000Y-100378427D02*
X123110000Y-102731573D01*
X123695787Y-104145787D02*
X124004214Y-104454214D01*
X124024213Y-98635787D02*
X123695786Y-98964214D01*
X146120000Y-102441573D02*
X146120000Y-97460000D01*
X143521573Y-105039999D02*
G75*
G03*
X144935786Y-104454212I0J1999999D01*
G01*
X124609999Y-97221573D02*
G75*
G02*
X124024212Y-98635786I-1999999J0D01*
G01*
X125418427Y-105039999D02*
G75*
G02*
X124004215Y-104454213I0J1999999D01*
G01*
X146119999Y-102441573D02*
G75*
G02*
X145534213Y-103855785I-1999999J0D01*
G01*
X123695787Y-104145787D02*
G75*
G02*
X123110000Y-102731573I1414213J1414214D01*
G01*
X123695786Y-98964214D02*
G75*
G03*
X123110000Y-100378427I1414214J-1414213D01*
G01*
X119402893Y-96132893D02*
X121184214Y-97914214D01*
X146695787Y-105244213D02*
X146914214Y-105025786D01*
X122355787Y-104855787D02*
X122744214Y-105244214D01*
X147500000Y-103611573D02*
X147500000Y-100710000D01*
X121770000Y-99328427D02*
X121770000Y-103441573D01*
X119110000Y-95060000D02*
X119110000Y-95425786D01*
X124158427Y-105830000D02*
X145281573Y-105830000D01*
X122744214Y-105244214D02*
G75*
G03*
X124158427Y-105830000I1414213J1414214D01*
G01*
X145281573Y-105829999D02*
G75*
G03*
X146695786Y-105244212I0J1999999D01*
G01*
X121769999Y-99328427D02*
G75*
G03*
X121184213Y-97914215I-1999999J0D01*
G01*
X122355787Y-104855787D02*
G75*
G02*
X121770000Y-103441573I1414213J1414214D01*
G01*
X119110001Y-95425786D02*
G75*
G03*
X119402894Y-96132892I999993J-3D01*
G01*
X147499999Y-103611573D02*
G75*
G02*
X146914213Y-105025785I-1999999J0D01*
G01*
X144724214Y-95420000D02*
X147995786Y-95420000D01*
X143320000Y-97430000D02*
X143320000Y-96824214D01*
X143612893Y-96117107D02*
X144017107Y-95712893D01*
X148702893Y-95712893D02*
X149738911Y-96748911D01*
X150031804Y-97456018D02*
X150031804Y-100713357D01*
X149738911Y-96748911D02*
G75*
G02*
X150031804Y-97456018I-707106J-707106D01*
G01*
X143320001Y-96824214D02*
G75*
G02*
X143612894Y-96117108I999993J3D01*
G01*
X144724214Y-95420001D02*
G75*
G03*
X144017108Y-95712894I-3J-999993D01*
G01*
X148702893Y-95712893D02*
G75*
G03*
X147995786Y-95420000I-707106J-707106D01*
G01*
X152581804Y-100713357D02*
X152581804Y-101623982D01*
X152288911Y-102331089D02*
X151352893Y-103267107D01*
X150645786Y-103560000D02*
X149130002Y-103560000D01*
X151352893Y-103267107D02*
G75*
G02*
X150645786Y-103560000I-707106J707106D01*
G01*
X152288911Y-102331089D02*
G75*
G03*
X152581804Y-101623982I-707106J707106D01*
G01*
X132332893Y-98547107D02*
X132627107Y-98252893D01*
X140512891Y-98252893D02*
X140609998Y-98350000D01*
X133334214Y-97960000D02*
X139805784Y-97960000D01*
X132040000Y-101510000D02*
X132040000Y-99254214D01*
X133334214Y-97960001D02*
G75*
G03*
X132627108Y-98252894I-3J-999993D01*
G01*
X139805784Y-97960001D02*
G75*
G02*
X140512890Y-98252894I3J-999993D01*
G01*
X132040001Y-99254214D02*
G75*
G02*
X132332894Y-98547108I999993J3D01*
G01*
X141990000Y-98245786D02*
X141990000Y-96324214D01*
X140955786Y-95290000D02*
X140764214Y-95290000D01*
X140292893Y-100357107D02*
X141697107Y-98952893D01*
X140057107Y-94997107D02*
X138650000Y-93590000D01*
X141697107Y-95617107D02*
X141662893Y-95582893D01*
X139092893Y-103677107D02*
X139707107Y-103062893D01*
X137580000Y-103970000D02*
X138385786Y-103970000D01*
X138650000Y-93590000D02*
X138370000Y-93590000D01*
X140000000Y-102355786D02*
X140000000Y-101064214D01*
X139999999Y-102355786D02*
G75*
G02*
X139707106Y-103062892I-999993J-3D01*
G01*
X141989999Y-96324214D02*
G75*
G03*
X141697106Y-95617108I-999993J3D01*
G01*
X140292893Y-100357107D02*
G75*
G03*
X140000000Y-101064214I707106J-707106D01*
G01*
X141697107Y-98952893D02*
G75*
G03*
X141990000Y-98245786I-707106J707106D01*
G01*
X138385786Y-103969999D02*
G75*
G03*
X139092892Y-103677106I3J999993D01*
G01*
X140764214Y-95289999D02*
G75*
G02*
X140057108Y-94997106I-3J999993D01*
G01*
X140955786Y-95290001D02*
G75*
G02*
X141662892Y-95582894I3J-999993D01*
G01*
X138310000Y-92300000D02*
X138080000Y-92300000D01*
X141120000Y-90570000D02*
X140454214Y-90570000D01*
X139747107Y-90862893D02*
X138310000Y-92300000D01*
X140454214Y-90570001D02*
G75*
G03*
X139747108Y-90862894I-3J-999993D01*
G01*
X140540000Y-96640000D02*
X140254214Y-96640000D01*
X138100000Y-94900000D02*
X138080000Y-94900000D01*
X139547107Y-96347107D02*
X138100000Y-94900000D01*
X140254214Y-96639999D02*
G75*
G02*
X139547108Y-96347106I-3J999993D01*
G01*
G04 #@! TA.AperFunction,Conductor*
G36*
X144571780Y-89258482D02*
G01*
X144598800Y-89305282D01*
X144600000Y-89319000D01*
X144600000Y-94404954D01*
X144599601Y-94411298D01*
X144596511Y-94419347D01*
X144597610Y-94428843D01*
X144599476Y-94444970D01*
X144600000Y-94454051D01*
X144600000Y-94459494D01*
X144601137Y-94464123D01*
X144601211Y-94464736D01*
X144602757Y-94473331D01*
X144603286Y-94477902D01*
X144605547Y-94497440D01*
X144610737Y-94505077D01*
X144611110Y-94506289D01*
X144611761Y-94507377D01*
X144613964Y-94516346D01*
X144620286Y-94523516D01*
X144620286Y-94523517D01*
X144630019Y-94534556D01*
X144636092Y-94542385D01*
X144649735Y-94562461D01*
X144657873Y-94566824D01*
X144658766Y-94567727D01*
X144659846Y-94568389D01*
X144665953Y-94575316D01*
X144688626Y-94584020D01*
X144697628Y-94588142D01*
X144712619Y-94596180D01*
X144712621Y-94596181D01*
X144719019Y-94599611D01*
X144722098Y-94600000D01*
X144724954Y-94600000D01*
X144731298Y-94600399D01*
X144739347Y-94603489D01*
X144764973Y-94600524D01*
X144774051Y-94600000D01*
X145924954Y-94600000D01*
X145931298Y-94600399D01*
X145939347Y-94603489D01*
X145964973Y-94600524D01*
X145974051Y-94600000D01*
X145979494Y-94600000D01*
X145984123Y-94598863D01*
X145984736Y-94598789D01*
X145993331Y-94597243D01*
X146007944Y-94595552D01*
X146007945Y-94595552D01*
X146017440Y-94594453D01*
X146025077Y-94589263D01*
X146026289Y-94588890D01*
X146027377Y-94588239D01*
X146036346Y-94586036D01*
X146044622Y-94578740D01*
X146054556Y-94569981D01*
X146062385Y-94563908D01*
X146082461Y-94550265D01*
X146086824Y-94542127D01*
X146087727Y-94541234D01*
X146088389Y-94540154D01*
X146095316Y-94534047D01*
X146104020Y-94511374D01*
X146108142Y-94502372D01*
X146116180Y-94487381D01*
X146116181Y-94487379D01*
X146119611Y-94480981D01*
X146120000Y-94477902D01*
X146120000Y-94475046D01*
X146120399Y-94468702D01*
X146123489Y-94460653D01*
X146120524Y-94435027D01*
X146120000Y-94425949D01*
X146120000Y-94179427D01*
X152391804Y-94179427D01*
X152395688Y-94190098D01*
X152401332Y-94193357D01*
X153377874Y-94193357D01*
X153388545Y-94189473D01*
X153391804Y-94183829D01*
X153391804Y-93207288D01*
X153387920Y-93196617D01*
X153382276Y-93193358D01*
X153094006Y-93193358D01*
X153089942Y-93193568D01*
X152991693Y-93203761D01*
X152983282Y-93205578D01*
X152825845Y-93258103D01*
X152817584Y-93261973D01*
X152676676Y-93349169D01*
X152669528Y-93354834D01*
X152552454Y-93472114D01*
X152546810Y-93479260D01*
X152459855Y-93620326D01*
X152456001Y-93628592D01*
X152403745Y-93786136D01*
X152401947Y-93794522D01*
X152392008Y-93891527D01*
X152391804Y-93895531D01*
X152391804Y-94179427D01*
X146120000Y-94179427D01*
X146120000Y-89319000D01*
X146138482Y-89268220D01*
X146185282Y-89241200D01*
X146199000Y-89240000D01*
X153891000Y-89240000D01*
X153941780Y-89258482D01*
X153968800Y-89305282D01*
X153970000Y-89319000D01*
X153970000Y-93114650D01*
X153951518Y-93165430D01*
X153918019Y-93188886D01*
X153895063Y-93197241D01*
X153891804Y-93202885D01*
X153891804Y-95679426D01*
X153895688Y-95690097D01*
X153917586Y-95702740D01*
X153917571Y-95702766D01*
X153946862Y-95716425D01*
X153969699Y-95765402D01*
X153970000Y-95772286D01*
X153970000Y-102091003D01*
X153951518Y-102141783D01*
X153946861Y-102146864D01*
X149716865Y-106376861D01*
X149667889Y-106399699D01*
X149661004Y-106400000D01*
X115739000Y-106400000D01*
X115688220Y-106381518D01*
X115661200Y-106334718D01*
X115660000Y-106321000D01*
X115660000Y-103293422D01*
X116975626Y-103293422D01*
X116977022Y-103298633D01*
X117005270Y-103323406D01*
X117009368Y-103326551D01*
X117253898Y-103489941D01*
X117258370Y-103492523D01*
X117522136Y-103622597D01*
X117526915Y-103624577D01*
X117805388Y-103719106D01*
X117810394Y-103720447D01*
X118098832Y-103777821D01*
X118103949Y-103778495D01*
X118397422Y-103797730D01*
X118402578Y-103797730D01*
X118696051Y-103778495D01*
X118701168Y-103777821D01*
X118989606Y-103720447D01*
X118994612Y-103719106D01*
X119273085Y-103624577D01*
X119277864Y-103622597D01*
X119541630Y-103492523D01*
X119546102Y-103489941D01*
X119790632Y-103326551D01*
X119794730Y-103323406D01*
X119818952Y-103302164D01*
X119824414Y-103292207D01*
X119823361Y-103286915D01*
X118409851Y-101873404D01*
X118399557Y-101868604D01*
X118393263Y-101870290D01*
X116980426Y-103283128D01*
X116975626Y-103293422D01*
X115660000Y-103293422D01*
X115660000Y-101512578D01*
X116112270Y-101512578D01*
X116131505Y-101806051D01*
X116132179Y-101811168D01*
X116189553Y-102099606D01*
X116190894Y-102104612D01*
X116285423Y-102383085D01*
X116287403Y-102387864D01*
X116417477Y-102651629D01*
X116420059Y-102656102D01*
X116583449Y-102900632D01*
X116586594Y-102904730D01*
X116607836Y-102928952D01*
X116617793Y-102934414D01*
X116623085Y-102933361D01*
X118036596Y-101519851D01*
X118040983Y-101510443D01*
X118758604Y-101510443D01*
X118760290Y-101516737D01*
X120173128Y-102929574D01*
X120183422Y-102934374D01*
X120188633Y-102932978D01*
X120213406Y-102904730D01*
X120216551Y-102900632D01*
X120379941Y-102656102D01*
X120382523Y-102651629D01*
X120512597Y-102387864D01*
X120514577Y-102383085D01*
X120609106Y-102104612D01*
X120610447Y-102099606D01*
X120667821Y-101811168D01*
X120668495Y-101806051D01*
X120687730Y-101512578D01*
X120687730Y-101507422D01*
X120668495Y-101213949D01*
X120667821Y-101208832D01*
X120610447Y-100920394D01*
X120609106Y-100915388D01*
X120514577Y-100636915D01*
X120512597Y-100632136D01*
X120382523Y-100368371D01*
X120379941Y-100363898D01*
X120216551Y-100119368D01*
X120213406Y-100115270D01*
X120192164Y-100091048D01*
X120182207Y-100085586D01*
X120176915Y-100086639D01*
X118763404Y-101500149D01*
X118758604Y-101510443D01*
X118040983Y-101510443D01*
X118041396Y-101509557D01*
X118039710Y-101503263D01*
X116626872Y-100090426D01*
X116616578Y-100085626D01*
X116611367Y-100087022D01*
X116586594Y-100115270D01*
X116583449Y-100119368D01*
X116420059Y-100363898D01*
X116417477Y-100368371D01*
X116287403Y-100632136D01*
X116285423Y-100636915D01*
X116190894Y-100915388D01*
X116189553Y-100920394D01*
X116132179Y-101208832D01*
X116131505Y-101213949D01*
X116112270Y-101507422D01*
X116112270Y-101512578D01*
X115660000Y-101512578D01*
X115660000Y-99727793D01*
X116975586Y-99727793D01*
X116976639Y-99733085D01*
X118390149Y-101146596D01*
X118400443Y-101151396D01*
X118406737Y-101149710D01*
X119819574Y-99736872D01*
X119824374Y-99726578D01*
X119822978Y-99721367D01*
X119794730Y-99696594D01*
X119790632Y-99693449D01*
X119546102Y-99530059D01*
X119541630Y-99527477D01*
X119277864Y-99397403D01*
X119273085Y-99395423D01*
X118994612Y-99300894D01*
X118989606Y-99299553D01*
X118701168Y-99242179D01*
X118696051Y-99241505D01*
X118402578Y-99222270D01*
X118397422Y-99222270D01*
X118103949Y-99241505D01*
X118098832Y-99242179D01*
X117810394Y-99299553D01*
X117805388Y-99300894D01*
X117526915Y-99395423D01*
X117522136Y-99397403D01*
X117258371Y-99527477D01*
X117253898Y-99530059D01*
X117009368Y-99693449D01*
X117005270Y-99696594D01*
X116981048Y-99717836D01*
X116975586Y-99727793D01*
X115660000Y-99727793D01*
X115660000Y-95861924D01*
X118195500Y-95861924D01*
X118195717Y-95863985D01*
X118195717Y-95863992D01*
X118210124Y-96001064D01*
X118210557Y-96005182D01*
X118269961Y-96188009D01*
X118272030Y-96191592D01*
X118272031Y-96191595D01*
X118351821Y-96329794D01*
X118366079Y-96354490D01*
X118368851Y-96357569D01*
X118368852Y-96357570D01*
X118427653Y-96422875D01*
X118494710Y-96497349D01*
X118650231Y-96610342D01*
X118654020Y-96612029D01*
X118822064Y-96686848D01*
X118822067Y-96686849D01*
X118825847Y-96688532D01*
X118829893Y-96689392D01*
X118829896Y-96689393D01*
X119009838Y-96727641D01*
X119009843Y-96727642D01*
X119013882Y-96728500D01*
X119206118Y-96728500D01*
X119210157Y-96727642D01*
X119210162Y-96727641D01*
X119390108Y-96689392D01*
X119390110Y-96689391D01*
X119394153Y-96688532D01*
X119455691Y-96661133D01*
X119509597Y-96657363D01*
X119543684Y-96677442D01*
X120959783Y-98093541D01*
X120968634Y-98104089D01*
X120975253Y-98113542D01*
X120975257Y-98113546D01*
X120979221Y-98119207D01*
X120986564Y-98124349D01*
X121000642Y-98136970D01*
X121029525Y-98169905D01*
X121126788Y-98280812D01*
X121133079Y-98289010D01*
X121251922Y-98466871D01*
X121257089Y-98475820D01*
X121351699Y-98667670D01*
X121355653Y-98677217D01*
X121424415Y-98879783D01*
X121427090Y-98889765D01*
X121463365Y-99072129D01*
X121468821Y-99099560D01*
X121470169Y-99109798D01*
X121476271Y-99202890D01*
X121482683Y-99300717D01*
X121481652Y-99319603D01*
X121480096Y-99328427D01*
X121481296Y-99335233D01*
X121483300Y-99346598D01*
X121484500Y-99360316D01*
X121484500Y-103409684D01*
X121483300Y-103423401D01*
X121480096Y-103441573D01*
X121481274Y-103448255D01*
X121481296Y-103448647D01*
X121481296Y-103450852D01*
X121481536Y-103452925D01*
X121494959Y-103691936D01*
X121495292Y-103697871D01*
X121538292Y-103950946D01*
X121538906Y-103953076D01*
X121538907Y-103953082D01*
X121608703Y-104195348D01*
X121609356Y-104197615D01*
X121610204Y-104199663D01*
X121610205Y-104199665D01*
X121626348Y-104238637D01*
X121707591Y-104434777D01*
X121708656Y-104436704D01*
X121828501Y-104653546D01*
X121831763Y-104659449D01*
X121980309Y-104868805D01*
X121981778Y-104870449D01*
X121981779Y-104870450D01*
X122143783Y-105051731D01*
X122145081Y-105053369D01*
X122146642Y-105054930D01*
X122146901Y-105055220D01*
X122150794Y-105060780D01*
X122156455Y-105064744D01*
X122156459Y-105064748D01*
X122165912Y-105071367D01*
X122176460Y-105080218D01*
X122519786Y-105423544D01*
X122528635Y-105434088D01*
X122539221Y-105449207D01*
X122544781Y-105453100D01*
X122545063Y-105453352D01*
X122546628Y-105454917D01*
X122548270Y-105456218D01*
X122731196Y-105619692D01*
X122940552Y-105768238D01*
X122942486Y-105769307D01*
X122942491Y-105769310D01*
X123163295Y-105891343D01*
X123165224Y-105892409D01*
X123402385Y-105990644D01*
X123404517Y-105991258D01*
X123404525Y-105991261D01*
X123646912Y-106061092D01*
X123649054Y-106061709D01*
X123902129Y-106104708D01*
X123904331Y-106104832D01*
X123904334Y-106104832D01*
X124147075Y-106118464D01*
X124149148Y-106118704D01*
X124151353Y-106118704D01*
X124151745Y-106118726D01*
X124158427Y-106119904D01*
X124165239Y-106118703D01*
X124176598Y-106116700D01*
X124190316Y-106115500D01*
X145249684Y-106115500D01*
X145263402Y-106116700D01*
X145274766Y-106118704D01*
X145274767Y-106118704D01*
X145281573Y-106119904D01*
X145288264Y-106118724D01*
X145288636Y-106118703D01*
X145290853Y-106118703D01*
X145292936Y-106118462D01*
X145535667Y-106104831D01*
X145535671Y-106104831D01*
X145537871Y-106104707D01*
X145790946Y-106061707D01*
X145793076Y-106061093D01*
X145793082Y-106061092D01*
X146035475Y-105991260D01*
X146035483Y-105991257D01*
X146037615Y-105990643D01*
X146274777Y-105892408D01*
X146497505Y-105769310D01*
X146497509Y-105769308D01*
X146497514Y-105769305D01*
X146499448Y-105768236D01*
X146708804Y-105619690D01*
X146808976Y-105530171D01*
X146891728Y-105456220D01*
X146893368Y-105454920D01*
X146894930Y-105453358D01*
X146895220Y-105453099D01*
X146900780Y-105449206D01*
X146904744Y-105443545D01*
X146904748Y-105443541D01*
X146911367Y-105434088D01*
X146920218Y-105423540D01*
X147093544Y-105250214D01*
X147104088Y-105241365D01*
X147119207Y-105230779D01*
X147123101Y-105225218D01*
X147123354Y-105224935D01*
X147124920Y-105223369D01*
X147126222Y-105221726D01*
X147288213Y-105040457D01*
X147288214Y-105040456D01*
X147289691Y-105038803D01*
X147438237Y-104829447D01*
X147481430Y-104751296D01*
X147561343Y-104606703D01*
X147562408Y-104604776D01*
X147648559Y-104396788D01*
X147659794Y-104369664D01*
X147659795Y-104369662D01*
X147660643Y-104367614D01*
X147664428Y-104354479D01*
X147731093Y-104123080D01*
X147731093Y-104123078D01*
X147731708Y-104120945D01*
X147774707Y-103867871D01*
X147775716Y-103849904D01*
X147788462Y-103622936D01*
X147788703Y-103620853D01*
X147788703Y-103618636D01*
X147788724Y-103618264D01*
X147789904Y-103611573D01*
X147786700Y-103593401D01*
X147785500Y-103579684D01*
X147785500Y-103553699D01*
X148614290Y-103553699D01*
X148615020Y-103559280D01*
X148631701Y-103686841D01*
X148633251Y-103698695D01*
X148692145Y-103832542D01*
X148695767Y-103836851D01*
X148721096Y-103866983D01*
X148786238Y-103944479D01*
X148907966Y-104025508D01*
X148913340Y-104027187D01*
X149020859Y-104060779D01*
X149047543Y-104069116D01*
X149097058Y-104070023D01*
X149188122Y-104071692D01*
X149188123Y-104071692D01*
X149193749Y-104071795D01*
X149334831Y-104033332D01*
X149459447Y-103956818D01*
X149463220Y-103952650D01*
X149463222Y-103952648D01*
X149536686Y-103871485D01*
X149584466Y-103846240D01*
X149595256Y-103845500D01*
X150613897Y-103845500D01*
X150627615Y-103846700D01*
X150638979Y-103848704D01*
X150638980Y-103848704D01*
X150645786Y-103849904D01*
X150650180Y-103849129D01*
X150655593Y-103848703D01*
X150655595Y-103848703D01*
X150711313Y-103844318D01*
X150847504Y-103833600D01*
X150961550Y-103806220D01*
X151041237Y-103787089D01*
X151041239Y-103787088D01*
X151044256Y-103786364D01*
X151231195Y-103708931D01*
X151403721Y-103603208D01*
X151533555Y-103492319D01*
X151550095Y-103478192D01*
X151550096Y-103478191D01*
X151554235Y-103474656D01*
X151557886Y-103472100D01*
X151568472Y-103456981D01*
X151577321Y-103446437D01*
X152468241Y-102555517D01*
X152478785Y-102546668D01*
X152493904Y-102536082D01*
X152496460Y-102532431D01*
X152527153Y-102496494D01*
X152608245Y-102401549D01*
X152655279Y-102374939D01*
X152668317Y-102373856D01*
X152998410Y-102373856D01*
X153015327Y-102371809D01*
X153080702Y-102363899D01*
X153080705Y-102363898D01*
X153085740Y-102363289D01*
X153222155Y-102309279D01*
X153241763Y-102294396D01*
X153334737Y-102223824D01*
X153339020Y-102220573D01*
X153427726Y-102103708D01*
X153436817Y-102080746D01*
X153479867Y-101972014D01*
X153479868Y-101972012D01*
X153481736Y-101967293D01*
X153485844Y-101933351D01*
X153492018Y-101882326D01*
X153492304Y-101879964D01*
X153492303Y-99546751D01*
X153485840Y-99493335D01*
X153482346Y-99464459D01*
X153482345Y-99464456D01*
X153481736Y-99459421D01*
X153427726Y-99323006D01*
X153339020Y-99206141D01*
X153294610Y-99172432D01*
X153226442Y-99120689D01*
X153222155Y-99117435D01*
X153188315Y-99104037D01*
X153090461Y-99065294D01*
X153090460Y-99065294D01*
X153085740Y-99063425D01*
X153080705Y-99062816D01*
X153080702Y-99062815D01*
X153027324Y-99056356D01*
X152998411Y-99052857D01*
X152581892Y-99052857D01*
X152165198Y-99052858D01*
X152150145Y-99054679D01*
X152082906Y-99062815D01*
X152082903Y-99062816D01*
X152077868Y-99063425D01*
X151941453Y-99117435D01*
X151937166Y-99120689D01*
X151868998Y-99172432D01*
X151824588Y-99206141D01*
X151735882Y-99323006D01*
X151733900Y-99328012D01*
X151685697Y-99449761D01*
X151681872Y-99459421D01*
X151671304Y-99546750D01*
X151671305Y-101879963D01*
X151671591Y-101882326D01*
X151677833Y-101933910D01*
X151681872Y-101967293D01*
X151735882Y-102103708D01*
X151824588Y-102220573D01*
X151834244Y-102227902D01*
X151849713Y-102239644D01*
X151878987Y-102285068D01*
X151872214Y-102338681D01*
X151857811Y-102358431D01*
X151173563Y-103042679D01*
X151163021Y-103051526D01*
X151147900Y-103062114D01*
X151143937Y-103067774D01*
X151140220Y-103071491D01*
X151130189Y-103082318D01*
X151048757Y-103149148D01*
X151035880Y-103157752D01*
X150926071Y-103216446D01*
X150911763Y-103222372D01*
X150792628Y-103258511D01*
X150777439Y-103261533D01*
X150672599Y-103271859D01*
X150657850Y-103271296D01*
X150652591Y-103271296D01*
X150645786Y-103270096D01*
X150638980Y-103271296D01*
X150627615Y-103273300D01*
X150613897Y-103274500D01*
X149594134Y-103274500D01*
X149543354Y-103256018D01*
X149534286Y-103247068D01*
X149527128Y-103238761D01*
X149469043Y-103171350D01*
X149428814Y-103145275D01*
X149351056Y-103094874D01*
X149351053Y-103094872D01*
X149346334Y-103091814D01*
X149276284Y-103070864D01*
X149211623Y-103051526D01*
X149211621Y-103051526D01*
X149206235Y-103049915D01*
X149133713Y-103049472D01*
X149065632Y-103049056D01*
X149065630Y-103049056D01*
X149060007Y-103049022D01*
X148919406Y-103089206D01*
X148795734Y-103167237D01*
X148792013Y-103171450D01*
X148792012Y-103171451D01*
X148749036Y-103220112D01*
X148698934Y-103276841D01*
X148636788Y-103409209D01*
X148614290Y-103553699D01*
X147785500Y-103553699D01*
X147785500Y-102452856D01*
X147803982Y-102402076D01*
X147850782Y-102375056D01*
X147864500Y-102373856D01*
X147918410Y-102373856D01*
X147935327Y-102371809D01*
X148000702Y-102363899D01*
X148000705Y-102363898D01*
X148005740Y-102363289D01*
X148142155Y-102309279D01*
X148161763Y-102294396D01*
X148254737Y-102223824D01*
X148259020Y-102220573D01*
X148347726Y-102103708D01*
X148356817Y-102080746D01*
X148399867Y-101972014D01*
X148399868Y-101972012D01*
X148401736Y-101967293D01*
X148405844Y-101933351D01*
X148412018Y-101882326D01*
X148412304Y-101879964D01*
X148412303Y-99546751D01*
X148405840Y-99493335D01*
X148402346Y-99464459D01*
X148402345Y-99464456D01*
X148401736Y-99459421D01*
X148347726Y-99323006D01*
X148259020Y-99206141D01*
X148214610Y-99172432D01*
X148146442Y-99120689D01*
X148142155Y-99117435D01*
X148108315Y-99104037D01*
X148010461Y-99065294D01*
X148010460Y-99065294D01*
X148005740Y-99063425D01*
X148000705Y-99062816D01*
X148000702Y-99062815D01*
X147947324Y-99056356D01*
X147918411Y-99052857D01*
X147501892Y-99052857D01*
X147085198Y-99052858D01*
X147070145Y-99054679D01*
X147002906Y-99062815D01*
X147002903Y-99062816D01*
X146997868Y-99063425D01*
X146861453Y-99117435D01*
X146857166Y-99120689D01*
X146788998Y-99172432D01*
X146744588Y-99206141D01*
X146655882Y-99323006D01*
X146653900Y-99328012D01*
X146605697Y-99449761D01*
X146601872Y-99459421D01*
X146591304Y-99546750D01*
X146591305Y-101879963D01*
X146591591Y-101882326D01*
X146597833Y-101933910D01*
X146601872Y-101967293D01*
X146655882Y-102103708D01*
X146744588Y-102220573D01*
X146748871Y-102223824D01*
X146841846Y-102294396D01*
X146861453Y-102309279D01*
X146866459Y-102311261D01*
X146990041Y-102360190D01*
X146997868Y-102363289D01*
X147002903Y-102363898D01*
X147002906Y-102363899D01*
X147045606Y-102369066D01*
X147085197Y-102373857D01*
X147135500Y-102373857D01*
X147186280Y-102392339D01*
X147213300Y-102439139D01*
X147214500Y-102452857D01*
X147214500Y-103579684D01*
X147213300Y-103593401D01*
X147210096Y-103611573D01*
X147211296Y-103618378D01*
X147211652Y-103620397D01*
X147212683Y-103639282D01*
X147200354Y-103827391D01*
X147200170Y-103830195D01*
X147198822Y-103840433D01*
X147173193Y-103969280D01*
X147157090Y-104050235D01*
X147154415Y-104060217D01*
X147085653Y-104262783D01*
X147081699Y-104272330D01*
X146987089Y-104464180D01*
X146981922Y-104473129D01*
X146863079Y-104650990D01*
X146856788Y-104659188D01*
X146730642Y-104803030D01*
X146716564Y-104815651D01*
X146709221Y-104820793D01*
X146705257Y-104826454D01*
X146705253Y-104826458D01*
X146698634Y-104835911D01*
X146689783Y-104846459D01*
X146516457Y-105019785D01*
X146505913Y-105028634D01*
X146490794Y-105039220D01*
X146485652Y-105046562D01*
X146473033Y-105060638D01*
X146329185Y-105186790D01*
X146320989Y-105193080D01*
X146308746Y-105201260D01*
X146143130Y-105311921D01*
X146134181Y-105317088D01*
X146110586Y-105328724D01*
X145942316Y-105411706D01*
X145932786Y-105415653D01*
X145730219Y-105484415D01*
X145720247Y-105487088D01*
X145510433Y-105528822D01*
X145500202Y-105530169D01*
X145309282Y-105542683D01*
X145290397Y-105541652D01*
X145288378Y-105541296D01*
X145281573Y-105540096D01*
X145274767Y-105541296D01*
X145263402Y-105543300D01*
X145249684Y-105544500D01*
X124190316Y-105544500D01*
X124176598Y-105543300D01*
X124165234Y-105541296D01*
X124165233Y-105541296D01*
X124158427Y-105540096D01*
X124149596Y-105541653D01*
X124130716Y-105542684D01*
X124091231Y-105540096D01*
X123939798Y-105530170D01*
X123929567Y-105528823D01*
X123719766Y-105487091D01*
X123709783Y-105484416D01*
X123507217Y-105415654D01*
X123497670Y-105411700D01*
X123305819Y-105317090D01*
X123296870Y-105311923D01*
X123119009Y-105193080D01*
X123110811Y-105186789D01*
X122966974Y-105060647D01*
X122954349Y-105046564D01*
X122953170Y-105044880D01*
X122953168Y-105044878D01*
X122949207Y-105039221D01*
X122943550Y-105035260D01*
X122943546Y-105035256D01*
X122934089Y-105028634D01*
X122923541Y-105019783D01*
X122580215Y-104676457D01*
X122571366Y-104665913D01*
X122560780Y-104650794D01*
X122553437Y-104645652D01*
X122539354Y-104633027D01*
X122413212Y-104489190D01*
X122406921Y-104480992D01*
X122288078Y-104303130D01*
X122282911Y-104294181D01*
X122247509Y-104222394D01*
X122188293Y-104102316D01*
X122184346Y-104092786D01*
X122115584Y-103890219D01*
X122112910Y-103880242D01*
X122110964Y-103870457D01*
X122071177Y-103670433D01*
X122069829Y-103660195D01*
X122069585Y-103656458D01*
X122057900Y-103478192D01*
X122057316Y-103469284D01*
X122058347Y-103450404D01*
X122059904Y-103441573D01*
X122056700Y-103423401D01*
X122055500Y-103409684D01*
X122055500Y-99360316D01*
X122056700Y-99346598D01*
X122058704Y-99335234D01*
X122058704Y-99335233D01*
X122059904Y-99328427D01*
X122058724Y-99321736D01*
X122058703Y-99321364D01*
X122058703Y-99319147D01*
X122058462Y-99317064D01*
X122044831Y-99074333D01*
X122044831Y-99074329D01*
X122044707Y-99072129D01*
X122001708Y-98819055D01*
X121985449Y-98762618D01*
X121931260Y-98574526D01*
X121931257Y-98574518D01*
X121930643Y-98572386D01*
X121832408Y-98335224D01*
X121823399Y-98318923D01*
X121709309Y-98112492D01*
X121709306Y-98112487D01*
X121708237Y-98110553D01*
X121559691Y-97901197D01*
X121558213Y-97899543D01*
X121396222Y-97718274D01*
X121394920Y-97716631D01*
X121393354Y-97715065D01*
X121393101Y-97714782D01*
X121389207Y-97709221D01*
X121374088Y-97698635D01*
X121363544Y-97689786D01*
X119960593Y-96286835D01*
X119937755Y-96237859D01*
X119947095Y-96195740D01*
X119946284Y-96195379D01*
X119947968Y-96191596D01*
X119950039Y-96188009D01*
X120009443Y-96005182D01*
X120009876Y-96001064D01*
X120024283Y-95863992D01*
X120024283Y-95863985D01*
X120024500Y-95861924D01*
X120024500Y-94258076D01*
X120021928Y-94233600D01*
X120009876Y-94118936D01*
X120009876Y-94118934D01*
X120009443Y-94114818D01*
X119950039Y-93931991D01*
X119941074Y-93916462D01*
X119909586Y-93861924D01*
X121895500Y-93861924D01*
X121895717Y-93863985D01*
X121895717Y-93863992D01*
X121910124Y-94001064D01*
X121910557Y-94005182D01*
X121969961Y-94188009D01*
X121972030Y-94191592D01*
X121972031Y-94191595D01*
X122052527Y-94331018D01*
X122066079Y-94354490D01*
X122068851Y-94357569D01*
X122068852Y-94357570D01*
X122094861Y-94386456D01*
X122194710Y-94497349D01*
X122350231Y-94610342D01*
X122354020Y-94612029D01*
X122522064Y-94686848D01*
X122522067Y-94686849D01*
X122525847Y-94688532D01*
X122529893Y-94689392D01*
X122529896Y-94689393D01*
X122709838Y-94727641D01*
X122709843Y-94727642D01*
X122713882Y-94728500D01*
X122906118Y-94728500D01*
X122910157Y-94727642D01*
X122910162Y-94727641D01*
X123090108Y-94689392D01*
X123090110Y-94689391D01*
X123094153Y-94688532D01*
X123097935Y-94686848D01*
X123265989Y-94612025D01*
X123265992Y-94612023D01*
X123269768Y-94610342D01*
X123279201Y-94603489D01*
X123421937Y-94499785D01*
X123421936Y-94499785D01*
X123425290Y-94497349D01*
X123467632Y-94450324D01*
X123551149Y-94357569D01*
X123551150Y-94357567D01*
X123553921Y-94354490D01*
X123554047Y-94354604D01*
X123597388Y-94325370D01*
X123651131Y-94331018D01*
X123688670Y-94369891D01*
X123695500Y-94402023D01*
X123695500Y-95861924D01*
X123695717Y-95863985D01*
X123695717Y-95863992D01*
X123710124Y-96001064D01*
X123710557Y-96005182D01*
X123769961Y-96188009D01*
X123772030Y-96191592D01*
X123772031Y-96191595D01*
X123851821Y-96329794D01*
X123866079Y-96354490D01*
X123868851Y-96357569D01*
X123868852Y-96357570D01*
X123927653Y-96422875D01*
X123994710Y-96497349D01*
X124150231Y-96610342D01*
X124154020Y-96612029D01*
X124277632Y-96667065D01*
X124316505Y-96704604D01*
X124324500Y-96739235D01*
X124324500Y-97189684D01*
X124323300Y-97203401D01*
X124320096Y-97221573D01*
X124321296Y-97228378D01*
X124321652Y-97230397D01*
X124322683Y-97249282D01*
X124310305Y-97438136D01*
X124310170Y-97440195D01*
X124308822Y-97450433D01*
X124267089Y-97660242D01*
X124264415Y-97670219D01*
X124195653Y-97872786D01*
X124191706Y-97882316D01*
X124124238Y-98019127D01*
X124097088Y-98074181D01*
X124091921Y-98083130D01*
X124052132Y-98142679D01*
X123987786Y-98238980D01*
X123973081Y-98260987D01*
X123966790Y-98269185D01*
X123840638Y-98413033D01*
X123826562Y-98425652D01*
X123819220Y-98430794D01*
X123808634Y-98445913D01*
X123799785Y-98456457D01*
X123516456Y-98739786D01*
X123505912Y-98748635D01*
X123490793Y-98759221D01*
X123486900Y-98764781D01*
X123486648Y-98765063D01*
X123485083Y-98766628D01*
X123483782Y-98768270D01*
X123375207Y-98889765D01*
X123320308Y-98951196D01*
X123171762Y-99160552D01*
X123170693Y-99162486D01*
X123170690Y-99162491D01*
X123073133Y-99339009D01*
X123047591Y-99385224D01*
X122949356Y-99622385D01*
X122948742Y-99624517D01*
X122948739Y-99624525D01*
X122911162Y-99754958D01*
X122878291Y-99869054D01*
X122866351Y-99939329D01*
X122838029Y-100106023D01*
X122835292Y-100122129D01*
X122835168Y-100124331D01*
X122835168Y-100124334D01*
X122821536Y-100367075D01*
X122821296Y-100369148D01*
X122821296Y-100371353D01*
X122821274Y-100371745D01*
X122820096Y-100378427D01*
X122821296Y-100385233D01*
X122823300Y-100396598D01*
X122824500Y-100410316D01*
X122824500Y-102699684D01*
X122823300Y-102713401D01*
X122820096Y-102731573D01*
X122821274Y-102738255D01*
X122821296Y-102738647D01*
X122821296Y-102740852D01*
X122821536Y-102742925D01*
X122834194Y-102968317D01*
X122835292Y-102987871D01*
X122835662Y-102990048D01*
X122835662Y-102990049D01*
X122835739Y-102990500D01*
X122878292Y-103240946D01*
X122878906Y-103243076D01*
X122878907Y-103243082D01*
X122947596Y-103481505D01*
X122949356Y-103487615D01*
X122950204Y-103489663D01*
X122950205Y-103489665D01*
X122951304Y-103492319D01*
X123047591Y-103724777D01*
X123048656Y-103726704D01*
X123166980Y-103940794D01*
X123171763Y-103949449D01*
X123320309Y-104158805D01*
X123321778Y-104160449D01*
X123321779Y-104160450D01*
X123483783Y-104341731D01*
X123485081Y-104343369D01*
X123486642Y-104344930D01*
X123486901Y-104345220D01*
X123490794Y-104350780D01*
X123496455Y-104354744D01*
X123496459Y-104354748D01*
X123505912Y-104361367D01*
X123516460Y-104370218D01*
X123779786Y-104633544D01*
X123788635Y-104644088D01*
X123799221Y-104659207D01*
X123804782Y-104663101D01*
X123805065Y-104663354D01*
X123806631Y-104664920D01*
X123808274Y-104666222D01*
X123981240Y-104820793D01*
X123991197Y-104829691D01*
X124200553Y-104978237D01*
X124202487Y-104979306D01*
X124202492Y-104979309D01*
X124385074Y-105080218D01*
X124425224Y-105102408D01*
X124612094Y-105179811D01*
X124644130Y-105193081D01*
X124662386Y-105200643D01*
X124664518Y-105201257D01*
X124664526Y-105201260D01*
X124906917Y-105271092D01*
X124909055Y-105271708D01*
X125162129Y-105314707D01*
X125164329Y-105314831D01*
X125164333Y-105314831D01*
X125407064Y-105328462D01*
X125409147Y-105328703D01*
X125411364Y-105328703D01*
X125411736Y-105328724D01*
X125418427Y-105329904D01*
X125425233Y-105328704D01*
X125425234Y-105328704D01*
X125436598Y-105326700D01*
X125450316Y-105325500D01*
X143489684Y-105325500D01*
X143503402Y-105326700D01*
X143514766Y-105328704D01*
X143514767Y-105328704D01*
X143521573Y-105329904D01*
X143528264Y-105328724D01*
X143528636Y-105328703D01*
X143530853Y-105328703D01*
X143532936Y-105328462D01*
X143775667Y-105314831D01*
X143775671Y-105314831D01*
X143777871Y-105314707D01*
X144030946Y-105271707D01*
X144033076Y-105271093D01*
X144033082Y-105271092D01*
X144275475Y-105201260D01*
X144275483Y-105201257D01*
X144277615Y-105200643D01*
X144295872Y-105193081D01*
X144327907Y-105179811D01*
X144514777Y-105102408D01*
X144590097Y-105060780D01*
X144737509Y-104979308D01*
X144737514Y-104979305D01*
X144739448Y-104978236D01*
X144948804Y-104829690D01*
X145037870Y-104750096D01*
X145131728Y-104666220D01*
X145133368Y-104664920D01*
X145134930Y-104663358D01*
X145135220Y-104663099D01*
X145140780Y-104659206D01*
X145144744Y-104653545D01*
X145144748Y-104653541D01*
X145151367Y-104644088D01*
X145160218Y-104633540D01*
X145713544Y-104080214D01*
X145724088Y-104071365D01*
X145739207Y-104060779D01*
X145743101Y-104055218D01*
X145743354Y-104054935D01*
X145744920Y-104053369D01*
X145746222Y-104051726D01*
X145908213Y-103870457D01*
X145908214Y-103870456D01*
X145909691Y-103868803D01*
X146058237Y-103659447D01*
X146069382Y-103639283D01*
X146181343Y-103436703D01*
X146182408Y-103434776D01*
X146262694Y-103240946D01*
X146279794Y-103199664D01*
X146279795Y-103199662D01*
X146280643Y-103197614D01*
X146286982Y-103175613D01*
X146351093Y-102953080D01*
X146351093Y-102953078D01*
X146351708Y-102950945D01*
X146394707Y-102697871D01*
X146396035Y-102674229D01*
X146408462Y-102452936D01*
X146408703Y-102450853D01*
X146408703Y-102448636D01*
X146408724Y-102448264D01*
X146409904Y-102441573D01*
X146406700Y-102423401D01*
X146405500Y-102409684D01*
X146405500Y-97802856D01*
X146423982Y-97752076D01*
X146470782Y-97725056D01*
X146484500Y-97723856D01*
X147128410Y-97723856D01*
X147143463Y-97722035D01*
X147210702Y-97713899D01*
X147210705Y-97713898D01*
X147215740Y-97713289D01*
X147352155Y-97659279D01*
X147469020Y-97570573D01*
X147557726Y-97453708D01*
X147563156Y-97439993D01*
X147609867Y-97322014D01*
X147609868Y-97322012D01*
X147611736Y-97317293D01*
X147612719Y-97309176D01*
X147622018Y-97232326D01*
X147622304Y-97229964D01*
X147622303Y-96396751D01*
X147618522Y-96365500D01*
X147612346Y-96314459D01*
X147612345Y-96314456D01*
X147611736Y-96309421D01*
X147557726Y-96173006D01*
X147469020Y-96056141D01*
X147407074Y-96009121D01*
X147356442Y-95970689D01*
X147352155Y-95967435D01*
X147347149Y-95965453D01*
X147220461Y-95915294D01*
X147220460Y-95915294D01*
X147215740Y-95913425D01*
X147210705Y-95912816D01*
X147210702Y-95912815D01*
X147157324Y-95906356D01*
X147128411Y-95902857D01*
X145962050Y-95902857D01*
X144795198Y-95902858D01*
X144781157Y-95904557D01*
X144712906Y-95912815D01*
X144712903Y-95912816D01*
X144707868Y-95913425D01*
X144571453Y-95967435D01*
X144567166Y-95970689D01*
X144516534Y-96009121D01*
X144454588Y-96056141D01*
X144365882Y-96173006D01*
X144363900Y-96178012D01*
X144317010Y-96296445D01*
X144311872Y-96309421D01*
X144311263Y-96314456D01*
X144311262Y-96314459D01*
X144306435Y-96354346D01*
X144301304Y-96396750D01*
X144301305Y-97229963D01*
X144301591Y-97232326D01*
X144311213Y-97311843D01*
X144311872Y-97317293D01*
X144365882Y-97453708D01*
X144454588Y-97570573D01*
X144571453Y-97659279D01*
X144576459Y-97661261D01*
X144689721Y-97706104D01*
X144707868Y-97713289D01*
X144712903Y-97713898D01*
X144712906Y-97713899D01*
X144766284Y-97720358D01*
X144795197Y-97723857D01*
X145755500Y-97723857D01*
X145806280Y-97742339D01*
X145833300Y-97789139D01*
X145834500Y-97802857D01*
X145834500Y-101486067D01*
X145827188Y-101506158D01*
X145831344Y-101511826D01*
X145834500Y-101533933D01*
X145834500Y-102409684D01*
X145833300Y-102423401D01*
X145830096Y-102441573D01*
X145831296Y-102448378D01*
X145831652Y-102450397D01*
X145832683Y-102469282D01*
X145820795Y-102650665D01*
X145820170Y-102660195D01*
X145818822Y-102670433D01*
X145796846Y-102780915D01*
X145777090Y-102880235D01*
X145774415Y-102890217D01*
X145705653Y-103092783D01*
X145701699Y-103102330D01*
X145607089Y-103294180D01*
X145601922Y-103303129D01*
X145483079Y-103480990D01*
X145476788Y-103489188D01*
X145350642Y-103633030D01*
X145336564Y-103645651D01*
X145329221Y-103650793D01*
X145325257Y-103656454D01*
X145325253Y-103656458D01*
X145318634Y-103665911D01*
X145309783Y-103676459D01*
X144756457Y-104229785D01*
X144745913Y-104238634D01*
X144730794Y-104249220D01*
X144725655Y-104256559D01*
X144713033Y-104270638D01*
X144569185Y-104396790D01*
X144560990Y-104403079D01*
X144472058Y-104462501D01*
X144383130Y-104521921D01*
X144374181Y-104527088D01*
X144182316Y-104621706D01*
X144172786Y-104625653D01*
X143970219Y-104694415D01*
X143960247Y-104697088D01*
X143750433Y-104738822D01*
X143740202Y-104740169D01*
X143549282Y-104752683D01*
X143530397Y-104751652D01*
X143528378Y-104751296D01*
X143521573Y-104750096D01*
X143514767Y-104751296D01*
X143503402Y-104753300D01*
X143489684Y-104754500D01*
X125450316Y-104754500D01*
X125436598Y-104753300D01*
X125425233Y-104751296D01*
X125418427Y-104750096D01*
X125411622Y-104751296D01*
X125409603Y-104751652D01*
X125390718Y-104752683D01*
X125199798Y-104740169D01*
X125189567Y-104738822D01*
X124979766Y-104697090D01*
X124969783Y-104694415D01*
X124767217Y-104625653D01*
X124757670Y-104621699D01*
X124565820Y-104527089D01*
X124556871Y-104521922D01*
X124379010Y-104403079D01*
X124370812Y-104396788D01*
X124226970Y-104270642D01*
X124214349Y-104256564D01*
X124209207Y-104249221D01*
X124203546Y-104245257D01*
X124203542Y-104245253D01*
X124194089Y-104238634D01*
X124183541Y-104229783D01*
X123920215Y-103966457D01*
X123911366Y-103955913D01*
X123900780Y-103940794D01*
X123893437Y-103935652D01*
X123879354Y-103923027D01*
X123753212Y-103779190D01*
X123746921Y-103770992D01*
X123628078Y-103593130D01*
X123622911Y-103584181D01*
X123583801Y-103504874D01*
X123569474Y-103475823D01*
X125299710Y-103475823D01*
X125301926Y-103502209D01*
X125315626Y-103665360D01*
X125316292Y-103673297D01*
X125348921Y-103787089D01*
X125366015Y-103846700D01*
X125370915Y-103863790D01*
X125461498Y-104040045D01*
X125584590Y-104195348D01*
X125735504Y-104323786D01*
X125738878Y-104325672D01*
X125738880Y-104325673D01*
X125783804Y-104350780D01*
X125908490Y-104420465D01*
X125912152Y-104421655D01*
X125912157Y-104421657D01*
X125983426Y-104444813D01*
X126096960Y-104481702D01*
X126100797Y-104482160D01*
X126100799Y-104482160D01*
X126289892Y-104504708D01*
X126289895Y-104504708D01*
X126293735Y-104505166D01*
X126491320Y-104489963D01*
X126520575Y-104481795D01*
X126583664Y-104464180D01*
X126682190Y-104436671D01*
X126813745Y-104370218D01*
X126855619Y-104349066D01*
X126855621Y-104349065D01*
X126859073Y-104347321D01*
X126955057Y-104272330D01*
X127012190Y-104227693D01*
X127012192Y-104227691D01*
X127015232Y-104225316D01*
X127106037Y-104120118D01*
X127142196Y-104078228D01*
X127142200Y-104078223D01*
X127144720Y-104075303D01*
X127146626Y-104071947D01*
X127146630Y-104071942D01*
X127240695Y-103906356D01*
X127242604Y-103902996D01*
X127251439Y-103876437D01*
X127303935Y-103718630D01*
X127303936Y-103718625D01*
X127305156Y-103714958D01*
X127305918Y-103708931D01*
X127318216Y-103611573D01*
X127329993Y-103518351D01*
X127330389Y-103490000D01*
X127328999Y-103475823D01*
X127589710Y-103475823D01*
X127591926Y-103502209D01*
X127605626Y-103665360D01*
X127606292Y-103673297D01*
X127638921Y-103787089D01*
X127656015Y-103846700D01*
X127660915Y-103863790D01*
X127751498Y-104040045D01*
X127874590Y-104195348D01*
X128025504Y-104323786D01*
X128028878Y-104325672D01*
X128028880Y-104325673D01*
X128073804Y-104350780D01*
X128198490Y-104420465D01*
X128202152Y-104421655D01*
X128202157Y-104421657D01*
X128273426Y-104444813D01*
X128386960Y-104481702D01*
X128390797Y-104482160D01*
X128390799Y-104482160D01*
X128579892Y-104504708D01*
X128579895Y-104504708D01*
X128583735Y-104505166D01*
X128781320Y-104489963D01*
X128810575Y-104481795D01*
X128873664Y-104464180D01*
X128972190Y-104436671D01*
X129103745Y-104370218D01*
X129145619Y-104349066D01*
X129145621Y-104349065D01*
X129149073Y-104347321D01*
X129245057Y-104272330D01*
X129302190Y-104227693D01*
X129302192Y-104227691D01*
X129305232Y-104225316D01*
X129396037Y-104120118D01*
X129432196Y-104078228D01*
X129432200Y-104078223D01*
X129434720Y-104075303D01*
X129436626Y-104071947D01*
X129436630Y-104071942D01*
X129530695Y-103906356D01*
X129532604Y-103902996D01*
X129541439Y-103876437D01*
X129593935Y-103718630D01*
X129593936Y-103718625D01*
X129595156Y-103714958D01*
X129595918Y-103708931D01*
X129608216Y-103611573D01*
X129619993Y-103518351D01*
X129620389Y-103490000D01*
X129618999Y-103475823D01*
X129879710Y-103475823D01*
X129881926Y-103502209D01*
X129895626Y-103665360D01*
X129896292Y-103673297D01*
X129928921Y-103787089D01*
X129946015Y-103846700D01*
X129950915Y-103863790D01*
X130041498Y-104040045D01*
X130164590Y-104195348D01*
X130315504Y-104323786D01*
X130318878Y-104325672D01*
X130318880Y-104325673D01*
X130363804Y-104350780D01*
X130488490Y-104420465D01*
X130492152Y-104421655D01*
X130492157Y-104421657D01*
X130563426Y-104444813D01*
X130676960Y-104481702D01*
X130680797Y-104482160D01*
X130680799Y-104482160D01*
X130869892Y-104504708D01*
X130869895Y-104504708D01*
X130873735Y-104505166D01*
X131071320Y-104489963D01*
X131100575Y-104481795D01*
X131163664Y-104464180D01*
X131262190Y-104436671D01*
X131393745Y-104370218D01*
X131435619Y-104349066D01*
X131435621Y-104349065D01*
X131439073Y-104347321D01*
X131535057Y-104272330D01*
X131592190Y-104227693D01*
X131592192Y-104227691D01*
X131595232Y-104225316D01*
X131686037Y-104120118D01*
X131722196Y-104078228D01*
X131722200Y-104078223D01*
X131724720Y-104075303D01*
X131726626Y-104071947D01*
X131726630Y-104071942D01*
X131820695Y-103906356D01*
X131822604Y-103902996D01*
X131831439Y-103876437D01*
X131883935Y-103718630D01*
X131883936Y-103718625D01*
X131885156Y-103714958D01*
X131885918Y-103708931D01*
X131898216Y-103611573D01*
X131909993Y-103518351D01*
X131910389Y-103490000D01*
X131908999Y-103475823D01*
X132169710Y-103475823D01*
X132171926Y-103502209D01*
X132185626Y-103665360D01*
X132186292Y-103673297D01*
X132218921Y-103787089D01*
X132236015Y-103846700D01*
X132240915Y-103863790D01*
X132331498Y-104040045D01*
X132454590Y-104195348D01*
X132605504Y-104323786D01*
X132608878Y-104325672D01*
X132608880Y-104325673D01*
X132653804Y-104350780D01*
X132778490Y-104420465D01*
X132782152Y-104421655D01*
X132782157Y-104421657D01*
X132853426Y-104444813D01*
X132966960Y-104481702D01*
X132970797Y-104482160D01*
X132970799Y-104482160D01*
X133159892Y-104504708D01*
X133159895Y-104504708D01*
X133163735Y-104505166D01*
X133361320Y-104489963D01*
X133390575Y-104481795D01*
X133453664Y-104464180D01*
X133552190Y-104436671D01*
X133683745Y-104370218D01*
X133725619Y-104349066D01*
X133725621Y-104349065D01*
X133729073Y-104347321D01*
X133825057Y-104272330D01*
X133882190Y-104227693D01*
X133882192Y-104227691D01*
X133885232Y-104225316D01*
X133976037Y-104120118D01*
X134012196Y-104078228D01*
X134012200Y-104078223D01*
X134014720Y-104075303D01*
X134016626Y-104071947D01*
X134016630Y-104071942D01*
X134110695Y-103906356D01*
X134112604Y-103902996D01*
X134121439Y-103876437D01*
X134173935Y-103718630D01*
X134173936Y-103718625D01*
X134175156Y-103714958D01*
X134175918Y-103708931D01*
X134188216Y-103611573D01*
X134199993Y-103518351D01*
X134200389Y-103490000D01*
X134198999Y-103475823D01*
X134459710Y-103475823D01*
X134461926Y-103502209D01*
X134475626Y-103665360D01*
X134476292Y-103673297D01*
X134508921Y-103787089D01*
X134526015Y-103846700D01*
X134530915Y-103863790D01*
X134621498Y-104040045D01*
X134744590Y-104195348D01*
X134895504Y-104323786D01*
X134898878Y-104325672D01*
X134898880Y-104325673D01*
X134943804Y-104350780D01*
X135068490Y-104420465D01*
X135072152Y-104421655D01*
X135072157Y-104421657D01*
X135143426Y-104444813D01*
X135256960Y-104481702D01*
X135260797Y-104482160D01*
X135260799Y-104482160D01*
X135449892Y-104504708D01*
X135449895Y-104504708D01*
X135453735Y-104505166D01*
X135651320Y-104489963D01*
X135680575Y-104481795D01*
X135743664Y-104464180D01*
X135842190Y-104436671D01*
X135973745Y-104370218D01*
X136015619Y-104349066D01*
X136015621Y-104349065D01*
X136019073Y-104347321D01*
X136115057Y-104272330D01*
X136172190Y-104227693D01*
X136172192Y-104227691D01*
X136175232Y-104225316D01*
X136266037Y-104120118D01*
X136302196Y-104078228D01*
X136302200Y-104078223D01*
X136304720Y-104075303D01*
X136306626Y-104071947D01*
X136306630Y-104071942D01*
X136368120Y-103963699D01*
X137064288Y-103963699D01*
X137065018Y-103969280D01*
X137081168Y-104092778D01*
X137083249Y-104108695D01*
X137142143Y-104242542D01*
X137145765Y-104246851D01*
X137167182Y-104272330D01*
X137236236Y-104354479D01*
X137357964Y-104435508D01*
X137497541Y-104479116D01*
X137547056Y-104480023D01*
X137638120Y-104481692D01*
X137638121Y-104481692D01*
X137643747Y-104481795D01*
X137784829Y-104443332D01*
X137909445Y-104366818D01*
X137913218Y-104362650D01*
X137913220Y-104362648D01*
X137986684Y-104281485D01*
X138034464Y-104256240D01*
X138045254Y-104255500D01*
X138353896Y-104255500D01*
X138367614Y-104256700D01*
X138378978Y-104258704D01*
X138378979Y-104258704D01*
X138385785Y-104259904D01*
X138390190Y-104259127D01*
X138395578Y-104258703D01*
X138395582Y-104258703D01*
X138487218Y-104251491D01*
X138587504Y-104243599D01*
X138701791Y-104216161D01*
X138781236Y-104197088D01*
X138781238Y-104197087D01*
X138784255Y-104196363D01*
X138971195Y-104118930D01*
X139143720Y-104013207D01*
X139195152Y-103969280D01*
X139290117Y-103888173D01*
X139290119Y-103888171D01*
X139294224Y-103884665D01*
X139297887Y-103882100D01*
X139308472Y-103866983D01*
X139317324Y-103856434D01*
X139880336Y-103293422D01*
X141965626Y-103293422D01*
X141967022Y-103298633D01*
X141995270Y-103323406D01*
X141999368Y-103326551D01*
X142243898Y-103489941D01*
X142248370Y-103492523D01*
X142512136Y-103622597D01*
X142516915Y-103624577D01*
X142795388Y-103719106D01*
X142800394Y-103720447D01*
X143088832Y-103777821D01*
X143093949Y-103778495D01*
X143387422Y-103797730D01*
X143392578Y-103797730D01*
X143686051Y-103778495D01*
X143691168Y-103777821D01*
X143979606Y-103720447D01*
X143984612Y-103719106D01*
X144263085Y-103624577D01*
X144267864Y-103622597D01*
X144531630Y-103492523D01*
X144536102Y-103489941D01*
X144780632Y-103326551D01*
X144784730Y-103323406D01*
X144808952Y-103302164D01*
X144814414Y-103292207D01*
X144813361Y-103286915D01*
X143399851Y-101873404D01*
X143389557Y-101868604D01*
X143383263Y-101870290D01*
X141970426Y-103283128D01*
X141965626Y-103293422D01*
X139880336Y-103293422D01*
X139886434Y-103287324D01*
X139896983Y-103278472D01*
X139901644Y-103275208D01*
X139912100Y-103267887D01*
X139914665Y-103264224D01*
X139919545Y-103258511D01*
X140041189Y-103116083D01*
X140041190Y-103116082D01*
X140043207Y-103113720D01*
X140148930Y-102941195D01*
X140226363Y-102754255D01*
X140231809Y-102731573D01*
X140272872Y-102560531D01*
X140273599Y-102557504D01*
X140283258Y-102434766D01*
X140288703Y-102365582D01*
X140288703Y-102365578D01*
X140289127Y-102360190D01*
X140289904Y-102355785D01*
X140286700Y-102337613D01*
X140285500Y-102323896D01*
X140285500Y-101512578D01*
X141102270Y-101512578D01*
X141121505Y-101806051D01*
X141122179Y-101811168D01*
X141179553Y-102099606D01*
X141180894Y-102104612D01*
X141275423Y-102383085D01*
X141277403Y-102387864D01*
X141407477Y-102651629D01*
X141410059Y-102656102D01*
X141573449Y-102900632D01*
X141576594Y-102904730D01*
X141597836Y-102928952D01*
X141607793Y-102934414D01*
X141613085Y-102933361D01*
X143026596Y-101519851D01*
X143030983Y-101510443D01*
X143748604Y-101510443D01*
X143750290Y-101516737D01*
X145163128Y-102929574D01*
X145173422Y-102934374D01*
X145178633Y-102932978D01*
X145203406Y-102904730D01*
X145206551Y-102900632D01*
X145369941Y-102656102D01*
X145372523Y-102651629D01*
X145502597Y-102387864D01*
X145504577Y-102383085D01*
X145599106Y-102104612D01*
X145600447Y-102099606D01*
X145657821Y-101811168D01*
X145658495Y-101806051D01*
X145676669Y-101528766D01*
X145682775Y-101514888D01*
X145681264Y-101513087D01*
X145676669Y-101491234D01*
X145658495Y-101213949D01*
X145657821Y-101208832D01*
X145600447Y-100920394D01*
X145599106Y-100915388D01*
X145504577Y-100636915D01*
X145502597Y-100632136D01*
X145372523Y-100368371D01*
X145369941Y-100363898D01*
X145206551Y-100119368D01*
X145203406Y-100115270D01*
X145182164Y-100091048D01*
X145172207Y-100085586D01*
X145166915Y-100086639D01*
X143753404Y-101500149D01*
X143748604Y-101510443D01*
X143030983Y-101510443D01*
X143031396Y-101509557D01*
X143029710Y-101503263D01*
X141616872Y-100090426D01*
X141606578Y-100085626D01*
X141601367Y-100087022D01*
X141576594Y-100115270D01*
X141573449Y-100119368D01*
X141410059Y-100363898D01*
X141407477Y-100368371D01*
X141277403Y-100632136D01*
X141275423Y-100636915D01*
X141180894Y-100915388D01*
X141179553Y-100920394D01*
X141122179Y-101208832D01*
X141121505Y-101213949D01*
X141102270Y-101507422D01*
X141102270Y-101512578D01*
X140285500Y-101512578D01*
X140285500Y-101096103D01*
X140286700Y-101082385D01*
X140288704Y-101071020D01*
X140289904Y-101064214D01*
X140288704Y-101057409D01*
X140288704Y-101052150D01*
X140288141Y-101037401D01*
X140298467Y-100932561D01*
X140301489Y-100917372D01*
X140337628Y-100798237D01*
X140343554Y-100783929D01*
X140402248Y-100674120D01*
X140410852Y-100661243D01*
X140411578Y-100660359D01*
X140434740Y-100632136D01*
X140477682Y-100579811D01*
X140488509Y-100569780D01*
X140492226Y-100566063D01*
X140497886Y-100562100D01*
X140508472Y-100546981D01*
X140517321Y-100536437D01*
X141325965Y-99727793D01*
X141965586Y-99727793D01*
X141966639Y-99733085D01*
X143380149Y-101146596D01*
X143390443Y-101151396D01*
X143396737Y-101149710D01*
X144809574Y-99736872D01*
X144814374Y-99726578D01*
X144812978Y-99721367D01*
X144784730Y-99696594D01*
X144780632Y-99693449D01*
X144536102Y-99530059D01*
X144531630Y-99527477D01*
X144267864Y-99397403D01*
X144263085Y-99395423D01*
X143984612Y-99300894D01*
X143979606Y-99299553D01*
X143691168Y-99242179D01*
X143686051Y-99241505D01*
X143392578Y-99222270D01*
X143387422Y-99222270D01*
X143093949Y-99241505D01*
X143088832Y-99242179D01*
X142800394Y-99299553D01*
X142795388Y-99300894D01*
X142516915Y-99395423D01*
X142512136Y-99397403D01*
X142248371Y-99527477D01*
X142243898Y-99530059D01*
X141999368Y-99693449D01*
X141995270Y-99696594D01*
X141971048Y-99717836D01*
X141965586Y-99727793D01*
X141325965Y-99727793D01*
X141876437Y-99177321D01*
X141886981Y-99168472D01*
X141902100Y-99157886D01*
X141904656Y-99154235D01*
X141914196Y-99143065D01*
X142031195Y-99006078D01*
X142031195Y-99006077D01*
X142033208Y-99003721D01*
X142138931Y-98831195D01*
X142216364Y-98644256D01*
X142218986Y-98633337D01*
X142242909Y-98533687D01*
X142263600Y-98447504D01*
X142274367Y-98310693D01*
X142278703Y-98255595D01*
X142278703Y-98255593D01*
X142279129Y-98250180D01*
X142279904Y-98245786D01*
X142276700Y-98227614D01*
X142275500Y-98213897D01*
X142275500Y-97423699D01*
X142804288Y-97423699D01*
X142808212Y-97453708D01*
X142811781Y-97480995D01*
X142823249Y-97568695D01*
X142882143Y-97702542D01*
X142885765Y-97706851D01*
X142912288Y-97738404D01*
X142976236Y-97814479D01*
X143097964Y-97895508D01*
X143237541Y-97939116D01*
X143287056Y-97940023D01*
X143378120Y-97941692D01*
X143378121Y-97941692D01*
X143383747Y-97941795D01*
X143524829Y-97903332D01*
X143629569Y-97839022D01*
X143644652Y-97829761D01*
X143649445Y-97826818D01*
X143653218Y-97822650D01*
X143653220Y-97822648D01*
X143743799Y-97722577D01*
X143743800Y-97722576D01*
X143747576Y-97718404D01*
X143763200Y-97686157D01*
X143808881Y-97591870D01*
X143811335Y-97586805D01*
X143814787Y-97566290D01*
X143835090Y-97445610D01*
X143835090Y-97445607D01*
X143835596Y-97442601D01*
X143835750Y-97430000D01*
X143827416Y-97371805D01*
X143815818Y-97290816D01*
X143815817Y-97290814D01*
X143815020Y-97285246D01*
X143809959Y-97274114D01*
X143756827Y-97157257D01*
X143756826Y-97157255D01*
X143754495Y-97152129D01*
X143750820Y-97147864D01*
X143750818Y-97147861D01*
X143662716Y-97045615D01*
X143659041Y-97041350D01*
X143645616Y-97032648D01*
X143641530Y-97029999D01*
X143608972Y-96986870D01*
X143605500Y-96963708D01*
X143605500Y-96856102D01*
X143606700Y-96842384D01*
X143608704Y-96831019D01*
X143609904Y-96824213D01*
X143608704Y-96817407D01*
X143608704Y-96812124D01*
X143608141Y-96797404D01*
X143608163Y-96797187D01*
X143617282Y-96704604D01*
X143618468Y-96692561D01*
X143621490Y-96677373D01*
X143657629Y-96558235D01*
X143663555Y-96543927D01*
X143722247Y-96434122D01*
X143730851Y-96421245D01*
X143782869Y-96357861D01*
X143797682Y-96339811D01*
X143808495Y-96329794D01*
X143812222Y-96326067D01*
X143817886Y-96322101D01*
X143828474Y-96306980D01*
X143837326Y-96296432D01*
X144196432Y-95937326D01*
X144206980Y-95928474D01*
X144210877Y-95925745D01*
X144222101Y-95917886D01*
X144226067Y-95912222D01*
X144229794Y-95908495D01*
X144239812Y-95897681D01*
X144239954Y-95897565D01*
X144310326Y-95839812D01*
X144321245Y-95830851D01*
X144334122Y-95822247D01*
X144443927Y-95763555D01*
X144458235Y-95757629D01*
X144577373Y-95721490D01*
X144592561Y-95718468D01*
X144629109Y-95714868D01*
X144697407Y-95708141D01*
X144712124Y-95708704D01*
X144717407Y-95708704D01*
X144724213Y-95709904D01*
X144742385Y-95706700D01*
X144756102Y-95705500D01*
X147963897Y-95705500D01*
X147977614Y-95706700D01*
X147995786Y-95709904D01*
X148002591Y-95708704D01*
X148007850Y-95708704D01*
X148022599Y-95708141D01*
X148127439Y-95718467D01*
X148142628Y-95721489D01*
X148261763Y-95757628D01*
X148276071Y-95763554D01*
X148385880Y-95822248D01*
X148398757Y-95830852D01*
X148480189Y-95897682D01*
X148490220Y-95908509D01*
X148493937Y-95912226D01*
X148497900Y-95917886D01*
X148513019Y-95928472D01*
X148523563Y-95937321D01*
X149514483Y-96928241D01*
X149523332Y-96938785D01*
X149533918Y-96953904D01*
X149539578Y-96957867D01*
X149543295Y-96961584D01*
X149554122Y-96971615D01*
X149620952Y-97053047D01*
X149629556Y-97065924D01*
X149688250Y-97175733D01*
X149694176Y-97190041D01*
X149730315Y-97309176D01*
X149733337Y-97324365D01*
X149743663Y-97429205D01*
X149743100Y-97443954D01*
X149743100Y-97449213D01*
X149741900Y-97456018D01*
X149743100Y-97462824D01*
X149745104Y-97474189D01*
X149746304Y-97487907D01*
X149746304Y-98973858D01*
X149727822Y-99024638D01*
X149681022Y-99051658D01*
X149667304Y-99052858D01*
X149615198Y-99052858D01*
X149600145Y-99054679D01*
X149532906Y-99062815D01*
X149532903Y-99062816D01*
X149527868Y-99063425D01*
X149391453Y-99117435D01*
X149387166Y-99120689D01*
X149318998Y-99172432D01*
X149274588Y-99206141D01*
X149185882Y-99323006D01*
X149183900Y-99328012D01*
X149135697Y-99449761D01*
X149131872Y-99459421D01*
X149121304Y-99546750D01*
X149121305Y-101879963D01*
X149121591Y-101882326D01*
X149127833Y-101933910D01*
X149131872Y-101967293D01*
X149185882Y-102103708D01*
X149274588Y-102220573D01*
X149278871Y-102223824D01*
X149371846Y-102294396D01*
X149391453Y-102309279D01*
X149396459Y-102311261D01*
X149520041Y-102360190D01*
X149527868Y-102363289D01*
X149532903Y-102363898D01*
X149532906Y-102363899D01*
X149575606Y-102369066D01*
X149615197Y-102373857D01*
X150031716Y-102373857D01*
X150448410Y-102373856D01*
X150465327Y-102371809D01*
X150530702Y-102363899D01*
X150530705Y-102363898D01*
X150535740Y-102363289D01*
X150672155Y-102309279D01*
X150691763Y-102294396D01*
X150784737Y-102223824D01*
X150789020Y-102220573D01*
X150877726Y-102103708D01*
X150886817Y-102080746D01*
X150929867Y-101972014D01*
X150929868Y-101972012D01*
X150931736Y-101967293D01*
X150935844Y-101933351D01*
X150942018Y-101882326D01*
X150942304Y-101879964D01*
X150942303Y-99546751D01*
X150935840Y-99493335D01*
X150932346Y-99464459D01*
X150932345Y-99464456D01*
X150931736Y-99459421D01*
X150877726Y-99323006D01*
X150789020Y-99206141D01*
X150744610Y-99172432D01*
X150676442Y-99120689D01*
X150672155Y-99117435D01*
X150638315Y-99104037D01*
X150540461Y-99065294D01*
X150540460Y-99065294D01*
X150535740Y-99063425D01*
X150530705Y-99062816D01*
X150530702Y-99062815D01*
X150477324Y-99056356D01*
X150448411Y-99052857D01*
X150396304Y-99052857D01*
X150345524Y-99034375D01*
X150318504Y-98987575D01*
X150317304Y-98973857D01*
X150317304Y-97487907D01*
X150318504Y-97474189D01*
X150320508Y-97462825D01*
X150320508Y-97462824D01*
X150321708Y-97456018D01*
X150320933Y-97451624D01*
X150320373Y-97444500D01*
X150314702Y-97372453D01*
X150305404Y-97254300D01*
X150265672Y-97088805D01*
X150258893Y-97060567D01*
X150258892Y-97060565D01*
X150258168Y-97057548D01*
X150180735Y-96870609D01*
X150075012Y-96698083D01*
X150043454Y-96661133D01*
X149949996Y-96551709D01*
X149949995Y-96551708D01*
X149946460Y-96547569D01*
X149943904Y-96543918D01*
X149928785Y-96533332D01*
X149918241Y-96524483D01*
X148927321Y-95533563D01*
X148918471Y-95523017D01*
X148907886Y-95507900D01*
X148904235Y-95505344D01*
X148861552Y-95468889D01*
X148756078Y-95378805D01*
X148756077Y-95378805D01*
X148753721Y-95376792D01*
X148581195Y-95271069D01*
X148394256Y-95193636D01*
X148391239Y-95192912D01*
X148391237Y-95192911D01*
X148263382Y-95162216D01*
X148197504Y-95146400D01*
X148061313Y-95135682D01*
X148005595Y-95131297D01*
X148005593Y-95131297D01*
X148000180Y-95130871D01*
X147995786Y-95130096D01*
X147988980Y-95131296D01*
X147988979Y-95131296D01*
X147977615Y-95133300D01*
X147963897Y-95134500D01*
X144756104Y-95134500D01*
X144742386Y-95133300D01*
X144731022Y-95131296D01*
X144731021Y-95131296D01*
X144724215Y-95130096D01*
X144719810Y-95130873D01*
X144714422Y-95131297D01*
X144714418Y-95131297D01*
X144622782Y-95138509D01*
X144522496Y-95146401D01*
X144408209Y-95173839D01*
X144328764Y-95192912D01*
X144328762Y-95192913D01*
X144325745Y-95193637D01*
X144138805Y-95271070D01*
X143966280Y-95376793D01*
X143963918Y-95378810D01*
X143963917Y-95378811D01*
X143819906Y-95501808D01*
X143815776Y-95505335D01*
X143812113Y-95507900D01*
X143808148Y-95513563D01*
X143801528Y-95523017D01*
X143792676Y-95533566D01*
X143433566Y-95892676D01*
X143423017Y-95901528D01*
X143407900Y-95912113D01*
X143405335Y-95915776D01*
X143401829Y-95919881D01*
X143401827Y-95919883D01*
X143316843Y-96019387D01*
X143276793Y-96066280D01*
X143171070Y-96238805D01*
X143093637Y-96425745D01*
X143046401Y-96622496D01*
X143039939Y-96704604D01*
X143032170Y-96803332D01*
X143030873Y-96819810D01*
X143030096Y-96824215D01*
X143031296Y-96831019D01*
X143031296Y-96831022D01*
X143033300Y-96842386D01*
X143034500Y-96856104D01*
X143034500Y-96962901D01*
X143016018Y-97013681D01*
X142997656Y-97029713D01*
X142993005Y-97032648D01*
X142985732Y-97037237D01*
X142982011Y-97041450D01*
X142982010Y-97041451D01*
X142922853Y-97108433D01*
X142888932Y-97146841D01*
X142826786Y-97279209D01*
X142812267Y-97372453D01*
X142807856Y-97400787D01*
X142804288Y-97423699D01*
X142275500Y-97423699D01*
X142275500Y-96356104D01*
X142276700Y-96342386D01*
X142278704Y-96331022D01*
X142278704Y-96331019D01*
X142279904Y-96324215D01*
X142279127Y-96319810D01*
X142278310Y-96309421D01*
X142269037Y-96191595D01*
X142263599Y-96122496D01*
X142221735Y-95948120D01*
X142217088Y-95928764D01*
X142217087Y-95928762D01*
X142216363Y-95925745D01*
X142138930Y-95738805D01*
X142033207Y-95566280D01*
X142012987Y-95542605D01*
X141908173Y-95419883D01*
X141908171Y-95419881D01*
X141904665Y-95415776D01*
X141902100Y-95412113D01*
X141893384Y-95406010D01*
X141873990Y-95386616D01*
X141867887Y-95377900D01*
X141864224Y-95375335D01*
X141848821Y-95362179D01*
X141716083Y-95248811D01*
X141716082Y-95248810D01*
X141713720Y-95246793D01*
X141541195Y-95141070D01*
X141354255Y-95063637D01*
X141351238Y-95062913D01*
X141351236Y-95062912D01*
X141271791Y-95043839D01*
X141157504Y-95016401D01*
X141053218Y-95008194D01*
X140965582Y-95001297D01*
X140965578Y-95001297D01*
X140960190Y-95000873D01*
X140955785Y-95000096D01*
X140948979Y-95001296D01*
X140948978Y-95001296D01*
X140937614Y-95003300D01*
X140923896Y-95004500D01*
X140796102Y-95004500D01*
X140782384Y-95003300D01*
X140771019Y-95001296D01*
X140764213Y-95000096D01*
X140757407Y-95001296D01*
X140752124Y-95001296D01*
X140737407Y-95001859D01*
X140669109Y-94995132D01*
X140632561Y-94991532D01*
X140630666Y-94991155D01*
X152391805Y-94991155D01*
X152392015Y-94995219D01*
X152402208Y-95093468D01*
X152404025Y-95101879D01*
X152456550Y-95259316D01*
X152460420Y-95267577D01*
X152547616Y-95408485D01*
X152553281Y-95415633D01*
X152670561Y-95532707D01*
X152677707Y-95538351D01*
X152818773Y-95625306D01*
X152827039Y-95629160D01*
X152984583Y-95681416D01*
X152992969Y-95683214D01*
X153089974Y-95693153D01*
X153093978Y-95693357D01*
X153377874Y-95693357D01*
X153388545Y-95689473D01*
X153391804Y-95683829D01*
X153391804Y-94707287D01*
X153387920Y-94696616D01*
X153382276Y-94693357D01*
X152405735Y-94693357D01*
X152395064Y-94697241D01*
X152391805Y-94702885D01*
X152391805Y-94991155D01*
X140630666Y-94991155D01*
X140617373Y-94988510D01*
X140498235Y-94952371D01*
X140483927Y-94946445D01*
X140374122Y-94887753D01*
X140361245Y-94879149D01*
X140304335Y-94832444D01*
X140279811Y-94812318D01*
X140269794Y-94801505D01*
X140266067Y-94797778D01*
X140262101Y-94792114D01*
X140246980Y-94781526D01*
X140236432Y-94772674D01*
X139282930Y-93819172D01*
X140634500Y-93819172D01*
X140644930Y-93890026D01*
X140697824Y-93997757D01*
X140782762Y-94082547D01*
X140890585Y-94135253D01*
X140916775Y-94139074D01*
X140958001Y-94145088D01*
X140958006Y-94145088D01*
X140960828Y-94145500D01*
X141429172Y-94145500D01*
X141500026Y-94135070D01*
X141607757Y-94082176D01*
X141692547Y-93997238D01*
X141745253Y-93889415D01*
X141749566Y-93859847D01*
X141755088Y-93821999D01*
X141755088Y-93821994D01*
X141755500Y-93819172D01*
X142284500Y-93819172D01*
X142294930Y-93890026D01*
X142347824Y-93997757D01*
X142432762Y-94082547D01*
X142540585Y-94135253D01*
X142566775Y-94139074D01*
X142608001Y-94145088D01*
X142608006Y-94145088D01*
X142610828Y-94145500D01*
X143079172Y-94145500D01*
X143150026Y-94135070D01*
X143257757Y-94082176D01*
X143342547Y-93997238D01*
X143395253Y-93889415D01*
X143399566Y-93859847D01*
X143405088Y-93821999D01*
X143405088Y-93821994D01*
X143405500Y-93819172D01*
X143405500Y-93200828D01*
X143395070Y-93129974D01*
X143342176Y-93022243D01*
X143257238Y-92937453D01*
X143149415Y-92884747D01*
X143123225Y-92880926D01*
X143081999Y-92874912D01*
X143081994Y-92874912D01*
X143079172Y-92874500D01*
X142610828Y-92874500D01*
X142539974Y-92884930D01*
X142432243Y-92937824D01*
X142347453Y-93022762D01*
X142294747Y-93130585D01*
X142293862Y-93136653D01*
X142284916Y-93197978D01*
X142284500Y-93200828D01*
X142284500Y-93819172D01*
X141755500Y-93819172D01*
X141755500Y-93200828D01*
X141745070Y-93129974D01*
X141692176Y-93022243D01*
X141607238Y-92937453D01*
X141499415Y-92884747D01*
X141473225Y-92880926D01*
X141431999Y-92874912D01*
X141431994Y-92874912D01*
X141429172Y-92874500D01*
X140960828Y-92874500D01*
X140889974Y-92884930D01*
X140782243Y-92937824D01*
X140697453Y-93022762D01*
X140644747Y-93130585D01*
X140643862Y-93136653D01*
X140634916Y-93197978D01*
X140634500Y-93200828D01*
X140634500Y-93819172D01*
X139282930Y-93819172D01*
X139013639Y-93549881D01*
X138990801Y-93500905D01*
X138990500Y-93494020D01*
X138990500Y-93084194D01*
X138981187Y-93037376D01*
X138968835Y-93018889D01*
X138955991Y-92966400D01*
X138968835Y-92931110D01*
X138981187Y-92912624D01*
X138993644Y-92850000D01*
X138993644Y-92308875D01*
X138993645Y-92308392D01*
X138994092Y-92235252D01*
X138994092Y-92235250D01*
X138994109Y-92232444D01*
X138987812Y-92186475D01*
X138964905Y-92106324D01*
X138968722Y-92052421D01*
X138985003Y-92028755D01*
X139926432Y-91087326D01*
X139936980Y-91078474D01*
X139938459Y-91077438D01*
X139952101Y-91067886D01*
X139956067Y-91062222D01*
X139959794Y-91058495D01*
X139969812Y-91047681D01*
X139975112Y-91043332D01*
X140051245Y-90980851D01*
X140064122Y-90972247D01*
X140173927Y-90913555D01*
X140188235Y-90907629D01*
X140307373Y-90871490D01*
X140322561Y-90868468D01*
X140359109Y-90864868D01*
X140427407Y-90858141D01*
X140442124Y-90858704D01*
X140447407Y-90858704D01*
X140454213Y-90859904D01*
X140472385Y-90856700D01*
X140486102Y-90855500D01*
X140656239Y-90855500D01*
X140707019Y-90873982D01*
X140716712Y-90883667D01*
X140776236Y-90954479D01*
X140897964Y-91035508D01*
X140903338Y-91037187D01*
X141014285Y-91071850D01*
X141037541Y-91079116D01*
X141087056Y-91080023D01*
X141178120Y-91081692D01*
X141178121Y-91081692D01*
X141183747Y-91081795D01*
X141324829Y-91043332D01*
X141449445Y-90966818D01*
X141453218Y-90962650D01*
X141453220Y-90962648D01*
X141543799Y-90862577D01*
X141543800Y-90862576D01*
X141547576Y-90858404D01*
X141611335Y-90726805D01*
X141620385Y-90673017D01*
X141635090Y-90585610D01*
X141635090Y-90585607D01*
X141635596Y-90582601D01*
X141635750Y-90570000D01*
X141622233Y-90475615D01*
X141615818Y-90430816D01*
X141615817Y-90430814D01*
X141615020Y-90425246D01*
X141612581Y-90419882D01*
X141556827Y-90297257D01*
X141556826Y-90297255D01*
X141554495Y-90292129D01*
X141550820Y-90287864D01*
X141550818Y-90287861D01*
X141462716Y-90185615D01*
X141459041Y-90181350D01*
X141418812Y-90155275D01*
X141341054Y-90104874D01*
X141341051Y-90104872D01*
X141336332Y-90101814D01*
X141250111Y-90076028D01*
X141201621Y-90061526D01*
X141201619Y-90061526D01*
X141196233Y-90059915D01*
X141123711Y-90059472D01*
X141055630Y-90059056D01*
X141055628Y-90059056D01*
X141050005Y-90059022D01*
X140909404Y-90099206D01*
X140785732Y-90177237D01*
X140714584Y-90257797D01*
X140667117Y-90283622D01*
X140655372Y-90284500D01*
X140486104Y-90284500D01*
X140472386Y-90283300D01*
X140461022Y-90281296D01*
X140461021Y-90281296D01*
X140454215Y-90280096D01*
X140449810Y-90280873D01*
X140444422Y-90281297D01*
X140444418Y-90281297D01*
X140352782Y-90288509D01*
X140252496Y-90296401D01*
X140138209Y-90323839D01*
X140058764Y-90342912D01*
X140058762Y-90342913D01*
X140055745Y-90343637D01*
X139868805Y-90421070D01*
X139696280Y-90526793D01*
X139693918Y-90528810D01*
X139693917Y-90528811D01*
X139631490Y-90582129D01*
X139545776Y-90655335D01*
X139542113Y-90657900D01*
X139538148Y-90663563D01*
X139531528Y-90673017D01*
X139522676Y-90683566D01*
X138572773Y-91633469D01*
X138523797Y-91656307D01*
X138502923Y-91654863D01*
X138502865Y-91655234D01*
X138364117Y-91633631D01*
X138364113Y-91633631D01*
X138361347Y-91633200D01*
X138340006Y-91632939D01*
X138317765Y-91632667D01*
X138317760Y-91632667D01*
X138314953Y-91632633D01*
X138293670Y-91635416D01*
X138291582Y-91635689D01*
X138281339Y-91636356D01*
X137887733Y-91636356D01*
X137875580Y-91635416D01*
X137864118Y-91633631D01*
X137864110Y-91633630D01*
X137861346Y-91633200D01*
X137839605Y-91632934D01*
X137817765Y-91632667D01*
X137817760Y-91632667D01*
X137814953Y-91632633D01*
X137672939Y-91651203D01*
X137670232Y-91651959D01*
X137670231Y-91651959D01*
X137658502Y-91655234D01*
X137628249Y-91663681D01*
X137621827Y-91666507D01*
X137499737Y-91720228D01*
X137499733Y-91720230D01*
X137497156Y-91721364D01*
X137457767Y-91745882D01*
X137348132Y-91838039D01*
X137346259Y-91840134D01*
X137319075Y-91870537D01*
X137319071Y-91870542D01*
X137317206Y-91872628D01*
X137315656Y-91874957D01*
X137315651Y-91874963D01*
X137275067Y-91935932D01*
X137237843Y-91991853D01*
X137236636Y-91994384D01*
X137219076Y-92031197D01*
X137219073Y-92031205D01*
X137217868Y-92033731D01*
X137217033Y-92036405D01*
X137217031Y-92036409D01*
X137195188Y-92106325D01*
X137175158Y-92170437D01*
X137167739Y-92216238D01*
X137165114Y-92359437D01*
X137165462Y-92362229D01*
X137165750Y-92364542D01*
X137166356Y-92374307D01*
X137166356Y-92850000D01*
X137178813Y-92912624D01*
X137191165Y-92931110D01*
X137204009Y-92983600D01*
X137191165Y-93018889D01*
X137178813Y-93037376D01*
X137169500Y-93084194D01*
X137169500Y-94115806D01*
X137170258Y-94119616D01*
X137172794Y-94132363D01*
X137178813Y-94162624D01*
X137191165Y-94181110D01*
X137204009Y-94233600D01*
X137191165Y-94268889D01*
X137178813Y-94287376D01*
X137177296Y-94295005D01*
X137177295Y-94295006D01*
X137175771Y-94302668D01*
X137166356Y-94350000D01*
X137166356Y-94890945D01*
X137166343Y-94892393D01*
X137165114Y-94959437D01*
X137165462Y-94962229D01*
X137170329Y-95001296D01*
X137170850Y-95005480D01*
X137208523Y-95143660D01*
X137209636Y-95146232D01*
X137209637Y-95146235D01*
X137218377Y-95166432D01*
X137226949Y-95186241D01*
X137228419Y-95188635D01*
X137228420Y-95188637D01*
X137232220Y-95194826D01*
X137301889Y-95308293D01*
X137303685Y-95310456D01*
X137303689Y-95310462D01*
X137328989Y-95340936D01*
X137331526Y-95343992D01*
X137333614Y-95345882D01*
X137368417Y-95377384D01*
X137437710Y-95440106D01*
X137476177Y-95466052D01*
X137605069Y-95528499D01*
X137607755Y-95529356D01*
X137607757Y-95529357D01*
X137620937Y-95533563D01*
X137649270Y-95542605D01*
X137790508Y-95566367D01*
X137792031Y-95566504D01*
X137792034Y-95566504D01*
X137814135Y-95568487D01*
X137814147Y-95568488D01*
X137815656Y-95568623D01*
X137817177Y-95568642D01*
X137817185Y-95568642D01*
X137820783Y-95568686D01*
X137827998Y-95568774D01*
X137829498Y-95568676D01*
X137829510Y-95568676D01*
X137842834Y-95567808D01*
X137853199Y-95567133D01*
X137871989Y-95564442D01*
X137883189Y-95563644D01*
X138267724Y-95563644D01*
X138280830Y-95564739D01*
X138288991Y-95566112D01*
X138288997Y-95566113D01*
X138290508Y-95566367D01*
X138292031Y-95566504D01*
X138292034Y-95566504D01*
X138314135Y-95568487D01*
X138314147Y-95568488D01*
X138315656Y-95568623D01*
X138317177Y-95568642D01*
X138317185Y-95568642D01*
X138322895Y-95568712D01*
X138327998Y-95568774D01*
X138329530Y-95568674D01*
X138330071Y-95568660D01*
X138381321Y-95585798D01*
X138388014Y-95591772D01*
X139322676Y-96526434D01*
X139331528Y-96536983D01*
X139342113Y-96552100D01*
X139345776Y-96554665D01*
X139349881Y-96558171D01*
X139349883Y-96558173D01*
X139472644Y-96663020D01*
X139496280Y-96683207D01*
X139668805Y-96788930D01*
X139855745Y-96866363D01*
X139858762Y-96867087D01*
X139858764Y-96867088D01*
X139938209Y-96886161D01*
X140052496Y-96913599D01*
X140073126Y-96915223D01*
X140073626Y-96915262D01*
X140122800Y-96937671D01*
X140127898Y-96943182D01*
X140196236Y-97024479D01*
X140317964Y-97105508D01*
X140323338Y-97107187D01*
X140436756Y-97142622D01*
X140457541Y-97149116D01*
X140507056Y-97150023D01*
X140598120Y-97151692D01*
X140598121Y-97151692D01*
X140603747Y-97151795D01*
X140744829Y-97113332D01*
X140855118Y-97045615D01*
X140864652Y-97039761D01*
X140869445Y-97036818D01*
X140873218Y-97032650D01*
X140873220Y-97032648D01*
X140963799Y-96932577D01*
X140963800Y-96932576D01*
X140967576Y-96928404D01*
X140972686Y-96917858D01*
X141014757Y-96831022D01*
X141031335Y-96796805D01*
X141032774Y-96788256D01*
X141055090Y-96655610D01*
X141055090Y-96655607D01*
X141055596Y-96652601D01*
X141055750Y-96640000D01*
X141039907Y-96529372D01*
X141035818Y-96500816D01*
X141035817Y-96500814D01*
X141035020Y-96495246D01*
X141028659Y-96481255D01*
X140976827Y-96367257D01*
X140976826Y-96367255D01*
X140974495Y-96362129D01*
X140970820Y-96357864D01*
X140970818Y-96357861D01*
X140882716Y-96255615D01*
X140879041Y-96251350D01*
X140811406Y-96207511D01*
X140761054Y-96174874D01*
X140761051Y-96174872D01*
X140756332Y-96171814D01*
X140669298Y-96145785D01*
X140621621Y-96131526D01*
X140621619Y-96131526D01*
X140616233Y-96129915D01*
X140543711Y-96129472D01*
X140475630Y-96129056D01*
X140475628Y-96129056D01*
X140470005Y-96129022D01*
X140329404Y-96169206D01*
X140287922Y-96195379D01*
X140231866Y-96230748D01*
X140205732Y-96247237D01*
X140202011Y-96251450D01*
X140202010Y-96251451D01*
X140154959Y-96304725D01*
X140107490Y-96330551D01*
X140072814Y-96328027D01*
X139988235Y-96302371D01*
X139973927Y-96296445D01*
X139864122Y-96237753D01*
X139851245Y-96229149D01*
X139788934Y-96178012D01*
X139769811Y-96162318D01*
X139759794Y-96151505D01*
X139756067Y-96147778D01*
X139752101Y-96142114D01*
X139736980Y-96131526D01*
X139726432Y-96122674D01*
X138923398Y-95319640D01*
X138900560Y-95270664D01*
X138912966Y-95220812D01*
X138924345Y-95203256D01*
X138924348Y-95203250D01*
X138925878Y-95200890D01*
X138928680Y-95194826D01*
X138944166Y-95161312D01*
X138944169Y-95161305D01*
X138945340Y-95158770D01*
X138949040Y-95146400D01*
X138985569Y-95024250D01*
X138986376Y-95021552D01*
X138987038Y-95017128D01*
X138992819Y-94978443D01*
X138992819Y-94978440D01*
X138993234Y-94975665D01*
X138994109Y-94832444D01*
X138993783Y-94830061D01*
X138993644Y-94825798D01*
X138993644Y-94528124D01*
X139012126Y-94477344D01*
X139058926Y-94450324D01*
X139112144Y-94459708D01*
X139128505Y-94472263D01*
X139832676Y-95176434D01*
X139841528Y-95186983D01*
X139852113Y-95202100D01*
X139855776Y-95204665D01*
X139859881Y-95208171D01*
X139859883Y-95208173D01*
X139970805Y-95302909D01*
X140006280Y-95333207D01*
X140178805Y-95438930D01*
X140365745Y-95516363D01*
X140368762Y-95517087D01*
X140368764Y-95517088D01*
X140433822Y-95532707D01*
X140562496Y-95563599D01*
X140662782Y-95571491D01*
X140754418Y-95578703D01*
X140754422Y-95578703D01*
X140759810Y-95579127D01*
X140764215Y-95579904D01*
X140771021Y-95578704D01*
X140771022Y-95578704D01*
X140782386Y-95576700D01*
X140796104Y-95575500D01*
X140923898Y-95575500D01*
X140937616Y-95576700D01*
X140948976Y-95578703D01*
X140955787Y-95579904D01*
X140962593Y-95578704D01*
X140967876Y-95578704D01*
X140982593Y-95578141D01*
X141050891Y-95584868D01*
X141087439Y-95588468D01*
X141102627Y-95591490D01*
X141221765Y-95627629D01*
X141236073Y-95633555D01*
X141345878Y-95692247D01*
X141358755Y-95700851D01*
X141381149Y-95719229D01*
X141427940Y-95757629D01*
X141440188Y-95767681D01*
X141450206Y-95778495D01*
X141453934Y-95782223D01*
X141457899Y-95787886D01*
X141466612Y-95793987D01*
X141486013Y-95813388D01*
X141492114Y-95822101D01*
X141497777Y-95826066D01*
X141501505Y-95829794D01*
X141512319Y-95839812D01*
X141579149Y-95921245D01*
X141587753Y-95934122D01*
X141646445Y-96043927D01*
X141652371Y-96058235D01*
X141688510Y-96177373D01*
X141691532Y-96192561D01*
X141701765Y-96296445D01*
X141701859Y-96297404D01*
X141701296Y-96312124D01*
X141701296Y-96317407D01*
X141700096Y-96324213D01*
X141701296Y-96331019D01*
X141703300Y-96342384D01*
X141704500Y-96356102D01*
X141704500Y-98213897D01*
X141703300Y-98227614D01*
X141700096Y-98245786D01*
X141701296Y-98252591D01*
X141701296Y-98257850D01*
X141701859Y-98272599D01*
X141691533Y-98377439D01*
X141688511Y-98392628D01*
X141652372Y-98511763D01*
X141646446Y-98526071D01*
X141587752Y-98635880D01*
X141579149Y-98648756D01*
X141566479Y-98664194D01*
X141512318Y-98730189D01*
X141501491Y-98740220D01*
X141497774Y-98743937D01*
X141492114Y-98747900D01*
X141481528Y-98763019D01*
X141472679Y-98773563D01*
X140113563Y-100132679D01*
X140103019Y-100141528D01*
X140087900Y-100152114D01*
X140085344Y-100155765D01*
X140081809Y-100159904D01*
X140081808Y-100159905D01*
X139967940Y-100293227D01*
X139956792Y-100306279D01*
X139851069Y-100478805D01*
X139773636Y-100665744D01*
X139772912Y-100668761D01*
X139772911Y-100668763D01*
X139771625Y-100674120D01*
X139726400Y-100862496D01*
X139720943Y-100931843D01*
X139711475Y-101052150D01*
X139710871Y-101059820D01*
X139710096Y-101064214D01*
X139711296Y-101071020D01*
X139711296Y-101071021D01*
X139713300Y-101082385D01*
X139714500Y-101096103D01*
X139714500Y-102323898D01*
X139713300Y-102337614D01*
X139710096Y-102355787D01*
X139711296Y-102362593D01*
X139711296Y-102367876D01*
X139711859Y-102382593D01*
X139705696Y-102445169D01*
X139701532Y-102487439D01*
X139698510Y-102502627D01*
X139662371Y-102621765D01*
X139656445Y-102636073D01*
X139597753Y-102745878D01*
X139589149Y-102758755D01*
X139573754Y-102777514D01*
X139524834Y-102837124D01*
X139522319Y-102840188D01*
X139511505Y-102850206D01*
X139507777Y-102853934D01*
X139502114Y-102857899D01*
X139498150Y-102863560D01*
X139491524Y-102873023D01*
X139482672Y-102883571D01*
X138913568Y-103452674D01*
X138903020Y-103461526D01*
X138887899Y-103472114D01*
X138883933Y-103477778D01*
X138880206Y-103481505D01*
X138870189Y-103492318D01*
X138841169Y-103516134D01*
X138788755Y-103559149D01*
X138775878Y-103567753D01*
X138666073Y-103626445D01*
X138651765Y-103632371D01*
X138532627Y-103668510D01*
X138517439Y-103671532D01*
X138480891Y-103675132D01*
X138412593Y-103681859D01*
X138397876Y-103681296D01*
X138392593Y-103681296D01*
X138385787Y-103680096D01*
X138378981Y-103681296D01*
X138367616Y-103683300D01*
X138353898Y-103684500D01*
X138044132Y-103684500D01*
X137993352Y-103666018D01*
X137984284Y-103657068D01*
X137961057Y-103630112D01*
X137919041Y-103581350D01*
X137867798Y-103548136D01*
X137801054Y-103504874D01*
X137801051Y-103504872D01*
X137796332Y-103501814D01*
X137722285Y-103479669D01*
X137661621Y-103461526D01*
X137661619Y-103461526D01*
X137656233Y-103459915D01*
X137583711Y-103459472D01*
X137515630Y-103459056D01*
X137515628Y-103459056D01*
X137510005Y-103459022D01*
X137369404Y-103499206D01*
X137364645Y-103502209D01*
X137283038Y-103553699D01*
X137245732Y-103577237D01*
X137242011Y-103581450D01*
X137242010Y-103581451D01*
X137162421Y-103671568D01*
X137148932Y-103686841D01*
X137143367Y-103698695D01*
X137102207Y-103786364D01*
X137086786Y-103819209D01*
X137064288Y-103963699D01*
X136368120Y-103963699D01*
X136400695Y-103906356D01*
X136402604Y-103902996D01*
X136411439Y-103876437D01*
X136463935Y-103718630D01*
X136463936Y-103718625D01*
X136465156Y-103714958D01*
X136465918Y-103708931D01*
X136478216Y-103611573D01*
X136489993Y-103518351D01*
X136490389Y-103490000D01*
X136471051Y-103292777D01*
X136465057Y-103272922D01*
X136441674Y-103195474D01*
X136413774Y-103103065D01*
X136411963Y-103099659D01*
X136411961Y-103099654D01*
X136391549Y-103061266D01*
X136384028Y-103007753D01*
X136405441Y-102968317D01*
X136481437Y-102892321D01*
X136491981Y-102883472D01*
X136507100Y-102872886D01*
X136511063Y-102867226D01*
X136514780Y-102863509D01*
X136524811Y-102852682D01*
X136606243Y-102785852D01*
X136619120Y-102777248D01*
X136728929Y-102718554D01*
X136743237Y-102712628D01*
X136827050Y-102687204D01*
X136881009Y-102690150D01*
X136920895Y-102727984D01*
X136972216Y-102832511D01*
X137063044Y-102923181D01*
X137178344Y-102979541D01*
X137220329Y-102985666D01*
X137250638Y-102990088D01*
X137250644Y-102990088D01*
X137253465Y-102990500D01*
X137538752Y-102990500D01*
X137826534Y-102990499D01*
X137902309Y-102979346D01*
X137907819Y-102976640D01*
X137907821Y-102976640D01*
X137999759Y-102931500D01*
X138017511Y-102922784D01*
X138108181Y-102831956D01*
X138164541Y-102716656D01*
X138173375Y-102656102D01*
X138175088Y-102644362D01*
X138175088Y-102644356D01*
X138175500Y-102641535D01*
X138175499Y-102118466D01*
X138164346Y-102042691D01*
X138107784Y-101927489D01*
X138016956Y-101836819D01*
X137901656Y-101780459D01*
X137856634Y-101773891D01*
X137829362Y-101769912D01*
X137829356Y-101769912D01*
X137826535Y-101769500D01*
X137541248Y-101769500D01*
X137253466Y-101769501D01*
X137177691Y-101780654D01*
X137172181Y-101783360D01*
X137172179Y-101783360D01*
X137125964Y-101806051D01*
X137062489Y-101837216D01*
X136971819Y-101928044D01*
X136952634Y-101967293D01*
X136918473Y-102037179D01*
X136915459Y-102043344D01*
X136915277Y-102044588D01*
X136883951Y-102085895D01*
X136847327Y-102098265D01*
X136827524Y-102099824D01*
X136807496Y-102101400D01*
X136714506Y-102123725D01*
X136613763Y-102147911D01*
X136613761Y-102147912D01*
X136610744Y-102148636D01*
X136423805Y-102226069D01*
X136251279Y-102331792D01*
X136248923Y-102333805D01*
X136248922Y-102333805D01*
X136104905Y-102456808D01*
X136100765Y-102460344D01*
X136097114Y-102462900D01*
X136086528Y-102478019D01*
X136077679Y-102488563D01*
X136003460Y-102562782D01*
X135954484Y-102585620D01*
X135910026Y-102576414D01*
X135903117Y-102572678D01*
X135868479Y-102553950D01*
X135679172Y-102495350D01*
X135482089Y-102474636D01*
X135478243Y-102474986D01*
X135478242Y-102474986D01*
X135436036Y-102478827D01*
X135284735Y-102492596D01*
X135281028Y-102493687D01*
X135098338Y-102547456D01*
X135098335Y-102547457D01*
X135094629Y-102548548D01*
X135091202Y-102550340D01*
X135091201Y-102550340D01*
X135069961Y-102561444D01*
X134919010Y-102640359D01*
X134916003Y-102642777D01*
X134916001Y-102642778D01*
X134845225Y-102699684D01*
X134764570Y-102764532D01*
X134637189Y-102916339D01*
X134635327Y-102919727D01*
X134635325Y-102919729D01*
X134567733Y-103042679D01*
X134541720Y-103089996D01*
X134481800Y-103278889D01*
X134459710Y-103475823D01*
X134198999Y-103475823D01*
X134181051Y-103292777D01*
X134175057Y-103272922D01*
X134151674Y-103195474D01*
X134123774Y-103103065D01*
X134121963Y-103099660D01*
X134121961Y-103099654D01*
X134037706Y-102941195D01*
X134030739Y-102928092D01*
X134023919Y-102919729D01*
X133947548Y-102826090D01*
X133905490Y-102774522D01*
X133893415Y-102764532D01*
X133755773Y-102650665D01*
X133755772Y-102650664D01*
X133752798Y-102648204D01*
X133745693Y-102644362D01*
X133594813Y-102562782D01*
X133578479Y-102553950D01*
X133389172Y-102495350D01*
X133192089Y-102474636D01*
X133188243Y-102474986D01*
X133188242Y-102474986D01*
X133146036Y-102478827D01*
X132994735Y-102492596D01*
X132991028Y-102493687D01*
X132808338Y-102547456D01*
X132808335Y-102547457D01*
X132804629Y-102548548D01*
X132801202Y-102550340D01*
X132801201Y-102550340D01*
X132779961Y-102561444D01*
X132629010Y-102640359D01*
X132626003Y-102642777D01*
X132626001Y-102642778D01*
X132555225Y-102699684D01*
X132474570Y-102764532D01*
X132347189Y-102916339D01*
X132345327Y-102919727D01*
X132345325Y-102919729D01*
X132277733Y-103042679D01*
X132251720Y-103089996D01*
X132191800Y-103278889D01*
X132169710Y-103475823D01*
X131908999Y-103475823D01*
X131891051Y-103292777D01*
X131885057Y-103272922D01*
X131861674Y-103195474D01*
X131833774Y-103103065D01*
X131831963Y-103099660D01*
X131831961Y-103099654D01*
X131747706Y-102941195D01*
X131740739Y-102928092D01*
X131733919Y-102919729D01*
X131657548Y-102826090D01*
X131615490Y-102774522D01*
X131603415Y-102764532D01*
X131465773Y-102650665D01*
X131465772Y-102650664D01*
X131462798Y-102648204D01*
X131455693Y-102644362D01*
X131304813Y-102562782D01*
X131288479Y-102553950D01*
X131099172Y-102495350D01*
X130902089Y-102474636D01*
X130898243Y-102474986D01*
X130898242Y-102474986D01*
X130856036Y-102478827D01*
X130704735Y-102492596D01*
X130701028Y-102493687D01*
X130518338Y-102547456D01*
X130518335Y-102547457D01*
X130514629Y-102548548D01*
X130511202Y-102550340D01*
X130511201Y-102550340D01*
X130489961Y-102561444D01*
X130339010Y-102640359D01*
X130336003Y-102642777D01*
X130336001Y-102642778D01*
X130265225Y-102699684D01*
X130184570Y-102764532D01*
X130057189Y-102916339D01*
X130055327Y-102919727D01*
X130055325Y-102919729D01*
X129987733Y-103042679D01*
X129961720Y-103089996D01*
X129901800Y-103278889D01*
X129879710Y-103475823D01*
X129618999Y-103475823D01*
X129601051Y-103292777D01*
X129595057Y-103272922D01*
X129571674Y-103195474D01*
X129543774Y-103103065D01*
X129541963Y-103099660D01*
X129541961Y-103099654D01*
X129457706Y-102941195D01*
X129450739Y-102928092D01*
X129443919Y-102919729D01*
X129367548Y-102826090D01*
X129325490Y-102774522D01*
X129313415Y-102764532D01*
X129175773Y-102650665D01*
X129175772Y-102650664D01*
X129172798Y-102648204D01*
X129165693Y-102644362D01*
X129014813Y-102562782D01*
X128998479Y-102553950D01*
X128809172Y-102495350D01*
X128612089Y-102474636D01*
X128608243Y-102474986D01*
X128608242Y-102474986D01*
X128566036Y-102478827D01*
X128414735Y-102492596D01*
X128411028Y-102493687D01*
X128228338Y-102547456D01*
X128228335Y-102547457D01*
X128224629Y-102548548D01*
X128221202Y-102550340D01*
X128221201Y-102550340D01*
X128199961Y-102561444D01*
X128049010Y-102640359D01*
X128046003Y-102642777D01*
X128046001Y-102642778D01*
X127975225Y-102699684D01*
X127894570Y-102764532D01*
X127767189Y-102916339D01*
X127765327Y-102919727D01*
X127765325Y-102919729D01*
X127697733Y-103042679D01*
X127671720Y-103089996D01*
X127611800Y-103278889D01*
X127589710Y-103475823D01*
X127328999Y-103475823D01*
X127311051Y-103292777D01*
X127305057Y-103272922D01*
X127281674Y-103195474D01*
X127253774Y-103103065D01*
X127251963Y-103099660D01*
X127251961Y-103099654D01*
X127167706Y-102941195D01*
X127160739Y-102928092D01*
X127153919Y-102919729D01*
X127077548Y-102826090D01*
X127035490Y-102774522D01*
X127023415Y-102764532D01*
X126885773Y-102650665D01*
X126885772Y-102650664D01*
X126882798Y-102648204D01*
X126875693Y-102644362D01*
X126724813Y-102562782D01*
X126708479Y-102553950D01*
X126519172Y-102495350D01*
X126322089Y-102474636D01*
X126318243Y-102474986D01*
X126318242Y-102474986D01*
X126276036Y-102478827D01*
X126124735Y-102492596D01*
X126121028Y-102493687D01*
X125938338Y-102547456D01*
X125938335Y-102547457D01*
X125934629Y-102548548D01*
X125931202Y-102550340D01*
X125931201Y-102550340D01*
X125909961Y-102561444D01*
X125759010Y-102640359D01*
X125756003Y-102642777D01*
X125756001Y-102642778D01*
X125685225Y-102699684D01*
X125604570Y-102764532D01*
X125477189Y-102916339D01*
X125475327Y-102919727D01*
X125475325Y-102919729D01*
X125407733Y-103042679D01*
X125381720Y-103089996D01*
X125321800Y-103278889D01*
X125299710Y-103475823D01*
X123569474Y-103475823D01*
X123528293Y-103392316D01*
X123524346Y-103382786D01*
X123455584Y-103180219D01*
X123452910Y-103170242D01*
X123452522Y-103168289D01*
X123411177Y-102960433D01*
X123409829Y-102950195D01*
X123409413Y-102943839D01*
X123397316Y-102759284D01*
X123398347Y-102740404D01*
X123399904Y-102731573D01*
X123398245Y-102722161D01*
X123396700Y-102713402D01*
X123395500Y-102699684D01*
X123395500Y-102445169D01*
X124593878Y-102445169D01*
X124594823Y-102448698D01*
X124594934Y-102448807D01*
X124639863Y-102478827D01*
X124646204Y-102482270D01*
X124825297Y-102559214D01*
X124832161Y-102561444D01*
X125022274Y-102604463D01*
X125029425Y-102605404D01*
X125224191Y-102613057D01*
X125231408Y-102612678D01*
X125424304Y-102584710D01*
X125431321Y-102583025D01*
X125615896Y-102520371D01*
X125622488Y-102517436D01*
X125739432Y-102451944D01*
X125745270Y-102445169D01*
X126883878Y-102445169D01*
X126884823Y-102448698D01*
X126884934Y-102448807D01*
X126929863Y-102478827D01*
X126936204Y-102482270D01*
X127115297Y-102559214D01*
X127122161Y-102561444D01*
X127312274Y-102604463D01*
X127319425Y-102605404D01*
X127514191Y-102613057D01*
X127521408Y-102612678D01*
X127714304Y-102584710D01*
X127721321Y-102583025D01*
X127905896Y-102520371D01*
X127912488Y-102517436D01*
X128029432Y-102451944D01*
X128035270Y-102445169D01*
X129173878Y-102445169D01*
X129174823Y-102448698D01*
X129174934Y-102448807D01*
X129219863Y-102478827D01*
X129226204Y-102482270D01*
X129405297Y-102559214D01*
X129412161Y-102561444D01*
X129602274Y-102604463D01*
X129609425Y-102605404D01*
X129804191Y-102613057D01*
X129811408Y-102612678D01*
X130004304Y-102584710D01*
X130011321Y-102583025D01*
X130195896Y-102520371D01*
X130202488Y-102517436D01*
X130319432Y-102451944D01*
X130326844Y-102443342D01*
X130326870Y-102441364D01*
X130325282Y-102438835D01*
X129759851Y-101873404D01*
X129749557Y-101868604D01*
X129743263Y-101870290D01*
X129178678Y-102434875D01*
X129173878Y-102445169D01*
X128035270Y-102445169D01*
X128036844Y-102443342D01*
X128036870Y-102441364D01*
X128035282Y-102438835D01*
X127469851Y-101873404D01*
X127459557Y-101868604D01*
X127453263Y-101870290D01*
X126888678Y-102434875D01*
X126883878Y-102445169D01*
X125745270Y-102445169D01*
X125746844Y-102443342D01*
X125746870Y-102441364D01*
X125745282Y-102438835D01*
X125179851Y-101873404D01*
X125169557Y-101868604D01*
X125163263Y-101870290D01*
X124598678Y-102434875D01*
X124593878Y-102445169D01*
X123395500Y-102445169D01*
X123395500Y-101484698D01*
X124065903Y-101484698D01*
X124078651Y-101679201D01*
X124079780Y-101686328D01*
X124127759Y-101875243D01*
X124130172Y-101882057D01*
X124211774Y-102059068D01*
X124215377Y-102065308D01*
X124226287Y-102080746D01*
X124235617Y-102087218D01*
X124239595Y-102086852D01*
X124806596Y-101519851D01*
X124810983Y-101510443D01*
X125528604Y-101510443D01*
X125530290Y-101516737D01*
X126095287Y-102081734D01*
X126105581Y-102086534D01*
X126107491Y-102086023D01*
X126109493Y-102083808D01*
X126177436Y-101962488D01*
X126180371Y-101955896D01*
X126242153Y-101773891D01*
X126275977Y-101731747D01*
X126328978Y-101721204D01*
X126376355Y-101747197D01*
X126393529Y-101779839D01*
X126417759Y-101875243D01*
X126420172Y-101882057D01*
X126501774Y-102059068D01*
X126505377Y-102065308D01*
X126516287Y-102080746D01*
X126525617Y-102087218D01*
X126529595Y-102086852D01*
X127096596Y-101519851D01*
X127100983Y-101510443D01*
X127818604Y-101510443D01*
X127820290Y-101516737D01*
X128385287Y-102081734D01*
X128395581Y-102086534D01*
X128397491Y-102086023D01*
X128399493Y-102083808D01*
X128467436Y-101962488D01*
X128470371Y-101955896D01*
X128532153Y-101773891D01*
X128565977Y-101731747D01*
X128618978Y-101721204D01*
X128666355Y-101747197D01*
X128683529Y-101779839D01*
X128707759Y-101875243D01*
X128710172Y-101882057D01*
X128791774Y-102059068D01*
X128795377Y-102065308D01*
X128806287Y-102080746D01*
X128815617Y-102087218D01*
X128819595Y-102086852D01*
X129386596Y-101519851D01*
X129390983Y-101510443D01*
X130108604Y-101510443D01*
X130110290Y-101516737D01*
X130675287Y-102081734D01*
X130685581Y-102086534D01*
X130687491Y-102086023D01*
X130689493Y-102083808D01*
X130757436Y-101962488D01*
X130760371Y-101955896D01*
X130823025Y-101771321D01*
X130824710Y-101764304D01*
X130852864Y-101570127D01*
X130853260Y-101565486D01*
X130854652Y-101512327D01*
X130854500Y-101507685D01*
X130836545Y-101312288D01*
X130835230Y-101305195D01*
X130782321Y-101117592D01*
X130779736Y-101110858D01*
X130693698Y-100936389D01*
X130685990Y-100931336D01*
X130681710Y-100931843D01*
X130113404Y-101500149D01*
X130108604Y-101510443D01*
X129390983Y-101510443D01*
X129391396Y-101509557D01*
X129389710Y-101503263D01*
X128823455Y-100937008D01*
X128813161Y-100932208D01*
X128811797Y-100932573D01*
X128809208Y-100935512D01*
X128731066Y-101084037D01*
X128728304Y-101090702D01*
X128679756Y-101247056D01*
X128647046Y-101290071D01*
X128594340Y-101301997D01*
X128546298Y-101277254D01*
X128528275Y-101245073D01*
X128492321Y-101117592D01*
X128489736Y-101110858D01*
X128403698Y-100936389D01*
X128395990Y-100931336D01*
X128391710Y-100931843D01*
X127823404Y-101500149D01*
X127818604Y-101510443D01*
X127100983Y-101510443D01*
X127101396Y-101509557D01*
X127099710Y-101503263D01*
X126533455Y-100937008D01*
X126523161Y-100932208D01*
X126521797Y-100932573D01*
X126519208Y-100935512D01*
X126441066Y-101084037D01*
X126438304Y-101090702D01*
X126389756Y-101247056D01*
X126357046Y-101290071D01*
X126304340Y-101301997D01*
X126256298Y-101277254D01*
X126238275Y-101245073D01*
X126202321Y-101117592D01*
X126199736Y-101110858D01*
X126113698Y-100936389D01*
X126105990Y-100931336D01*
X126101710Y-100931843D01*
X125533404Y-101500149D01*
X125528604Y-101510443D01*
X124810983Y-101510443D01*
X124811396Y-101509557D01*
X124809710Y-101503263D01*
X124243455Y-100937008D01*
X124233161Y-100932208D01*
X124231797Y-100932573D01*
X124229208Y-100935512D01*
X124151066Y-101084037D01*
X124148304Y-101090703D01*
X124090502Y-101276857D01*
X124089002Y-101283919D01*
X124066092Y-101477481D01*
X124065903Y-101484698D01*
X123395500Y-101484698D01*
X123395500Y-100577223D01*
X124593890Y-100577223D01*
X124593923Y-100579759D01*
X124595040Y-100581487D01*
X125160149Y-101146596D01*
X125170443Y-101151396D01*
X125176737Y-101149710D01*
X125750762Y-100575685D01*
X125750916Y-100575839D01*
X125778852Y-100547902D01*
X125812240Y-100540500D01*
X126815544Y-100540500D01*
X126866324Y-100558982D01*
X126881892Y-100576618D01*
X126885037Y-100581484D01*
X127450149Y-101146596D01*
X127460443Y-101151396D01*
X127466737Y-101149710D01*
X128030911Y-100585536D01*
X128034787Y-100577223D01*
X129173890Y-100577223D01*
X129173923Y-100579759D01*
X129175040Y-100581487D01*
X129740149Y-101146596D01*
X129750443Y-101151396D01*
X129756737Y-101149710D01*
X130320911Y-100585536D01*
X130325711Y-100575242D01*
X130324909Y-100572250D01*
X130324111Y-100571488D01*
X130254590Y-100527625D01*
X130248167Y-100524353D01*
X130067121Y-100452122D01*
X130060200Y-100450072D01*
X129869024Y-100412045D01*
X129861854Y-100411292D01*
X129666952Y-100408739D01*
X129659752Y-100409306D01*
X129467653Y-100442315D01*
X129460675Y-100444185D01*
X129277805Y-100511649D01*
X129271298Y-100514753D01*
X129181076Y-100568429D01*
X129173890Y-100577223D01*
X128034787Y-100577223D01*
X128035711Y-100575242D01*
X128034909Y-100572250D01*
X128034111Y-100571488D01*
X127964590Y-100527625D01*
X127958167Y-100524353D01*
X127777121Y-100452122D01*
X127770200Y-100450072D01*
X127579024Y-100412045D01*
X127571854Y-100411292D01*
X127403466Y-100409087D01*
X127352932Y-100389942D01*
X127326527Y-100342793D01*
X127325500Y-100330094D01*
X127325500Y-99515823D01*
X127589710Y-99515823D01*
X127606292Y-99713297D01*
X127660915Y-99903790D01*
X127751498Y-100080045D01*
X127874590Y-100235348D01*
X128025504Y-100363786D01*
X128028878Y-100365672D01*
X128028880Y-100365673D01*
X128067615Y-100387321D01*
X128198490Y-100460465D01*
X128202152Y-100461655D01*
X128202157Y-100461657D01*
X128318342Y-100499407D01*
X128386960Y-100521702D01*
X128390797Y-100522160D01*
X128390799Y-100522160D01*
X128579892Y-100544708D01*
X128579895Y-100544708D01*
X128583735Y-100545166D01*
X128781320Y-100529963D01*
X128786872Y-100528413D01*
X128890759Y-100499407D01*
X128972190Y-100476671D01*
X129100128Y-100412045D01*
X129145619Y-100389066D01*
X129145621Y-100389065D01*
X129149073Y-100387321D01*
X129271805Y-100291432D01*
X129302190Y-100267693D01*
X129302192Y-100267691D01*
X129305232Y-100265316D01*
X129333707Y-100232327D01*
X129432196Y-100118228D01*
X129432200Y-100118223D01*
X129434720Y-100115303D01*
X129436626Y-100111947D01*
X129436630Y-100111942D01*
X129530695Y-99946356D01*
X129532604Y-99942996D01*
X129535370Y-99934682D01*
X129593935Y-99758630D01*
X129593936Y-99758625D01*
X129595156Y-99754958D01*
X129598661Y-99727217D01*
X129611633Y-99624525D01*
X129619993Y-99558351D01*
X129620389Y-99530000D01*
X129618999Y-99515823D01*
X129879710Y-99515823D01*
X129896292Y-99713297D01*
X129950915Y-99903790D01*
X130041498Y-100080045D01*
X130164590Y-100235348D01*
X130315504Y-100363786D01*
X130318878Y-100365672D01*
X130318880Y-100365673D01*
X130357615Y-100387321D01*
X130488490Y-100460465D01*
X130492152Y-100461655D01*
X130492157Y-100461657D01*
X130608342Y-100499407D01*
X130676960Y-100521702D01*
X130680797Y-100522160D01*
X130680799Y-100522160D01*
X130869892Y-100544708D01*
X130869895Y-100544708D01*
X130873735Y-100545166D01*
X131071320Y-100529963D01*
X131076872Y-100528413D01*
X131180759Y-100499407D01*
X131262190Y-100476671D01*
X131390128Y-100412045D01*
X131435619Y-100389066D01*
X131435621Y-100389065D01*
X131439073Y-100387321D01*
X131561805Y-100291432D01*
X131592190Y-100267693D01*
X131592192Y-100267691D01*
X131595232Y-100265316D01*
X131615697Y-100241607D01*
X131662869Y-100215243D01*
X131715951Y-100225369D01*
X131750106Y-100267246D01*
X131754500Y-100293227D01*
X131754500Y-100481526D01*
X131736018Y-100532306D01*
X131697805Y-100557312D01*
X131663338Y-100567456D01*
X131663335Y-100567457D01*
X131659629Y-100568548D01*
X131656202Y-100570340D01*
X131656201Y-100570340D01*
X131644192Y-100576618D01*
X131484010Y-100660359D01*
X131481003Y-100662777D01*
X131481001Y-100662778D01*
X131404207Y-100724522D01*
X131329570Y-100784532D01*
X131264151Y-100862496D01*
X131205962Y-100931843D01*
X131202189Y-100936339D01*
X131200327Y-100939727D01*
X131200325Y-100939729D01*
X131131889Y-101064214D01*
X131106720Y-101109996D01*
X131046800Y-101298889D01*
X131024710Y-101495823D01*
X131041292Y-101693297D01*
X131053238Y-101734958D01*
X131094818Y-101879963D01*
X131095915Y-101883790D01*
X131186498Y-102060045D01*
X131309590Y-102215348D01*
X131460504Y-102343786D01*
X131463878Y-102345672D01*
X131463880Y-102345673D01*
X131516455Y-102375056D01*
X131633490Y-102440465D01*
X131637152Y-102441655D01*
X131637157Y-102441657D01*
X131739736Y-102474986D01*
X131821960Y-102501702D01*
X131825797Y-102502160D01*
X131825799Y-102502160D01*
X132014892Y-102524708D01*
X132014895Y-102524708D01*
X132018735Y-102525166D01*
X132216320Y-102509963D01*
X132407190Y-102456671D01*
X132429960Y-102445169D01*
X133753878Y-102445169D01*
X133754823Y-102448698D01*
X133754934Y-102448807D01*
X133799863Y-102478827D01*
X133806204Y-102482270D01*
X133985297Y-102559214D01*
X133992161Y-102561444D01*
X134182274Y-102604463D01*
X134189425Y-102605404D01*
X134384191Y-102613057D01*
X134391408Y-102612678D01*
X134584304Y-102584710D01*
X134591321Y-102583025D01*
X134775896Y-102520371D01*
X134782488Y-102517436D01*
X134899432Y-102451944D01*
X134906844Y-102443342D01*
X134906870Y-102441364D01*
X134905282Y-102438835D01*
X134339851Y-101873404D01*
X134329557Y-101868604D01*
X134323263Y-101870290D01*
X133758678Y-102434875D01*
X133753878Y-102445169D01*
X132429960Y-102445169D01*
X132555178Y-102381917D01*
X132580619Y-102369066D01*
X132580621Y-102369065D01*
X132584073Y-102367321D01*
X132740232Y-102245316D01*
X132822658Y-102149825D01*
X132867196Y-102098228D01*
X132867200Y-102098223D01*
X132869720Y-102095303D01*
X132871626Y-102091947D01*
X132871630Y-102091942D01*
X132961404Y-101933910D01*
X132967604Y-101922996D01*
X132968824Y-101919329D01*
X133028935Y-101738630D01*
X133028936Y-101738625D01*
X133030156Y-101734958D01*
X133054993Y-101538351D01*
X133055389Y-101510000D01*
X133052908Y-101484698D01*
X133225903Y-101484698D01*
X133238651Y-101679201D01*
X133239780Y-101686328D01*
X133287759Y-101875243D01*
X133290172Y-101882057D01*
X133371774Y-102059068D01*
X133375377Y-102065308D01*
X133386287Y-102080746D01*
X133395617Y-102087218D01*
X133399595Y-102086852D01*
X133966596Y-101519851D01*
X133970983Y-101510443D01*
X134688604Y-101510443D01*
X134690290Y-101516737D01*
X135255287Y-102081734D01*
X135265581Y-102086534D01*
X135267491Y-102086023D01*
X135269493Y-102083808D01*
X135337436Y-101962488D01*
X135340371Y-101955896D01*
X135403025Y-101771321D01*
X135404710Y-101764304D01*
X135432864Y-101570127D01*
X135433260Y-101565486D01*
X135434652Y-101512327D01*
X135434500Y-101507685D01*
X135416545Y-101312288D01*
X135415230Y-101305195D01*
X135362321Y-101117592D01*
X135359736Y-101110858D01*
X135273698Y-100936389D01*
X135265990Y-100931336D01*
X135261710Y-100931843D01*
X134693404Y-101500149D01*
X134688604Y-101510443D01*
X133970983Y-101510443D01*
X133971396Y-101509557D01*
X133969710Y-101503263D01*
X133403455Y-100937008D01*
X133393161Y-100932208D01*
X133391797Y-100932573D01*
X133389208Y-100935512D01*
X133311066Y-101084037D01*
X133308304Y-101090703D01*
X133250502Y-101276857D01*
X133249002Y-101283919D01*
X133226092Y-101477481D01*
X133225903Y-101484698D01*
X133052908Y-101484698D01*
X133036051Y-101312777D01*
X132978774Y-101123065D01*
X132976963Y-101119660D01*
X132976961Y-101119654D01*
X132887551Y-100951500D01*
X132885739Y-100948092D01*
X132878919Y-100939729D01*
X132762930Y-100797514D01*
X132760490Y-100794522D01*
X132748415Y-100784532D01*
X132610773Y-100670665D01*
X132610772Y-100670664D01*
X132607798Y-100668204D01*
X132597941Y-100662874D01*
X132487252Y-100603025D01*
X132439532Y-100577223D01*
X133753890Y-100577223D01*
X133753923Y-100579759D01*
X133755040Y-100581487D01*
X134320149Y-101146596D01*
X134330443Y-101151396D01*
X134336737Y-101149710D01*
X134900912Y-100585535D01*
X134909270Y-100567611D01*
X134947482Y-100529399D01*
X135001315Y-100524690D01*
X135012053Y-100528413D01*
X135130297Y-100579214D01*
X135137161Y-100581444D01*
X135327274Y-100624463D01*
X135334425Y-100625404D01*
X135529191Y-100633057D01*
X135536408Y-100632678D01*
X135729304Y-100604710D01*
X135736321Y-100603025D01*
X135838133Y-100568465D01*
X136904500Y-100568465D01*
X136904501Y-101091534D01*
X136915654Y-101167309D01*
X136972216Y-101282511D01*
X137063044Y-101373181D01*
X137178344Y-101429541D01*
X137220517Y-101435693D01*
X137250638Y-101440088D01*
X137250644Y-101440088D01*
X137253465Y-101440500D01*
X137538752Y-101440500D01*
X137826534Y-101440499D01*
X137902309Y-101429346D01*
X137907819Y-101426640D01*
X137907821Y-101426640D01*
X138011649Y-101375662D01*
X138011648Y-101375662D01*
X138017511Y-101372784D01*
X138108181Y-101281956D01*
X138164541Y-101166656D01*
X138175500Y-101091535D01*
X138175499Y-100568466D01*
X138164346Y-100492691D01*
X138156481Y-100476671D01*
X138111442Y-100384940D01*
X138107784Y-100377489D01*
X138099429Y-100369148D01*
X138060306Y-100330094D01*
X138016956Y-100286819D01*
X137901656Y-100230459D01*
X137895593Y-100229574D01*
X137895588Y-100229573D01*
X137893094Y-100229209D01*
X137891320Y-100228254D01*
X137889732Y-100227763D01*
X137889829Y-100227451D01*
X137845514Y-100203589D01*
X137825500Y-100151037D01*
X137825500Y-99517994D01*
X137843982Y-99467214D01*
X137863160Y-99450674D01*
X137864648Y-99449761D01*
X137864656Y-99449755D01*
X137869445Y-99446814D01*
X137873218Y-99442646D01*
X137873220Y-99442644D01*
X137963799Y-99342573D01*
X137963800Y-99342572D01*
X137967576Y-99338400D01*
X138031335Y-99206801D01*
X138035321Y-99183112D01*
X138055090Y-99065606D01*
X138055090Y-99065603D01*
X138055596Y-99062597D01*
X138055750Y-99049996D01*
X138041601Y-98951196D01*
X138035818Y-98910812D01*
X138035817Y-98910810D01*
X138035020Y-98905242D01*
X138032275Y-98899205D01*
X137976827Y-98777253D01*
X137976826Y-98777251D01*
X137974495Y-98772125D01*
X137970820Y-98767860D01*
X137970818Y-98767857D01*
X137882716Y-98665611D01*
X137879041Y-98661346D01*
X137792937Y-98605536D01*
X137761054Y-98584870D01*
X137761051Y-98584868D01*
X137756332Y-98581810D01*
X137642027Y-98547625D01*
X137621621Y-98541522D01*
X137621619Y-98541522D01*
X137616233Y-98539911D01*
X137543711Y-98539468D01*
X137475630Y-98539052D01*
X137475628Y-98539052D01*
X137470005Y-98539018D01*
X137329404Y-98579202D01*
X137287667Y-98605536D01*
X137216470Y-98650458D01*
X137205732Y-98657233D01*
X137202011Y-98661446D01*
X137202010Y-98661447D01*
X137115658Y-98759221D01*
X137108932Y-98766837D01*
X137106540Y-98771932D01*
X137055905Y-98879783D01*
X137046786Y-98899205D01*
X137038351Y-98953376D01*
X137026795Y-99027597D01*
X137024288Y-99043695D01*
X137027153Y-99065606D01*
X137042088Y-99179812D01*
X137043249Y-99188691D01*
X137102143Y-99322538D01*
X137105765Y-99326847D01*
X137128089Y-99353404D01*
X137196236Y-99434475D01*
X137219200Y-99449761D01*
X137219275Y-99449811D01*
X137251305Y-99493335D01*
X137254500Y-99515574D01*
X137254500Y-100151125D01*
X137236018Y-100201905D01*
X137189597Y-100227836D01*
X137189629Y-100227938D01*
X137189144Y-100228089D01*
X137187006Y-100229283D01*
X137177691Y-100230654D01*
X137172181Y-100233360D01*
X137172179Y-100233360D01*
X137147095Y-100245676D01*
X137062489Y-100287216D01*
X136971819Y-100378044D01*
X136915459Y-100493344D01*
X136914575Y-100499407D01*
X136905429Y-100562100D01*
X136904500Y-100568465D01*
X135838133Y-100568465D01*
X135920896Y-100540371D01*
X135927488Y-100537436D01*
X136044432Y-100471944D01*
X136051844Y-100463342D01*
X136051870Y-100461364D01*
X136050282Y-100458835D01*
X135484851Y-99893404D01*
X135474557Y-99888604D01*
X135468263Y-99890290D01*
X134903678Y-100454875D01*
X134896062Y-100471207D01*
X134857851Y-100509418D01*
X134804017Y-100514128D01*
X134795190Y-100511196D01*
X134647121Y-100452122D01*
X134640200Y-100450072D01*
X134449024Y-100412045D01*
X134441854Y-100411292D01*
X134246952Y-100408739D01*
X134239752Y-100409306D01*
X134047653Y-100442315D01*
X134040675Y-100444185D01*
X133857805Y-100511649D01*
X133851298Y-100514753D01*
X133761076Y-100568429D01*
X133753890Y-100577223D01*
X132439532Y-100577223D01*
X132433479Y-100573950D01*
X132415760Y-100568465D01*
X132381139Y-100557748D01*
X132338095Y-100525076D01*
X132325500Y-100482281D01*
X132325500Y-100296456D01*
X132343982Y-100245676D01*
X132390782Y-100218656D01*
X132444000Y-100228040D01*
X132455701Y-100236294D01*
X132541040Y-100308923D01*
X132605504Y-100363786D01*
X132608878Y-100365672D01*
X132608880Y-100365673D01*
X132647615Y-100387321D01*
X132778490Y-100460465D01*
X132782152Y-100461655D01*
X132782157Y-100461657D01*
X132898342Y-100499407D01*
X132966960Y-100521702D01*
X132970797Y-100522160D01*
X132970799Y-100522160D01*
X133159892Y-100544708D01*
X133159895Y-100544708D01*
X133163735Y-100545166D01*
X133361320Y-100529963D01*
X133366872Y-100528413D01*
X133470759Y-100499407D01*
X133552190Y-100476671D01*
X133680128Y-100412045D01*
X133725619Y-100389066D01*
X133725621Y-100389065D01*
X133729073Y-100387321D01*
X133851805Y-100291432D01*
X133882190Y-100267693D01*
X133882192Y-100267691D01*
X133885232Y-100265316D01*
X133913707Y-100232327D01*
X134012196Y-100118228D01*
X134012200Y-100118223D01*
X134014720Y-100115303D01*
X134016626Y-100111947D01*
X134016630Y-100111942D01*
X134110695Y-99946356D01*
X134112604Y-99942996D01*
X134115370Y-99934682D01*
X134173935Y-99758630D01*
X134173936Y-99758625D01*
X134175156Y-99754958D01*
X134178661Y-99727217D01*
X134191633Y-99624525D01*
X134199993Y-99558351D01*
X134200389Y-99530000D01*
X134197908Y-99504698D01*
X134370903Y-99504698D01*
X134383651Y-99699201D01*
X134384780Y-99706328D01*
X134432759Y-99895243D01*
X134435172Y-99902057D01*
X134516774Y-100079068D01*
X134520377Y-100085308D01*
X134531287Y-100100746D01*
X134540617Y-100107218D01*
X134544595Y-100106852D01*
X135111596Y-99539851D01*
X135115983Y-99530443D01*
X135833604Y-99530443D01*
X135835290Y-99536737D01*
X136400287Y-100101734D01*
X136410581Y-100106534D01*
X136412491Y-100106023D01*
X136414493Y-100103808D01*
X136482436Y-99982488D01*
X136485371Y-99975896D01*
X136548025Y-99791321D01*
X136549710Y-99784304D01*
X136577864Y-99590127D01*
X136578260Y-99585486D01*
X136579652Y-99532327D01*
X136579500Y-99527685D01*
X136561545Y-99332288D01*
X136560230Y-99325195D01*
X136507321Y-99137592D01*
X136504736Y-99130858D01*
X136418698Y-98956389D01*
X136410990Y-98951336D01*
X136406710Y-98951843D01*
X135838404Y-99520149D01*
X135833604Y-99530443D01*
X135115983Y-99530443D01*
X135116396Y-99529557D01*
X135114710Y-99523263D01*
X134548455Y-98957008D01*
X134538161Y-98952208D01*
X134536797Y-98952573D01*
X134534208Y-98955512D01*
X134456066Y-99104037D01*
X134453304Y-99110703D01*
X134395502Y-99296857D01*
X134394002Y-99303919D01*
X134371092Y-99497481D01*
X134370903Y-99504698D01*
X134197908Y-99504698D01*
X134181051Y-99332777D01*
X134123774Y-99143065D01*
X134121963Y-99139660D01*
X134121961Y-99139654D01*
X134032551Y-98971500D01*
X134030739Y-98968092D01*
X134023919Y-98959729D01*
X133941860Y-98859116D01*
X133905490Y-98814522D01*
X133893415Y-98804532D01*
X133755773Y-98690665D01*
X133755772Y-98690664D01*
X133752798Y-98688204D01*
X133734979Y-98678569D01*
X133668716Y-98642741D01*
X133584532Y-98597223D01*
X134898890Y-98597223D01*
X134898923Y-98599759D01*
X134900040Y-98601487D01*
X135465149Y-99166596D01*
X135475443Y-99171396D01*
X135481737Y-99169710D01*
X136045911Y-98605536D01*
X136050711Y-98595242D01*
X136049909Y-98592250D01*
X136049111Y-98591488D01*
X135979590Y-98547625D01*
X135973167Y-98544353D01*
X135792121Y-98472122D01*
X135785200Y-98470072D01*
X135594024Y-98432045D01*
X135586854Y-98431292D01*
X135391952Y-98428739D01*
X135384752Y-98429306D01*
X135192653Y-98462315D01*
X135185675Y-98464185D01*
X135002805Y-98531649D01*
X134996298Y-98534753D01*
X134906076Y-98588429D01*
X134898890Y-98597223D01*
X133584532Y-98597223D01*
X133578479Y-98593950D01*
X133389172Y-98535350D01*
X133192089Y-98514636D01*
X133188243Y-98514986D01*
X133188242Y-98514986D01*
X133140487Y-98519332D01*
X132994735Y-98532596D01*
X132991026Y-98533688D01*
X132991024Y-98533688D01*
X132961371Y-98542415D01*
X132907439Y-98539021D01*
X132868306Y-98501755D01*
X132862282Y-98448052D01*
X132888950Y-98405561D01*
X132931245Y-98370851D01*
X132944122Y-98362247D01*
X133053927Y-98303555D01*
X133068235Y-98297629D01*
X133187373Y-98261490D01*
X133202561Y-98258468D01*
X133239109Y-98254868D01*
X133307407Y-98248141D01*
X133322124Y-98248704D01*
X133327407Y-98248704D01*
X133334213Y-98249904D01*
X133352385Y-98246700D01*
X133366102Y-98245500D01*
X139773896Y-98245500D01*
X139787613Y-98246700D01*
X139805785Y-98249904D01*
X139812591Y-98248704D01*
X139817874Y-98248704D01*
X139832591Y-98248141D01*
X139900889Y-98254868D01*
X139937437Y-98258468D01*
X139952621Y-98261488D01*
X140040154Y-98288041D01*
X140083381Y-98320466D01*
X140095554Y-98353395D01*
X140111121Y-98472435D01*
X140113247Y-98488695D01*
X140172141Y-98622542D01*
X140175763Y-98626851D01*
X140204759Y-98661346D01*
X140266234Y-98734479D01*
X140387962Y-98815508D01*
X140393336Y-98817187D01*
X140502737Y-98851367D01*
X140527539Y-98859116D01*
X140577054Y-98860023D01*
X140668118Y-98861692D01*
X140668119Y-98861692D01*
X140673745Y-98861795D01*
X140814827Y-98823332D01*
X140910187Y-98764781D01*
X140934650Y-98749761D01*
X140939443Y-98746818D01*
X140943216Y-98742650D01*
X140943218Y-98742648D01*
X141033797Y-98642577D01*
X141033798Y-98642576D01*
X141037574Y-98638404D01*
X141064994Y-98581810D01*
X141085310Y-98539877D01*
X141101333Y-98506805D01*
X141102659Y-98498927D01*
X141125088Y-98365610D01*
X141125088Y-98365607D01*
X141125594Y-98362601D01*
X141125748Y-98350000D01*
X141116875Y-98288039D01*
X141105816Y-98210816D01*
X141105815Y-98210814D01*
X141105018Y-98205246D01*
X141102689Y-98200123D01*
X141046825Y-98077257D01*
X141046824Y-98077255D01*
X141044493Y-98072129D01*
X141040818Y-98067864D01*
X141040816Y-98067861D01*
X140952714Y-97965615D01*
X140949039Y-97961350D01*
X140908810Y-97935275D01*
X140831052Y-97884874D01*
X140831049Y-97884872D01*
X140826330Y-97881814D01*
X140750498Y-97859135D01*
X140691619Y-97841526D01*
X140691617Y-97841526D01*
X140686231Y-97839915D01*
X140613709Y-97839472D01*
X140545628Y-97839056D01*
X140545626Y-97839056D01*
X140540003Y-97839022D01*
X140503012Y-97849594D01*
X140449108Y-97845777D01*
X140440027Y-97840994D01*
X140393844Y-97812694D01*
X140393839Y-97812691D01*
X140391193Y-97811070D01*
X140204253Y-97733637D01*
X140201236Y-97732913D01*
X140201234Y-97732912D01*
X140111713Y-97711420D01*
X140007502Y-97686401D01*
X139907216Y-97678509D01*
X139815580Y-97671297D01*
X139815576Y-97671297D01*
X139810188Y-97670873D01*
X139805783Y-97670096D01*
X139798977Y-97671296D01*
X139798976Y-97671296D01*
X139787612Y-97673300D01*
X139773894Y-97674500D01*
X133366104Y-97674500D01*
X133352386Y-97673300D01*
X133341022Y-97671296D01*
X133341021Y-97671296D01*
X133334215Y-97670096D01*
X133329810Y-97670873D01*
X133324422Y-97671297D01*
X133324418Y-97671297D01*
X133232782Y-97678509D01*
X133132496Y-97686401D01*
X133028285Y-97711420D01*
X132938764Y-97732912D01*
X132938762Y-97732913D01*
X132935745Y-97733637D01*
X132748805Y-97811070D01*
X132576280Y-97916793D01*
X132573918Y-97918810D01*
X132573917Y-97918811D01*
X132441988Y-98031489D01*
X132425776Y-98045335D01*
X132422113Y-98047900D01*
X132418148Y-98053563D01*
X132411528Y-98063017D01*
X132402676Y-98073566D01*
X132153566Y-98322676D01*
X132143017Y-98331528D01*
X132127900Y-98342113D01*
X132125335Y-98345776D01*
X132121829Y-98349881D01*
X132121827Y-98349883D01*
X131998811Y-98493917D01*
X131996793Y-98496280D01*
X131891070Y-98668805D01*
X131813637Y-98855745D01*
X131812912Y-98858765D01*
X131811953Y-98861716D01*
X131810360Y-98861198D01*
X131783600Y-98901592D01*
X131731780Y-98916919D01*
X131682232Y-98895350D01*
X131675421Y-98888005D01*
X131632371Y-98835220D01*
X131617930Y-98817513D01*
X131617927Y-98817510D01*
X131615490Y-98814522D01*
X131603415Y-98804532D01*
X131465773Y-98690665D01*
X131465772Y-98690664D01*
X131462798Y-98688204D01*
X131444979Y-98678569D01*
X131378716Y-98642741D01*
X131288479Y-98593950D01*
X131270644Y-98588429D01*
X131231139Y-98576200D01*
X131188095Y-98543528D01*
X131175500Y-98500733D01*
X131175500Y-97706102D01*
X131176700Y-97692384D01*
X131178704Y-97681019D01*
X131179904Y-97674213D01*
X131178704Y-97667407D01*
X131178704Y-97662124D01*
X131178141Y-97647404D01*
X131178664Y-97642100D01*
X131188468Y-97542561D01*
X131191488Y-97527378D01*
X131216001Y-97446566D01*
X131248427Y-97403340D01*
X131291599Y-97390500D01*
X131897308Y-97390500D01*
X131900368Y-97390015D01*
X131900372Y-97390015D01*
X131987291Y-97376248D01*
X131987292Y-97376248D01*
X131993433Y-97375275D01*
X131998971Y-97372453D01*
X131998972Y-97372453D01*
X132103754Y-97319064D01*
X132103755Y-97319063D01*
X132109294Y-97316241D01*
X132201241Y-97224294D01*
X132230515Y-97166841D01*
X132257453Y-97113972D01*
X132257453Y-97113971D01*
X132260275Y-97108433D01*
X132261248Y-97102291D01*
X132275015Y-97015372D01*
X132275015Y-97015368D01*
X132275500Y-97012308D01*
X133754500Y-97012308D01*
X133754985Y-97015368D01*
X133754985Y-97015372D01*
X133768752Y-97102291D01*
X133769725Y-97108433D01*
X133772547Y-97113971D01*
X133772547Y-97113972D01*
X133799485Y-97166841D01*
X133828759Y-97224294D01*
X133920706Y-97316241D01*
X133926245Y-97319063D01*
X133926246Y-97319064D01*
X134031028Y-97372453D01*
X134031029Y-97372453D01*
X134036567Y-97375275D01*
X134042708Y-97376248D01*
X134042709Y-97376248D01*
X134129628Y-97390015D01*
X134129632Y-97390015D01*
X134132692Y-97390500D01*
X134847308Y-97390500D01*
X134850368Y-97390015D01*
X134850372Y-97390015D01*
X134937291Y-97376248D01*
X134937292Y-97376248D01*
X134943433Y-97375275D01*
X134948971Y-97372453D01*
X134948972Y-97372453D01*
X135053754Y-97319064D01*
X135053755Y-97319063D01*
X135059294Y-97316241D01*
X135151241Y-97224294D01*
X135180515Y-97166841D01*
X135207453Y-97113972D01*
X135207453Y-97113971D01*
X135210275Y-97108433D01*
X135211248Y-97102291D01*
X135225015Y-97015372D01*
X135225015Y-97015368D01*
X135225500Y-97012308D01*
X135225500Y-96788256D01*
X135243982Y-96737476D01*
X135290782Y-96710456D01*
X135348275Y-96722493D01*
X135356009Y-96727641D01*
X135457964Y-96795508D01*
X135597541Y-96839116D01*
X135647056Y-96840023D01*
X135738120Y-96841692D01*
X135738121Y-96841692D01*
X135743747Y-96841795D01*
X135884829Y-96803332D01*
X136009445Y-96726818D01*
X136013218Y-96722650D01*
X136013220Y-96722648D01*
X136103799Y-96622577D01*
X136103800Y-96622576D01*
X136107576Y-96618404D01*
X136171335Y-96486805D01*
X136180199Y-96434122D01*
X136195090Y-96345610D01*
X136195090Y-96345607D01*
X136195596Y-96342601D01*
X136195750Y-96330000D01*
X136187416Y-96271805D01*
X136175818Y-96190816D01*
X136175817Y-96190814D01*
X136175020Y-96185246D01*
X136171731Y-96178012D01*
X136116827Y-96057257D01*
X136116826Y-96057255D01*
X136114495Y-96052129D01*
X136110820Y-96047864D01*
X136110818Y-96047861D01*
X136022716Y-95945615D01*
X136019041Y-95941350D01*
X135967817Y-95908148D01*
X135901054Y-95864874D01*
X135901051Y-95864872D01*
X135896332Y-95861814D01*
X135822763Y-95839812D01*
X135761621Y-95821526D01*
X135761619Y-95821526D01*
X135756233Y-95819915D01*
X135683711Y-95819472D01*
X135615630Y-95819056D01*
X135615628Y-95819056D01*
X135610005Y-95819022D01*
X135469404Y-95859206D01*
X135464648Y-95862207D01*
X135464643Y-95862209D01*
X135346656Y-95936654D01*
X135293847Y-95948120D01*
X135246023Y-95922959D01*
X135225500Y-95869842D01*
X135225500Y-95647692D01*
X135222323Y-95627629D01*
X135211248Y-95557709D01*
X135211248Y-95557708D01*
X135210275Y-95551567D01*
X135200666Y-95532707D01*
X135154064Y-95441246D01*
X135154063Y-95441245D01*
X135151241Y-95435706D01*
X135059294Y-95343759D01*
X135041768Y-95334829D01*
X134948972Y-95287547D01*
X134948971Y-95287547D01*
X134943433Y-95284725D01*
X134937292Y-95283752D01*
X134937291Y-95283752D01*
X134850372Y-95269985D01*
X134850368Y-95269985D01*
X134847308Y-95269500D01*
X134132692Y-95269500D01*
X134129632Y-95269985D01*
X134129628Y-95269985D01*
X134042709Y-95283752D01*
X134042708Y-95283752D01*
X134036567Y-95284725D01*
X134031029Y-95287547D01*
X134031028Y-95287547D01*
X133938232Y-95334829D01*
X133920706Y-95343759D01*
X133828759Y-95435706D01*
X133825937Y-95441245D01*
X133825936Y-95441246D01*
X133779335Y-95532707D01*
X133769725Y-95551567D01*
X133768752Y-95557708D01*
X133768752Y-95557709D01*
X133757678Y-95627629D01*
X133754500Y-95647692D01*
X133754500Y-97012308D01*
X132275500Y-97012308D01*
X132275500Y-95647692D01*
X132272323Y-95627629D01*
X132261248Y-95557709D01*
X132261248Y-95557708D01*
X132260275Y-95551567D01*
X132250666Y-95532707D01*
X132204064Y-95441246D01*
X132204063Y-95441245D01*
X132201241Y-95435706D01*
X132109294Y-95343759D01*
X132091768Y-95334829D01*
X131998972Y-95287547D01*
X131998971Y-95287547D01*
X131993433Y-95284725D01*
X131987292Y-95283752D01*
X131987291Y-95283752D01*
X131900372Y-95269985D01*
X131900368Y-95269985D01*
X131897308Y-95269500D01*
X131182692Y-95269500D01*
X131179632Y-95269985D01*
X131179628Y-95269985D01*
X131092709Y-95283752D01*
X131092708Y-95283752D01*
X131086567Y-95284725D01*
X131081029Y-95287547D01*
X131081028Y-95287547D01*
X130988232Y-95334829D01*
X130970706Y-95343759D01*
X130878759Y-95435706D01*
X130875937Y-95441245D01*
X130875936Y-95441246D01*
X130829335Y-95532707D01*
X130819725Y-95551567D01*
X130818752Y-95557708D01*
X130818752Y-95557709D01*
X130807678Y-95627629D01*
X130804500Y-95647692D01*
X130804500Y-96963016D01*
X130792859Y-97004292D01*
X130772671Y-97037237D01*
X130748106Y-97077324D01*
X130741070Y-97088805D01*
X130663637Y-97275745D01*
X130662913Y-97278762D01*
X130662912Y-97278764D01*
X130651964Y-97324365D01*
X130616401Y-97472496D01*
X130609020Y-97566290D01*
X130601546Y-97661261D01*
X130600873Y-97669810D01*
X130600096Y-97674215D01*
X130601296Y-97681019D01*
X130601296Y-97681022D01*
X130603300Y-97692386D01*
X130604500Y-97706104D01*
X130604500Y-98502998D01*
X130586018Y-98553778D01*
X130547804Y-98578784D01*
X130514629Y-98588548D01*
X130511202Y-98590340D01*
X130511201Y-98590340D01*
X130500784Y-98595786D01*
X130339010Y-98680359D01*
X130336003Y-98682777D01*
X130336001Y-98682778D01*
X130326192Y-98690665D01*
X130184570Y-98804532D01*
X130100064Y-98905242D01*
X130060962Y-98951843D01*
X130057189Y-98956339D01*
X130055327Y-98959727D01*
X130055325Y-98959729D01*
X129993533Y-99072129D01*
X129961720Y-99129996D01*
X129901800Y-99318889D01*
X129879710Y-99515823D01*
X129618999Y-99515823D01*
X129601051Y-99332777D01*
X129543774Y-99143065D01*
X129541963Y-99139660D01*
X129541961Y-99139654D01*
X129452551Y-98971500D01*
X129450739Y-98968092D01*
X129443919Y-98959729D01*
X129361860Y-98859116D01*
X129325490Y-98814522D01*
X129313415Y-98804532D01*
X129175773Y-98690665D01*
X129175772Y-98690664D01*
X129172798Y-98688204D01*
X129154979Y-98678569D01*
X129088716Y-98642741D01*
X128998479Y-98593950D01*
X128809172Y-98535350D01*
X128612089Y-98514636D01*
X128608243Y-98514986D01*
X128608242Y-98514986D01*
X128560487Y-98519332D01*
X128414735Y-98532596D01*
X128411028Y-98533687D01*
X128228338Y-98587456D01*
X128228335Y-98587457D01*
X128224629Y-98588548D01*
X128221202Y-98590340D01*
X128221201Y-98590340D01*
X128210784Y-98595786D01*
X128049010Y-98680359D01*
X128046003Y-98682777D01*
X128046001Y-98682778D01*
X128036192Y-98690665D01*
X127894570Y-98804532D01*
X127810064Y-98905242D01*
X127770962Y-98951843D01*
X127767189Y-98956339D01*
X127765327Y-98959727D01*
X127765325Y-98959729D01*
X127703533Y-99072129D01*
X127671720Y-99129996D01*
X127611800Y-99318889D01*
X127589710Y-99515823D01*
X127325500Y-99515823D01*
X127325500Y-98664194D01*
X127316187Y-98617376D01*
X127305571Y-98601487D01*
X127285035Y-98570753D01*
X127280714Y-98564286D01*
X127239120Y-98536494D01*
X127234094Y-98533136D01*
X127227624Y-98528813D01*
X127219995Y-98527295D01*
X127219994Y-98527295D01*
X127196059Y-98522534D01*
X127180806Y-98519500D01*
X127054980Y-98519500D01*
X127004200Y-98501018D01*
X126977180Y-98454218D01*
X126986564Y-98401000D01*
X126999119Y-98384639D01*
X127136437Y-98247321D01*
X127146981Y-98238472D01*
X127162100Y-98227886D01*
X127166063Y-98222226D01*
X127169780Y-98218509D01*
X127179811Y-98207682D01*
X127261243Y-98140852D01*
X127274120Y-98132248D01*
X127383929Y-98073554D01*
X127398237Y-98067628D01*
X127517372Y-98031489D01*
X127532561Y-98028467D01*
X127637401Y-98018141D01*
X127652150Y-98018704D01*
X127657409Y-98018704D01*
X127664214Y-98019904D01*
X127671026Y-98018703D01*
X127682385Y-98016700D01*
X127696103Y-98015500D01*
X128423896Y-98015500D01*
X128437614Y-98016700D01*
X128448978Y-98018704D01*
X128448979Y-98018704D01*
X128455785Y-98019904D01*
X128460190Y-98019127D01*
X128465578Y-98018703D01*
X128465582Y-98018703D01*
X128557218Y-98011491D01*
X128657504Y-98003599D01*
X128815718Y-97965615D01*
X128851236Y-97957088D01*
X128851238Y-97957087D01*
X128854255Y-97956363D01*
X129041195Y-97878930D01*
X129213720Y-97773207D01*
X129216083Y-97771189D01*
X129360117Y-97648173D01*
X129360119Y-97648171D01*
X129364224Y-97644665D01*
X129367887Y-97642100D01*
X129378472Y-97626983D01*
X129387324Y-97616434D01*
X129926434Y-97077324D01*
X129936983Y-97068472D01*
X129946437Y-97061852D01*
X129952100Y-97057887D01*
X129954665Y-97054224D01*
X129965661Y-97041350D01*
X130081189Y-96906083D01*
X130081190Y-96906082D01*
X130083207Y-96903720D01*
X130188930Y-96731195D01*
X130266363Y-96544255D01*
X130270642Y-96526434D01*
X130301204Y-96399132D01*
X130313599Y-96347504D01*
X130321924Y-96241715D01*
X130328703Y-96155582D01*
X130328703Y-96155578D01*
X130329127Y-96150190D01*
X130329904Y-96145785D01*
X130326700Y-96127613D01*
X130325500Y-96113896D01*
X130325500Y-94272308D01*
X130804500Y-94272308D01*
X130804985Y-94275368D01*
X130804985Y-94275372D01*
X130818004Y-94357569D01*
X130819725Y-94368433D01*
X130822547Y-94373971D01*
X130822547Y-94373972D01*
X130875218Y-94477344D01*
X130878759Y-94484294D01*
X130970706Y-94576241D01*
X130976245Y-94579063D01*
X130976246Y-94579064D01*
X131081028Y-94632453D01*
X131081029Y-94632453D01*
X131086567Y-94635275D01*
X131092708Y-94636248D01*
X131092709Y-94636248D01*
X131179628Y-94650015D01*
X131179632Y-94650015D01*
X131182692Y-94650500D01*
X131897308Y-94650500D01*
X131900368Y-94650015D01*
X131900372Y-94650015D01*
X131987291Y-94636248D01*
X131987292Y-94636248D01*
X131993433Y-94635275D01*
X131998971Y-94632453D01*
X131998972Y-94632453D01*
X132103754Y-94579064D01*
X132103755Y-94579063D01*
X132109294Y-94576241D01*
X132201241Y-94484294D01*
X132204782Y-94477344D01*
X132257453Y-94373972D01*
X132257453Y-94373971D01*
X132260275Y-94368433D01*
X132261996Y-94357569D01*
X132275015Y-94275372D01*
X132275015Y-94275368D01*
X132275500Y-94272308D01*
X133754500Y-94272308D01*
X133754985Y-94275368D01*
X133754985Y-94275372D01*
X133768004Y-94357569D01*
X133769725Y-94368433D01*
X133772547Y-94373971D01*
X133772547Y-94373972D01*
X133825218Y-94477344D01*
X133828759Y-94484294D01*
X133920706Y-94576241D01*
X133926245Y-94579063D01*
X133926246Y-94579064D01*
X134031028Y-94632453D01*
X134031029Y-94632453D01*
X134036567Y-94635275D01*
X134042708Y-94636248D01*
X134042709Y-94636248D01*
X134129628Y-94650015D01*
X134129632Y-94650015D01*
X134132692Y-94650500D01*
X134847308Y-94650500D01*
X134850368Y-94650015D01*
X134850372Y-94650015D01*
X134937291Y-94636248D01*
X134937292Y-94636248D01*
X134943433Y-94635275D01*
X134948971Y-94632453D01*
X134948972Y-94632453D01*
X135053754Y-94579064D01*
X135053755Y-94579063D01*
X135059294Y-94576241D01*
X135151241Y-94484294D01*
X135154782Y-94477344D01*
X135207453Y-94373972D01*
X135207453Y-94373971D01*
X135210275Y-94368433D01*
X135211996Y-94357569D01*
X135225015Y-94275372D01*
X135225015Y-94275368D01*
X135225500Y-94272308D01*
X135225500Y-94048256D01*
X135243982Y-93997476D01*
X135290782Y-93970456D01*
X135348275Y-93982493D01*
X135359194Y-93989761D01*
X135457964Y-94055508D01*
X135463338Y-94057187D01*
X135553682Y-94085413D01*
X135597541Y-94099116D01*
X135647056Y-94100023D01*
X135738120Y-94101692D01*
X135738121Y-94101692D01*
X135743747Y-94101795D01*
X135884829Y-94063332D01*
X135984116Y-94002370D01*
X136004652Y-93989761D01*
X136009445Y-93986818D01*
X136013218Y-93982650D01*
X136013220Y-93982648D01*
X136103799Y-93882577D01*
X136103800Y-93882576D01*
X136107576Y-93878404D01*
X136115561Y-93861924D01*
X136162518Y-93765004D01*
X136171335Y-93746805D01*
X136191705Y-93625732D01*
X136195090Y-93605610D01*
X136195090Y-93605607D01*
X136195596Y-93602601D01*
X136195750Y-93590000D01*
X136186691Y-93526742D01*
X136175818Y-93450816D01*
X136175817Y-93450814D01*
X136175020Y-93445246D01*
X136169521Y-93433152D01*
X136116827Y-93317257D01*
X136116826Y-93317255D01*
X136114495Y-93312129D01*
X136110820Y-93307864D01*
X136110818Y-93307861D01*
X136022716Y-93205615D01*
X136019041Y-93201350D01*
X135963623Y-93165430D01*
X135901054Y-93124874D01*
X135901051Y-93124872D01*
X135896332Y-93121814D01*
X135826282Y-93100864D01*
X135761621Y-93081526D01*
X135761619Y-93081526D01*
X135756233Y-93079915D01*
X135683711Y-93079472D01*
X135615630Y-93079056D01*
X135615628Y-93079056D01*
X135610005Y-93079022D01*
X135469404Y-93119206D01*
X135464648Y-93122207D01*
X135464643Y-93122209D01*
X135346656Y-93196654D01*
X135293847Y-93208120D01*
X135246023Y-93182959D01*
X135225500Y-93129842D01*
X135225500Y-92907692D01*
X135222293Y-92887441D01*
X135211248Y-92817709D01*
X135211248Y-92817708D01*
X135210275Y-92811567D01*
X135186252Y-92764418D01*
X135154064Y-92701246D01*
X135154063Y-92701245D01*
X135151241Y-92695706D01*
X135059294Y-92603759D01*
X134991996Y-92569469D01*
X134948972Y-92547547D01*
X134948971Y-92547547D01*
X134943433Y-92544725D01*
X134937292Y-92543752D01*
X134937291Y-92543752D01*
X134850372Y-92529985D01*
X134850368Y-92529985D01*
X134847308Y-92529500D01*
X134132692Y-92529500D01*
X134129632Y-92529985D01*
X134129628Y-92529985D01*
X134042709Y-92543752D01*
X134042708Y-92543752D01*
X134036567Y-92544725D01*
X134031029Y-92547547D01*
X134031028Y-92547547D01*
X133988004Y-92569469D01*
X133920706Y-92603759D01*
X133828759Y-92695706D01*
X133825937Y-92701245D01*
X133825936Y-92701246D01*
X133793749Y-92764418D01*
X133769725Y-92811567D01*
X133768752Y-92817708D01*
X133768752Y-92817709D01*
X133757708Y-92887441D01*
X133754500Y-92907692D01*
X133754500Y-94272308D01*
X132275500Y-94272308D01*
X132275500Y-92907692D01*
X132272293Y-92887441D01*
X132261248Y-92817709D01*
X132261248Y-92817708D01*
X132260275Y-92811567D01*
X132236252Y-92764418D01*
X132204064Y-92701246D01*
X132204063Y-92701245D01*
X132201241Y-92695706D01*
X132109294Y-92603759D01*
X132041996Y-92569469D01*
X131998972Y-92547547D01*
X131998971Y-92547547D01*
X131993433Y-92544725D01*
X131987292Y-92543752D01*
X131987291Y-92543752D01*
X131900372Y-92529985D01*
X131900368Y-92529985D01*
X131897308Y-92529500D01*
X131182692Y-92529500D01*
X131179632Y-92529985D01*
X131179628Y-92529985D01*
X131092709Y-92543752D01*
X131092708Y-92543752D01*
X131086567Y-92544725D01*
X131081029Y-92547547D01*
X131081028Y-92547547D01*
X131038004Y-92569469D01*
X130970706Y-92603759D01*
X130878759Y-92695706D01*
X130875937Y-92701245D01*
X130875936Y-92701246D01*
X130843749Y-92764418D01*
X130819725Y-92811567D01*
X130818752Y-92817708D01*
X130818752Y-92817709D01*
X130807708Y-92887441D01*
X130804500Y-92907692D01*
X130804500Y-94272308D01*
X130325500Y-94272308D01*
X130325500Y-92806102D01*
X130326700Y-92792384D01*
X130328704Y-92781019D01*
X130329904Y-92774213D01*
X130328704Y-92767407D01*
X130328704Y-92762124D01*
X130328141Y-92747404D01*
X130333667Y-92691308D01*
X130338468Y-92642561D01*
X130341490Y-92627373D01*
X130377629Y-92508235D01*
X130383555Y-92493927D01*
X130442247Y-92384122D01*
X130450851Y-92371245D01*
X130488700Y-92325125D01*
X130517682Y-92289811D01*
X130528495Y-92279794D01*
X130532222Y-92276067D01*
X130537886Y-92272101D01*
X130541852Y-92266437D01*
X130548471Y-92256985D01*
X130557323Y-92246435D01*
X130921384Y-91882375D01*
X130970360Y-91859538D01*
X131013110Y-91867847D01*
X131081028Y-91902453D01*
X131081029Y-91902453D01*
X131086567Y-91905275D01*
X131092708Y-91906248D01*
X131092709Y-91906248D01*
X131179628Y-91920015D01*
X131179632Y-91920015D01*
X131182692Y-91920500D01*
X131897308Y-91920500D01*
X131900368Y-91920015D01*
X131900372Y-91920015D01*
X131987291Y-91906248D01*
X131987292Y-91906248D01*
X131993433Y-91905275D01*
X131998971Y-91902453D01*
X131998972Y-91902453D01*
X132103754Y-91849064D01*
X132103755Y-91849063D01*
X132109294Y-91846241D01*
X132201241Y-91754294D01*
X132204064Y-91748754D01*
X132257453Y-91643972D01*
X132257453Y-91643971D01*
X132260275Y-91638433D01*
X132275500Y-91542308D01*
X133754500Y-91542308D01*
X133769725Y-91638433D01*
X133772547Y-91643971D01*
X133772547Y-91643972D01*
X133825936Y-91748754D01*
X133828759Y-91754294D01*
X133920706Y-91846241D01*
X133926245Y-91849063D01*
X133926246Y-91849064D01*
X134031028Y-91902453D01*
X134031029Y-91902453D01*
X134036567Y-91905275D01*
X134042708Y-91906248D01*
X134042709Y-91906248D01*
X134129628Y-91920015D01*
X134129632Y-91920015D01*
X134132692Y-91920500D01*
X134847308Y-91920500D01*
X134850368Y-91920015D01*
X134850372Y-91920015D01*
X134937291Y-91906248D01*
X134937292Y-91906248D01*
X134943433Y-91905275D01*
X134948971Y-91902453D01*
X134948972Y-91902453D01*
X135053754Y-91849064D01*
X135053755Y-91849063D01*
X135059294Y-91846241D01*
X135151241Y-91754294D01*
X135154064Y-91748754D01*
X135207453Y-91643972D01*
X135207453Y-91643971D01*
X135210275Y-91638433D01*
X135225500Y-91542308D01*
X135225500Y-91318256D01*
X135243982Y-91267476D01*
X135290782Y-91240456D01*
X135348275Y-91252493D01*
X135359194Y-91259761D01*
X135457964Y-91325508D01*
X135463338Y-91327187D01*
X135473600Y-91330393D01*
X135597541Y-91369116D01*
X135647056Y-91370023D01*
X135738120Y-91371692D01*
X135738121Y-91371692D01*
X135743747Y-91371795D01*
X135884829Y-91333332D01*
X136009445Y-91256818D01*
X136013218Y-91252650D01*
X136013220Y-91252648D01*
X136103799Y-91152577D01*
X136103800Y-91152576D01*
X136107576Y-91148404D01*
X136171335Y-91016805D01*
X136178215Y-90975915D01*
X136195090Y-90875610D01*
X136195090Y-90875607D01*
X136195596Y-90872601D01*
X136195750Y-90860000D01*
X136177401Y-90731870D01*
X136175818Y-90720816D01*
X136175817Y-90720814D01*
X136175020Y-90715246D01*
X136151521Y-90663563D01*
X136116827Y-90587257D01*
X136116826Y-90587255D01*
X136114495Y-90582129D01*
X136110820Y-90577864D01*
X136110818Y-90577861D01*
X136022716Y-90475615D01*
X136019041Y-90471350D01*
X135956505Y-90430816D01*
X135901054Y-90394874D01*
X135901051Y-90394872D01*
X135896332Y-90391814D01*
X135826282Y-90370864D01*
X135761621Y-90351526D01*
X135761619Y-90351526D01*
X135756233Y-90349915D01*
X135683711Y-90349472D01*
X135615630Y-90349056D01*
X135615628Y-90349056D01*
X135610005Y-90349022D01*
X135469404Y-90389206D01*
X135464648Y-90392207D01*
X135464643Y-90392209D01*
X135346656Y-90466654D01*
X135293847Y-90478120D01*
X135246023Y-90452959D01*
X135225500Y-90399842D01*
X135225500Y-90177692D01*
X135213545Y-90102209D01*
X135211248Y-90087709D01*
X135211248Y-90087708D01*
X135210275Y-90081567D01*
X135199576Y-90060568D01*
X135154064Y-89971246D01*
X135154063Y-89971245D01*
X135151241Y-89965706D01*
X135059294Y-89873759D01*
X135053754Y-89870936D01*
X134948972Y-89817547D01*
X134948971Y-89817547D01*
X134943433Y-89814725D01*
X134937292Y-89813752D01*
X134937291Y-89813752D01*
X134850372Y-89799985D01*
X134850368Y-89799985D01*
X134847308Y-89799500D01*
X134132692Y-89799500D01*
X134129632Y-89799985D01*
X134129628Y-89799985D01*
X134042709Y-89813752D01*
X134042708Y-89813752D01*
X134036567Y-89814725D01*
X134031029Y-89817547D01*
X134031028Y-89817547D01*
X133926246Y-89870936D01*
X133920706Y-89873759D01*
X133828759Y-89965706D01*
X133825937Y-89971245D01*
X133825936Y-89971246D01*
X133780425Y-90060568D01*
X133769725Y-90081567D01*
X133768752Y-90087708D01*
X133768752Y-90087709D01*
X133766456Y-90102209D01*
X133754500Y-90177692D01*
X133754500Y-91542308D01*
X132275500Y-91542308D01*
X132275500Y-90177692D01*
X132263545Y-90102209D01*
X132261248Y-90087709D01*
X132261248Y-90087708D01*
X132260275Y-90081567D01*
X132249576Y-90060568D01*
X132204064Y-89971246D01*
X132204063Y-89971245D01*
X132201241Y-89965706D01*
X132109294Y-89873759D01*
X132103754Y-89870936D01*
X131998972Y-89817547D01*
X131998971Y-89817547D01*
X131993433Y-89814725D01*
X131987292Y-89813752D01*
X131987291Y-89813752D01*
X131900372Y-89799985D01*
X131900368Y-89799985D01*
X131897308Y-89799500D01*
X131182692Y-89799500D01*
X131179632Y-89799985D01*
X131179628Y-89799985D01*
X131092709Y-89813752D01*
X131092708Y-89813752D01*
X131086567Y-89814725D01*
X131081029Y-89817547D01*
X131081028Y-89817547D01*
X130976246Y-89870936D01*
X130970706Y-89873759D01*
X130878759Y-89965706D01*
X130875937Y-89971245D01*
X130875936Y-89971246D01*
X130830425Y-90060568D01*
X130819725Y-90081567D01*
X130818752Y-90087708D01*
X130818752Y-90087709D01*
X130816456Y-90102209D01*
X130804500Y-90177692D01*
X130804500Y-91159020D01*
X130786018Y-91209800D01*
X130781361Y-91214881D01*
X130153566Y-91842676D01*
X130143017Y-91851528D01*
X130127900Y-91862113D01*
X130125335Y-91865776D01*
X130121829Y-91869881D01*
X130121827Y-91869883D01*
X130015494Y-91994384D01*
X129996793Y-92016280D01*
X129891070Y-92188805D01*
X129813637Y-92375745D01*
X129766401Y-92572496D01*
X129750873Y-92769810D01*
X129750096Y-92774215D01*
X129751296Y-92781019D01*
X129751296Y-92781022D01*
X129753300Y-92792386D01*
X129754500Y-92806104D01*
X129754500Y-96113898D01*
X129753300Y-96127614D01*
X129750096Y-96145787D01*
X129751296Y-96152593D01*
X129751296Y-96157876D01*
X129751859Y-96172593D01*
X129746131Y-96230748D01*
X129741532Y-96277439D01*
X129738510Y-96292627D01*
X129702371Y-96411765D01*
X129696445Y-96426073D01*
X129637753Y-96535878D01*
X129629149Y-96548755D01*
X129626725Y-96551709D01*
X129568632Y-96622496D01*
X129562319Y-96630188D01*
X129551505Y-96640206D01*
X129547778Y-96643933D01*
X129542114Y-96647899D01*
X129532847Y-96661133D01*
X129531526Y-96663020D01*
X129522674Y-96673568D01*
X128983568Y-97212674D01*
X128973020Y-97221526D01*
X128957899Y-97232114D01*
X128953933Y-97237778D01*
X128950206Y-97241505D01*
X128940189Y-97252318D01*
X128907422Y-97279209D01*
X128858755Y-97319149D01*
X128845878Y-97327753D01*
X128736073Y-97386445D01*
X128721765Y-97392371D01*
X128602627Y-97428510D01*
X128587439Y-97431532D01*
X128550891Y-97435132D01*
X128482593Y-97441859D01*
X128467876Y-97441296D01*
X128462593Y-97441296D01*
X128455787Y-97440096D01*
X128448981Y-97441296D01*
X128437616Y-97443300D01*
X128423898Y-97444500D01*
X127696103Y-97444500D01*
X127682385Y-97443300D01*
X127671021Y-97441296D01*
X127671020Y-97441296D01*
X127664214Y-97440096D01*
X127659820Y-97440871D01*
X127654407Y-97441297D01*
X127654405Y-97441297D01*
X127602779Y-97445360D01*
X127462496Y-97456400D01*
X127373063Y-97477871D01*
X127268763Y-97502911D01*
X127268761Y-97502912D01*
X127265744Y-97503636D01*
X127078805Y-97581069D01*
X126906279Y-97686792D01*
X126903923Y-97688805D01*
X126903922Y-97688805D01*
X126805101Y-97773207D01*
X126755765Y-97815344D01*
X126752114Y-97817900D01*
X126741528Y-97833019D01*
X126732679Y-97843563D01*
X126433563Y-98142679D01*
X126423019Y-98151528D01*
X126407900Y-98162114D01*
X126405344Y-98165765D01*
X126401809Y-98169904D01*
X126401808Y-98169905D01*
X126314099Y-98272599D01*
X126276792Y-98316279D01*
X126181101Y-98472435D01*
X126175376Y-98481777D01*
X126133084Y-98515417D01*
X126108017Y-98519500D01*
X125449194Y-98519500D01*
X125433941Y-98522534D01*
X125410006Y-98527295D01*
X125410005Y-98527295D01*
X125402376Y-98528813D01*
X125395906Y-98533136D01*
X125390880Y-98536494D01*
X125349286Y-98564286D01*
X125344965Y-98570753D01*
X125324430Y-98601487D01*
X125313813Y-98617376D01*
X125304500Y-98664194D01*
X125304500Y-100331547D01*
X125286018Y-100382327D01*
X125239218Y-100409347D01*
X125224466Y-100410540D01*
X125086952Y-100408739D01*
X125079752Y-100409306D01*
X124887653Y-100442315D01*
X124880675Y-100444185D01*
X124697805Y-100511649D01*
X124691298Y-100514753D01*
X124601076Y-100568429D01*
X124593890Y-100577223D01*
X123395500Y-100577223D01*
X123395500Y-100410316D01*
X123396700Y-100396598D01*
X123398704Y-100385234D01*
X123398704Y-100385233D01*
X123399904Y-100378427D01*
X123398347Y-100369596D01*
X123397316Y-100350716D01*
X123402787Y-100267246D01*
X123409830Y-100159798D01*
X123411178Y-100149560D01*
X123411459Y-100148150D01*
X123452909Y-99939765D01*
X123455584Y-99929783D01*
X123524346Y-99727217D01*
X123528300Y-99717670D01*
X123622910Y-99525819D01*
X123628077Y-99516870D01*
X123746920Y-99339009D01*
X123753211Y-99330811D01*
X123879353Y-99186974D01*
X123893436Y-99174349D01*
X123895120Y-99173170D01*
X123895121Y-99173169D01*
X123900779Y-99169207D01*
X123904740Y-99163550D01*
X123904744Y-99163546D01*
X123911366Y-99154089D01*
X123920217Y-99143541D01*
X124203540Y-98860218D01*
X124214088Y-98851367D01*
X124223541Y-98844748D01*
X124223545Y-98844744D01*
X124229206Y-98840780D01*
X124233099Y-98835220D01*
X124233358Y-98834930D01*
X124234920Y-98833368D01*
X124236220Y-98831728D01*
X124398212Y-98650458D01*
X124398213Y-98650457D01*
X124399690Y-98648804D01*
X124548236Y-98439448D01*
X124549891Y-98436455D01*
X124671343Y-98216704D01*
X124672408Y-98214777D01*
X124770643Y-97977615D01*
X124774101Y-97965615D01*
X124841092Y-97733082D01*
X124841093Y-97733076D01*
X124841707Y-97730946D01*
X124884707Y-97477871D01*
X124884831Y-97475667D01*
X124886626Y-97443699D01*
X125494287Y-97443699D01*
X125496360Y-97459550D01*
X125512463Y-97582690D01*
X125513248Y-97588695D01*
X125572142Y-97722542D01*
X125666235Y-97834479D01*
X125787963Y-97915508D01*
X125793337Y-97917187D01*
X125863526Y-97939116D01*
X125927540Y-97959116D01*
X125977055Y-97960023D01*
X126068119Y-97961692D01*
X126068120Y-97961692D01*
X126073746Y-97961795D01*
X126214828Y-97923332D01*
X126339444Y-97846818D01*
X126343217Y-97842650D01*
X126343219Y-97842648D01*
X126433798Y-97742577D01*
X126433799Y-97742576D01*
X126437575Y-97738404D01*
X126440154Y-97733082D01*
X126498880Y-97611870D01*
X126501334Y-97606805D01*
X126505320Y-97583116D01*
X126525089Y-97465610D01*
X126525089Y-97465607D01*
X126525595Y-97462601D01*
X126525749Y-97450000D01*
X126514644Y-97372453D01*
X126505818Y-97310822D01*
X126505817Y-97310819D01*
X126505019Y-97305246D01*
X126502689Y-97300121D01*
X126502687Y-97300115D01*
X126491266Y-97274997D01*
X126487073Y-97221121D01*
X126507320Y-97186438D01*
X127305120Y-96388638D01*
X127354096Y-96365800D01*
X127360981Y-96365499D01*
X127436534Y-96365499D01*
X127512309Y-96354346D01*
X127517819Y-96351640D01*
X127517821Y-96351640D01*
X127621649Y-96300662D01*
X127621648Y-96300662D01*
X127627511Y-96297784D01*
X127718181Y-96206956D01*
X127774541Y-96091656D01*
X127785500Y-96016535D01*
X127785499Y-95443466D01*
X127774346Y-95367691D01*
X127758212Y-95334829D01*
X127726906Y-95271069D01*
X127717784Y-95252489D01*
X127626956Y-95161819D01*
X127511656Y-95105459D01*
X127469483Y-95099307D01*
X127439362Y-95094912D01*
X127439356Y-95094912D01*
X127436535Y-95094500D01*
X127176139Y-95094500D01*
X126913466Y-95094501D01*
X126837691Y-95105654D01*
X126832181Y-95108360D01*
X126832179Y-95108360D01*
X126765798Y-95140952D01*
X126722489Y-95162216D01*
X126631819Y-95253044D01*
X126575459Y-95368344D01*
X126572794Y-95386612D01*
X126565162Y-95438930D01*
X126564500Y-95443465D01*
X126564501Y-96016534D01*
X126575654Y-96092309D01*
X126578360Y-96097819D01*
X126578360Y-96097821D01*
X126622630Y-96187987D01*
X126628419Y-96241715D01*
X126607577Y-96278665D01*
X125964582Y-96921660D01*
X125930430Y-96941758D01*
X125887933Y-96953904D01*
X125799403Y-96979206D01*
X125744763Y-97013681D01*
X125682372Y-97053047D01*
X125675731Y-97057237D01*
X125672010Y-97061450D01*
X125672009Y-97061451D01*
X125596067Y-97147438D01*
X125578931Y-97166841D01*
X125556430Y-97214767D01*
X125523341Y-97285246D01*
X125516785Y-97299209D01*
X125504941Y-97375275D01*
X125496891Y-97426978D01*
X125494287Y-97443699D01*
X124886626Y-97443699D01*
X124898462Y-97232936D01*
X124898703Y-97230853D01*
X124898703Y-97228636D01*
X124898724Y-97228264D01*
X124899904Y-97221573D01*
X124896700Y-97203401D01*
X124895500Y-97189684D01*
X124895500Y-96739235D01*
X124913982Y-96688455D01*
X124942368Y-96667065D01*
X125065986Y-96612026D01*
X125065987Y-96612025D01*
X125069768Y-96610342D01*
X125149932Y-96552100D01*
X125221937Y-96499785D01*
X125221936Y-96499785D01*
X125225290Y-96497349D01*
X125292347Y-96422875D01*
X125351148Y-96357570D01*
X125351149Y-96357569D01*
X125353921Y-96354490D01*
X125368179Y-96329794D01*
X125447969Y-96191595D01*
X125447970Y-96191592D01*
X125450039Y-96188009D01*
X125509443Y-96005182D01*
X125509876Y-96001064D01*
X125524283Y-95863992D01*
X125524283Y-95863985D01*
X125524500Y-95861924D01*
X125524500Y-94258076D01*
X125521928Y-94233600D01*
X125509876Y-94118936D01*
X125509876Y-94118934D01*
X125509443Y-94114818D01*
X125450039Y-93931991D01*
X125441074Y-93916462D01*
X125409586Y-93861924D01*
X127395500Y-93861924D01*
X127395717Y-93863985D01*
X127395717Y-93863992D01*
X127410124Y-94001064D01*
X127410557Y-94005182D01*
X127469961Y-94188009D01*
X127472030Y-94191592D01*
X127472031Y-94191595D01*
X127552527Y-94331018D01*
X127566079Y-94354490D01*
X127568851Y-94357569D01*
X127568852Y-94357570D01*
X127594861Y-94386456D01*
X127694710Y-94497349D01*
X127850231Y-94610342D01*
X127854020Y-94612029D01*
X127977632Y-94667065D01*
X128016505Y-94704604D01*
X128024500Y-94739235D01*
X128024500Y-95228526D01*
X128024153Y-95233255D01*
X128022671Y-95237571D01*
X128024055Y-95274444D01*
X128024444Y-95284798D01*
X128024500Y-95287762D01*
X128024500Y-95306552D01*
X128025166Y-95310129D01*
X128025355Y-95312172D01*
X128025633Y-95316469D01*
X128026186Y-95331189D01*
X128026661Y-95343853D01*
X128031640Y-95355442D01*
X128036717Y-95372155D01*
X128037691Y-95377384D01*
X128037692Y-95377388D01*
X128039028Y-95384559D01*
X128042855Y-95390767D01*
X128052888Y-95407045D01*
X128058220Y-95417310D01*
X128068645Y-95441574D01*
X128072457Y-95446215D01*
X128077848Y-95451606D01*
X128089237Y-95466014D01*
X128091009Y-95468889D01*
X128091011Y-95468891D01*
X128094837Y-95475098D01*
X128095261Y-95475421D01*
X128114500Y-95525279D01*
X128114501Y-95772286D01*
X128114501Y-96016534D01*
X128125654Y-96092309D01*
X128128360Y-96097819D01*
X128128360Y-96097821D01*
X128148569Y-96138981D01*
X128182216Y-96207511D01*
X128273044Y-96298181D01*
X128388344Y-96354541D01*
X128430517Y-96360693D01*
X128460638Y-96365088D01*
X128460644Y-96365088D01*
X128463465Y-96365500D01*
X128723861Y-96365500D01*
X128986534Y-96365499D01*
X129062309Y-96354346D01*
X129067819Y-96351640D01*
X129067821Y-96351640D01*
X129171649Y-96300662D01*
X129171648Y-96300662D01*
X129177511Y-96297784D01*
X129268181Y-96206956D01*
X129324541Y-96091656D01*
X129335500Y-96016535D01*
X129335499Y-95443466D01*
X129324346Y-95367691D01*
X129308212Y-95334829D01*
X129276906Y-95271069D01*
X129267784Y-95252489D01*
X129176956Y-95161819D01*
X129061656Y-95105459D01*
X129019483Y-95099307D01*
X128989362Y-95094912D01*
X128989356Y-95094912D01*
X128986535Y-95094500D01*
X128972878Y-95094500D01*
X128674499Y-95094501D01*
X128623720Y-95076019D01*
X128596700Y-95029219D01*
X128595500Y-95015501D01*
X128595500Y-94739235D01*
X128613982Y-94688455D01*
X128642368Y-94667065D01*
X128765986Y-94612026D01*
X128765987Y-94612025D01*
X128769768Y-94610342D01*
X128779201Y-94603489D01*
X128921937Y-94499785D01*
X128921936Y-94499785D01*
X128925290Y-94497349D01*
X129025139Y-94386456D01*
X129051148Y-94357570D01*
X129051149Y-94357569D01*
X129053921Y-94354490D01*
X129067473Y-94331018D01*
X129147969Y-94191595D01*
X129147970Y-94191592D01*
X129150039Y-94188009D01*
X129209443Y-94005182D01*
X129209876Y-94001064D01*
X129224283Y-93863992D01*
X129224283Y-93863985D01*
X129224500Y-93861924D01*
X129224500Y-92258076D01*
X129223791Y-92251323D01*
X129209876Y-92118936D01*
X129209876Y-92118934D01*
X129209443Y-92114818D01*
X129150039Y-91931991D01*
X129138649Y-91912262D01*
X129055992Y-91769097D01*
X129053921Y-91765510D01*
X129034906Y-91744391D01*
X128949788Y-91649859D01*
X128925290Y-91622651D01*
X128769769Y-91509658D01*
X128757800Y-91504329D01*
X128597936Y-91433152D01*
X128597933Y-91433151D01*
X128594153Y-91431468D01*
X128590107Y-91430608D01*
X128590104Y-91430607D01*
X128410162Y-91392359D01*
X128410157Y-91392358D01*
X128406118Y-91391500D01*
X128213882Y-91391500D01*
X128209843Y-91392358D01*
X128209838Y-91392359D01*
X128029892Y-91430608D01*
X128029890Y-91430609D01*
X128025847Y-91431468D01*
X128022070Y-91433150D01*
X128022069Y-91433150D01*
X127854011Y-91507975D01*
X127854008Y-91507977D01*
X127850232Y-91509658D01*
X127694710Y-91622651D01*
X127670212Y-91649859D01*
X127585095Y-91744391D01*
X127566079Y-91765510D01*
X127564008Y-91769097D01*
X127481352Y-91912262D01*
X127469961Y-91931991D01*
X127410557Y-92114818D01*
X127410124Y-92118934D01*
X127410124Y-92118936D01*
X127396210Y-92251323D01*
X127395500Y-92258076D01*
X127395500Y-93861924D01*
X125409586Y-93861924D01*
X125355992Y-93769097D01*
X125353921Y-93765510D01*
X125341640Y-93751870D01*
X125228064Y-93625732D01*
X125225290Y-93622651D01*
X125069769Y-93509658D01*
X124925099Y-93445246D01*
X124897936Y-93433152D01*
X124897933Y-93433151D01*
X124894153Y-93431468D01*
X124890107Y-93430608D01*
X124890104Y-93430607D01*
X124710162Y-93392359D01*
X124710157Y-93392358D01*
X124706118Y-93391500D01*
X124513882Y-93391500D01*
X124509843Y-93392358D01*
X124509838Y-93392359D01*
X124329892Y-93430608D01*
X124329890Y-93430609D01*
X124325847Y-93431468D01*
X124322070Y-93433150D01*
X124322069Y-93433150D01*
X124154011Y-93507975D01*
X124154008Y-93507977D01*
X124150232Y-93509658D01*
X124146884Y-93512090D01*
X124146883Y-93512091D01*
X124046902Y-93584731D01*
X123994710Y-93622651D01*
X123991936Y-93625732D01*
X123878361Y-93751870D01*
X123866079Y-93765510D01*
X123865953Y-93765396D01*
X123822612Y-93794630D01*
X123768869Y-93788982D01*
X123731330Y-93750109D01*
X123724500Y-93717977D01*
X123724500Y-92258076D01*
X123723791Y-92251323D01*
X123709876Y-92118936D01*
X123709876Y-92118934D01*
X123709443Y-92114818D01*
X123650039Y-91931991D01*
X123638649Y-91912262D01*
X123555992Y-91769097D01*
X123553921Y-91765510D01*
X123534906Y-91744391D01*
X123449788Y-91649859D01*
X123425290Y-91622651D01*
X123269769Y-91509658D01*
X123257800Y-91504329D01*
X123097936Y-91433152D01*
X123097933Y-91433151D01*
X123094153Y-91431468D01*
X123090107Y-91430608D01*
X123090104Y-91430607D01*
X122910162Y-91392359D01*
X122910157Y-91392358D01*
X122906118Y-91391500D01*
X122713882Y-91391500D01*
X122709843Y-91392358D01*
X122709838Y-91392359D01*
X122529892Y-91430608D01*
X122529890Y-91430609D01*
X122525847Y-91431468D01*
X122522070Y-91433150D01*
X122522069Y-91433150D01*
X122354011Y-91507975D01*
X122354008Y-91507977D01*
X122350232Y-91509658D01*
X122194710Y-91622651D01*
X122170212Y-91649859D01*
X122085095Y-91744391D01*
X122066079Y-91765510D01*
X122064008Y-91769097D01*
X121981352Y-91912262D01*
X121969961Y-91931991D01*
X121910557Y-92114818D01*
X121910124Y-92118934D01*
X121910124Y-92118936D01*
X121896210Y-92251323D01*
X121895500Y-92258076D01*
X121895500Y-93861924D01*
X119909586Y-93861924D01*
X119855992Y-93769097D01*
X119853921Y-93765510D01*
X119841640Y-93751870D01*
X119728064Y-93625732D01*
X119725290Y-93622651D01*
X119569769Y-93509658D01*
X119425099Y-93445246D01*
X119397936Y-93433152D01*
X119397933Y-93433151D01*
X119394153Y-93431468D01*
X119390107Y-93430608D01*
X119390104Y-93430607D01*
X119210162Y-93392359D01*
X119210157Y-93392358D01*
X119206118Y-93391500D01*
X119013882Y-93391500D01*
X119009843Y-93392358D01*
X119009838Y-93392359D01*
X118829892Y-93430608D01*
X118829890Y-93430609D01*
X118825847Y-93431468D01*
X118822070Y-93433150D01*
X118822069Y-93433150D01*
X118654011Y-93507975D01*
X118654008Y-93507977D01*
X118650232Y-93509658D01*
X118646884Y-93512090D01*
X118646883Y-93512091D01*
X118546902Y-93584731D01*
X118494710Y-93622651D01*
X118491936Y-93625732D01*
X118378361Y-93751870D01*
X118366079Y-93765510D01*
X118364008Y-93769097D01*
X118278927Y-93916462D01*
X118269961Y-93931991D01*
X118210557Y-94114818D01*
X118210124Y-94118934D01*
X118210124Y-94118936D01*
X118198073Y-94233600D01*
X118195500Y-94258076D01*
X118195500Y-95861924D01*
X115660000Y-95861924D01*
X115660000Y-94296161D01*
X115678482Y-94245381D01*
X115725282Y-94218361D01*
X115778500Y-94227745D01*
X115808095Y-94257861D01*
X115879376Y-94386456D01*
X115883917Y-94392989D01*
X116011443Y-94541775D01*
X116017216Y-94547273D01*
X116172053Y-94667377D01*
X116178811Y-94671600D01*
X116354635Y-94758116D01*
X116362104Y-94760893D01*
X116446521Y-94782882D01*
X116457825Y-94781813D01*
X116459516Y-94780098D01*
X116460000Y-94777880D01*
X116460000Y-94777690D01*
X116960000Y-94777690D01*
X116963884Y-94788361D01*
X116966043Y-94789607D01*
X117148635Y-94722426D01*
X117155802Y-94718931D01*
X117322343Y-94615671D01*
X117328651Y-94610813D01*
X117471039Y-94476164D01*
X117476238Y-94470141D01*
X117588639Y-94309615D01*
X117592522Y-94302668D01*
X117670349Y-94122818D01*
X117672759Y-94115222D01*
X117713029Y-93922459D01*
X117713809Y-93916462D01*
X117713946Y-93913832D01*
X117714000Y-93911780D01*
X117714000Y-93323930D01*
X117710116Y-93313259D01*
X117704472Y-93310000D01*
X116973930Y-93310000D01*
X116963259Y-93313884D01*
X116960000Y-93319528D01*
X116960000Y-94777690D01*
X116460000Y-94777690D01*
X116460000Y-92796070D01*
X116960000Y-92796070D01*
X116963884Y-92806741D01*
X116969528Y-92810000D01*
X117700070Y-92810000D01*
X117710741Y-92806116D01*
X117714000Y-92800472D01*
X117714000Y-92257020D01*
X117713799Y-92253040D01*
X117698970Y-92107055D01*
X117697370Y-92099259D01*
X117638768Y-91912262D01*
X117635630Y-91904941D01*
X117540624Y-91733544D01*
X117536083Y-91727011D01*
X117408557Y-91578225D01*
X117402784Y-91572727D01*
X117247947Y-91452623D01*
X117241189Y-91448400D01*
X117065365Y-91361884D01*
X117057896Y-91359107D01*
X116973479Y-91337118D01*
X116962175Y-91338187D01*
X116960484Y-91339902D01*
X116960000Y-91342120D01*
X116960000Y-92796070D01*
X116460000Y-92796070D01*
X116460000Y-91342310D01*
X116456116Y-91331639D01*
X116453957Y-91330393D01*
X116271365Y-91397574D01*
X116264198Y-91401069D01*
X116097657Y-91504329D01*
X116091349Y-91509187D01*
X115948961Y-91643836D01*
X115943762Y-91649859D01*
X115831361Y-91810385D01*
X115827476Y-91817336D01*
X115811503Y-91854248D01*
X115774373Y-91893512D01*
X115720692Y-91899723D01*
X115675578Y-91869976D01*
X115660000Y-91822874D01*
X115660000Y-89319000D01*
X115678482Y-89268220D01*
X115725282Y-89241200D01*
X115739000Y-89240000D01*
X144521000Y-89240000D01*
X144571780Y-89258482D01*
G37*
G04 #@! TD.AperFunction*
M02*
