G04 #@! TF.GenerationSoftware,KiCad,Pcbnew,(6.0.0-0)*
G04 #@! TF.CreationDate,2021-12-28T23:34:07-05:00*
G04 #@! TF.ProjectId,9DIN2VGA,3944494e-3256-4474-912e-6b696361645f,1*
G04 #@! TF.SameCoordinates,Original*
G04 #@! TF.FileFunction,Legend,Bot*
G04 #@! TF.FilePolarity,Positive*
%FSLAX46Y46*%
G04 Gerber Fmt 4.6, Leading zero omitted, Abs format (unit mm)*
G04 Created by KiCad (PCBNEW (6.0.0-0)) date 2021-12-28 23:34:07*
%MOMM*%
%LPD*%
G01*
G04 APERTURE LIST*
G04 Aperture macros list*
%AMRoundRect*
0 Rectangle with rounded corners*
0 $1 Rounding radius*
0 $2 $3 $4 $5 $6 $7 $8 $9 X,Y pos of 4 corners*
0 Add a 4 corners polygon primitive as box body*
4,1,4,$2,$3,$4,$5,$6,$7,$8,$9,$2,$3,0*
0 Add four circle primitives for the rounded corners*
1,1,$1+$1,$2,$3*
1,1,$1+$1,$4,$5*
1,1,$1+$1,$6,$7*
1,1,$1+$1,$8,$9*
0 Add four rect primitives between the rounded corners*
20,1,$1+$1,$2,$3,$4,$5,0*
20,1,$1+$1,$4,$5,$6,$7,0*
20,1,$1+$1,$6,$7,$8,$9,0*
20,1,$1+$1,$8,$9,$2,$3,0*%
G04 Aperture macros list end*
%ADD10C,0.200000*%
%ADD11C,0.127000*%
%ADD12C,0.150000*%
%ADD13C,0.187500*%
%ADD14C,0.350000*%
%ADD15C,0.120000*%
%ADD16C,0.100000*%
%ADD17RoundRect,0.425800X-0.375000X-1.125000X0.375000X-1.125000X0.375000X1.125000X-0.375000X1.125000X0*%
%ADD18RoundRect,0.425800X1.125000X-0.375000X1.125000X0.375000X-1.125000X0.375000X-1.125000X-0.375000X0*%
%ADD19C,2.101600*%
%ADD20RoundRect,0.550800X-0.500000X-0.500000X0.500000X-0.500000X0.500000X0.500000X-0.500000X0.500000X0*%
%ADD21O,1.609600X3.117600*%
%ADD22RoundRect,0.050800X-0.850000X-0.850000X0.850000X-0.850000X0.850000X0.850000X-0.850000X0.850000X0*%
%ADD23C,1.801600*%
%ADD24C,4.167600*%
%ADD25RoundRect,0.250800X0.200000X0.275000X-0.200000X0.275000X-0.200000X-0.275000X0.200000X-0.275000X0*%
%ADD26RoundRect,0.300799X0.650001X-0.325001X0.650001X0.325001X-0.650001X0.325001X-0.650001X-0.325001X0*%
G04 APERTURE END LIST*
D10*
X130471904Y-104832380D02*
X130138571Y-105832380D01*
X129805238Y-104832380D01*
X128948095Y-104880000D02*
X129043333Y-104832380D01*
X129186190Y-104832380D01*
X129329047Y-104880000D01*
X129424285Y-104975238D01*
X129471904Y-105070476D01*
X129519523Y-105260952D01*
X129519523Y-105403809D01*
X129471904Y-105594285D01*
X129424285Y-105689523D01*
X129329047Y-105784761D01*
X129186190Y-105832380D01*
X129090952Y-105832380D01*
X128948095Y-105784761D01*
X128900476Y-105737142D01*
X128900476Y-105403809D01*
X129090952Y-105403809D01*
X128519523Y-105546666D02*
X128043333Y-105546666D01*
X128614761Y-105832380D02*
X128281428Y-104832380D01*
X127948095Y-105832380D01*
D11*
X142335285Y-90315285D02*
X142299000Y-90351571D01*
X142262714Y-90424142D01*
X142262714Y-90605571D01*
X142299000Y-90678142D01*
X142335285Y-90714428D01*
X142407857Y-90750714D01*
X142480428Y-90750714D01*
X142589285Y-90714428D01*
X143024714Y-90279000D01*
X143024714Y-90750714D01*
X142335285Y-91041000D02*
X142299000Y-91077285D01*
X142262714Y-91149857D01*
X142262714Y-91331285D01*
X142299000Y-91403857D01*
X142335285Y-91440142D01*
X142407857Y-91476428D01*
X142480428Y-91476428D01*
X142589285Y-91440142D01*
X143024714Y-91004714D01*
X143024714Y-91476428D01*
X142262714Y-91948142D02*
X142262714Y-92020714D01*
X142299000Y-92093285D01*
X142335285Y-92129571D01*
X142407857Y-92165857D01*
X142553000Y-92202142D01*
X142734428Y-92202142D01*
X142879571Y-92165857D01*
X142952142Y-92129571D01*
X142988428Y-92093285D01*
X143024714Y-92020714D01*
X143024714Y-91948142D01*
X142988428Y-91875571D01*
X142952142Y-91839285D01*
X142879571Y-91803000D01*
X142734428Y-91766714D01*
X142553000Y-91766714D01*
X142407857Y-91803000D01*
X142335285Y-91839285D01*
X142299000Y-91875571D01*
X142262714Y-91948142D01*
X142516714Y-92855285D02*
X143024714Y-92855285D01*
X142516714Y-92528714D02*
X142915857Y-92528714D01*
X142988428Y-92565000D01*
X143024714Y-92637571D01*
X143024714Y-92746428D01*
X142988428Y-92819000D01*
X142952142Y-92855285D01*
X142625571Y-93472142D02*
X142625571Y-93218142D01*
X143024714Y-93218142D02*
X142262714Y-93218142D01*
X142262714Y-93581000D01*
D10*
X153339523Y-97228571D02*
X153196666Y-97276190D01*
X153149047Y-97323809D01*
X153101428Y-97419047D01*
X153101428Y-97561904D01*
X153149047Y-97657142D01*
X153196666Y-97704761D01*
X153291904Y-97752380D01*
X153672857Y-97752380D01*
X153672857Y-96752380D01*
X153339523Y-96752380D01*
X153244285Y-96800000D01*
X153196666Y-96847619D01*
X153149047Y-96942857D01*
X153149047Y-97038095D01*
X153196666Y-97133333D01*
X153244285Y-97180952D01*
X153339523Y-97228571D01*
X153672857Y-97228571D01*
X152482380Y-96752380D02*
X152291904Y-96752380D01*
X152196666Y-96800000D01*
X152101428Y-96895238D01*
X152053809Y-97085714D01*
X152053809Y-97419047D01*
X152101428Y-97609523D01*
X152196666Y-97704761D01*
X152291904Y-97752380D01*
X152482380Y-97752380D01*
X152577619Y-97704761D01*
X152672857Y-97609523D01*
X152720476Y-97419047D01*
X152720476Y-97085714D01*
X152672857Y-96895238D01*
X152577619Y-96800000D01*
X152482380Y-96752380D01*
X151768095Y-96752380D02*
X151196666Y-96752380D01*
X151482380Y-97752380D02*
X151482380Y-96752380D01*
X151006190Y-96752380D02*
X150434761Y-96752380D01*
X150720476Y-97752380D02*
X150720476Y-96752380D01*
X149910952Y-96752380D02*
X149720476Y-96752380D01*
X149625238Y-96800000D01*
X149530000Y-96895238D01*
X149482380Y-97085714D01*
X149482380Y-97419047D01*
X149530000Y-97609523D01*
X149625238Y-97704761D01*
X149720476Y-97752380D01*
X149910952Y-97752380D01*
X150006190Y-97704761D01*
X150101428Y-97609523D01*
X150149047Y-97419047D01*
X150149047Y-97085714D01*
X150101428Y-96895238D01*
X150006190Y-96800000D01*
X149910952Y-96752380D01*
X149053809Y-97752380D02*
X149053809Y-96752380D01*
X148720476Y-97466666D01*
X148387142Y-96752380D01*
X148387142Y-97752380D01*
D11*
X133329285Y-91475000D02*
X133329285Y-91975000D01*
X134079285Y-91653571D01*
X133329285Y-92617857D02*
X133329285Y-92260714D01*
X133686428Y-92225000D01*
X133650714Y-92260714D01*
X133615000Y-92332142D01*
X133615000Y-92510714D01*
X133650714Y-92582142D01*
X133686428Y-92617857D01*
X133757857Y-92653571D01*
X133936428Y-92653571D01*
X134007857Y-92617857D01*
X134043571Y-92582142D01*
X134079285Y-92510714D01*
X134079285Y-92332142D01*
X134043571Y-92260714D01*
X134007857Y-92225000D01*
X133329285Y-93689285D02*
X133329285Y-93832142D01*
X133365000Y-93903571D01*
X133436428Y-93975000D01*
X133579285Y-94010714D01*
X133829285Y-94010714D01*
X133972142Y-93975000D01*
X134043571Y-93903571D01*
X134079285Y-93832142D01*
X134079285Y-93689285D01*
X134043571Y-93617857D01*
X133972142Y-93546428D01*
X133829285Y-93510714D01*
X133579285Y-93510714D01*
X133436428Y-93546428D01*
X133365000Y-93617857D01*
X133329285Y-93689285D01*
X134079285Y-94332142D02*
X133329285Y-94332142D01*
X134079285Y-94653571D02*
X133686428Y-94653571D01*
X133615000Y-94617857D01*
X133579285Y-94546428D01*
X133579285Y-94439285D01*
X133615000Y-94367857D01*
X133650714Y-94332142D01*
X134079285Y-95010714D02*
X133579285Y-95010714D01*
X133650714Y-95010714D02*
X133615000Y-95046428D01*
X133579285Y-95117857D01*
X133579285Y-95225000D01*
X133615000Y-95296428D01*
X133686428Y-95332142D01*
X134079285Y-95332142D01*
X133686428Y-95332142D02*
X133615000Y-95367857D01*
X133579285Y-95439285D01*
X133579285Y-95546428D01*
X133615000Y-95617857D01*
X133686428Y-95653571D01*
X134079285Y-95653571D01*
D10*
X132808095Y-105822380D02*
X132808095Y-104822380D01*
X132427142Y-104822380D01*
X132331904Y-104870000D01*
X132284285Y-104917619D01*
X132236666Y-105012857D01*
X132236666Y-105155714D01*
X132284285Y-105250952D01*
X132331904Y-105298571D01*
X132427142Y-105346190D01*
X132808095Y-105346190D01*
X131284285Y-105822380D02*
X131855714Y-105822380D01*
X131570000Y-105822380D02*
X131570000Y-104822380D01*
X131665238Y-104965238D01*
X131760476Y-105060476D01*
X131855714Y-105108095D01*
D12*
X135522380Y-90693333D02*
X135046190Y-90360000D01*
X135522380Y-90121904D02*
X134522380Y-90121904D01*
X134522380Y-90502857D01*
X134570000Y-90598095D01*
X134617619Y-90645714D01*
X134712857Y-90693333D01*
X134855714Y-90693333D01*
X134950952Y-90645714D01*
X134998571Y-90598095D01*
X135046190Y-90502857D01*
X135046190Y-90121904D01*
X135522380Y-91645714D02*
X135522380Y-91074285D01*
X135522380Y-91360000D02*
X134522380Y-91360000D01*
X134665238Y-91264761D01*
X134760476Y-91169523D01*
X134808095Y-91074285D01*
X135492380Y-93443333D02*
X135016190Y-93110000D01*
X135492380Y-92871904D02*
X134492380Y-92871904D01*
X134492380Y-93252857D01*
X134540000Y-93348095D01*
X134587619Y-93395714D01*
X134682857Y-93443333D01*
X134825714Y-93443333D01*
X134920952Y-93395714D01*
X134968571Y-93348095D01*
X135016190Y-93252857D01*
X135016190Y-92871904D01*
X134587619Y-93824285D02*
X134540000Y-93871904D01*
X134492380Y-93967142D01*
X134492380Y-94205238D01*
X134540000Y-94300476D01*
X134587619Y-94348095D01*
X134682857Y-94395714D01*
X134778095Y-94395714D01*
X134920952Y-94348095D01*
X135492380Y-93776666D01*
X135492380Y-94395714D01*
X135512380Y-96153333D02*
X135036190Y-95820000D01*
X135512380Y-95581904D02*
X134512380Y-95581904D01*
X134512380Y-95962857D01*
X134560000Y-96058095D01*
X134607619Y-96105714D01*
X134702857Y-96153333D01*
X134845714Y-96153333D01*
X134940952Y-96105714D01*
X134988571Y-96058095D01*
X135036190Y-95962857D01*
X135036190Y-95581904D01*
X134512380Y-96486666D02*
X134512380Y-97105714D01*
X134893333Y-96772380D01*
X134893333Y-96915238D01*
X134940952Y-97010476D01*
X134988571Y-97058095D01*
X135083809Y-97105714D01*
X135321904Y-97105714D01*
X135417142Y-97058095D01*
X135464761Y-97010476D01*
X135512380Y-96915238D01*
X135512380Y-96629523D01*
X135464761Y-96534285D01*
X135417142Y-96486666D01*
D13*
X141215000Y-92297857D02*
X141250714Y-92333571D01*
X141357857Y-92369285D01*
X141429285Y-92369285D01*
X141536428Y-92333571D01*
X141607857Y-92262142D01*
X141643571Y-92190714D01*
X141679285Y-92047857D01*
X141679285Y-91940714D01*
X141643571Y-91797857D01*
X141607857Y-91726428D01*
X141536428Y-91655000D01*
X141429285Y-91619285D01*
X141357857Y-91619285D01*
X141250714Y-91655000D01*
X141215000Y-91690714D01*
X140572142Y-91869285D02*
X140572142Y-92369285D01*
X140750714Y-91583571D02*
X140929285Y-92119285D01*
X140465000Y-92119285D01*
D14*
X116290000Y-91130000D02*
G75*
G03*
X116290000Y-91130000I-150000J0D01*
G01*
D15*
X137632258Y-90337500D02*
X137157742Y-90337500D01*
X137632258Y-91382500D02*
X137157742Y-91382500D01*
X137642258Y-94112500D02*
X137167742Y-94112500D01*
X137642258Y-93067500D02*
X137167742Y-93067500D01*
X137632258Y-96852500D02*
X137157742Y-96852500D01*
X137632258Y-95807500D02*
X137157742Y-95807500D01*
X142020000Y-92746252D02*
X142020000Y-91323748D01*
X140200000Y-92746252D02*
X140200000Y-91323748D01*
%LPC*%
D16*
X145920000Y-95050000D02*
X144120000Y-95050000D01*
X144120000Y-95050000D02*
X144120000Y-88720000D01*
X144120000Y-88720000D02*
X145920000Y-88720000D01*
X145920000Y-88720000D02*
X145920000Y-95050000D01*
G36*
X145920000Y-95050000D02*
G01*
X144120000Y-95050000D01*
X144120000Y-88720000D01*
X145920000Y-88720000D01*
X145920000Y-95050000D01*
G37*
X145920000Y-95050000D02*
X144120000Y-95050000D01*
X144120000Y-88720000D01*
X145920000Y-88720000D01*
X145920000Y-95050000D01*
D17*
X152581804Y-100713357D03*
X150031804Y-100713357D03*
X147499247Y-100713540D03*
D18*
X146312804Y-96813357D03*
D19*
X154141804Y-94443357D03*
D20*
X153641804Y-94443357D03*
D21*
X116710000Y-93060000D03*
X119110000Y-95060000D03*
X124610000Y-95060000D03*
X128310000Y-93060000D03*
X122810000Y-93060000D03*
D22*
X126315000Y-99530000D03*
D23*
X128605000Y-99530000D03*
X130895000Y-99530000D03*
X133185000Y-99530000D03*
X135475000Y-99530000D03*
X125170000Y-101510000D03*
X127460000Y-101510000D03*
X129750000Y-101510000D03*
X132040000Y-101510000D03*
X134330000Y-101510000D03*
X126315000Y-103490000D03*
X128605000Y-103490000D03*
X130895000Y-103490000D03*
X133185000Y-103490000D03*
X135475000Y-103490000D03*
D24*
X143390000Y-101510000D03*
X118400000Y-101510000D03*
D25*
X138220000Y-90860000D03*
X136570000Y-90860000D03*
X138230000Y-93590000D03*
X136580000Y-93590000D03*
X138220000Y-96330000D03*
X136570000Y-96330000D03*
D26*
X141110000Y-93510000D03*
X141110000Y-90560000D03*
M02*
