G04 #@! TF.GenerationSoftware,KiCad,Pcbnew,(6.0.0-0)*
G04 #@! TF.CreationDate,2021-12-28T23:34:08-05:00*
G04 #@! TF.ProjectId,9DIN2VGA,3944494e-3256-4474-912e-6b696361645f,1*
G04 #@! TF.SameCoordinates,Original*
G04 #@! TF.FileFunction,Soldermask,Bot*
G04 #@! TF.FilePolarity,Negative*
%FSLAX46Y46*%
G04 Gerber Fmt 4.6, Leading zero omitted, Abs format (unit mm)*
G04 Created by KiCad (PCBNEW (6.0.0-0)) date 2021-12-28 23:34:08*
%MOMM*%
%LPD*%
G01*
G04 APERTURE LIST*
G04 Aperture macros list*
%AMRoundRect*
0 Rectangle with rounded corners*
0 $1 Rounding radius*
0 $2 $3 $4 $5 $6 $7 $8 $9 X,Y pos of 4 corners*
0 Add a 4 corners polygon primitive as box body*
4,1,4,$2,$3,$4,$5,$6,$7,$8,$9,$2,$3,0*
0 Add four circle primitives for the rounded corners*
1,1,$1+$1,$2,$3*
1,1,$1+$1,$4,$5*
1,1,$1+$1,$6,$7*
1,1,$1+$1,$8,$9*
0 Add four rect primitives between the rounded corners*
20,1,$1+$1,$2,$3,$4,$5,0*
20,1,$1+$1,$4,$5,$6,$7,0*
20,1,$1+$1,$6,$7,$8,$9,0*
20,1,$1+$1,$8,$9,$2,$3,0*%
G04 Aperture macros list end*
%ADD10C,0.100000*%
%ADD11RoundRect,0.425800X-0.375000X-1.125000X0.375000X-1.125000X0.375000X1.125000X-0.375000X1.125000X0*%
%ADD12RoundRect,0.425800X1.125000X-0.375000X1.125000X0.375000X-1.125000X0.375000X-1.125000X-0.375000X0*%
%ADD13C,2.101600*%
%ADD14RoundRect,0.550800X-0.500000X-0.500000X0.500000X-0.500000X0.500000X0.500000X-0.500000X0.500000X0*%
%ADD15O,1.609600X3.117600*%
%ADD16RoundRect,0.050800X-0.850000X-0.850000X0.850000X-0.850000X0.850000X0.850000X-0.850000X0.850000X0*%
%ADD17C,1.801600*%
%ADD18C,4.167600*%
%ADD19RoundRect,0.250800X0.200000X0.275000X-0.200000X0.275000X-0.200000X-0.275000X0.200000X-0.275000X0*%
%ADD20RoundRect,0.300799X0.650001X-0.325001X0.650001X0.325001X-0.650001X0.325001X-0.650001X-0.325001X0*%
G04 APERTURE END LIST*
D10*
X145920000Y-95050000D02*
X144120000Y-95050000D01*
X144120000Y-95050000D02*
X144120000Y-88720000D01*
X144120000Y-88720000D02*
X145920000Y-88720000D01*
X145920000Y-88720000D02*
X145920000Y-95050000D01*
G36*
X145920000Y-95050000D02*
G01*
X144120000Y-95050000D01*
X144120000Y-88720000D01*
X145920000Y-88720000D01*
X145920000Y-95050000D01*
G37*
X145920000Y-95050000D02*
X144120000Y-95050000D01*
X144120000Y-88720000D01*
X145920000Y-88720000D01*
X145920000Y-95050000D01*
D11*
X152581804Y-100713357D03*
X150031804Y-100713357D03*
X147499247Y-100713540D03*
D12*
X146312804Y-96813357D03*
D13*
X154141804Y-94443357D03*
D14*
X153641804Y-94443357D03*
D15*
X116710000Y-93060000D03*
X119110000Y-95060000D03*
X124610000Y-95060000D03*
X128310000Y-93060000D03*
X122810000Y-93060000D03*
D16*
X126315000Y-99530000D03*
D17*
X128605000Y-99530000D03*
X130895000Y-99530000D03*
X133185000Y-99530000D03*
X135475000Y-99530000D03*
X125170000Y-101510000D03*
X127460000Y-101510000D03*
X129750000Y-101510000D03*
X132040000Y-101510000D03*
X134330000Y-101510000D03*
X126315000Y-103490000D03*
X128605000Y-103490000D03*
X130895000Y-103490000D03*
X133185000Y-103490000D03*
X135475000Y-103490000D03*
D18*
X143390000Y-101510000D03*
X118400000Y-101510000D03*
D19*
X138220000Y-90860000D03*
X136570000Y-90860000D03*
X138230000Y-93590000D03*
X136580000Y-93590000D03*
X138220000Y-96330000D03*
X136570000Y-96330000D03*
D20*
X141110000Y-93510000D03*
X141110000Y-90560000D03*
M02*
