G04 #@! TF.GenerationSoftware,KiCad,Pcbnew,(5.1.10-1-10_14)*
G04 #@! TF.CreationDate,2021-12-27T15:36:47-05:00*
G04 #@! TF.ProjectId,9DIN2VGA,3944494e-3256-4474-912e-6b696361645f,1*
G04 #@! TF.SameCoordinates,Original*
G04 #@! TF.FileFunction,Copper,L2,Bot*
G04 #@! TF.FilePolarity,Positive*
%FSLAX46Y46*%
G04 Gerber Fmt 4.6, Leading zero omitted, Abs format (unit mm)*
G04 Created by KiCad (PCBNEW (5.1.10-1-10_14)) date 2021-12-27 15:36:47*
%MOMM*%
%LPD*%
G01*
G04 APERTURE LIST*
G04 #@! TA.AperFunction,ComponentPad*
%ADD10O,1.508000X3.016000*%
G04 #@! TD*
G04 #@! TA.AperFunction,ComponentPad*
%ADD11C,2.000000*%
G04 #@! TD*
G04 #@! TA.AperFunction,ComponentPad*
%ADD12C,1.700000*%
G04 #@! TD*
G04 #@! TA.AperFunction,ComponentPad*
%ADD13C,4.066000*%
G04 #@! TD*
G04 #@! TA.AperFunction,ComponentPad*
%ADD14R,1.700000X1.700000*%
G04 #@! TD*
G04 #@! TA.AperFunction,ViaPad*
%ADD15C,0.700000*%
G04 #@! TD*
G04 #@! TA.AperFunction,Conductor*
%ADD16C,0.250000*%
G04 #@! TD*
G04 #@! TA.AperFunction,Conductor*
%ADD17C,0.160000*%
G04 #@! TD*
G04 #@! TA.AperFunction,Conductor*
%ADD18C,0.152400*%
G04 #@! TD*
G04 #@! TA.AperFunction,Conductor*
%ADD19C,0.025400*%
G04 #@! TD*
G04 APERTURE END LIST*
D10*
X116710000Y-93060000D03*
X119110000Y-95060000D03*
X122810000Y-93060000D03*
X124610000Y-95060000D03*
X128310000Y-93060000D03*
G04 #@! TA.AperFunction,ComponentPad*
G36*
G01*
X152641804Y-94943357D02*
X152641804Y-93943357D01*
G75*
G02*
X153141804Y-93443357I500000J0D01*
G01*
X154141804Y-93443357D01*
G75*
G02*
X154641804Y-93943357I0J-500000D01*
G01*
X154641804Y-94943357D01*
G75*
G02*
X154141804Y-95443357I-500000J0D01*
G01*
X153141804Y-95443357D01*
G75*
G02*
X152641804Y-94943357I0J500000D01*
G01*
G37*
G04 #@! TD.AperFunction*
G04 #@! TA.AperFunction,SMDPad,CuDef*
G36*
G01*
X146749247Y-101838540D02*
X146749247Y-99588540D01*
G75*
G02*
X147124247Y-99213540I375000J0D01*
G01*
X147874247Y-99213540D01*
G75*
G02*
X148249247Y-99588540I0J-375000D01*
G01*
X148249247Y-101838540D01*
G75*
G02*
X147874247Y-102213540I-375000J0D01*
G01*
X147124247Y-102213540D01*
G75*
G02*
X146749247Y-101838540I0J375000D01*
G01*
G37*
G04 #@! TD.AperFunction*
D11*
X154141804Y-94443357D03*
G04 #@! TA.AperFunction,SMDPad,CuDef*
G36*
G01*
X147437804Y-97563357D02*
X145187804Y-97563357D01*
G75*
G02*
X144812804Y-97188357I0J375000D01*
G01*
X144812804Y-96438357D01*
G75*
G02*
X145187804Y-96063357I375000J0D01*
G01*
X147437804Y-96063357D01*
G75*
G02*
X147812804Y-96438357I0J-375000D01*
G01*
X147812804Y-97188357D01*
G75*
G02*
X147437804Y-97563357I-375000J0D01*
G01*
G37*
G04 #@! TD.AperFunction*
G04 #@! TA.AperFunction,SMDPad,CuDef*
G36*
G01*
X149281804Y-101838357D02*
X149281804Y-99588357D01*
G75*
G02*
X149656804Y-99213357I375000J0D01*
G01*
X150406804Y-99213357D01*
G75*
G02*
X150781804Y-99588357I0J-375000D01*
G01*
X150781804Y-101838357D01*
G75*
G02*
X150406804Y-102213357I-375000J0D01*
G01*
X149656804Y-102213357D01*
G75*
G02*
X149281804Y-101838357I0J375000D01*
G01*
G37*
G04 #@! TD.AperFunction*
G04 #@! TA.AperFunction,SMDPad,CuDef*
G36*
G01*
X151831804Y-101838357D02*
X151831804Y-99588357D01*
G75*
G02*
X152206804Y-99213357I375000J0D01*
G01*
X152956804Y-99213357D01*
G75*
G02*
X153331804Y-99588357I0J-375000D01*
G01*
X153331804Y-101838357D01*
G75*
G02*
X152956804Y-102213357I-375000J0D01*
G01*
X152206804Y-102213357D01*
G75*
G02*
X151831804Y-101838357I0J375000D01*
G01*
G37*
G04 #@! TD.AperFunction*
D12*
X135475000Y-103490000D03*
X133185000Y-103490000D03*
X130895000Y-103490000D03*
X128605000Y-103490000D03*
X126315000Y-103490000D03*
X134330000Y-101510000D03*
X132040000Y-101510000D03*
X129750000Y-101510000D03*
X127460000Y-101510000D03*
X125170000Y-101510000D03*
X135475000Y-99530000D03*
X133185000Y-99530000D03*
X130895000Y-99530000D03*
X128605000Y-99530000D03*
D13*
X143390000Y-101510000D03*
X118400000Y-101510000D03*
D14*
X126315000Y-99530000D03*
G04 #@! TA.AperFunction,SMDPad,CuDef*
G36*
G01*
X136970000Y-90585000D02*
X136970000Y-91135000D01*
G75*
G02*
X136770000Y-91335000I-200000J0D01*
G01*
X136370000Y-91335000D01*
G75*
G02*
X136170000Y-91135000I0J200000D01*
G01*
X136170000Y-90585000D01*
G75*
G02*
X136370000Y-90385000I200000J0D01*
G01*
X136770000Y-90385000D01*
G75*
G02*
X136970000Y-90585000I0J-200000D01*
G01*
G37*
G04 #@! TD.AperFunction*
G04 #@! TA.AperFunction,SMDPad,CuDef*
G36*
G01*
X138620000Y-90585000D02*
X138620000Y-91135000D01*
G75*
G02*
X138420000Y-91335000I-200000J0D01*
G01*
X138020000Y-91335000D01*
G75*
G02*
X137820000Y-91135000I0J200000D01*
G01*
X137820000Y-90585000D01*
G75*
G02*
X138020000Y-90385000I200000J0D01*
G01*
X138420000Y-90385000D01*
G75*
G02*
X138620000Y-90585000I0J-200000D01*
G01*
G37*
G04 #@! TD.AperFunction*
G04 #@! TA.AperFunction,SMDPad,CuDef*
G36*
G01*
X136980000Y-93315000D02*
X136980000Y-93865000D01*
G75*
G02*
X136780000Y-94065000I-200000J0D01*
G01*
X136380000Y-94065000D01*
G75*
G02*
X136180000Y-93865000I0J200000D01*
G01*
X136180000Y-93315000D01*
G75*
G02*
X136380000Y-93115000I200000J0D01*
G01*
X136780000Y-93115000D01*
G75*
G02*
X136980000Y-93315000I0J-200000D01*
G01*
G37*
G04 #@! TD.AperFunction*
G04 #@! TA.AperFunction,SMDPad,CuDef*
G36*
G01*
X138630000Y-93315000D02*
X138630000Y-93865000D01*
G75*
G02*
X138430000Y-94065000I-200000J0D01*
G01*
X138030000Y-94065000D01*
G75*
G02*
X137830000Y-93865000I0J200000D01*
G01*
X137830000Y-93315000D01*
G75*
G02*
X138030000Y-93115000I200000J0D01*
G01*
X138430000Y-93115000D01*
G75*
G02*
X138630000Y-93315000I0J-200000D01*
G01*
G37*
G04 #@! TD.AperFunction*
G04 #@! TA.AperFunction,SMDPad,CuDef*
G36*
G01*
X136970000Y-96055000D02*
X136970000Y-96605000D01*
G75*
G02*
X136770000Y-96805000I-200000J0D01*
G01*
X136370000Y-96805000D01*
G75*
G02*
X136170000Y-96605000I0J200000D01*
G01*
X136170000Y-96055000D01*
G75*
G02*
X136370000Y-95855000I200000J0D01*
G01*
X136770000Y-95855000D01*
G75*
G02*
X136970000Y-96055000I0J-200000D01*
G01*
G37*
G04 #@! TD.AperFunction*
G04 #@! TA.AperFunction,SMDPad,CuDef*
G36*
G01*
X138620000Y-96055000D02*
X138620000Y-96605000D01*
G75*
G02*
X138420000Y-96805000I-200000J0D01*
G01*
X138020000Y-96805000D01*
G75*
G02*
X137820000Y-96605000I0J200000D01*
G01*
X137820000Y-96055000D01*
G75*
G02*
X138020000Y-95855000I200000J0D01*
G01*
X138420000Y-95855000D01*
G75*
G02*
X138620000Y-96055000I0J-200000D01*
G01*
G37*
G04 #@! TD.AperFunction*
G04 #@! TA.AperFunction,SMDPad,CuDef*
G36*
G01*
X141760001Y-91135000D02*
X140459999Y-91135000D01*
G75*
G02*
X140210000Y-90885001I0J249999D01*
G01*
X140210000Y-90234999D01*
G75*
G02*
X140459999Y-89985000I249999J0D01*
G01*
X141760001Y-89985000D01*
G75*
G02*
X142010000Y-90234999I0J-249999D01*
G01*
X142010000Y-90885001D01*
G75*
G02*
X141760001Y-91135000I-249999J0D01*
G01*
G37*
G04 #@! TD.AperFunction*
G04 #@! TA.AperFunction,SMDPad,CuDef*
G36*
G01*
X141760001Y-94085000D02*
X140459999Y-94085000D01*
G75*
G02*
X140210000Y-93835001I0J249999D01*
G01*
X140210000Y-93184999D01*
G75*
G02*
X140459999Y-92935000I249999J0D01*
G01*
X141760001Y-92935000D01*
G75*
G02*
X142010000Y-93184999I0J-249999D01*
G01*
X142010000Y-93835001D01*
G75*
G02*
X141760001Y-94085000I-249999J0D01*
G01*
G37*
G04 #@! TD.AperFunction*
D15*
X135680000Y-90860000D03*
X131540000Y-93590000D03*
X135680000Y-93590000D03*
X135680000Y-96330000D03*
X126009999Y-97450000D03*
X137540000Y-99049996D03*
X143240000Y-97210000D03*
X149130002Y-103560000D03*
X140609998Y-98350000D03*
X137580000Y-103970000D03*
X141120000Y-93520000D03*
X141120000Y-90570000D03*
X140540000Y-96640000D03*
X142780002Y-93510000D03*
D16*
X135680000Y-90860000D02*
X136570000Y-90860000D01*
X128600000Y-96530000D02*
X128600000Y-99530000D01*
X131540000Y-93590000D02*
X128600000Y-96530000D01*
X135680000Y-93590000D02*
X136570000Y-93590000D01*
X135680000Y-96330000D02*
X136560000Y-96330000D01*
X123940000Y-105410000D02*
X122450000Y-103920000D01*
X126690000Y-105410000D02*
X123940000Y-105410000D01*
X122450000Y-98500000D02*
X123500000Y-97450000D01*
X123500000Y-97450000D02*
X126009999Y-97450000D01*
X122450000Y-103920000D02*
X122450000Y-98500000D01*
X128610000Y-103490000D02*
X126690000Y-105410000D01*
X136050004Y-97560000D02*
X137540000Y-99049996D01*
X133080000Y-95880000D02*
X134760000Y-97560000D01*
X131260000Y-90390000D02*
X133080000Y-92210000D01*
X125480000Y-90390000D02*
X131260000Y-90390000D01*
X133080000Y-92210000D02*
X133080000Y-95880000D01*
X134760000Y-97560000D02*
X136050004Y-97560000D01*
X122810000Y-93060000D02*
X125480000Y-90390000D01*
X139470000Y-94140000D02*
X142540000Y-97210000D01*
X139470000Y-92590000D02*
X139470000Y-94140000D01*
X142540000Y-97210000D02*
X143240000Y-97210000D01*
X138220000Y-91340000D02*
X139470000Y-92590000D01*
X138220000Y-90860000D02*
X138220000Y-91340000D01*
X138220000Y-93590000D02*
X138230000Y-93590000D01*
X147660002Y-105030000D02*
X149130002Y-103560000D01*
X141210000Y-105030000D02*
X147660002Y-105030000D01*
X139500000Y-95960000D02*
X139500000Y-103320000D01*
X138230000Y-94690000D02*
X139500000Y-95960000D01*
X139500000Y-103320000D02*
X141210000Y-105030000D01*
X138230000Y-93590000D02*
X138230000Y-94690000D01*
X138220000Y-97770000D02*
X138220000Y-96330000D01*
X138650000Y-98200000D02*
X138220000Y-97770000D01*
X138650000Y-103580000D02*
X138650000Y-98200000D01*
X140890000Y-105820000D02*
X138650000Y-103580000D01*
X148284202Y-105820000D02*
X140890000Y-105820000D01*
X152560000Y-101544202D02*
X148284202Y-105820000D01*
X152560000Y-100720000D02*
X152560000Y-101544202D01*
X141720000Y-104260000D02*
X140609998Y-103149998D01*
X140609998Y-103149998D02*
X140609998Y-98350000D01*
X150031804Y-101238196D02*
X147010000Y-104260000D01*
X147010000Y-104260000D02*
X141720000Y-104260000D01*
X150031804Y-100713357D02*
X150031804Y-101238196D01*
X130895000Y-103490000D02*
X130895000Y-104745000D01*
X137580000Y-104810000D02*
X137580000Y-103970000D01*
X136960000Y-105430000D02*
X137580000Y-104810000D01*
X131580000Y-105430000D02*
X136960000Y-105430000D01*
X130895000Y-104745000D02*
X131580000Y-105430000D01*
X142580000Y-98680000D02*
X140540000Y-96640000D01*
X144600000Y-98680000D02*
X142580000Y-98680000D01*
X146633540Y-100713540D02*
X144600000Y-98680000D01*
X147499247Y-100713540D02*
X146633540Y-100713540D01*
X144780000Y-96810000D02*
X146310000Y-96810000D01*
X142780002Y-94810002D02*
X144780000Y-96810000D01*
X142780002Y-93510000D02*
X142780002Y-94810002D01*
D17*
X144470000Y-94425754D02*
X144468597Y-94440000D01*
X144474196Y-94496850D01*
X144490779Y-94551515D01*
X144517707Y-94601895D01*
X144531292Y-94618448D01*
X144553947Y-94646053D01*
X144598105Y-94682293D01*
X144648485Y-94709221D01*
X144703150Y-94725804D01*
X144760000Y-94731403D01*
X144774245Y-94730000D01*
X145945755Y-94730000D01*
X145960000Y-94731403D01*
X145974245Y-94730000D01*
X146016850Y-94725804D01*
X146071515Y-94709221D01*
X146121895Y-94682293D01*
X146166053Y-94646053D01*
X146202293Y-94601895D01*
X146229221Y-94551515D01*
X146245804Y-94496850D01*
X146251403Y-94440000D01*
X146250000Y-94425755D01*
X146250000Y-89370000D01*
X153840001Y-89370000D01*
X153840001Y-93146831D01*
X153766530Y-93160691D01*
X153523506Y-93258550D01*
X153500181Y-93271018D01*
X153471804Y-93313262D01*
X153471804Y-93195857D01*
X153389304Y-93113357D01*
X152641804Y-93111760D01*
X152577113Y-93118132D01*
X152514907Y-93137001D01*
X152457579Y-93167644D01*
X152407330Y-93208883D01*
X152366091Y-93259132D01*
X152335448Y-93316460D01*
X152316579Y-93378666D01*
X152310207Y-93443357D01*
X152311804Y-94190857D01*
X152394304Y-94273357D01*
X152818574Y-94273357D01*
X152813165Y-94299210D01*
X152810573Y-94561184D01*
X152820415Y-94613357D01*
X152394304Y-94613357D01*
X152311804Y-94695857D01*
X152310207Y-95443357D01*
X152316579Y-95508048D01*
X152335448Y-95570254D01*
X152366091Y-95627582D01*
X152407330Y-95677831D01*
X152457579Y-95719070D01*
X152514907Y-95749713D01*
X152577113Y-95768582D01*
X152641804Y-95774954D01*
X153389304Y-95773357D01*
X153471804Y-95690857D01*
X153471804Y-95573452D01*
X153500181Y-95615696D01*
X153741222Y-95718345D01*
X153840000Y-95739011D01*
X153840000Y-102069878D01*
X149639879Y-106270000D01*
X115790000Y-106270000D01*
X115790000Y-103246386D01*
X116904030Y-103246386D01*
X117145457Y-103525952D01*
X117562856Y-103731965D01*
X118012425Y-103852590D01*
X118476889Y-103883190D01*
X118938397Y-103822589D01*
X119379216Y-103673117D01*
X119654543Y-103525952D01*
X119895970Y-103246386D01*
X118400000Y-101750416D01*
X116904030Y-103246386D01*
X115790000Y-103246386D01*
X115790000Y-101586889D01*
X116026810Y-101586889D01*
X116087411Y-102048397D01*
X116236883Y-102489216D01*
X116384048Y-102764543D01*
X116663614Y-103005970D01*
X118159584Y-101510000D01*
X118640416Y-101510000D01*
X120136386Y-103005970D01*
X120415952Y-102764543D01*
X120621965Y-102347144D01*
X120742590Y-101897575D01*
X120773190Y-101433111D01*
X120712589Y-100971603D01*
X120563117Y-100530784D01*
X120415952Y-100255457D01*
X120136386Y-100014030D01*
X118640416Y-101510000D01*
X118159584Y-101510000D01*
X116663614Y-100014030D01*
X116384048Y-100255457D01*
X116178035Y-100672856D01*
X116057410Y-101122425D01*
X116026810Y-101586889D01*
X115790000Y-101586889D01*
X115790000Y-99773614D01*
X116904030Y-99773614D01*
X118400000Y-101269584D01*
X119895970Y-99773614D01*
X119654543Y-99494048D01*
X119237144Y-99288035D01*
X118787575Y-99167410D01*
X118323111Y-99136810D01*
X117861603Y-99197411D01*
X117420784Y-99346883D01*
X117145457Y-99494048D01*
X116904030Y-99773614D01*
X115790000Y-99773614D01*
X115790000Y-98500000D01*
X122083234Y-98500000D01*
X122085001Y-98517939D01*
X122085000Y-103902071D01*
X122083234Y-103920000D01*
X122085000Y-103937929D01*
X122085000Y-103937930D01*
X122090281Y-103991551D01*
X122111152Y-104060354D01*
X122145045Y-104123763D01*
X122190657Y-104179342D01*
X122204588Y-104190775D01*
X123669221Y-105655408D01*
X123680657Y-105669343D01*
X123736236Y-105714955D01*
X123799645Y-105748848D01*
X123868448Y-105769719D01*
X123922069Y-105775000D01*
X123922070Y-105775000D01*
X123939999Y-105776766D01*
X123957928Y-105775000D01*
X126672071Y-105775000D01*
X126690000Y-105776766D01*
X126707929Y-105775000D01*
X126707931Y-105775000D01*
X126761552Y-105769719D01*
X126830355Y-105748848D01*
X126893764Y-105714955D01*
X126949343Y-105669343D01*
X126960779Y-105655408D01*
X127668683Y-104947504D01*
X127801080Y-104828147D01*
X127910340Y-104752036D01*
X128006105Y-104704455D01*
X128097841Y-104674978D01*
X128196504Y-104656360D01*
X128310333Y-104643640D01*
X128439611Y-104631561D01*
X128447567Y-104630684D01*
X128589162Y-104612674D01*
X128606034Y-104609914D01*
X128761486Y-104578764D01*
X128783052Y-104573393D01*
X128857651Y-104551099D01*
X128922941Y-104538112D01*
X129121309Y-104455945D01*
X129299834Y-104336658D01*
X129451658Y-104184834D01*
X129570945Y-104006309D01*
X129653112Y-103807941D01*
X129695000Y-103597356D01*
X129695000Y-103382644D01*
X129805000Y-103382644D01*
X129805000Y-103597356D01*
X129846888Y-103807941D01*
X129929055Y-104006309D01*
X130048342Y-104184834D01*
X130121894Y-104258386D01*
X130226711Y-104369213D01*
X130306523Y-104464646D01*
X130371066Y-104552123D01*
X130427843Y-104637615D01*
X130483465Y-104726251D01*
X130484077Y-104727222D01*
X130534280Y-104806378D01*
X130534637Y-104810001D01*
X130535282Y-104816552D01*
X130556153Y-104885355D01*
X130590046Y-104948764D01*
X130635658Y-105004343D01*
X130649587Y-105015774D01*
X131309225Y-105675413D01*
X131320657Y-105689343D01*
X131334585Y-105700773D01*
X131376234Y-105734954D01*
X131376236Y-105734955D01*
X131439645Y-105768848D01*
X131508448Y-105789719D01*
X131562069Y-105795000D01*
X131562070Y-105795000D01*
X131579999Y-105796766D01*
X131597928Y-105795000D01*
X136942071Y-105795000D01*
X136960000Y-105796766D01*
X136977929Y-105795000D01*
X136977931Y-105795000D01*
X137031552Y-105789719D01*
X137100355Y-105768848D01*
X137163764Y-105734955D01*
X137219343Y-105689343D01*
X137230779Y-105675408D01*
X137825418Y-105080770D01*
X137839342Y-105069343D01*
X137854986Y-105050281D01*
X137884954Y-105013766D01*
X137918847Y-104950357D01*
X137919159Y-104949330D01*
X137939719Y-104881552D01*
X137945000Y-104827931D01*
X137945000Y-104827930D01*
X137946766Y-104810001D01*
X137945000Y-104792072D01*
X137945000Y-104663819D01*
X137947075Y-104598361D01*
X137952061Y-104552598D01*
X137958852Y-104519423D01*
X137967025Y-104493467D01*
X137977698Y-104468488D01*
X137993073Y-104439045D01*
X138014803Y-104401579D01*
X138041462Y-104356560D01*
X138043893Y-104352359D01*
X138073125Y-104300637D01*
X138077669Y-104292208D01*
X138088887Y-104270368D01*
X138102851Y-104249470D01*
X138147327Y-104142097D01*
X138170000Y-104028110D01*
X138170000Y-103911890D01*
X138147327Y-103797903D01*
X138102851Y-103690530D01*
X138038283Y-103593897D01*
X137956103Y-103511717D01*
X137859470Y-103447149D01*
X137752097Y-103402673D01*
X137638110Y-103380000D01*
X137521890Y-103380000D01*
X137407903Y-103402673D01*
X137300530Y-103447149D01*
X137203897Y-103511717D01*
X137121717Y-103593897D01*
X137057149Y-103690530D01*
X137012673Y-103797903D01*
X136990000Y-103911890D01*
X136990000Y-104028110D01*
X137012673Y-104142097D01*
X137057149Y-104249470D01*
X137071108Y-104270361D01*
X137082328Y-104292205D01*
X137086874Y-104300637D01*
X137116106Y-104352359D01*
X137118537Y-104356560D01*
X137145196Y-104401579D01*
X137166926Y-104439045D01*
X137182301Y-104468488D01*
X137192974Y-104493467D01*
X137201147Y-104519423D01*
X137207938Y-104552598D01*
X137212926Y-104598374D01*
X137214847Y-104658965D01*
X136808813Y-105065000D01*
X131731188Y-105065000D01*
X131476652Y-104810465D01*
X131409920Y-104728045D01*
X131393720Y-104689284D01*
X131392928Y-104668045D01*
X131404099Y-104631134D01*
X131440667Y-104567300D01*
X131504845Y-104481937D01*
X131589210Y-104380425D01*
X131590575Y-104378767D01*
X131682338Y-104266322D01*
X131690918Y-104255155D01*
X131778617Y-104133801D01*
X131792429Y-104112376D01*
X131806426Y-104087902D01*
X131860945Y-104006309D01*
X131943112Y-103807941D01*
X131985000Y-103597356D01*
X131985000Y-103382644D01*
X132095000Y-103382644D01*
X132095000Y-103597356D01*
X132136888Y-103807941D01*
X132219055Y-104006309D01*
X132338342Y-104184834D01*
X132490166Y-104336658D01*
X132668691Y-104455945D01*
X132867059Y-104538112D01*
X133077644Y-104580000D01*
X133292356Y-104580000D01*
X133502941Y-104538112D01*
X133701309Y-104455945D01*
X133879834Y-104336658D01*
X134031658Y-104184834D01*
X134150945Y-104006309D01*
X134233112Y-103807941D01*
X134275000Y-103597356D01*
X134275000Y-103382644D01*
X134385000Y-103382644D01*
X134385000Y-103597356D01*
X134426888Y-103807941D01*
X134509055Y-104006309D01*
X134628342Y-104184834D01*
X134780166Y-104336658D01*
X134958691Y-104455945D01*
X135157059Y-104538112D01*
X135367644Y-104580000D01*
X135582356Y-104580000D01*
X135792941Y-104538112D01*
X135991309Y-104455945D01*
X136169834Y-104336658D01*
X136321658Y-104184834D01*
X136440945Y-104006309D01*
X136523112Y-103807941D01*
X136565000Y-103597356D01*
X136565000Y-103382644D01*
X136523112Y-103172059D01*
X136440945Y-102973691D01*
X136321658Y-102795166D01*
X136169834Y-102643342D01*
X135991309Y-102524055D01*
X135792941Y-102441888D01*
X135582356Y-102400000D01*
X135367644Y-102400000D01*
X135157059Y-102441888D01*
X134958691Y-102524055D01*
X134780166Y-102643342D01*
X134628342Y-102795166D01*
X134509055Y-102973691D01*
X134426888Y-103172059D01*
X134385000Y-103382644D01*
X134275000Y-103382644D01*
X134233112Y-103172059D01*
X134150945Y-102973691D01*
X134031658Y-102795166D01*
X133879834Y-102643342D01*
X133701309Y-102524055D01*
X133502941Y-102441888D01*
X133297273Y-102400978D01*
X133679438Y-102400978D01*
X133777791Y-102559273D01*
X133993104Y-102646842D01*
X134221364Y-102690723D01*
X134453799Y-102689229D01*
X134681476Y-102642419D01*
X134882209Y-102559273D01*
X134980562Y-102400978D01*
X134330000Y-101750416D01*
X133679438Y-102400978D01*
X133297273Y-102400978D01*
X133292356Y-102400000D01*
X133077644Y-102400000D01*
X132867059Y-102441888D01*
X132668691Y-102524055D01*
X132490166Y-102643342D01*
X132338342Y-102795166D01*
X132219055Y-102973691D01*
X132136888Y-103172059D01*
X132095000Y-103382644D01*
X131985000Y-103382644D01*
X131943112Y-103172059D01*
X131860945Y-102973691D01*
X131741658Y-102795166D01*
X131589834Y-102643342D01*
X131411309Y-102524055D01*
X131212941Y-102441888D01*
X131002356Y-102400000D01*
X130787644Y-102400000D01*
X130577059Y-102441888D01*
X130378691Y-102524055D01*
X130200166Y-102643342D01*
X130048342Y-102795166D01*
X129929055Y-102973691D01*
X129846888Y-103172059D01*
X129805000Y-103382644D01*
X129695000Y-103382644D01*
X129653112Y-103172059D01*
X129570945Y-102973691D01*
X129451658Y-102795166D01*
X129299834Y-102643342D01*
X129121309Y-102524055D01*
X128922941Y-102441888D01*
X128717273Y-102400978D01*
X129099438Y-102400978D01*
X129197791Y-102559273D01*
X129413104Y-102646842D01*
X129641364Y-102690723D01*
X129873799Y-102689229D01*
X130101476Y-102642419D01*
X130302209Y-102559273D01*
X130400562Y-102400978D01*
X129750000Y-101750416D01*
X129099438Y-102400978D01*
X128717273Y-102400978D01*
X128712356Y-102400000D01*
X128497644Y-102400000D01*
X128287059Y-102441888D01*
X128088691Y-102524055D01*
X127910166Y-102643342D01*
X127758342Y-102795166D01*
X127639055Y-102973691D01*
X127556888Y-103172059D01*
X127542826Y-103242753D01*
X127520248Y-103320663D01*
X127515080Y-103342156D01*
X127485199Y-103497583D01*
X127482594Y-103514285D01*
X127465602Y-103655820D01*
X127464802Y-103663538D01*
X127453528Y-103792578D01*
X127441416Y-103905992D01*
X127423270Y-104004162D01*
X127394216Y-104095372D01*
X127347060Y-104190622D01*
X127271391Y-104299392D01*
X127152487Y-104431326D01*
X126538813Y-105045000D01*
X124091187Y-105045000D01*
X122815000Y-103768813D01*
X122815000Y-103382644D01*
X125225000Y-103382644D01*
X125225000Y-103597356D01*
X125266888Y-103807941D01*
X125349055Y-104006309D01*
X125468342Y-104184834D01*
X125620166Y-104336658D01*
X125798691Y-104455945D01*
X125997059Y-104538112D01*
X126207644Y-104580000D01*
X126422356Y-104580000D01*
X126632941Y-104538112D01*
X126831309Y-104455945D01*
X127009834Y-104336658D01*
X127161658Y-104184834D01*
X127280945Y-104006309D01*
X127363112Y-103807941D01*
X127405000Y-103597356D01*
X127405000Y-103382644D01*
X127363112Y-103172059D01*
X127280945Y-102973691D01*
X127161658Y-102795166D01*
X127009834Y-102643342D01*
X126831309Y-102524055D01*
X126632941Y-102441888D01*
X126427273Y-102400978D01*
X126809438Y-102400978D01*
X126907791Y-102559273D01*
X127123104Y-102646842D01*
X127351364Y-102690723D01*
X127583799Y-102689229D01*
X127811476Y-102642419D01*
X128012209Y-102559273D01*
X128110562Y-102400978D01*
X127460000Y-101750416D01*
X126809438Y-102400978D01*
X126427273Y-102400978D01*
X126422356Y-102400000D01*
X126207644Y-102400000D01*
X125997059Y-102441888D01*
X125798691Y-102524055D01*
X125620166Y-102643342D01*
X125468342Y-102795166D01*
X125349055Y-102973691D01*
X125266888Y-103172059D01*
X125225000Y-103382644D01*
X122815000Y-103382644D01*
X122815000Y-102400978D01*
X124519438Y-102400978D01*
X124617791Y-102559273D01*
X124833104Y-102646842D01*
X125061364Y-102690723D01*
X125293799Y-102689229D01*
X125521476Y-102642419D01*
X125722209Y-102559273D01*
X125820562Y-102400978D01*
X125170000Y-101750416D01*
X124519438Y-102400978D01*
X122815000Y-102400978D01*
X122815000Y-101401364D01*
X123989277Y-101401364D01*
X123990771Y-101633799D01*
X124037581Y-101861476D01*
X124120727Y-102062209D01*
X124279022Y-102160562D01*
X124929584Y-101510000D01*
X125410416Y-101510000D01*
X126060978Y-102160562D01*
X126219273Y-102062209D01*
X126306842Y-101846896D01*
X126315415Y-101802302D01*
X126327581Y-101861476D01*
X126410727Y-102062209D01*
X126569022Y-102160562D01*
X127219584Y-101510000D01*
X127700416Y-101510000D01*
X128350978Y-102160562D01*
X128509273Y-102062209D01*
X128596842Y-101846896D01*
X128605415Y-101802302D01*
X128617581Y-101861476D01*
X128700727Y-102062209D01*
X128859022Y-102160562D01*
X129509584Y-101510000D01*
X129990416Y-101510000D01*
X130640978Y-102160562D01*
X130799273Y-102062209D01*
X130886842Y-101846896D01*
X130930723Y-101618636D01*
X130929335Y-101402644D01*
X130950000Y-101402644D01*
X130950000Y-101617356D01*
X130991888Y-101827941D01*
X131074055Y-102026309D01*
X131193342Y-102204834D01*
X131345166Y-102356658D01*
X131523691Y-102475945D01*
X131722059Y-102558112D01*
X131932644Y-102600000D01*
X132147356Y-102600000D01*
X132357941Y-102558112D01*
X132556309Y-102475945D01*
X132734834Y-102356658D01*
X132886658Y-102204834D01*
X133005945Y-102026309D01*
X133088112Y-101827941D01*
X133130000Y-101617356D01*
X133130000Y-101402644D01*
X133129746Y-101401364D01*
X133149277Y-101401364D01*
X133150771Y-101633799D01*
X133197581Y-101861476D01*
X133280727Y-102062209D01*
X133439022Y-102160562D01*
X134089584Y-101510000D01*
X133439022Y-100859438D01*
X133280727Y-100957791D01*
X133193158Y-101173104D01*
X133149277Y-101401364D01*
X133129746Y-101401364D01*
X133088112Y-101192059D01*
X133005945Y-100993691D01*
X132886658Y-100815166D01*
X132734834Y-100663342D01*
X132556309Y-100544055D01*
X132357941Y-100461888D01*
X132147356Y-100420000D01*
X131932644Y-100420000D01*
X131722059Y-100461888D01*
X131523691Y-100544055D01*
X131345166Y-100663342D01*
X131193342Y-100815166D01*
X131074055Y-100993691D01*
X130991888Y-101192059D01*
X130950000Y-101402644D01*
X130929335Y-101402644D01*
X130929229Y-101386201D01*
X130882419Y-101158524D01*
X130799273Y-100957791D01*
X130640978Y-100859438D01*
X129990416Y-101510000D01*
X129509584Y-101510000D01*
X128859022Y-100859438D01*
X128700727Y-100957791D01*
X128613158Y-101173104D01*
X128604585Y-101217698D01*
X128592419Y-101158524D01*
X128509273Y-100957791D01*
X128350978Y-100859438D01*
X127700416Y-101510000D01*
X127219584Y-101510000D01*
X126569022Y-100859438D01*
X126410727Y-100957791D01*
X126323158Y-101173104D01*
X126314585Y-101217698D01*
X126302419Y-101158524D01*
X126219273Y-100957791D01*
X126060978Y-100859438D01*
X125410416Y-101510000D01*
X124929584Y-101510000D01*
X124279022Y-100859438D01*
X124120727Y-100957791D01*
X124033158Y-101173104D01*
X123989277Y-101401364D01*
X122815000Y-101401364D01*
X122815000Y-100619022D01*
X124519438Y-100619022D01*
X125170000Y-101269584D01*
X125818423Y-100621161D01*
X126811577Y-100621161D01*
X127460000Y-101269584D01*
X128110562Y-100619022D01*
X128012209Y-100460727D01*
X127796896Y-100373158D01*
X127568636Y-100329277D01*
X127406161Y-100330321D01*
X127406161Y-99422644D01*
X127515000Y-99422644D01*
X127515000Y-99637356D01*
X127556888Y-99847941D01*
X127639055Y-100046309D01*
X127758342Y-100224834D01*
X127910166Y-100376658D01*
X128088691Y-100495945D01*
X128287059Y-100578112D01*
X128497644Y-100620000D01*
X128712356Y-100620000D01*
X128717272Y-100619022D01*
X129099438Y-100619022D01*
X129750000Y-101269584D01*
X130400562Y-100619022D01*
X130302209Y-100460727D01*
X130086896Y-100373158D01*
X129858636Y-100329277D01*
X129626201Y-100330771D01*
X129398524Y-100377581D01*
X129197791Y-100460727D01*
X129099438Y-100619022D01*
X128717272Y-100619022D01*
X128922941Y-100578112D01*
X129121309Y-100495945D01*
X129299834Y-100376658D01*
X129451658Y-100224834D01*
X129570945Y-100046309D01*
X129653112Y-99847941D01*
X129695000Y-99637356D01*
X129695000Y-99422644D01*
X129805000Y-99422644D01*
X129805000Y-99637356D01*
X129846888Y-99847941D01*
X129929055Y-100046309D01*
X130048342Y-100224834D01*
X130200166Y-100376658D01*
X130378691Y-100495945D01*
X130577059Y-100578112D01*
X130787644Y-100620000D01*
X131002356Y-100620000D01*
X131212941Y-100578112D01*
X131411309Y-100495945D01*
X131589834Y-100376658D01*
X131741658Y-100224834D01*
X131860945Y-100046309D01*
X131943112Y-99847941D01*
X131985000Y-99637356D01*
X131985000Y-99422644D01*
X132095000Y-99422644D01*
X132095000Y-99637356D01*
X132136888Y-99847941D01*
X132219055Y-100046309D01*
X132338342Y-100224834D01*
X132490166Y-100376658D01*
X132668691Y-100495945D01*
X132867059Y-100578112D01*
X133077644Y-100620000D01*
X133292356Y-100620000D01*
X133297272Y-100619022D01*
X133679438Y-100619022D01*
X134330000Y-101269584D01*
X134344143Y-101255442D01*
X134584559Y-101495858D01*
X134570416Y-101510000D01*
X135220978Y-102160562D01*
X135379273Y-102062209D01*
X135466842Y-101846896D01*
X135510723Y-101618636D01*
X135509229Y-101386201D01*
X135462419Y-101158524D01*
X135379273Y-100957791D01*
X135220980Y-100859439D01*
X135288359Y-100792060D01*
X135169100Y-100672801D01*
X135366364Y-100710723D01*
X135598799Y-100709229D01*
X135826476Y-100662419D01*
X136027209Y-100579273D01*
X136125562Y-100420978D01*
X135475000Y-99770416D01*
X135460858Y-99784559D01*
X135220442Y-99544143D01*
X135234584Y-99530000D01*
X135715416Y-99530000D01*
X136365978Y-100180562D01*
X136524273Y-100082209D01*
X136611842Y-99866896D01*
X136655723Y-99638636D01*
X136654229Y-99406201D01*
X136607419Y-99178524D01*
X136524273Y-98977791D01*
X136365978Y-98879438D01*
X135715416Y-99530000D01*
X135234584Y-99530000D01*
X134584022Y-98879438D01*
X134425727Y-98977791D01*
X134338158Y-99193104D01*
X134294277Y-99421364D01*
X134295771Y-99653799D01*
X134342581Y-99881476D01*
X134425727Y-100082209D01*
X134584020Y-100180561D01*
X134516641Y-100247940D01*
X134635900Y-100367199D01*
X134438636Y-100329277D01*
X134206201Y-100330771D01*
X133978524Y-100377581D01*
X133777791Y-100460727D01*
X133679438Y-100619022D01*
X133297272Y-100619022D01*
X133502941Y-100578112D01*
X133701309Y-100495945D01*
X133879834Y-100376658D01*
X134031658Y-100224834D01*
X134150945Y-100046309D01*
X134233112Y-99847941D01*
X134275000Y-99637356D01*
X134275000Y-99422644D01*
X134233112Y-99212059D01*
X134150945Y-99013691D01*
X134031658Y-98835166D01*
X133879834Y-98683342D01*
X133813505Y-98639022D01*
X134824438Y-98639022D01*
X135475000Y-99289584D01*
X136125562Y-98639022D01*
X136027209Y-98480727D01*
X135811896Y-98393158D01*
X135583636Y-98349277D01*
X135351201Y-98350771D01*
X135123524Y-98397581D01*
X134922791Y-98480727D01*
X134824438Y-98639022D01*
X133813505Y-98639022D01*
X133701309Y-98564055D01*
X133502941Y-98481888D01*
X133292356Y-98440000D01*
X133077644Y-98440000D01*
X132867059Y-98481888D01*
X132668691Y-98564055D01*
X132490166Y-98683342D01*
X132338342Y-98835166D01*
X132219055Y-99013691D01*
X132136888Y-99212059D01*
X132095000Y-99422644D01*
X131985000Y-99422644D01*
X131943112Y-99212059D01*
X131860945Y-99013691D01*
X131741658Y-98835166D01*
X131589834Y-98683342D01*
X131411309Y-98564055D01*
X131212941Y-98481888D01*
X131002356Y-98440000D01*
X130787644Y-98440000D01*
X130577059Y-98481888D01*
X130378691Y-98564055D01*
X130200166Y-98683342D01*
X130048342Y-98835166D01*
X129929055Y-99013691D01*
X129846888Y-99212059D01*
X129805000Y-99422644D01*
X129695000Y-99422644D01*
X129653112Y-99212059D01*
X129570945Y-99013691D01*
X129530417Y-98953037D01*
X129490581Y-98880941D01*
X129479091Y-98862225D01*
X129390048Y-98731042D01*
X129380159Y-98717515D01*
X129291920Y-98605256D01*
X129287115Y-98599338D01*
X129203756Y-98499954D01*
X129132159Y-98411098D01*
X129075577Y-98328669D01*
X129031621Y-98243387D01*
X128997604Y-98142365D01*
X128974202Y-98011553D01*
X128965000Y-97833794D01*
X128965000Y-96681187D01*
X131307510Y-94338678D01*
X131355236Y-94293884D01*
X131391130Y-94265044D01*
X131419385Y-94246391D01*
X131443524Y-94233813D01*
X131468740Y-94223695D01*
X131500416Y-94213752D01*
X131542236Y-94202634D01*
X131592958Y-94189643D01*
X131597653Y-94188390D01*
X131654896Y-94172487D01*
X131664068Y-94169740D01*
X131687433Y-94162233D01*
X131712097Y-94157327D01*
X131819470Y-94112851D01*
X131916103Y-94048283D01*
X131998283Y-93966103D01*
X132062851Y-93869470D01*
X132107327Y-93762097D01*
X132130000Y-93648110D01*
X132130000Y-93531890D01*
X132107327Y-93417903D01*
X132062851Y-93310530D01*
X131998283Y-93213897D01*
X131916103Y-93131717D01*
X131819470Y-93067149D01*
X131712097Y-93022673D01*
X131598110Y-93000000D01*
X131481890Y-93000000D01*
X131367903Y-93022673D01*
X131260530Y-93067149D01*
X131163897Y-93131717D01*
X131081717Y-93213897D01*
X131017149Y-93310530D01*
X130972673Y-93417903D01*
X130967769Y-93442556D01*
X130960260Y-93465926D01*
X130957512Y-93475103D01*
X130941609Y-93532346D01*
X130940356Y-93537041D01*
X130927365Y-93587763D01*
X130916247Y-93629583D01*
X130906304Y-93661259D01*
X130896186Y-93686475D01*
X130883608Y-93710614D01*
X130864955Y-93738869D01*
X130836114Y-93774763D01*
X130791316Y-93822496D01*
X128354588Y-96259225D01*
X128340657Y-96270658D01*
X128295045Y-96326237D01*
X128261152Y-96389646D01*
X128240281Y-96458449D01*
X128235692Y-96505045D01*
X128233234Y-96530000D01*
X128235000Y-96547929D01*
X128235000Y-97833798D01*
X128225786Y-98012492D01*
X128202340Y-98144219D01*
X128168239Y-98246175D01*
X128124178Y-98332413D01*
X128067587Y-98415792D01*
X127996158Y-98505707D01*
X127913396Y-98606097D01*
X127908431Y-98612327D01*
X127821150Y-98725661D01*
X127811246Y-98739512D01*
X127723449Y-98871984D01*
X127712086Y-98890975D01*
X127675278Y-98959480D01*
X127639055Y-99013691D01*
X127556888Y-99212059D01*
X127515000Y-99422644D01*
X127406161Y-99422644D01*
X127406161Y-98680000D01*
X127401527Y-98632952D01*
X127387804Y-98587712D01*
X127365518Y-98546018D01*
X127335527Y-98509473D01*
X127298982Y-98479482D01*
X127257288Y-98457196D01*
X127212048Y-98443473D01*
X127165000Y-98438839D01*
X125465000Y-98438839D01*
X125417952Y-98443473D01*
X125372712Y-98457196D01*
X125331018Y-98479482D01*
X125294473Y-98509473D01*
X125264482Y-98546018D01*
X125242196Y-98587712D01*
X125228473Y-98632952D01*
X125223839Y-98680000D01*
X125223839Y-100329629D01*
X125046201Y-100330771D01*
X124818524Y-100377581D01*
X124617791Y-100460727D01*
X124519438Y-100619022D01*
X122815000Y-100619022D01*
X122815000Y-98651187D01*
X123651188Y-97815000D01*
X125316180Y-97815000D01*
X125381637Y-97817075D01*
X125427400Y-97822061D01*
X125460575Y-97828852D01*
X125486531Y-97837025D01*
X125511510Y-97847698D01*
X125540953Y-97863073D01*
X125578419Y-97884803D01*
X125623438Y-97911462D01*
X125627639Y-97913893D01*
X125679361Y-97943125D01*
X125687791Y-97947670D01*
X125709636Y-97958891D01*
X125730529Y-97972851D01*
X125837902Y-98017327D01*
X125951889Y-98040000D01*
X126068109Y-98040000D01*
X126182096Y-98017327D01*
X126289469Y-97972851D01*
X126386102Y-97908283D01*
X126468282Y-97826103D01*
X126532850Y-97729470D01*
X126577326Y-97622097D01*
X126599999Y-97508110D01*
X126599999Y-97391890D01*
X126577326Y-97277903D01*
X126532850Y-97170530D01*
X126468282Y-97073897D01*
X126386102Y-96991717D01*
X126289469Y-96927149D01*
X126182096Y-96882673D01*
X126068109Y-96860000D01*
X125951889Y-96860000D01*
X125837902Y-96882673D01*
X125730529Y-96927149D01*
X125709636Y-96941109D01*
X125687794Y-96952328D01*
X125679361Y-96956874D01*
X125627639Y-96986106D01*
X125623438Y-96988537D01*
X125578419Y-97015196D01*
X125540953Y-97036926D01*
X125511510Y-97052301D01*
X125486531Y-97062974D01*
X125460575Y-97071147D01*
X125427400Y-97077938D01*
X125381624Y-97082926D01*
X125316208Y-97085000D01*
X123517928Y-97085000D01*
X123499999Y-97083234D01*
X123482070Y-97085000D01*
X123482069Y-97085000D01*
X123428448Y-97090281D01*
X123359645Y-97111152D01*
X123308780Y-97138340D01*
X123296234Y-97145046D01*
X123283747Y-97155294D01*
X123240657Y-97190657D01*
X123229225Y-97204587D01*
X122204587Y-98229226D01*
X122190658Y-98240657D01*
X122179227Y-98254586D01*
X122145046Y-98296236D01*
X122111153Y-98359645D01*
X122090282Y-98428448D01*
X122083234Y-98500000D01*
X115790000Y-98500000D01*
X115790000Y-94407660D01*
X115903134Y-94557588D01*
X116063705Y-94700712D01*
X116249112Y-94809760D01*
X116374616Y-94844812D01*
X116540000Y-94800966D01*
X116540000Y-93230000D01*
X116880000Y-93230000D01*
X116880000Y-94800966D01*
X117045384Y-94844812D01*
X117170888Y-94809760D01*
X117356295Y-94700712D01*
X117516866Y-94557588D01*
X117646429Y-94385888D01*
X117708617Y-94257175D01*
X118116000Y-94257175D01*
X118116001Y-95862826D01*
X118130384Y-96008858D01*
X118187222Y-96196228D01*
X118279522Y-96368909D01*
X118403736Y-96520265D01*
X118555092Y-96644479D01*
X118727773Y-96736779D01*
X118915143Y-96793617D01*
X119110000Y-96812809D01*
X119304858Y-96793617D01*
X119492228Y-96736779D01*
X119664909Y-96644479D01*
X119816265Y-96520265D01*
X119940479Y-96368909D01*
X120032779Y-96196228D01*
X120089617Y-96008858D01*
X120104000Y-95862826D01*
X120104000Y-94257174D01*
X120089617Y-94111142D01*
X120032779Y-93923772D01*
X119940479Y-93751091D01*
X119816265Y-93599735D01*
X119664909Y-93475521D01*
X119492227Y-93383221D01*
X119304857Y-93326383D01*
X119110000Y-93307191D01*
X118915142Y-93326383D01*
X118727772Y-93383221D01*
X118555091Y-93475521D01*
X118403735Y-93599735D01*
X118279521Y-93751091D01*
X118187221Y-93923773D01*
X118130383Y-94111143D01*
X118116000Y-94257175D01*
X117708617Y-94257175D01*
X117740006Y-94192211D01*
X117794000Y-93984000D01*
X117794000Y-93230000D01*
X116880000Y-93230000D01*
X116540000Y-93230000D01*
X116520000Y-93230000D01*
X116520000Y-92890000D01*
X116540000Y-92890000D01*
X116540000Y-91319034D01*
X116880000Y-91319034D01*
X116880000Y-92890000D01*
X117794000Y-92890000D01*
X117794000Y-92257175D01*
X121816000Y-92257175D01*
X121816001Y-93862826D01*
X121830384Y-94008858D01*
X121887222Y-94196228D01*
X121979522Y-94368909D01*
X122103736Y-94520265D01*
X122255092Y-94644479D01*
X122427773Y-94736779D01*
X122615143Y-94793617D01*
X122810000Y-94812809D01*
X123004858Y-94793617D01*
X123192228Y-94736779D01*
X123364909Y-94644479D01*
X123516265Y-94520265D01*
X123616000Y-94398737D01*
X123616001Y-95862826D01*
X123630384Y-96008858D01*
X123687222Y-96196228D01*
X123779522Y-96368909D01*
X123903736Y-96520265D01*
X124055092Y-96644479D01*
X124227773Y-96736779D01*
X124415143Y-96793617D01*
X124610000Y-96812809D01*
X124804858Y-96793617D01*
X124992228Y-96736779D01*
X125164909Y-96644479D01*
X125316265Y-96520265D01*
X125440479Y-96368909D01*
X125532779Y-96196228D01*
X125589617Y-96008858D01*
X125604000Y-95862826D01*
X125604000Y-94257174D01*
X125589617Y-94111142D01*
X125532779Y-93923772D01*
X125440479Y-93751091D01*
X125316265Y-93599735D01*
X125164909Y-93475521D01*
X124992227Y-93383221D01*
X124804857Y-93326383D01*
X124610000Y-93307191D01*
X124415142Y-93326383D01*
X124227772Y-93383221D01*
X124055091Y-93475521D01*
X123903735Y-93599735D01*
X123804000Y-93721263D01*
X123804000Y-93196977D01*
X123831021Y-93065231D01*
X123833670Y-93049759D01*
X123850886Y-92924769D01*
X123851720Y-92918010D01*
X123864070Y-92804628D01*
X123876953Y-92706109D01*
X123894621Y-92621711D01*
X123921300Y-92543530D01*
X123963502Y-92461356D01*
X124030586Y-92366580D01*
X124129651Y-92257175D01*
X127316000Y-92257175D01*
X127316001Y-93862826D01*
X127330384Y-94008858D01*
X127387222Y-94196228D01*
X127479522Y-94368909D01*
X127603736Y-94520265D01*
X127755092Y-94644479D01*
X127927773Y-94736779D01*
X128115143Y-94793617D01*
X128310000Y-94812809D01*
X128504858Y-94793617D01*
X128692228Y-94736779D01*
X128864909Y-94644479D01*
X129016265Y-94520265D01*
X129140479Y-94368909D01*
X129232779Y-94196228D01*
X129289617Y-94008858D01*
X129304000Y-93862826D01*
X129304000Y-92257174D01*
X129289617Y-92111142D01*
X129232779Y-91923772D01*
X129140479Y-91751091D01*
X129016265Y-91599735D01*
X128864909Y-91475521D01*
X128692227Y-91383221D01*
X128504857Y-91326383D01*
X128310000Y-91307191D01*
X128115142Y-91326383D01*
X127927772Y-91383221D01*
X127755091Y-91475521D01*
X127603735Y-91599735D01*
X127479521Y-91751091D01*
X127387221Y-91923773D01*
X127330383Y-92111143D01*
X127316000Y-92257175D01*
X124129651Y-92257175D01*
X124135783Y-92250404D01*
X125631187Y-90755000D01*
X131108813Y-90755000D01*
X132715000Y-92361188D01*
X132715001Y-95862061D01*
X132713234Y-95880000D01*
X132718386Y-95932301D01*
X132720282Y-95951552D01*
X132741153Y-96020355D01*
X132775046Y-96083764D01*
X132820658Y-96139343D01*
X132834588Y-96150775D01*
X134489225Y-97805413D01*
X134500657Y-97819343D01*
X134556236Y-97864955D01*
X134619645Y-97898848D01*
X134688448Y-97919719D01*
X134742069Y-97925000D01*
X134742071Y-97925000D01*
X134760000Y-97926766D01*
X134777929Y-97925000D01*
X135898817Y-97925000D01*
X136791332Y-98817516D01*
X136836109Y-98865225D01*
X136864955Y-98901126D01*
X136883608Y-98929381D01*
X136896186Y-98953520D01*
X136906304Y-98978736D01*
X136916247Y-99010412D01*
X136927365Y-99052232D01*
X136940356Y-99102954D01*
X136941609Y-99107649D01*
X136957512Y-99164892D01*
X136960260Y-99174068D01*
X136967769Y-99197436D01*
X136972673Y-99222093D01*
X137017149Y-99329466D01*
X137081717Y-99426099D01*
X137163897Y-99508279D01*
X137260530Y-99572847D01*
X137367903Y-99617323D01*
X137481890Y-99639996D01*
X137598110Y-99639996D01*
X137712097Y-99617323D01*
X137819470Y-99572847D01*
X137916103Y-99508279D01*
X137998283Y-99426099D01*
X138062851Y-99329466D01*
X138107327Y-99222093D01*
X138130000Y-99108106D01*
X138130000Y-98991886D01*
X138107327Y-98877899D01*
X138062851Y-98770526D01*
X137998283Y-98673893D01*
X137916103Y-98591713D01*
X137819470Y-98527145D01*
X137712097Y-98482669D01*
X137687440Y-98477765D01*
X137664072Y-98470256D01*
X137654896Y-98467508D01*
X137597653Y-98451605D01*
X137592958Y-98450352D01*
X137542236Y-98437361D01*
X137500416Y-98426243D01*
X137468740Y-98416300D01*
X137443524Y-98406182D01*
X137419385Y-98393604D01*
X137391130Y-98374951D01*
X137355229Y-98346105D01*
X137307520Y-98301328D01*
X136320783Y-97314592D01*
X136309347Y-97300657D01*
X136253768Y-97255045D01*
X136190359Y-97221152D01*
X136121556Y-97200281D01*
X136067935Y-97195000D01*
X136067933Y-97195000D01*
X136050004Y-97193234D01*
X136032075Y-97195000D01*
X134911188Y-97195000D01*
X133988078Y-96271890D01*
X135090000Y-96271890D01*
X135090000Y-96388110D01*
X135112673Y-96502097D01*
X135157149Y-96609470D01*
X135221717Y-96706103D01*
X135303897Y-96788283D01*
X135400530Y-96852851D01*
X135507903Y-96897327D01*
X135621890Y-96920000D01*
X135738110Y-96920000D01*
X135852097Y-96897327D01*
X135959470Y-96852851D01*
X135980368Y-96838887D01*
X135993572Y-96832105D01*
X136003188Y-96850096D01*
X136058052Y-96916948D01*
X136124904Y-96971812D01*
X136201175Y-97012580D01*
X136283934Y-97037684D01*
X136370000Y-97046161D01*
X136770000Y-97046161D01*
X136856066Y-97037684D01*
X136938825Y-97012580D01*
X137015096Y-96971812D01*
X137081948Y-96916948D01*
X137136812Y-96850096D01*
X137177580Y-96773825D01*
X137202684Y-96691066D01*
X137211161Y-96605000D01*
X137211161Y-96055000D01*
X137578839Y-96055000D01*
X137578839Y-96605000D01*
X137587316Y-96691066D01*
X137612420Y-96773825D01*
X137653188Y-96850096D01*
X137708052Y-96916948D01*
X137774904Y-96971812D01*
X137847554Y-97010644D01*
X137852267Y-97048666D01*
X137855000Y-97124355D01*
X137855000Y-97752071D01*
X137853234Y-97770000D01*
X137855000Y-97787929D01*
X137855000Y-97787930D01*
X137860281Y-97841551D01*
X137881152Y-97910354D01*
X137915045Y-97973763D01*
X137960657Y-98029342D01*
X137974588Y-98040775D01*
X138285001Y-98351189D01*
X138285000Y-103562071D01*
X138283234Y-103580000D01*
X138285000Y-103597929D01*
X138285000Y-103597930D01*
X138290281Y-103651551D01*
X138311152Y-103720354D01*
X138345045Y-103783763D01*
X138390657Y-103839342D01*
X138404588Y-103850775D01*
X140619225Y-106065413D01*
X140630657Y-106079343D01*
X140644585Y-106090773D01*
X140686234Y-106124954D01*
X140686236Y-106124955D01*
X140749645Y-106158848D01*
X140818448Y-106179719D01*
X140872069Y-106185000D01*
X140872070Y-106185000D01*
X140889999Y-106186766D01*
X140907928Y-106185000D01*
X148266273Y-106185000D01*
X148284202Y-106186766D01*
X148302131Y-106185000D01*
X148302133Y-106185000D01*
X148355754Y-106179719D01*
X148424557Y-106158848D01*
X148487966Y-106124955D01*
X148543545Y-106079343D01*
X148554981Y-106065408D01*
X152169542Y-102450848D01*
X152206804Y-102454518D01*
X152956804Y-102454518D01*
X153077011Y-102442679D01*
X153192599Y-102407616D01*
X153299125Y-102350676D01*
X153392496Y-102274049D01*
X153469123Y-102180678D01*
X153526063Y-102074152D01*
X153561126Y-101958564D01*
X153572965Y-101838357D01*
X153572965Y-99588357D01*
X153561126Y-99468150D01*
X153526063Y-99352562D01*
X153469123Y-99246036D01*
X153392496Y-99152665D01*
X153299125Y-99076038D01*
X153192599Y-99019098D01*
X153077011Y-98984035D01*
X152956804Y-98972196D01*
X152206804Y-98972196D01*
X152086597Y-98984035D01*
X151971009Y-99019098D01*
X151864483Y-99076038D01*
X151771112Y-99152665D01*
X151694485Y-99246036D01*
X151637545Y-99352562D01*
X151602482Y-99468150D01*
X151590643Y-99588357D01*
X151590643Y-101838357D01*
X151602482Y-101958564D01*
X151608759Y-101979256D01*
X148133015Y-105455000D01*
X141041188Y-105455000D01*
X139015000Y-103428813D01*
X139015000Y-98217929D01*
X139016766Y-98200000D01*
X139015000Y-98182069D01*
X139009719Y-98128448D01*
X138988848Y-98059645D01*
X138954955Y-97996236D01*
X138909343Y-97940657D01*
X138895413Y-97929225D01*
X138585000Y-97618813D01*
X138585000Y-97124338D01*
X138587732Y-97048666D01*
X138592445Y-97010645D01*
X138665096Y-96971812D01*
X138731948Y-96916948D01*
X138786812Y-96850096D01*
X138827580Y-96773825D01*
X138852684Y-96691066D01*
X138861161Y-96605000D01*
X138861161Y-96055000D01*
X138852684Y-95968934D01*
X138827580Y-95886175D01*
X138786812Y-95809904D01*
X138731948Y-95743052D01*
X138665096Y-95688188D01*
X138588825Y-95647420D01*
X138506066Y-95622316D01*
X138420000Y-95613839D01*
X138020000Y-95613839D01*
X137933934Y-95622316D01*
X137851175Y-95647420D01*
X137774904Y-95688188D01*
X137708052Y-95743052D01*
X137653188Y-95809904D01*
X137612420Y-95886175D01*
X137587316Y-95968934D01*
X137578839Y-96055000D01*
X137211161Y-96055000D01*
X137202684Y-95968934D01*
X137177580Y-95886175D01*
X137136812Y-95809904D01*
X137081948Y-95743052D01*
X137015096Y-95688188D01*
X136938825Y-95647420D01*
X136856066Y-95622316D01*
X136770000Y-95613839D01*
X136370000Y-95613839D01*
X136283934Y-95622316D01*
X136201175Y-95647420D01*
X136124904Y-95688188D01*
X136058052Y-95743052D01*
X136003188Y-95809904D01*
X135993572Y-95827894D01*
X135980361Y-95821108D01*
X135959470Y-95807149D01*
X135852097Y-95762673D01*
X135738110Y-95740000D01*
X135621890Y-95740000D01*
X135507903Y-95762673D01*
X135400530Y-95807149D01*
X135303897Y-95871717D01*
X135221717Y-95953897D01*
X135157149Y-96050530D01*
X135112673Y-96157903D01*
X135090000Y-96271890D01*
X133988078Y-96271890D01*
X133445000Y-95728813D01*
X133445000Y-93531890D01*
X135090000Y-93531890D01*
X135090000Y-93648110D01*
X135112673Y-93762097D01*
X135157149Y-93869470D01*
X135221717Y-93966103D01*
X135303897Y-94048283D01*
X135400530Y-94112851D01*
X135507903Y-94157327D01*
X135621890Y-94180000D01*
X135738110Y-94180000D01*
X135852097Y-94157327D01*
X135959470Y-94112851D01*
X135980368Y-94098887D01*
X136001417Y-94088075D01*
X136013188Y-94110096D01*
X136068052Y-94176948D01*
X136134904Y-94231812D01*
X136211175Y-94272580D01*
X136293934Y-94297684D01*
X136380000Y-94306161D01*
X136780000Y-94306161D01*
X136866066Y-94297684D01*
X136948825Y-94272580D01*
X137025096Y-94231812D01*
X137091948Y-94176948D01*
X137146812Y-94110096D01*
X137187580Y-94033825D01*
X137212684Y-93951066D01*
X137221161Y-93865000D01*
X137221161Y-93315000D01*
X137588839Y-93315000D01*
X137588839Y-93865000D01*
X137597316Y-93951066D01*
X137622420Y-94033825D01*
X137663188Y-94110096D01*
X137718052Y-94176948D01*
X137784904Y-94231812D01*
X137857554Y-94270644D01*
X137862267Y-94308666D01*
X137865001Y-94384362D01*
X137865001Y-94672062D01*
X137863234Y-94690000D01*
X137870282Y-94761552D01*
X137891153Y-94830355D01*
X137925046Y-94893764D01*
X137970658Y-94949343D01*
X137984587Y-94960775D01*
X139135000Y-96111188D01*
X139135001Y-103302061D01*
X139133234Y-103320000D01*
X139139144Y-103380000D01*
X139140282Y-103391552D01*
X139161153Y-103460355D01*
X139195046Y-103523764D01*
X139240658Y-103579343D01*
X139254588Y-103590775D01*
X140939221Y-105275408D01*
X140950657Y-105289343D01*
X141006236Y-105334955D01*
X141069645Y-105368848D01*
X141138448Y-105389719D01*
X141192069Y-105395000D01*
X141192070Y-105395000D01*
X141209999Y-105396766D01*
X141227928Y-105395000D01*
X147642073Y-105395000D01*
X147660002Y-105396766D01*
X147677931Y-105395000D01*
X147677933Y-105395000D01*
X147731554Y-105389719D01*
X147800357Y-105368848D01*
X147863766Y-105334955D01*
X147919345Y-105289343D01*
X147930781Y-105275408D01*
X148897509Y-104308681D01*
X148945238Y-104263884D01*
X148981132Y-104235044D01*
X149009387Y-104216391D01*
X149033526Y-104203813D01*
X149058742Y-104193695D01*
X149090418Y-104183752D01*
X149132238Y-104172634D01*
X149182960Y-104159643D01*
X149187655Y-104158390D01*
X149244898Y-104142487D01*
X149254070Y-104139740D01*
X149277435Y-104132233D01*
X149302099Y-104127327D01*
X149409472Y-104082851D01*
X149506105Y-104018283D01*
X149588285Y-103936103D01*
X149652853Y-103839470D01*
X149697329Y-103732097D01*
X149720002Y-103618110D01*
X149720002Y-103501890D01*
X149697329Y-103387903D01*
X149652853Y-103280530D01*
X149588285Y-103183897D01*
X149506105Y-103101717D01*
X149409472Y-103037149D01*
X149302099Y-102992673D01*
X149188112Y-102970000D01*
X149071892Y-102970000D01*
X148957905Y-102992673D01*
X148850532Y-103037149D01*
X148753899Y-103101717D01*
X148671719Y-103183897D01*
X148607151Y-103280530D01*
X148562675Y-103387903D01*
X148557771Y-103412556D01*
X148550262Y-103435926D01*
X148547514Y-103445103D01*
X148531611Y-103502346D01*
X148530358Y-103507041D01*
X148517367Y-103557763D01*
X148506249Y-103599583D01*
X148496306Y-103631259D01*
X148486188Y-103656475D01*
X148473610Y-103680614D01*
X148454957Y-103708869D01*
X148426116Y-103744763D01*
X148381316Y-103792499D01*
X147508815Y-104665000D01*
X141361187Y-104665000D01*
X139865000Y-103168813D01*
X139865000Y-98291890D01*
X140019998Y-98291890D01*
X140019998Y-98408110D01*
X140042671Y-98522097D01*
X140087147Y-98629470D01*
X140101106Y-98650361D01*
X140112326Y-98672205D01*
X140116872Y-98680637D01*
X140146104Y-98732359D01*
X140148535Y-98736560D01*
X140175194Y-98781579D01*
X140196924Y-98819045D01*
X140212299Y-98848488D01*
X140222972Y-98873467D01*
X140231145Y-98899423D01*
X140237936Y-98932598D01*
X140242924Y-98978374D01*
X140244999Y-99043817D01*
X140244998Y-103132069D01*
X140243232Y-103149998D01*
X140244998Y-103167927D01*
X140244998Y-103167928D01*
X140250279Y-103221549D01*
X140271150Y-103290352D01*
X140305043Y-103353761D01*
X140350655Y-103409340D01*
X140364586Y-103420773D01*
X141449225Y-104505413D01*
X141460657Y-104519343D01*
X141516236Y-104564955D01*
X141579645Y-104598848D01*
X141648448Y-104619719D01*
X141702069Y-104625000D01*
X141702071Y-104625000D01*
X141720000Y-104626766D01*
X141737929Y-104625000D01*
X146992071Y-104625000D01*
X147010000Y-104626766D01*
X147027929Y-104625000D01*
X147027931Y-104625000D01*
X147081552Y-104619719D01*
X147150355Y-104598848D01*
X147213764Y-104564955D01*
X147269343Y-104519343D01*
X147280779Y-104505408D01*
X149393353Y-102392834D01*
X149421009Y-102407616D01*
X149536597Y-102442679D01*
X149656804Y-102454518D01*
X150406804Y-102454518D01*
X150527011Y-102442679D01*
X150642599Y-102407616D01*
X150749125Y-102350676D01*
X150842496Y-102274049D01*
X150919123Y-102180678D01*
X150976063Y-102074152D01*
X151011126Y-101958564D01*
X151022965Y-101838357D01*
X151022965Y-99588357D01*
X151011126Y-99468150D01*
X150976063Y-99352562D01*
X150919123Y-99246036D01*
X150842496Y-99152665D01*
X150749125Y-99076038D01*
X150642599Y-99019098D01*
X150527011Y-98984035D01*
X150406804Y-98972196D01*
X149656804Y-98972196D01*
X149536597Y-98984035D01*
X149421009Y-99019098D01*
X149314483Y-99076038D01*
X149221112Y-99152665D01*
X149144485Y-99246036D01*
X149087545Y-99352562D01*
X149052482Y-99468150D01*
X149040643Y-99588357D01*
X149040643Y-101712182D01*
X149033097Y-101720716D01*
X146858813Y-103895000D01*
X141871188Y-103895000D01*
X141222574Y-103246386D01*
X141894030Y-103246386D01*
X142135457Y-103525952D01*
X142552856Y-103731965D01*
X143002425Y-103852590D01*
X143466889Y-103883190D01*
X143928397Y-103822589D01*
X144369216Y-103673117D01*
X144644543Y-103525952D01*
X144885970Y-103246386D01*
X143390000Y-101750416D01*
X141894030Y-103246386D01*
X141222574Y-103246386D01*
X140974998Y-102998811D01*
X140974998Y-101586889D01*
X141016810Y-101586889D01*
X141077411Y-102048397D01*
X141226883Y-102489216D01*
X141374048Y-102764543D01*
X141653614Y-103005970D01*
X143149584Y-101510000D01*
X143630416Y-101510000D01*
X145126386Y-103005970D01*
X145405952Y-102764543D01*
X145611965Y-102347144D01*
X145732590Y-101897575D01*
X145763190Y-101433111D01*
X145702589Y-100971603D01*
X145553117Y-100530784D01*
X145405952Y-100255457D01*
X145126386Y-100014030D01*
X143630416Y-101510000D01*
X143149584Y-101510000D01*
X141653614Y-100014030D01*
X141374048Y-100255457D01*
X141168035Y-100672856D01*
X141047410Y-101122425D01*
X141016810Y-101586889D01*
X140974998Y-101586889D01*
X140974998Y-99773614D01*
X141894030Y-99773614D01*
X143390000Y-101269584D01*
X144885970Y-99773614D01*
X144644543Y-99494048D01*
X144227144Y-99288035D01*
X143777575Y-99167410D01*
X143313111Y-99136810D01*
X142851603Y-99197411D01*
X142410784Y-99346883D01*
X142135457Y-99494048D01*
X141894030Y-99773614D01*
X140974998Y-99773614D01*
X140974998Y-99043819D01*
X140977073Y-98978361D01*
X140982059Y-98932598D01*
X140988850Y-98899423D01*
X140997023Y-98873467D01*
X141007696Y-98848488D01*
X141023071Y-98819045D01*
X141044801Y-98781579D01*
X141071460Y-98736560D01*
X141073891Y-98732359D01*
X141103123Y-98680637D01*
X141107667Y-98672208D01*
X141118885Y-98650368D01*
X141132849Y-98629470D01*
X141177325Y-98522097D01*
X141199998Y-98408110D01*
X141199998Y-98291890D01*
X141177325Y-98177903D01*
X141132849Y-98070530D01*
X141068281Y-97973897D01*
X140986101Y-97891717D01*
X140889468Y-97827149D01*
X140782095Y-97782673D01*
X140668108Y-97760000D01*
X140551888Y-97760000D01*
X140437901Y-97782673D01*
X140330528Y-97827149D01*
X140233895Y-97891717D01*
X140151715Y-97973897D01*
X140087147Y-98070530D01*
X140042671Y-98177903D01*
X140019998Y-98291890D01*
X139865000Y-98291890D01*
X139865000Y-96581890D01*
X139950000Y-96581890D01*
X139950000Y-96698110D01*
X139972673Y-96812097D01*
X140017149Y-96919470D01*
X140081717Y-97016103D01*
X140163897Y-97098283D01*
X140260530Y-97162851D01*
X140367903Y-97207327D01*
X140392560Y-97212232D01*
X140415929Y-97219740D01*
X140425103Y-97222487D01*
X140482346Y-97238390D01*
X140487041Y-97239643D01*
X140537763Y-97252634D01*
X140579583Y-97263752D01*
X140611259Y-97273695D01*
X140636475Y-97283813D01*
X140660614Y-97296391D01*
X140688869Y-97315044D01*
X140724770Y-97343890D01*
X140772487Y-97388674D01*
X142309225Y-98925413D01*
X142320657Y-98939343D01*
X142376236Y-98984955D01*
X142439645Y-99018848D01*
X142508448Y-99039719D01*
X142562069Y-99045000D01*
X142562071Y-99045000D01*
X142580000Y-99046766D01*
X142597929Y-99045000D01*
X144448813Y-99045000D01*
X145926762Y-100522950D01*
X146047123Y-100643817D01*
X146148089Y-100746154D01*
X146234154Y-100834240D01*
X146309787Y-100912324D01*
X146379674Y-100984888D01*
X146448324Y-101056228D01*
X146448695Y-101056612D01*
X146508086Y-101118056D01*
X146508086Y-101838540D01*
X146519925Y-101958747D01*
X146554988Y-102074335D01*
X146611928Y-102180861D01*
X146688555Y-102274232D01*
X146781926Y-102350859D01*
X146888452Y-102407799D01*
X147004040Y-102442862D01*
X147124247Y-102454701D01*
X147874247Y-102454701D01*
X147994454Y-102442862D01*
X148110042Y-102407799D01*
X148216568Y-102350859D01*
X148309939Y-102274232D01*
X148386566Y-102180861D01*
X148443506Y-102074335D01*
X148478569Y-101958747D01*
X148490408Y-101838540D01*
X148490408Y-99588540D01*
X148478569Y-99468333D01*
X148443506Y-99352745D01*
X148386566Y-99246219D01*
X148309939Y-99152848D01*
X148216568Y-99076221D01*
X148110042Y-99019281D01*
X147994454Y-98984218D01*
X147874247Y-98972379D01*
X147124247Y-98972379D01*
X147004040Y-98984218D01*
X146888452Y-99019281D01*
X146781926Y-99076221D01*
X146688555Y-99152848D01*
X146611928Y-99246219D01*
X146554988Y-99352745D01*
X146519925Y-99468333D01*
X146508086Y-99588540D01*
X146508086Y-100058708D01*
X146501970Y-100055479D01*
X146435946Y-99999759D01*
X144870779Y-98434592D01*
X144859343Y-98420657D01*
X144803764Y-98375045D01*
X144740355Y-98341152D01*
X144671552Y-98320281D01*
X144617931Y-98315000D01*
X144617929Y-98315000D01*
X144600000Y-98313234D01*
X144582071Y-98315000D01*
X142731188Y-98315000D01*
X141288674Y-96872487D01*
X141243890Y-96824770D01*
X141215044Y-96788869D01*
X141196391Y-96760614D01*
X141183813Y-96736475D01*
X141173695Y-96711259D01*
X141163752Y-96679583D01*
X141152634Y-96637763D01*
X141139643Y-96587041D01*
X141138390Y-96582346D01*
X141122487Y-96525103D01*
X141119740Y-96515929D01*
X141112232Y-96492560D01*
X141107327Y-96467903D01*
X141062851Y-96360530D01*
X140998283Y-96263897D01*
X140916103Y-96181717D01*
X140819470Y-96117149D01*
X140712097Y-96072673D01*
X140598110Y-96050000D01*
X140481890Y-96050000D01*
X140367903Y-96072673D01*
X140260530Y-96117149D01*
X140163897Y-96181717D01*
X140081717Y-96263897D01*
X140017149Y-96360530D01*
X139972673Y-96467903D01*
X139950000Y-96581890D01*
X139865000Y-96581890D01*
X139865000Y-95977928D01*
X139866766Y-95959999D01*
X139862900Y-95920749D01*
X139859719Y-95888448D01*
X139838848Y-95819645D01*
X139804955Y-95756236D01*
X139780160Y-95726023D01*
X139770772Y-95714584D01*
X139770770Y-95714582D01*
X139759342Y-95700657D01*
X139745418Y-95689230D01*
X138595000Y-94538813D01*
X138595000Y-94384338D01*
X138597732Y-94308666D01*
X138602445Y-94270645D01*
X138675096Y-94231812D01*
X138741948Y-94176948D01*
X138796812Y-94110096D01*
X138837580Y-94033825D01*
X138862684Y-93951066D01*
X138871161Y-93865000D01*
X138871161Y-93315000D01*
X138862684Y-93228934D01*
X138837580Y-93146175D01*
X138796812Y-93069904D01*
X138741948Y-93003052D01*
X138675096Y-92948188D01*
X138598825Y-92907420D01*
X138516066Y-92882316D01*
X138430000Y-92873839D01*
X138030000Y-92873839D01*
X137943934Y-92882316D01*
X137861175Y-92907420D01*
X137784904Y-92948188D01*
X137718052Y-93003052D01*
X137663188Y-93069904D01*
X137622420Y-93146175D01*
X137597316Y-93228934D01*
X137588839Y-93315000D01*
X137221161Y-93315000D01*
X137212684Y-93228934D01*
X137187580Y-93146175D01*
X137146812Y-93069904D01*
X137091948Y-93003052D01*
X137025096Y-92948188D01*
X136948825Y-92907420D01*
X136866066Y-92882316D01*
X136780000Y-92873839D01*
X136380000Y-92873839D01*
X136293934Y-92882316D01*
X136211175Y-92907420D01*
X136134904Y-92948188D01*
X136068052Y-93003052D01*
X136013188Y-93069904D01*
X136001418Y-93091924D01*
X135980361Y-93081108D01*
X135959470Y-93067149D01*
X135852097Y-93022673D01*
X135738110Y-93000000D01*
X135621890Y-93000000D01*
X135507903Y-93022673D01*
X135400530Y-93067149D01*
X135303897Y-93131717D01*
X135221717Y-93213897D01*
X135157149Y-93310530D01*
X135112673Y-93417903D01*
X135090000Y-93531890D01*
X133445000Y-93531890D01*
X133445000Y-92227929D01*
X133446766Y-92210000D01*
X133445000Y-92192069D01*
X133439719Y-92138448D01*
X133418848Y-92069645D01*
X133384955Y-92006236D01*
X133374130Y-91993046D01*
X133350773Y-91964585D01*
X133350770Y-91964582D01*
X133339342Y-91950657D01*
X133325418Y-91939230D01*
X132188078Y-90801890D01*
X135090000Y-90801890D01*
X135090000Y-90918110D01*
X135112673Y-91032097D01*
X135157149Y-91139470D01*
X135221717Y-91236103D01*
X135303897Y-91318283D01*
X135400530Y-91382851D01*
X135507903Y-91427327D01*
X135621890Y-91450000D01*
X135738110Y-91450000D01*
X135852097Y-91427327D01*
X135959470Y-91382851D01*
X135980368Y-91368887D01*
X135993572Y-91362105D01*
X136003188Y-91380096D01*
X136058052Y-91446948D01*
X136124904Y-91501812D01*
X136201175Y-91542580D01*
X136283934Y-91567684D01*
X136370000Y-91576161D01*
X136770000Y-91576161D01*
X136856066Y-91567684D01*
X136938825Y-91542580D01*
X137015096Y-91501812D01*
X137081948Y-91446948D01*
X137136812Y-91380096D01*
X137177580Y-91303825D01*
X137202684Y-91221066D01*
X137211161Y-91135000D01*
X137211161Y-90585000D01*
X137578839Y-90585000D01*
X137578839Y-91135000D01*
X137587316Y-91221066D01*
X137612420Y-91303825D01*
X137653188Y-91380096D01*
X137708052Y-91446948D01*
X137774904Y-91501812D01*
X137851175Y-91542580D01*
X137933934Y-91567684D01*
X137934742Y-91567764D01*
X137960658Y-91599343D01*
X137974587Y-91610775D01*
X139105000Y-92741188D01*
X139105001Y-94122061D01*
X139103234Y-94140000D01*
X139107791Y-94186259D01*
X139110282Y-94211552D01*
X139131153Y-94280355D01*
X139165046Y-94343764D01*
X139210658Y-94399343D01*
X139224588Y-94410775D01*
X142269225Y-97455413D01*
X142280657Y-97469343D01*
X142336236Y-97514955D01*
X142399645Y-97548848D01*
X142468448Y-97569719D01*
X142522069Y-97575000D01*
X142522071Y-97575000D01*
X142540000Y-97576766D01*
X142555069Y-97575282D01*
X142611638Y-97577075D01*
X142657401Y-97582061D01*
X142690576Y-97588852D01*
X142716532Y-97597025D01*
X142741511Y-97607698D01*
X142770954Y-97623073D01*
X142808420Y-97644803D01*
X142853439Y-97671462D01*
X142857640Y-97673893D01*
X142909362Y-97703125D01*
X142917792Y-97707670D01*
X142939637Y-97718891D01*
X142960530Y-97732851D01*
X143067903Y-97777327D01*
X143181890Y-97800000D01*
X143298110Y-97800000D01*
X143412097Y-97777327D01*
X143519470Y-97732851D01*
X143616103Y-97668283D01*
X143698283Y-97586103D01*
X143762851Y-97489470D01*
X143807327Y-97382097D01*
X143830000Y-97268110D01*
X143830000Y-97151890D01*
X143807327Y-97037903D01*
X143762851Y-96930530D01*
X143698283Y-96833897D01*
X143616103Y-96751717D01*
X143519470Y-96687149D01*
X143412097Y-96642673D01*
X143298110Y-96620000D01*
X143181890Y-96620000D01*
X143067903Y-96642673D01*
X142960530Y-96687149D01*
X142939637Y-96701109D01*
X142917795Y-96712328D01*
X142909362Y-96716874D01*
X142857640Y-96746106D01*
X142853439Y-96748537D01*
X142808420Y-96775196D01*
X142770954Y-96796926D01*
X142741511Y-96812301D01*
X142716532Y-96822974D01*
X142690576Y-96831147D01*
X142679585Y-96833397D01*
X139835000Y-93988813D01*
X139835000Y-93184999D01*
X139968839Y-93184999D01*
X139968839Y-93835001D01*
X139978277Y-93930822D01*
X140006226Y-94022960D01*
X140051614Y-94107875D01*
X140112696Y-94182304D01*
X140187125Y-94243386D01*
X140272040Y-94288774D01*
X140364178Y-94316723D01*
X140459999Y-94326161D01*
X141760001Y-94326161D01*
X141855822Y-94316723D01*
X141947960Y-94288774D01*
X142032875Y-94243386D01*
X142107304Y-94182304D01*
X142168386Y-94107875D01*
X142213774Y-94022960D01*
X142241723Y-93930822D01*
X142251161Y-93835001D01*
X142251161Y-93775009D01*
X142257151Y-93789470D01*
X142271110Y-93810361D01*
X142282330Y-93832205D01*
X142286876Y-93840637D01*
X142316108Y-93892359D01*
X142318539Y-93896560D01*
X142345198Y-93941579D01*
X142366928Y-93979045D01*
X142382303Y-94008488D01*
X142392976Y-94033467D01*
X142401149Y-94059423D01*
X142407940Y-94092598D01*
X142412928Y-94138374D01*
X142415003Y-94203807D01*
X142415003Y-94792064D01*
X142413236Y-94810002D01*
X142416579Y-94843939D01*
X142420284Y-94881554D01*
X142441155Y-94950357D01*
X142475048Y-95013766D01*
X142520660Y-95069345D01*
X142534590Y-95080777D01*
X144509225Y-97055413D01*
X144520657Y-97069343D01*
X144546172Y-97090282D01*
X144571643Y-97111186D01*
X144571643Y-97188357D01*
X144583482Y-97308564D01*
X144618545Y-97424152D01*
X144675485Y-97530678D01*
X144752112Y-97624049D01*
X144845483Y-97700676D01*
X144952009Y-97757616D01*
X145067597Y-97792679D01*
X145187804Y-97804518D01*
X147437804Y-97804518D01*
X147558011Y-97792679D01*
X147673599Y-97757616D01*
X147780125Y-97700676D01*
X147873496Y-97624049D01*
X147950123Y-97530678D01*
X148007063Y-97424152D01*
X148042126Y-97308564D01*
X148053965Y-97188357D01*
X148053965Y-96438357D01*
X148042126Y-96318150D01*
X148007063Y-96202562D01*
X147950123Y-96096036D01*
X147873496Y-96002665D01*
X147780125Y-95926038D01*
X147673599Y-95869098D01*
X147558011Y-95834035D01*
X147437804Y-95822196D01*
X145187804Y-95822196D01*
X145067597Y-95834035D01*
X144952009Y-95869098D01*
X144845483Y-95926038D01*
X144752112Y-96002665D01*
X144675485Y-96096036D01*
X144642999Y-96156812D01*
X143145002Y-94658815D01*
X143145002Y-94203819D01*
X143147077Y-94138361D01*
X143152063Y-94092598D01*
X143158854Y-94059423D01*
X143167027Y-94033467D01*
X143177700Y-94008488D01*
X143193075Y-93979045D01*
X143214805Y-93941579D01*
X143241464Y-93896560D01*
X143243895Y-93892359D01*
X143273127Y-93840637D01*
X143277671Y-93832208D01*
X143288889Y-93810368D01*
X143302853Y-93789470D01*
X143347329Y-93682097D01*
X143370002Y-93568110D01*
X143370002Y-93451890D01*
X143347329Y-93337903D01*
X143302853Y-93230530D01*
X143238285Y-93133897D01*
X143156105Y-93051717D01*
X143059472Y-92987149D01*
X142952099Y-92942673D01*
X142838112Y-92920000D01*
X142721892Y-92920000D01*
X142607905Y-92942673D01*
X142500532Y-92987149D01*
X142403899Y-93051717D01*
X142321719Y-93133897D01*
X142257151Y-93230530D01*
X142251161Y-93244991D01*
X142251161Y-93184999D01*
X142241723Y-93089178D01*
X142213774Y-92997040D01*
X142168386Y-92912125D01*
X142107304Y-92837696D01*
X142032875Y-92776614D01*
X141947960Y-92731226D01*
X141855822Y-92703277D01*
X141760001Y-92693839D01*
X140459999Y-92693839D01*
X140364178Y-92703277D01*
X140272040Y-92731226D01*
X140187125Y-92776614D01*
X140112696Y-92837696D01*
X140051614Y-92912125D01*
X140006226Y-92997040D01*
X139978277Y-93089178D01*
X139968839Y-93184999D01*
X139835000Y-93184999D01*
X139835000Y-92607929D01*
X139836766Y-92590000D01*
X139834768Y-92569718D01*
X139829719Y-92518448D01*
X139808848Y-92449645D01*
X139774955Y-92386236D01*
X139729342Y-92330657D01*
X139715418Y-92319230D01*
X138782066Y-91385879D01*
X138786812Y-91380096D01*
X138827580Y-91303825D01*
X138852684Y-91221066D01*
X138861161Y-91135000D01*
X138861161Y-90585000D01*
X138852684Y-90498934D01*
X138827580Y-90416175D01*
X138786812Y-90339904D01*
X138731948Y-90273052D01*
X138685581Y-90234999D01*
X139968839Y-90234999D01*
X139968839Y-90885001D01*
X139978277Y-90980822D01*
X140006226Y-91072960D01*
X140051614Y-91157875D01*
X140112696Y-91232304D01*
X140187125Y-91293386D01*
X140272040Y-91338774D01*
X140364178Y-91366723D01*
X140459999Y-91376161D01*
X141760001Y-91376161D01*
X141855822Y-91366723D01*
X141947960Y-91338774D01*
X142032875Y-91293386D01*
X142107304Y-91232304D01*
X142168386Y-91157875D01*
X142213774Y-91072960D01*
X142241723Y-90980822D01*
X142251161Y-90885001D01*
X142251161Y-90234999D01*
X142241723Y-90139178D01*
X142213774Y-90047040D01*
X142168386Y-89962125D01*
X142107304Y-89887696D01*
X142032875Y-89826614D01*
X141947960Y-89781226D01*
X141855822Y-89753277D01*
X141760001Y-89743839D01*
X140459999Y-89743839D01*
X140364178Y-89753277D01*
X140272040Y-89781226D01*
X140187125Y-89826614D01*
X140112696Y-89887696D01*
X140051614Y-89962125D01*
X140006226Y-90047040D01*
X139978277Y-90139178D01*
X139968839Y-90234999D01*
X138685581Y-90234999D01*
X138665096Y-90218188D01*
X138588825Y-90177420D01*
X138506066Y-90152316D01*
X138420000Y-90143839D01*
X138020000Y-90143839D01*
X137933934Y-90152316D01*
X137851175Y-90177420D01*
X137774904Y-90218188D01*
X137708052Y-90273052D01*
X137653188Y-90339904D01*
X137612420Y-90416175D01*
X137587316Y-90498934D01*
X137578839Y-90585000D01*
X137211161Y-90585000D01*
X137202684Y-90498934D01*
X137177580Y-90416175D01*
X137136812Y-90339904D01*
X137081948Y-90273052D01*
X137015096Y-90218188D01*
X136938825Y-90177420D01*
X136856066Y-90152316D01*
X136770000Y-90143839D01*
X136370000Y-90143839D01*
X136283934Y-90152316D01*
X136201175Y-90177420D01*
X136124904Y-90218188D01*
X136058052Y-90273052D01*
X136003188Y-90339904D01*
X135993572Y-90357894D01*
X135980361Y-90351108D01*
X135959470Y-90337149D01*
X135852097Y-90292673D01*
X135738110Y-90270000D01*
X135621890Y-90270000D01*
X135507903Y-90292673D01*
X135400530Y-90337149D01*
X135303897Y-90401717D01*
X135221717Y-90483897D01*
X135157149Y-90580530D01*
X135112673Y-90687903D01*
X135090000Y-90801890D01*
X132188078Y-90801890D01*
X131530779Y-90144592D01*
X131519343Y-90130657D01*
X131463764Y-90085045D01*
X131400355Y-90051152D01*
X131331552Y-90030281D01*
X131277931Y-90025000D01*
X131277929Y-90025000D01*
X131260000Y-90023234D01*
X131242071Y-90025000D01*
X125497928Y-90025000D01*
X125479999Y-90023234D01*
X125462070Y-90025000D01*
X125462069Y-90025000D01*
X125408448Y-90030281D01*
X125339645Y-90051152D01*
X125276236Y-90085045D01*
X125220657Y-90130657D01*
X125209221Y-90144592D01*
X123623460Y-91730353D01*
X123516265Y-91599735D01*
X123364909Y-91475521D01*
X123192227Y-91383221D01*
X123004857Y-91326383D01*
X122810000Y-91307191D01*
X122615142Y-91326383D01*
X122427772Y-91383221D01*
X122255091Y-91475521D01*
X122103735Y-91599735D01*
X121979521Y-91751091D01*
X121887221Y-91923773D01*
X121830383Y-92111143D01*
X121816000Y-92257175D01*
X117794000Y-92257175D01*
X117794000Y-92136000D01*
X117740006Y-91927789D01*
X117646429Y-91734112D01*
X117516866Y-91562412D01*
X117356295Y-91419288D01*
X117170888Y-91310240D01*
X117045384Y-91275188D01*
X116880000Y-91319034D01*
X116540000Y-91319034D01*
X116374616Y-91275188D01*
X116249112Y-91310240D01*
X116063705Y-91419288D01*
X115903134Y-91562412D01*
X115790000Y-91712340D01*
X115790000Y-89370000D01*
X144470001Y-89370000D01*
X144470000Y-94425754D01*
G04 #@! TA.AperFunction,Conductor*
D18*
G36*
X144470000Y-94425754D02*
G01*
X144468597Y-94440000D01*
X144474196Y-94496850D01*
X144490779Y-94551515D01*
X144517707Y-94601895D01*
X144531292Y-94618448D01*
X144553947Y-94646053D01*
X144598105Y-94682293D01*
X144648485Y-94709221D01*
X144703150Y-94725804D01*
X144760000Y-94731403D01*
X144774245Y-94730000D01*
X145945755Y-94730000D01*
X145960000Y-94731403D01*
X145974245Y-94730000D01*
X146016850Y-94725804D01*
X146071515Y-94709221D01*
X146121895Y-94682293D01*
X146166053Y-94646053D01*
X146202293Y-94601895D01*
X146229221Y-94551515D01*
X146245804Y-94496850D01*
X146251403Y-94440000D01*
X146250000Y-94425755D01*
X146250000Y-89370000D01*
X153840001Y-89370000D01*
X153840001Y-93146831D01*
X153766530Y-93160691D01*
X153523506Y-93258550D01*
X153500181Y-93271018D01*
X153471804Y-93313262D01*
X153471804Y-93195857D01*
X153389304Y-93113357D01*
X152641804Y-93111760D01*
X152577113Y-93118132D01*
X152514907Y-93137001D01*
X152457579Y-93167644D01*
X152407330Y-93208883D01*
X152366091Y-93259132D01*
X152335448Y-93316460D01*
X152316579Y-93378666D01*
X152310207Y-93443357D01*
X152311804Y-94190857D01*
X152394304Y-94273357D01*
X152818574Y-94273357D01*
X152813165Y-94299210D01*
X152810573Y-94561184D01*
X152820415Y-94613357D01*
X152394304Y-94613357D01*
X152311804Y-94695857D01*
X152310207Y-95443357D01*
X152316579Y-95508048D01*
X152335448Y-95570254D01*
X152366091Y-95627582D01*
X152407330Y-95677831D01*
X152457579Y-95719070D01*
X152514907Y-95749713D01*
X152577113Y-95768582D01*
X152641804Y-95774954D01*
X153389304Y-95773357D01*
X153471804Y-95690857D01*
X153471804Y-95573452D01*
X153500181Y-95615696D01*
X153741222Y-95718345D01*
X153840000Y-95739011D01*
X153840000Y-102069878D01*
X149639879Y-106270000D01*
X115790000Y-106270000D01*
X115790000Y-103246386D01*
X116904030Y-103246386D01*
X117145457Y-103525952D01*
X117562856Y-103731965D01*
X118012425Y-103852590D01*
X118476889Y-103883190D01*
X118938397Y-103822589D01*
X119379216Y-103673117D01*
X119654543Y-103525952D01*
X119895970Y-103246386D01*
X118400000Y-101750416D01*
X116904030Y-103246386D01*
X115790000Y-103246386D01*
X115790000Y-101586889D01*
X116026810Y-101586889D01*
X116087411Y-102048397D01*
X116236883Y-102489216D01*
X116384048Y-102764543D01*
X116663614Y-103005970D01*
X118159584Y-101510000D01*
X118640416Y-101510000D01*
X120136386Y-103005970D01*
X120415952Y-102764543D01*
X120621965Y-102347144D01*
X120742590Y-101897575D01*
X120773190Y-101433111D01*
X120712589Y-100971603D01*
X120563117Y-100530784D01*
X120415952Y-100255457D01*
X120136386Y-100014030D01*
X118640416Y-101510000D01*
X118159584Y-101510000D01*
X116663614Y-100014030D01*
X116384048Y-100255457D01*
X116178035Y-100672856D01*
X116057410Y-101122425D01*
X116026810Y-101586889D01*
X115790000Y-101586889D01*
X115790000Y-99773614D01*
X116904030Y-99773614D01*
X118400000Y-101269584D01*
X119895970Y-99773614D01*
X119654543Y-99494048D01*
X119237144Y-99288035D01*
X118787575Y-99167410D01*
X118323111Y-99136810D01*
X117861603Y-99197411D01*
X117420784Y-99346883D01*
X117145457Y-99494048D01*
X116904030Y-99773614D01*
X115790000Y-99773614D01*
X115790000Y-98500000D01*
X122083234Y-98500000D01*
X122085001Y-98517939D01*
X122085000Y-103902071D01*
X122083234Y-103920000D01*
X122085000Y-103937929D01*
X122085000Y-103937930D01*
X122090281Y-103991551D01*
X122111152Y-104060354D01*
X122145045Y-104123763D01*
X122190657Y-104179342D01*
X122204588Y-104190775D01*
X123669221Y-105655408D01*
X123680657Y-105669343D01*
X123736236Y-105714955D01*
X123799645Y-105748848D01*
X123868448Y-105769719D01*
X123922069Y-105775000D01*
X123922070Y-105775000D01*
X123939999Y-105776766D01*
X123957928Y-105775000D01*
X126672071Y-105775000D01*
X126690000Y-105776766D01*
X126707929Y-105775000D01*
X126707931Y-105775000D01*
X126761552Y-105769719D01*
X126830355Y-105748848D01*
X126893764Y-105714955D01*
X126949343Y-105669343D01*
X126960779Y-105655408D01*
X127668683Y-104947504D01*
X127801080Y-104828147D01*
X127910340Y-104752036D01*
X128006105Y-104704455D01*
X128097841Y-104674978D01*
X128196504Y-104656360D01*
X128310333Y-104643640D01*
X128439611Y-104631561D01*
X128447567Y-104630684D01*
X128589162Y-104612674D01*
X128606034Y-104609914D01*
X128761486Y-104578764D01*
X128783052Y-104573393D01*
X128857651Y-104551099D01*
X128922941Y-104538112D01*
X129121309Y-104455945D01*
X129299834Y-104336658D01*
X129451658Y-104184834D01*
X129570945Y-104006309D01*
X129653112Y-103807941D01*
X129695000Y-103597356D01*
X129695000Y-103382644D01*
X129805000Y-103382644D01*
X129805000Y-103597356D01*
X129846888Y-103807941D01*
X129929055Y-104006309D01*
X130048342Y-104184834D01*
X130121894Y-104258386D01*
X130226711Y-104369213D01*
X130306523Y-104464646D01*
X130371066Y-104552123D01*
X130427843Y-104637615D01*
X130483465Y-104726251D01*
X130484077Y-104727222D01*
X130534280Y-104806378D01*
X130534637Y-104810001D01*
X130535282Y-104816552D01*
X130556153Y-104885355D01*
X130590046Y-104948764D01*
X130635658Y-105004343D01*
X130649587Y-105015774D01*
X131309225Y-105675413D01*
X131320657Y-105689343D01*
X131334585Y-105700773D01*
X131376234Y-105734954D01*
X131376236Y-105734955D01*
X131439645Y-105768848D01*
X131508448Y-105789719D01*
X131562069Y-105795000D01*
X131562070Y-105795000D01*
X131579999Y-105796766D01*
X131597928Y-105795000D01*
X136942071Y-105795000D01*
X136960000Y-105796766D01*
X136977929Y-105795000D01*
X136977931Y-105795000D01*
X137031552Y-105789719D01*
X137100355Y-105768848D01*
X137163764Y-105734955D01*
X137219343Y-105689343D01*
X137230779Y-105675408D01*
X137825418Y-105080770D01*
X137839342Y-105069343D01*
X137854986Y-105050281D01*
X137884954Y-105013766D01*
X137918847Y-104950357D01*
X137919159Y-104949330D01*
X137939719Y-104881552D01*
X137945000Y-104827931D01*
X137945000Y-104827930D01*
X137946766Y-104810001D01*
X137945000Y-104792072D01*
X137945000Y-104663819D01*
X137947075Y-104598361D01*
X137952061Y-104552598D01*
X137958852Y-104519423D01*
X137967025Y-104493467D01*
X137977698Y-104468488D01*
X137993073Y-104439045D01*
X138014803Y-104401579D01*
X138041462Y-104356560D01*
X138043893Y-104352359D01*
X138073125Y-104300637D01*
X138077669Y-104292208D01*
X138088887Y-104270368D01*
X138102851Y-104249470D01*
X138147327Y-104142097D01*
X138170000Y-104028110D01*
X138170000Y-103911890D01*
X138147327Y-103797903D01*
X138102851Y-103690530D01*
X138038283Y-103593897D01*
X137956103Y-103511717D01*
X137859470Y-103447149D01*
X137752097Y-103402673D01*
X137638110Y-103380000D01*
X137521890Y-103380000D01*
X137407903Y-103402673D01*
X137300530Y-103447149D01*
X137203897Y-103511717D01*
X137121717Y-103593897D01*
X137057149Y-103690530D01*
X137012673Y-103797903D01*
X136990000Y-103911890D01*
X136990000Y-104028110D01*
X137012673Y-104142097D01*
X137057149Y-104249470D01*
X137071108Y-104270361D01*
X137082328Y-104292205D01*
X137086874Y-104300637D01*
X137116106Y-104352359D01*
X137118537Y-104356560D01*
X137145196Y-104401579D01*
X137166926Y-104439045D01*
X137182301Y-104468488D01*
X137192974Y-104493467D01*
X137201147Y-104519423D01*
X137207938Y-104552598D01*
X137212926Y-104598374D01*
X137214847Y-104658965D01*
X136808813Y-105065000D01*
X131731188Y-105065000D01*
X131476652Y-104810465D01*
X131409920Y-104728045D01*
X131393720Y-104689284D01*
X131392928Y-104668045D01*
X131404099Y-104631134D01*
X131440667Y-104567300D01*
X131504845Y-104481937D01*
X131589210Y-104380425D01*
X131590575Y-104378767D01*
X131682338Y-104266322D01*
X131690918Y-104255155D01*
X131778617Y-104133801D01*
X131792429Y-104112376D01*
X131806426Y-104087902D01*
X131860945Y-104006309D01*
X131943112Y-103807941D01*
X131985000Y-103597356D01*
X131985000Y-103382644D01*
X132095000Y-103382644D01*
X132095000Y-103597356D01*
X132136888Y-103807941D01*
X132219055Y-104006309D01*
X132338342Y-104184834D01*
X132490166Y-104336658D01*
X132668691Y-104455945D01*
X132867059Y-104538112D01*
X133077644Y-104580000D01*
X133292356Y-104580000D01*
X133502941Y-104538112D01*
X133701309Y-104455945D01*
X133879834Y-104336658D01*
X134031658Y-104184834D01*
X134150945Y-104006309D01*
X134233112Y-103807941D01*
X134275000Y-103597356D01*
X134275000Y-103382644D01*
X134385000Y-103382644D01*
X134385000Y-103597356D01*
X134426888Y-103807941D01*
X134509055Y-104006309D01*
X134628342Y-104184834D01*
X134780166Y-104336658D01*
X134958691Y-104455945D01*
X135157059Y-104538112D01*
X135367644Y-104580000D01*
X135582356Y-104580000D01*
X135792941Y-104538112D01*
X135991309Y-104455945D01*
X136169834Y-104336658D01*
X136321658Y-104184834D01*
X136440945Y-104006309D01*
X136523112Y-103807941D01*
X136565000Y-103597356D01*
X136565000Y-103382644D01*
X136523112Y-103172059D01*
X136440945Y-102973691D01*
X136321658Y-102795166D01*
X136169834Y-102643342D01*
X135991309Y-102524055D01*
X135792941Y-102441888D01*
X135582356Y-102400000D01*
X135367644Y-102400000D01*
X135157059Y-102441888D01*
X134958691Y-102524055D01*
X134780166Y-102643342D01*
X134628342Y-102795166D01*
X134509055Y-102973691D01*
X134426888Y-103172059D01*
X134385000Y-103382644D01*
X134275000Y-103382644D01*
X134233112Y-103172059D01*
X134150945Y-102973691D01*
X134031658Y-102795166D01*
X133879834Y-102643342D01*
X133701309Y-102524055D01*
X133502941Y-102441888D01*
X133297273Y-102400978D01*
X133679438Y-102400978D01*
X133777791Y-102559273D01*
X133993104Y-102646842D01*
X134221364Y-102690723D01*
X134453799Y-102689229D01*
X134681476Y-102642419D01*
X134882209Y-102559273D01*
X134980562Y-102400978D01*
X134330000Y-101750416D01*
X133679438Y-102400978D01*
X133297273Y-102400978D01*
X133292356Y-102400000D01*
X133077644Y-102400000D01*
X132867059Y-102441888D01*
X132668691Y-102524055D01*
X132490166Y-102643342D01*
X132338342Y-102795166D01*
X132219055Y-102973691D01*
X132136888Y-103172059D01*
X132095000Y-103382644D01*
X131985000Y-103382644D01*
X131943112Y-103172059D01*
X131860945Y-102973691D01*
X131741658Y-102795166D01*
X131589834Y-102643342D01*
X131411309Y-102524055D01*
X131212941Y-102441888D01*
X131002356Y-102400000D01*
X130787644Y-102400000D01*
X130577059Y-102441888D01*
X130378691Y-102524055D01*
X130200166Y-102643342D01*
X130048342Y-102795166D01*
X129929055Y-102973691D01*
X129846888Y-103172059D01*
X129805000Y-103382644D01*
X129695000Y-103382644D01*
X129653112Y-103172059D01*
X129570945Y-102973691D01*
X129451658Y-102795166D01*
X129299834Y-102643342D01*
X129121309Y-102524055D01*
X128922941Y-102441888D01*
X128717273Y-102400978D01*
X129099438Y-102400978D01*
X129197791Y-102559273D01*
X129413104Y-102646842D01*
X129641364Y-102690723D01*
X129873799Y-102689229D01*
X130101476Y-102642419D01*
X130302209Y-102559273D01*
X130400562Y-102400978D01*
X129750000Y-101750416D01*
X129099438Y-102400978D01*
X128717273Y-102400978D01*
X128712356Y-102400000D01*
X128497644Y-102400000D01*
X128287059Y-102441888D01*
X128088691Y-102524055D01*
X127910166Y-102643342D01*
X127758342Y-102795166D01*
X127639055Y-102973691D01*
X127556888Y-103172059D01*
X127542826Y-103242753D01*
X127520248Y-103320663D01*
X127515080Y-103342156D01*
X127485199Y-103497583D01*
X127482594Y-103514285D01*
X127465602Y-103655820D01*
X127464802Y-103663538D01*
X127453528Y-103792578D01*
X127441416Y-103905992D01*
X127423270Y-104004162D01*
X127394216Y-104095372D01*
X127347060Y-104190622D01*
X127271391Y-104299392D01*
X127152487Y-104431326D01*
X126538813Y-105045000D01*
X124091187Y-105045000D01*
X122815000Y-103768813D01*
X122815000Y-103382644D01*
X125225000Y-103382644D01*
X125225000Y-103597356D01*
X125266888Y-103807941D01*
X125349055Y-104006309D01*
X125468342Y-104184834D01*
X125620166Y-104336658D01*
X125798691Y-104455945D01*
X125997059Y-104538112D01*
X126207644Y-104580000D01*
X126422356Y-104580000D01*
X126632941Y-104538112D01*
X126831309Y-104455945D01*
X127009834Y-104336658D01*
X127161658Y-104184834D01*
X127280945Y-104006309D01*
X127363112Y-103807941D01*
X127405000Y-103597356D01*
X127405000Y-103382644D01*
X127363112Y-103172059D01*
X127280945Y-102973691D01*
X127161658Y-102795166D01*
X127009834Y-102643342D01*
X126831309Y-102524055D01*
X126632941Y-102441888D01*
X126427273Y-102400978D01*
X126809438Y-102400978D01*
X126907791Y-102559273D01*
X127123104Y-102646842D01*
X127351364Y-102690723D01*
X127583799Y-102689229D01*
X127811476Y-102642419D01*
X128012209Y-102559273D01*
X128110562Y-102400978D01*
X127460000Y-101750416D01*
X126809438Y-102400978D01*
X126427273Y-102400978D01*
X126422356Y-102400000D01*
X126207644Y-102400000D01*
X125997059Y-102441888D01*
X125798691Y-102524055D01*
X125620166Y-102643342D01*
X125468342Y-102795166D01*
X125349055Y-102973691D01*
X125266888Y-103172059D01*
X125225000Y-103382644D01*
X122815000Y-103382644D01*
X122815000Y-102400978D01*
X124519438Y-102400978D01*
X124617791Y-102559273D01*
X124833104Y-102646842D01*
X125061364Y-102690723D01*
X125293799Y-102689229D01*
X125521476Y-102642419D01*
X125722209Y-102559273D01*
X125820562Y-102400978D01*
X125170000Y-101750416D01*
X124519438Y-102400978D01*
X122815000Y-102400978D01*
X122815000Y-101401364D01*
X123989277Y-101401364D01*
X123990771Y-101633799D01*
X124037581Y-101861476D01*
X124120727Y-102062209D01*
X124279022Y-102160562D01*
X124929584Y-101510000D01*
X125410416Y-101510000D01*
X126060978Y-102160562D01*
X126219273Y-102062209D01*
X126306842Y-101846896D01*
X126315415Y-101802302D01*
X126327581Y-101861476D01*
X126410727Y-102062209D01*
X126569022Y-102160562D01*
X127219584Y-101510000D01*
X127700416Y-101510000D01*
X128350978Y-102160562D01*
X128509273Y-102062209D01*
X128596842Y-101846896D01*
X128605415Y-101802302D01*
X128617581Y-101861476D01*
X128700727Y-102062209D01*
X128859022Y-102160562D01*
X129509584Y-101510000D01*
X129990416Y-101510000D01*
X130640978Y-102160562D01*
X130799273Y-102062209D01*
X130886842Y-101846896D01*
X130930723Y-101618636D01*
X130929335Y-101402644D01*
X130950000Y-101402644D01*
X130950000Y-101617356D01*
X130991888Y-101827941D01*
X131074055Y-102026309D01*
X131193342Y-102204834D01*
X131345166Y-102356658D01*
X131523691Y-102475945D01*
X131722059Y-102558112D01*
X131932644Y-102600000D01*
X132147356Y-102600000D01*
X132357941Y-102558112D01*
X132556309Y-102475945D01*
X132734834Y-102356658D01*
X132886658Y-102204834D01*
X133005945Y-102026309D01*
X133088112Y-101827941D01*
X133130000Y-101617356D01*
X133130000Y-101402644D01*
X133129746Y-101401364D01*
X133149277Y-101401364D01*
X133150771Y-101633799D01*
X133197581Y-101861476D01*
X133280727Y-102062209D01*
X133439022Y-102160562D01*
X134089584Y-101510000D01*
X133439022Y-100859438D01*
X133280727Y-100957791D01*
X133193158Y-101173104D01*
X133149277Y-101401364D01*
X133129746Y-101401364D01*
X133088112Y-101192059D01*
X133005945Y-100993691D01*
X132886658Y-100815166D01*
X132734834Y-100663342D01*
X132556309Y-100544055D01*
X132357941Y-100461888D01*
X132147356Y-100420000D01*
X131932644Y-100420000D01*
X131722059Y-100461888D01*
X131523691Y-100544055D01*
X131345166Y-100663342D01*
X131193342Y-100815166D01*
X131074055Y-100993691D01*
X130991888Y-101192059D01*
X130950000Y-101402644D01*
X130929335Y-101402644D01*
X130929229Y-101386201D01*
X130882419Y-101158524D01*
X130799273Y-100957791D01*
X130640978Y-100859438D01*
X129990416Y-101510000D01*
X129509584Y-101510000D01*
X128859022Y-100859438D01*
X128700727Y-100957791D01*
X128613158Y-101173104D01*
X128604585Y-101217698D01*
X128592419Y-101158524D01*
X128509273Y-100957791D01*
X128350978Y-100859438D01*
X127700416Y-101510000D01*
X127219584Y-101510000D01*
X126569022Y-100859438D01*
X126410727Y-100957791D01*
X126323158Y-101173104D01*
X126314585Y-101217698D01*
X126302419Y-101158524D01*
X126219273Y-100957791D01*
X126060978Y-100859438D01*
X125410416Y-101510000D01*
X124929584Y-101510000D01*
X124279022Y-100859438D01*
X124120727Y-100957791D01*
X124033158Y-101173104D01*
X123989277Y-101401364D01*
X122815000Y-101401364D01*
X122815000Y-100619022D01*
X124519438Y-100619022D01*
X125170000Y-101269584D01*
X125818423Y-100621161D01*
X126811577Y-100621161D01*
X127460000Y-101269584D01*
X128110562Y-100619022D01*
X128012209Y-100460727D01*
X127796896Y-100373158D01*
X127568636Y-100329277D01*
X127406161Y-100330321D01*
X127406161Y-99422644D01*
X127515000Y-99422644D01*
X127515000Y-99637356D01*
X127556888Y-99847941D01*
X127639055Y-100046309D01*
X127758342Y-100224834D01*
X127910166Y-100376658D01*
X128088691Y-100495945D01*
X128287059Y-100578112D01*
X128497644Y-100620000D01*
X128712356Y-100620000D01*
X128717272Y-100619022D01*
X129099438Y-100619022D01*
X129750000Y-101269584D01*
X130400562Y-100619022D01*
X130302209Y-100460727D01*
X130086896Y-100373158D01*
X129858636Y-100329277D01*
X129626201Y-100330771D01*
X129398524Y-100377581D01*
X129197791Y-100460727D01*
X129099438Y-100619022D01*
X128717272Y-100619022D01*
X128922941Y-100578112D01*
X129121309Y-100495945D01*
X129299834Y-100376658D01*
X129451658Y-100224834D01*
X129570945Y-100046309D01*
X129653112Y-99847941D01*
X129695000Y-99637356D01*
X129695000Y-99422644D01*
X129805000Y-99422644D01*
X129805000Y-99637356D01*
X129846888Y-99847941D01*
X129929055Y-100046309D01*
X130048342Y-100224834D01*
X130200166Y-100376658D01*
X130378691Y-100495945D01*
X130577059Y-100578112D01*
X130787644Y-100620000D01*
X131002356Y-100620000D01*
X131212941Y-100578112D01*
X131411309Y-100495945D01*
X131589834Y-100376658D01*
X131741658Y-100224834D01*
X131860945Y-100046309D01*
X131943112Y-99847941D01*
X131985000Y-99637356D01*
X131985000Y-99422644D01*
X132095000Y-99422644D01*
X132095000Y-99637356D01*
X132136888Y-99847941D01*
X132219055Y-100046309D01*
X132338342Y-100224834D01*
X132490166Y-100376658D01*
X132668691Y-100495945D01*
X132867059Y-100578112D01*
X133077644Y-100620000D01*
X133292356Y-100620000D01*
X133297272Y-100619022D01*
X133679438Y-100619022D01*
X134330000Y-101269584D01*
X134344143Y-101255442D01*
X134584559Y-101495858D01*
X134570416Y-101510000D01*
X135220978Y-102160562D01*
X135379273Y-102062209D01*
X135466842Y-101846896D01*
X135510723Y-101618636D01*
X135509229Y-101386201D01*
X135462419Y-101158524D01*
X135379273Y-100957791D01*
X135220980Y-100859439D01*
X135288359Y-100792060D01*
X135169100Y-100672801D01*
X135366364Y-100710723D01*
X135598799Y-100709229D01*
X135826476Y-100662419D01*
X136027209Y-100579273D01*
X136125562Y-100420978D01*
X135475000Y-99770416D01*
X135460858Y-99784559D01*
X135220442Y-99544143D01*
X135234584Y-99530000D01*
X135715416Y-99530000D01*
X136365978Y-100180562D01*
X136524273Y-100082209D01*
X136611842Y-99866896D01*
X136655723Y-99638636D01*
X136654229Y-99406201D01*
X136607419Y-99178524D01*
X136524273Y-98977791D01*
X136365978Y-98879438D01*
X135715416Y-99530000D01*
X135234584Y-99530000D01*
X134584022Y-98879438D01*
X134425727Y-98977791D01*
X134338158Y-99193104D01*
X134294277Y-99421364D01*
X134295771Y-99653799D01*
X134342581Y-99881476D01*
X134425727Y-100082209D01*
X134584020Y-100180561D01*
X134516641Y-100247940D01*
X134635900Y-100367199D01*
X134438636Y-100329277D01*
X134206201Y-100330771D01*
X133978524Y-100377581D01*
X133777791Y-100460727D01*
X133679438Y-100619022D01*
X133297272Y-100619022D01*
X133502941Y-100578112D01*
X133701309Y-100495945D01*
X133879834Y-100376658D01*
X134031658Y-100224834D01*
X134150945Y-100046309D01*
X134233112Y-99847941D01*
X134275000Y-99637356D01*
X134275000Y-99422644D01*
X134233112Y-99212059D01*
X134150945Y-99013691D01*
X134031658Y-98835166D01*
X133879834Y-98683342D01*
X133813505Y-98639022D01*
X134824438Y-98639022D01*
X135475000Y-99289584D01*
X136125562Y-98639022D01*
X136027209Y-98480727D01*
X135811896Y-98393158D01*
X135583636Y-98349277D01*
X135351201Y-98350771D01*
X135123524Y-98397581D01*
X134922791Y-98480727D01*
X134824438Y-98639022D01*
X133813505Y-98639022D01*
X133701309Y-98564055D01*
X133502941Y-98481888D01*
X133292356Y-98440000D01*
X133077644Y-98440000D01*
X132867059Y-98481888D01*
X132668691Y-98564055D01*
X132490166Y-98683342D01*
X132338342Y-98835166D01*
X132219055Y-99013691D01*
X132136888Y-99212059D01*
X132095000Y-99422644D01*
X131985000Y-99422644D01*
X131943112Y-99212059D01*
X131860945Y-99013691D01*
X131741658Y-98835166D01*
X131589834Y-98683342D01*
X131411309Y-98564055D01*
X131212941Y-98481888D01*
X131002356Y-98440000D01*
X130787644Y-98440000D01*
X130577059Y-98481888D01*
X130378691Y-98564055D01*
X130200166Y-98683342D01*
X130048342Y-98835166D01*
X129929055Y-99013691D01*
X129846888Y-99212059D01*
X129805000Y-99422644D01*
X129695000Y-99422644D01*
X129653112Y-99212059D01*
X129570945Y-99013691D01*
X129530417Y-98953037D01*
X129490581Y-98880941D01*
X129479091Y-98862225D01*
X129390048Y-98731042D01*
X129380159Y-98717515D01*
X129291920Y-98605256D01*
X129287115Y-98599338D01*
X129203756Y-98499954D01*
X129132159Y-98411098D01*
X129075577Y-98328669D01*
X129031621Y-98243387D01*
X128997604Y-98142365D01*
X128974202Y-98011553D01*
X128965000Y-97833794D01*
X128965000Y-96681187D01*
X131307510Y-94338678D01*
X131355236Y-94293884D01*
X131391130Y-94265044D01*
X131419385Y-94246391D01*
X131443524Y-94233813D01*
X131468740Y-94223695D01*
X131500416Y-94213752D01*
X131542236Y-94202634D01*
X131592958Y-94189643D01*
X131597653Y-94188390D01*
X131654896Y-94172487D01*
X131664068Y-94169740D01*
X131687433Y-94162233D01*
X131712097Y-94157327D01*
X131819470Y-94112851D01*
X131916103Y-94048283D01*
X131998283Y-93966103D01*
X132062851Y-93869470D01*
X132107327Y-93762097D01*
X132130000Y-93648110D01*
X132130000Y-93531890D01*
X132107327Y-93417903D01*
X132062851Y-93310530D01*
X131998283Y-93213897D01*
X131916103Y-93131717D01*
X131819470Y-93067149D01*
X131712097Y-93022673D01*
X131598110Y-93000000D01*
X131481890Y-93000000D01*
X131367903Y-93022673D01*
X131260530Y-93067149D01*
X131163897Y-93131717D01*
X131081717Y-93213897D01*
X131017149Y-93310530D01*
X130972673Y-93417903D01*
X130967769Y-93442556D01*
X130960260Y-93465926D01*
X130957512Y-93475103D01*
X130941609Y-93532346D01*
X130940356Y-93537041D01*
X130927365Y-93587763D01*
X130916247Y-93629583D01*
X130906304Y-93661259D01*
X130896186Y-93686475D01*
X130883608Y-93710614D01*
X130864955Y-93738869D01*
X130836114Y-93774763D01*
X130791316Y-93822496D01*
X128354588Y-96259225D01*
X128340657Y-96270658D01*
X128295045Y-96326237D01*
X128261152Y-96389646D01*
X128240281Y-96458449D01*
X128235692Y-96505045D01*
X128233234Y-96530000D01*
X128235000Y-96547929D01*
X128235000Y-97833798D01*
X128225786Y-98012492D01*
X128202340Y-98144219D01*
X128168239Y-98246175D01*
X128124178Y-98332413D01*
X128067587Y-98415792D01*
X127996158Y-98505707D01*
X127913396Y-98606097D01*
X127908431Y-98612327D01*
X127821150Y-98725661D01*
X127811246Y-98739512D01*
X127723449Y-98871984D01*
X127712086Y-98890975D01*
X127675278Y-98959480D01*
X127639055Y-99013691D01*
X127556888Y-99212059D01*
X127515000Y-99422644D01*
X127406161Y-99422644D01*
X127406161Y-98680000D01*
X127401527Y-98632952D01*
X127387804Y-98587712D01*
X127365518Y-98546018D01*
X127335527Y-98509473D01*
X127298982Y-98479482D01*
X127257288Y-98457196D01*
X127212048Y-98443473D01*
X127165000Y-98438839D01*
X125465000Y-98438839D01*
X125417952Y-98443473D01*
X125372712Y-98457196D01*
X125331018Y-98479482D01*
X125294473Y-98509473D01*
X125264482Y-98546018D01*
X125242196Y-98587712D01*
X125228473Y-98632952D01*
X125223839Y-98680000D01*
X125223839Y-100329629D01*
X125046201Y-100330771D01*
X124818524Y-100377581D01*
X124617791Y-100460727D01*
X124519438Y-100619022D01*
X122815000Y-100619022D01*
X122815000Y-98651187D01*
X123651188Y-97815000D01*
X125316180Y-97815000D01*
X125381637Y-97817075D01*
X125427400Y-97822061D01*
X125460575Y-97828852D01*
X125486531Y-97837025D01*
X125511510Y-97847698D01*
X125540953Y-97863073D01*
X125578419Y-97884803D01*
X125623438Y-97911462D01*
X125627639Y-97913893D01*
X125679361Y-97943125D01*
X125687791Y-97947670D01*
X125709636Y-97958891D01*
X125730529Y-97972851D01*
X125837902Y-98017327D01*
X125951889Y-98040000D01*
X126068109Y-98040000D01*
X126182096Y-98017327D01*
X126289469Y-97972851D01*
X126386102Y-97908283D01*
X126468282Y-97826103D01*
X126532850Y-97729470D01*
X126577326Y-97622097D01*
X126599999Y-97508110D01*
X126599999Y-97391890D01*
X126577326Y-97277903D01*
X126532850Y-97170530D01*
X126468282Y-97073897D01*
X126386102Y-96991717D01*
X126289469Y-96927149D01*
X126182096Y-96882673D01*
X126068109Y-96860000D01*
X125951889Y-96860000D01*
X125837902Y-96882673D01*
X125730529Y-96927149D01*
X125709636Y-96941109D01*
X125687794Y-96952328D01*
X125679361Y-96956874D01*
X125627639Y-96986106D01*
X125623438Y-96988537D01*
X125578419Y-97015196D01*
X125540953Y-97036926D01*
X125511510Y-97052301D01*
X125486531Y-97062974D01*
X125460575Y-97071147D01*
X125427400Y-97077938D01*
X125381624Y-97082926D01*
X125316208Y-97085000D01*
X123517928Y-97085000D01*
X123499999Y-97083234D01*
X123482070Y-97085000D01*
X123482069Y-97085000D01*
X123428448Y-97090281D01*
X123359645Y-97111152D01*
X123308780Y-97138340D01*
X123296234Y-97145046D01*
X123283747Y-97155294D01*
X123240657Y-97190657D01*
X123229225Y-97204587D01*
X122204587Y-98229226D01*
X122190658Y-98240657D01*
X122179227Y-98254586D01*
X122145046Y-98296236D01*
X122111153Y-98359645D01*
X122090282Y-98428448D01*
X122083234Y-98500000D01*
X115790000Y-98500000D01*
X115790000Y-94407660D01*
X115903134Y-94557588D01*
X116063705Y-94700712D01*
X116249112Y-94809760D01*
X116374616Y-94844812D01*
X116540000Y-94800966D01*
X116540000Y-93230000D01*
X116880000Y-93230000D01*
X116880000Y-94800966D01*
X117045384Y-94844812D01*
X117170888Y-94809760D01*
X117356295Y-94700712D01*
X117516866Y-94557588D01*
X117646429Y-94385888D01*
X117708617Y-94257175D01*
X118116000Y-94257175D01*
X118116001Y-95862826D01*
X118130384Y-96008858D01*
X118187222Y-96196228D01*
X118279522Y-96368909D01*
X118403736Y-96520265D01*
X118555092Y-96644479D01*
X118727773Y-96736779D01*
X118915143Y-96793617D01*
X119110000Y-96812809D01*
X119304858Y-96793617D01*
X119492228Y-96736779D01*
X119664909Y-96644479D01*
X119816265Y-96520265D01*
X119940479Y-96368909D01*
X120032779Y-96196228D01*
X120089617Y-96008858D01*
X120104000Y-95862826D01*
X120104000Y-94257174D01*
X120089617Y-94111142D01*
X120032779Y-93923772D01*
X119940479Y-93751091D01*
X119816265Y-93599735D01*
X119664909Y-93475521D01*
X119492227Y-93383221D01*
X119304857Y-93326383D01*
X119110000Y-93307191D01*
X118915142Y-93326383D01*
X118727772Y-93383221D01*
X118555091Y-93475521D01*
X118403735Y-93599735D01*
X118279521Y-93751091D01*
X118187221Y-93923773D01*
X118130383Y-94111143D01*
X118116000Y-94257175D01*
X117708617Y-94257175D01*
X117740006Y-94192211D01*
X117794000Y-93984000D01*
X117794000Y-93230000D01*
X116880000Y-93230000D01*
X116540000Y-93230000D01*
X116520000Y-93230000D01*
X116520000Y-92890000D01*
X116540000Y-92890000D01*
X116540000Y-91319034D01*
X116880000Y-91319034D01*
X116880000Y-92890000D01*
X117794000Y-92890000D01*
X117794000Y-92257175D01*
X121816000Y-92257175D01*
X121816001Y-93862826D01*
X121830384Y-94008858D01*
X121887222Y-94196228D01*
X121979522Y-94368909D01*
X122103736Y-94520265D01*
X122255092Y-94644479D01*
X122427773Y-94736779D01*
X122615143Y-94793617D01*
X122810000Y-94812809D01*
X123004858Y-94793617D01*
X123192228Y-94736779D01*
X123364909Y-94644479D01*
X123516265Y-94520265D01*
X123616000Y-94398737D01*
X123616001Y-95862826D01*
X123630384Y-96008858D01*
X123687222Y-96196228D01*
X123779522Y-96368909D01*
X123903736Y-96520265D01*
X124055092Y-96644479D01*
X124227773Y-96736779D01*
X124415143Y-96793617D01*
X124610000Y-96812809D01*
X124804858Y-96793617D01*
X124992228Y-96736779D01*
X125164909Y-96644479D01*
X125316265Y-96520265D01*
X125440479Y-96368909D01*
X125532779Y-96196228D01*
X125589617Y-96008858D01*
X125604000Y-95862826D01*
X125604000Y-94257174D01*
X125589617Y-94111142D01*
X125532779Y-93923772D01*
X125440479Y-93751091D01*
X125316265Y-93599735D01*
X125164909Y-93475521D01*
X124992227Y-93383221D01*
X124804857Y-93326383D01*
X124610000Y-93307191D01*
X124415142Y-93326383D01*
X124227772Y-93383221D01*
X124055091Y-93475521D01*
X123903735Y-93599735D01*
X123804000Y-93721263D01*
X123804000Y-93196977D01*
X123831021Y-93065231D01*
X123833670Y-93049759D01*
X123850886Y-92924769D01*
X123851720Y-92918010D01*
X123864070Y-92804628D01*
X123876953Y-92706109D01*
X123894621Y-92621711D01*
X123921300Y-92543530D01*
X123963502Y-92461356D01*
X124030586Y-92366580D01*
X124129651Y-92257175D01*
X127316000Y-92257175D01*
X127316001Y-93862826D01*
X127330384Y-94008858D01*
X127387222Y-94196228D01*
X127479522Y-94368909D01*
X127603736Y-94520265D01*
X127755092Y-94644479D01*
X127927773Y-94736779D01*
X128115143Y-94793617D01*
X128310000Y-94812809D01*
X128504858Y-94793617D01*
X128692228Y-94736779D01*
X128864909Y-94644479D01*
X129016265Y-94520265D01*
X129140479Y-94368909D01*
X129232779Y-94196228D01*
X129289617Y-94008858D01*
X129304000Y-93862826D01*
X129304000Y-92257174D01*
X129289617Y-92111142D01*
X129232779Y-91923772D01*
X129140479Y-91751091D01*
X129016265Y-91599735D01*
X128864909Y-91475521D01*
X128692227Y-91383221D01*
X128504857Y-91326383D01*
X128310000Y-91307191D01*
X128115142Y-91326383D01*
X127927772Y-91383221D01*
X127755091Y-91475521D01*
X127603735Y-91599735D01*
X127479521Y-91751091D01*
X127387221Y-91923773D01*
X127330383Y-92111143D01*
X127316000Y-92257175D01*
X124129651Y-92257175D01*
X124135783Y-92250404D01*
X125631187Y-90755000D01*
X131108813Y-90755000D01*
X132715000Y-92361188D01*
X132715001Y-95862061D01*
X132713234Y-95880000D01*
X132718386Y-95932301D01*
X132720282Y-95951552D01*
X132741153Y-96020355D01*
X132775046Y-96083764D01*
X132820658Y-96139343D01*
X132834588Y-96150775D01*
X134489225Y-97805413D01*
X134500657Y-97819343D01*
X134556236Y-97864955D01*
X134619645Y-97898848D01*
X134688448Y-97919719D01*
X134742069Y-97925000D01*
X134742071Y-97925000D01*
X134760000Y-97926766D01*
X134777929Y-97925000D01*
X135898817Y-97925000D01*
X136791332Y-98817516D01*
X136836109Y-98865225D01*
X136864955Y-98901126D01*
X136883608Y-98929381D01*
X136896186Y-98953520D01*
X136906304Y-98978736D01*
X136916247Y-99010412D01*
X136927365Y-99052232D01*
X136940356Y-99102954D01*
X136941609Y-99107649D01*
X136957512Y-99164892D01*
X136960260Y-99174068D01*
X136967769Y-99197436D01*
X136972673Y-99222093D01*
X137017149Y-99329466D01*
X137081717Y-99426099D01*
X137163897Y-99508279D01*
X137260530Y-99572847D01*
X137367903Y-99617323D01*
X137481890Y-99639996D01*
X137598110Y-99639996D01*
X137712097Y-99617323D01*
X137819470Y-99572847D01*
X137916103Y-99508279D01*
X137998283Y-99426099D01*
X138062851Y-99329466D01*
X138107327Y-99222093D01*
X138130000Y-99108106D01*
X138130000Y-98991886D01*
X138107327Y-98877899D01*
X138062851Y-98770526D01*
X137998283Y-98673893D01*
X137916103Y-98591713D01*
X137819470Y-98527145D01*
X137712097Y-98482669D01*
X137687440Y-98477765D01*
X137664072Y-98470256D01*
X137654896Y-98467508D01*
X137597653Y-98451605D01*
X137592958Y-98450352D01*
X137542236Y-98437361D01*
X137500416Y-98426243D01*
X137468740Y-98416300D01*
X137443524Y-98406182D01*
X137419385Y-98393604D01*
X137391130Y-98374951D01*
X137355229Y-98346105D01*
X137307520Y-98301328D01*
X136320783Y-97314592D01*
X136309347Y-97300657D01*
X136253768Y-97255045D01*
X136190359Y-97221152D01*
X136121556Y-97200281D01*
X136067935Y-97195000D01*
X136067933Y-97195000D01*
X136050004Y-97193234D01*
X136032075Y-97195000D01*
X134911188Y-97195000D01*
X133988078Y-96271890D01*
X135090000Y-96271890D01*
X135090000Y-96388110D01*
X135112673Y-96502097D01*
X135157149Y-96609470D01*
X135221717Y-96706103D01*
X135303897Y-96788283D01*
X135400530Y-96852851D01*
X135507903Y-96897327D01*
X135621890Y-96920000D01*
X135738110Y-96920000D01*
X135852097Y-96897327D01*
X135959470Y-96852851D01*
X135980368Y-96838887D01*
X135993572Y-96832105D01*
X136003188Y-96850096D01*
X136058052Y-96916948D01*
X136124904Y-96971812D01*
X136201175Y-97012580D01*
X136283934Y-97037684D01*
X136370000Y-97046161D01*
X136770000Y-97046161D01*
X136856066Y-97037684D01*
X136938825Y-97012580D01*
X137015096Y-96971812D01*
X137081948Y-96916948D01*
X137136812Y-96850096D01*
X137177580Y-96773825D01*
X137202684Y-96691066D01*
X137211161Y-96605000D01*
X137211161Y-96055000D01*
X137578839Y-96055000D01*
X137578839Y-96605000D01*
X137587316Y-96691066D01*
X137612420Y-96773825D01*
X137653188Y-96850096D01*
X137708052Y-96916948D01*
X137774904Y-96971812D01*
X137847554Y-97010644D01*
X137852267Y-97048666D01*
X137855000Y-97124355D01*
X137855000Y-97752071D01*
X137853234Y-97770000D01*
X137855000Y-97787929D01*
X137855000Y-97787930D01*
X137860281Y-97841551D01*
X137881152Y-97910354D01*
X137915045Y-97973763D01*
X137960657Y-98029342D01*
X137974588Y-98040775D01*
X138285001Y-98351189D01*
X138285000Y-103562071D01*
X138283234Y-103580000D01*
X138285000Y-103597929D01*
X138285000Y-103597930D01*
X138290281Y-103651551D01*
X138311152Y-103720354D01*
X138345045Y-103783763D01*
X138390657Y-103839342D01*
X138404588Y-103850775D01*
X140619225Y-106065413D01*
X140630657Y-106079343D01*
X140644585Y-106090773D01*
X140686234Y-106124954D01*
X140686236Y-106124955D01*
X140749645Y-106158848D01*
X140818448Y-106179719D01*
X140872069Y-106185000D01*
X140872070Y-106185000D01*
X140889999Y-106186766D01*
X140907928Y-106185000D01*
X148266273Y-106185000D01*
X148284202Y-106186766D01*
X148302131Y-106185000D01*
X148302133Y-106185000D01*
X148355754Y-106179719D01*
X148424557Y-106158848D01*
X148487966Y-106124955D01*
X148543545Y-106079343D01*
X148554981Y-106065408D01*
X152169542Y-102450848D01*
X152206804Y-102454518D01*
X152956804Y-102454518D01*
X153077011Y-102442679D01*
X153192599Y-102407616D01*
X153299125Y-102350676D01*
X153392496Y-102274049D01*
X153469123Y-102180678D01*
X153526063Y-102074152D01*
X153561126Y-101958564D01*
X153572965Y-101838357D01*
X153572965Y-99588357D01*
X153561126Y-99468150D01*
X153526063Y-99352562D01*
X153469123Y-99246036D01*
X153392496Y-99152665D01*
X153299125Y-99076038D01*
X153192599Y-99019098D01*
X153077011Y-98984035D01*
X152956804Y-98972196D01*
X152206804Y-98972196D01*
X152086597Y-98984035D01*
X151971009Y-99019098D01*
X151864483Y-99076038D01*
X151771112Y-99152665D01*
X151694485Y-99246036D01*
X151637545Y-99352562D01*
X151602482Y-99468150D01*
X151590643Y-99588357D01*
X151590643Y-101838357D01*
X151602482Y-101958564D01*
X151608759Y-101979256D01*
X148133015Y-105455000D01*
X141041188Y-105455000D01*
X139015000Y-103428813D01*
X139015000Y-98217929D01*
X139016766Y-98200000D01*
X139015000Y-98182069D01*
X139009719Y-98128448D01*
X138988848Y-98059645D01*
X138954955Y-97996236D01*
X138909343Y-97940657D01*
X138895413Y-97929225D01*
X138585000Y-97618813D01*
X138585000Y-97124338D01*
X138587732Y-97048666D01*
X138592445Y-97010645D01*
X138665096Y-96971812D01*
X138731948Y-96916948D01*
X138786812Y-96850096D01*
X138827580Y-96773825D01*
X138852684Y-96691066D01*
X138861161Y-96605000D01*
X138861161Y-96055000D01*
X138852684Y-95968934D01*
X138827580Y-95886175D01*
X138786812Y-95809904D01*
X138731948Y-95743052D01*
X138665096Y-95688188D01*
X138588825Y-95647420D01*
X138506066Y-95622316D01*
X138420000Y-95613839D01*
X138020000Y-95613839D01*
X137933934Y-95622316D01*
X137851175Y-95647420D01*
X137774904Y-95688188D01*
X137708052Y-95743052D01*
X137653188Y-95809904D01*
X137612420Y-95886175D01*
X137587316Y-95968934D01*
X137578839Y-96055000D01*
X137211161Y-96055000D01*
X137202684Y-95968934D01*
X137177580Y-95886175D01*
X137136812Y-95809904D01*
X137081948Y-95743052D01*
X137015096Y-95688188D01*
X136938825Y-95647420D01*
X136856066Y-95622316D01*
X136770000Y-95613839D01*
X136370000Y-95613839D01*
X136283934Y-95622316D01*
X136201175Y-95647420D01*
X136124904Y-95688188D01*
X136058052Y-95743052D01*
X136003188Y-95809904D01*
X135993572Y-95827894D01*
X135980361Y-95821108D01*
X135959470Y-95807149D01*
X135852097Y-95762673D01*
X135738110Y-95740000D01*
X135621890Y-95740000D01*
X135507903Y-95762673D01*
X135400530Y-95807149D01*
X135303897Y-95871717D01*
X135221717Y-95953897D01*
X135157149Y-96050530D01*
X135112673Y-96157903D01*
X135090000Y-96271890D01*
X133988078Y-96271890D01*
X133445000Y-95728813D01*
X133445000Y-93531890D01*
X135090000Y-93531890D01*
X135090000Y-93648110D01*
X135112673Y-93762097D01*
X135157149Y-93869470D01*
X135221717Y-93966103D01*
X135303897Y-94048283D01*
X135400530Y-94112851D01*
X135507903Y-94157327D01*
X135621890Y-94180000D01*
X135738110Y-94180000D01*
X135852097Y-94157327D01*
X135959470Y-94112851D01*
X135980368Y-94098887D01*
X136001417Y-94088075D01*
X136013188Y-94110096D01*
X136068052Y-94176948D01*
X136134904Y-94231812D01*
X136211175Y-94272580D01*
X136293934Y-94297684D01*
X136380000Y-94306161D01*
X136780000Y-94306161D01*
X136866066Y-94297684D01*
X136948825Y-94272580D01*
X137025096Y-94231812D01*
X137091948Y-94176948D01*
X137146812Y-94110096D01*
X137187580Y-94033825D01*
X137212684Y-93951066D01*
X137221161Y-93865000D01*
X137221161Y-93315000D01*
X137588839Y-93315000D01*
X137588839Y-93865000D01*
X137597316Y-93951066D01*
X137622420Y-94033825D01*
X137663188Y-94110096D01*
X137718052Y-94176948D01*
X137784904Y-94231812D01*
X137857554Y-94270644D01*
X137862267Y-94308666D01*
X137865001Y-94384362D01*
X137865001Y-94672062D01*
X137863234Y-94690000D01*
X137870282Y-94761552D01*
X137891153Y-94830355D01*
X137925046Y-94893764D01*
X137970658Y-94949343D01*
X137984587Y-94960775D01*
X139135000Y-96111188D01*
X139135001Y-103302061D01*
X139133234Y-103320000D01*
X139139144Y-103380000D01*
X139140282Y-103391552D01*
X139161153Y-103460355D01*
X139195046Y-103523764D01*
X139240658Y-103579343D01*
X139254588Y-103590775D01*
X140939221Y-105275408D01*
X140950657Y-105289343D01*
X141006236Y-105334955D01*
X141069645Y-105368848D01*
X141138448Y-105389719D01*
X141192069Y-105395000D01*
X141192070Y-105395000D01*
X141209999Y-105396766D01*
X141227928Y-105395000D01*
X147642073Y-105395000D01*
X147660002Y-105396766D01*
X147677931Y-105395000D01*
X147677933Y-105395000D01*
X147731554Y-105389719D01*
X147800357Y-105368848D01*
X147863766Y-105334955D01*
X147919345Y-105289343D01*
X147930781Y-105275408D01*
X148897509Y-104308681D01*
X148945238Y-104263884D01*
X148981132Y-104235044D01*
X149009387Y-104216391D01*
X149033526Y-104203813D01*
X149058742Y-104193695D01*
X149090418Y-104183752D01*
X149132238Y-104172634D01*
X149182960Y-104159643D01*
X149187655Y-104158390D01*
X149244898Y-104142487D01*
X149254070Y-104139740D01*
X149277435Y-104132233D01*
X149302099Y-104127327D01*
X149409472Y-104082851D01*
X149506105Y-104018283D01*
X149588285Y-103936103D01*
X149652853Y-103839470D01*
X149697329Y-103732097D01*
X149720002Y-103618110D01*
X149720002Y-103501890D01*
X149697329Y-103387903D01*
X149652853Y-103280530D01*
X149588285Y-103183897D01*
X149506105Y-103101717D01*
X149409472Y-103037149D01*
X149302099Y-102992673D01*
X149188112Y-102970000D01*
X149071892Y-102970000D01*
X148957905Y-102992673D01*
X148850532Y-103037149D01*
X148753899Y-103101717D01*
X148671719Y-103183897D01*
X148607151Y-103280530D01*
X148562675Y-103387903D01*
X148557771Y-103412556D01*
X148550262Y-103435926D01*
X148547514Y-103445103D01*
X148531611Y-103502346D01*
X148530358Y-103507041D01*
X148517367Y-103557763D01*
X148506249Y-103599583D01*
X148496306Y-103631259D01*
X148486188Y-103656475D01*
X148473610Y-103680614D01*
X148454957Y-103708869D01*
X148426116Y-103744763D01*
X148381316Y-103792499D01*
X147508815Y-104665000D01*
X141361187Y-104665000D01*
X139865000Y-103168813D01*
X139865000Y-98291890D01*
X140019998Y-98291890D01*
X140019998Y-98408110D01*
X140042671Y-98522097D01*
X140087147Y-98629470D01*
X140101106Y-98650361D01*
X140112326Y-98672205D01*
X140116872Y-98680637D01*
X140146104Y-98732359D01*
X140148535Y-98736560D01*
X140175194Y-98781579D01*
X140196924Y-98819045D01*
X140212299Y-98848488D01*
X140222972Y-98873467D01*
X140231145Y-98899423D01*
X140237936Y-98932598D01*
X140242924Y-98978374D01*
X140244999Y-99043817D01*
X140244998Y-103132069D01*
X140243232Y-103149998D01*
X140244998Y-103167927D01*
X140244998Y-103167928D01*
X140250279Y-103221549D01*
X140271150Y-103290352D01*
X140305043Y-103353761D01*
X140350655Y-103409340D01*
X140364586Y-103420773D01*
X141449225Y-104505413D01*
X141460657Y-104519343D01*
X141516236Y-104564955D01*
X141579645Y-104598848D01*
X141648448Y-104619719D01*
X141702069Y-104625000D01*
X141702071Y-104625000D01*
X141720000Y-104626766D01*
X141737929Y-104625000D01*
X146992071Y-104625000D01*
X147010000Y-104626766D01*
X147027929Y-104625000D01*
X147027931Y-104625000D01*
X147081552Y-104619719D01*
X147150355Y-104598848D01*
X147213764Y-104564955D01*
X147269343Y-104519343D01*
X147280779Y-104505408D01*
X149393353Y-102392834D01*
X149421009Y-102407616D01*
X149536597Y-102442679D01*
X149656804Y-102454518D01*
X150406804Y-102454518D01*
X150527011Y-102442679D01*
X150642599Y-102407616D01*
X150749125Y-102350676D01*
X150842496Y-102274049D01*
X150919123Y-102180678D01*
X150976063Y-102074152D01*
X151011126Y-101958564D01*
X151022965Y-101838357D01*
X151022965Y-99588357D01*
X151011126Y-99468150D01*
X150976063Y-99352562D01*
X150919123Y-99246036D01*
X150842496Y-99152665D01*
X150749125Y-99076038D01*
X150642599Y-99019098D01*
X150527011Y-98984035D01*
X150406804Y-98972196D01*
X149656804Y-98972196D01*
X149536597Y-98984035D01*
X149421009Y-99019098D01*
X149314483Y-99076038D01*
X149221112Y-99152665D01*
X149144485Y-99246036D01*
X149087545Y-99352562D01*
X149052482Y-99468150D01*
X149040643Y-99588357D01*
X149040643Y-101712182D01*
X149033097Y-101720716D01*
X146858813Y-103895000D01*
X141871188Y-103895000D01*
X141222574Y-103246386D01*
X141894030Y-103246386D01*
X142135457Y-103525952D01*
X142552856Y-103731965D01*
X143002425Y-103852590D01*
X143466889Y-103883190D01*
X143928397Y-103822589D01*
X144369216Y-103673117D01*
X144644543Y-103525952D01*
X144885970Y-103246386D01*
X143390000Y-101750416D01*
X141894030Y-103246386D01*
X141222574Y-103246386D01*
X140974998Y-102998811D01*
X140974998Y-101586889D01*
X141016810Y-101586889D01*
X141077411Y-102048397D01*
X141226883Y-102489216D01*
X141374048Y-102764543D01*
X141653614Y-103005970D01*
X143149584Y-101510000D01*
X143630416Y-101510000D01*
X145126386Y-103005970D01*
X145405952Y-102764543D01*
X145611965Y-102347144D01*
X145732590Y-101897575D01*
X145763190Y-101433111D01*
X145702589Y-100971603D01*
X145553117Y-100530784D01*
X145405952Y-100255457D01*
X145126386Y-100014030D01*
X143630416Y-101510000D01*
X143149584Y-101510000D01*
X141653614Y-100014030D01*
X141374048Y-100255457D01*
X141168035Y-100672856D01*
X141047410Y-101122425D01*
X141016810Y-101586889D01*
X140974998Y-101586889D01*
X140974998Y-99773614D01*
X141894030Y-99773614D01*
X143390000Y-101269584D01*
X144885970Y-99773614D01*
X144644543Y-99494048D01*
X144227144Y-99288035D01*
X143777575Y-99167410D01*
X143313111Y-99136810D01*
X142851603Y-99197411D01*
X142410784Y-99346883D01*
X142135457Y-99494048D01*
X141894030Y-99773614D01*
X140974998Y-99773614D01*
X140974998Y-99043819D01*
X140977073Y-98978361D01*
X140982059Y-98932598D01*
X140988850Y-98899423D01*
X140997023Y-98873467D01*
X141007696Y-98848488D01*
X141023071Y-98819045D01*
X141044801Y-98781579D01*
X141071460Y-98736560D01*
X141073891Y-98732359D01*
X141103123Y-98680637D01*
X141107667Y-98672208D01*
X141118885Y-98650368D01*
X141132849Y-98629470D01*
X141177325Y-98522097D01*
X141199998Y-98408110D01*
X141199998Y-98291890D01*
X141177325Y-98177903D01*
X141132849Y-98070530D01*
X141068281Y-97973897D01*
X140986101Y-97891717D01*
X140889468Y-97827149D01*
X140782095Y-97782673D01*
X140668108Y-97760000D01*
X140551888Y-97760000D01*
X140437901Y-97782673D01*
X140330528Y-97827149D01*
X140233895Y-97891717D01*
X140151715Y-97973897D01*
X140087147Y-98070530D01*
X140042671Y-98177903D01*
X140019998Y-98291890D01*
X139865000Y-98291890D01*
X139865000Y-96581890D01*
X139950000Y-96581890D01*
X139950000Y-96698110D01*
X139972673Y-96812097D01*
X140017149Y-96919470D01*
X140081717Y-97016103D01*
X140163897Y-97098283D01*
X140260530Y-97162851D01*
X140367903Y-97207327D01*
X140392560Y-97212232D01*
X140415929Y-97219740D01*
X140425103Y-97222487D01*
X140482346Y-97238390D01*
X140487041Y-97239643D01*
X140537763Y-97252634D01*
X140579583Y-97263752D01*
X140611259Y-97273695D01*
X140636475Y-97283813D01*
X140660614Y-97296391D01*
X140688869Y-97315044D01*
X140724770Y-97343890D01*
X140772487Y-97388674D01*
X142309225Y-98925413D01*
X142320657Y-98939343D01*
X142376236Y-98984955D01*
X142439645Y-99018848D01*
X142508448Y-99039719D01*
X142562069Y-99045000D01*
X142562071Y-99045000D01*
X142580000Y-99046766D01*
X142597929Y-99045000D01*
X144448813Y-99045000D01*
X145926762Y-100522950D01*
X146047123Y-100643817D01*
X146148089Y-100746154D01*
X146234154Y-100834240D01*
X146309787Y-100912324D01*
X146379674Y-100984888D01*
X146448324Y-101056228D01*
X146448695Y-101056612D01*
X146508086Y-101118056D01*
X146508086Y-101838540D01*
X146519925Y-101958747D01*
X146554988Y-102074335D01*
X146611928Y-102180861D01*
X146688555Y-102274232D01*
X146781926Y-102350859D01*
X146888452Y-102407799D01*
X147004040Y-102442862D01*
X147124247Y-102454701D01*
X147874247Y-102454701D01*
X147994454Y-102442862D01*
X148110042Y-102407799D01*
X148216568Y-102350859D01*
X148309939Y-102274232D01*
X148386566Y-102180861D01*
X148443506Y-102074335D01*
X148478569Y-101958747D01*
X148490408Y-101838540D01*
X148490408Y-99588540D01*
X148478569Y-99468333D01*
X148443506Y-99352745D01*
X148386566Y-99246219D01*
X148309939Y-99152848D01*
X148216568Y-99076221D01*
X148110042Y-99019281D01*
X147994454Y-98984218D01*
X147874247Y-98972379D01*
X147124247Y-98972379D01*
X147004040Y-98984218D01*
X146888452Y-99019281D01*
X146781926Y-99076221D01*
X146688555Y-99152848D01*
X146611928Y-99246219D01*
X146554988Y-99352745D01*
X146519925Y-99468333D01*
X146508086Y-99588540D01*
X146508086Y-100058708D01*
X146501970Y-100055479D01*
X146435946Y-99999759D01*
X144870779Y-98434592D01*
X144859343Y-98420657D01*
X144803764Y-98375045D01*
X144740355Y-98341152D01*
X144671552Y-98320281D01*
X144617931Y-98315000D01*
X144617929Y-98315000D01*
X144600000Y-98313234D01*
X144582071Y-98315000D01*
X142731188Y-98315000D01*
X141288674Y-96872487D01*
X141243890Y-96824770D01*
X141215044Y-96788869D01*
X141196391Y-96760614D01*
X141183813Y-96736475D01*
X141173695Y-96711259D01*
X141163752Y-96679583D01*
X141152634Y-96637763D01*
X141139643Y-96587041D01*
X141138390Y-96582346D01*
X141122487Y-96525103D01*
X141119740Y-96515929D01*
X141112232Y-96492560D01*
X141107327Y-96467903D01*
X141062851Y-96360530D01*
X140998283Y-96263897D01*
X140916103Y-96181717D01*
X140819470Y-96117149D01*
X140712097Y-96072673D01*
X140598110Y-96050000D01*
X140481890Y-96050000D01*
X140367903Y-96072673D01*
X140260530Y-96117149D01*
X140163897Y-96181717D01*
X140081717Y-96263897D01*
X140017149Y-96360530D01*
X139972673Y-96467903D01*
X139950000Y-96581890D01*
X139865000Y-96581890D01*
X139865000Y-95977928D01*
X139866766Y-95959999D01*
X139862900Y-95920749D01*
X139859719Y-95888448D01*
X139838848Y-95819645D01*
X139804955Y-95756236D01*
X139780160Y-95726023D01*
X139770772Y-95714584D01*
X139770770Y-95714582D01*
X139759342Y-95700657D01*
X139745418Y-95689230D01*
X138595000Y-94538813D01*
X138595000Y-94384338D01*
X138597732Y-94308666D01*
X138602445Y-94270645D01*
X138675096Y-94231812D01*
X138741948Y-94176948D01*
X138796812Y-94110096D01*
X138837580Y-94033825D01*
X138862684Y-93951066D01*
X138871161Y-93865000D01*
X138871161Y-93315000D01*
X138862684Y-93228934D01*
X138837580Y-93146175D01*
X138796812Y-93069904D01*
X138741948Y-93003052D01*
X138675096Y-92948188D01*
X138598825Y-92907420D01*
X138516066Y-92882316D01*
X138430000Y-92873839D01*
X138030000Y-92873839D01*
X137943934Y-92882316D01*
X137861175Y-92907420D01*
X137784904Y-92948188D01*
X137718052Y-93003052D01*
X137663188Y-93069904D01*
X137622420Y-93146175D01*
X137597316Y-93228934D01*
X137588839Y-93315000D01*
X137221161Y-93315000D01*
X137212684Y-93228934D01*
X137187580Y-93146175D01*
X137146812Y-93069904D01*
X137091948Y-93003052D01*
X137025096Y-92948188D01*
X136948825Y-92907420D01*
X136866066Y-92882316D01*
X136780000Y-92873839D01*
X136380000Y-92873839D01*
X136293934Y-92882316D01*
X136211175Y-92907420D01*
X136134904Y-92948188D01*
X136068052Y-93003052D01*
X136013188Y-93069904D01*
X136001418Y-93091924D01*
X135980361Y-93081108D01*
X135959470Y-93067149D01*
X135852097Y-93022673D01*
X135738110Y-93000000D01*
X135621890Y-93000000D01*
X135507903Y-93022673D01*
X135400530Y-93067149D01*
X135303897Y-93131717D01*
X135221717Y-93213897D01*
X135157149Y-93310530D01*
X135112673Y-93417903D01*
X135090000Y-93531890D01*
X133445000Y-93531890D01*
X133445000Y-92227929D01*
X133446766Y-92210000D01*
X133445000Y-92192069D01*
X133439719Y-92138448D01*
X133418848Y-92069645D01*
X133384955Y-92006236D01*
X133374130Y-91993046D01*
X133350773Y-91964585D01*
X133350770Y-91964582D01*
X133339342Y-91950657D01*
X133325418Y-91939230D01*
X132188078Y-90801890D01*
X135090000Y-90801890D01*
X135090000Y-90918110D01*
X135112673Y-91032097D01*
X135157149Y-91139470D01*
X135221717Y-91236103D01*
X135303897Y-91318283D01*
X135400530Y-91382851D01*
X135507903Y-91427327D01*
X135621890Y-91450000D01*
X135738110Y-91450000D01*
X135852097Y-91427327D01*
X135959470Y-91382851D01*
X135980368Y-91368887D01*
X135993572Y-91362105D01*
X136003188Y-91380096D01*
X136058052Y-91446948D01*
X136124904Y-91501812D01*
X136201175Y-91542580D01*
X136283934Y-91567684D01*
X136370000Y-91576161D01*
X136770000Y-91576161D01*
X136856066Y-91567684D01*
X136938825Y-91542580D01*
X137015096Y-91501812D01*
X137081948Y-91446948D01*
X137136812Y-91380096D01*
X137177580Y-91303825D01*
X137202684Y-91221066D01*
X137211161Y-91135000D01*
X137211161Y-90585000D01*
X137578839Y-90585000D01*
X137578839Y-91135000D01*
X137587316Y-91221066D01*
X137612420Y-91303825D01*
X137653188Y-91380096D01*
X137708052Y-91446948D01*
X137774904Y-91501812D01*
X137851175Y-91542580D01*
X137933934Y-91567684D01*
X137934742Y-91567764D01*
X137960658Y-91599343D01*
X137974587Y-91610775D01*
X139105000Y-92741188D01*
X139105001Y-94122061D01*
X139103234Y-94140000D01*
X139107791Y-94186259D01*
X139110282Y-94211552D01*
X139131153Y-94280355D01*
X139165046Y-94343764D01*
X139210658Y-94399343D01*
X139224588Y-94410775D01*
X142269225Y-97455413D01*
X142280657Y-97469343D01*
X142336236Y-97514955D01*
X142399645Y-97548848D01*
X142468448Y-97569719D01*
X142522069Y-97575000D01*
X142522071Y-97575000D01*
X142540000Y-97576766D01*
X142555069Y-97575282D01*
X142611638Y-97577075D01*
X142657401Y-97582061D01*
X142690576Y-97588852D01*
X142716532Y-97597025D01*
X142741511Y-97607698D01*
X142770954Y-97623073D01*
X142808420Y-97644803D01*
X142853439Y-97671462D01*
X142857640Y-97673893D01*
X142909362Y-97703125D01*
X142917792Y-97707670D01*
X142939637Y-97718891D01*
X142960530Y-97732851D01*
X143067903Y-97777327D01*
X143181890Y-97800000D01*
X143298110Y-97800000D01*
X143412097Y-97777327D01*
X143519470Y-97732851D01*
X143616103Y-97668283D01*
X143698283Y-97586103D01*
X143762851Y-97489470D01*
X143807327Y-97382097D01*
X143830000Y-97268110D01*
X143830000Y-97151890D01*
X143807327Y-97037903D01*
X143762851Y-96930530D01*
X143698283Y-96833897D01*
X143616103Y-96751717D01*
X143519470Y-96687149D01*
X143412097Y-96642673D01*
X143298110Y-96620000D01*
X143181890Y-96620000D01*
X143067903Y-96642673D01*
X142960530Y-96687149D01*
X142939637Y-96701109D01*
X142917795Y-96712328D01*
X142909362Y-96716874D01*
X142857640Y-96746106D01*
X142853439Y-96748537D01*
X142808420Y-96775196D01*
X142770954Y-96796926D01*
X142741511Y-96812301D01*
X142716532Y-96822974D01*
X142690576Y-96831147D01*
X142679585Y-96833397D01*
X139835000Y-93988813D01*
X139835000Y-93184999D01*
X139968839Y-93184999D01*
X139968839Y-93835001D01*
X139978277Y-93930822D01*
X140006226Y-94022960D01*
X140051614Y-94107875D01*
X140112696Y-94182304D01*
X140187125Y-94243386D01*
X140272040Y-94288774D01*
X140364178Y-94316723D01*
X140459999Y-94326161D01*
X141760001Y-94326161D01*
X141855822Y-94316723D01*
X141947960Y-94288774D01*
X142032875Y-94243386D01*
X142107304Y-94182304D01*
X142168386Y-94107875D01*
X142213774Y-94022960D01*
X142241723Y-93930822D01*
X142251161Y-93835001D01*
X142251161Y-93775009D01*
X142257151Y-93789470D01*
X142271110Y-93810361D01*
X142282330Y-93832205D01*
X142286876Y-93840637D01*
X142316108Y-93892359D01*
X142318539Y-93896560D01*
X142345198Y-93941579D01*
X142366928Y-93979045D01*
X142382303Y-94008488D01*
X142392976Y-94033467D01*
X142401149Y-94059423D01*
X142407940Y-94092598D01*
X142412928Y-94138374D01*
X142415003Y-94203807D01*
X142415003Y-94792064D01*
X142413236Y-94810002D01*
X142416579Y-94843939D01*
X142420284Y-94881554D01*
X142441155Y-94950357D01*
X142475048Y-95013766D01*
X142520660Y-95069345D01*
X142534590Y-95080777D01*
X144509225Y-97055413D01*
X144520657Y-97069343D01*
X144546172Y-97090282D01*
X144571643Y-97111186D01*
X144571643Y-97188357D01*
X144583482Y-97308564D01*
X144618545Y-97424152D01*
X144675485Y-97530678D01*
X144752112Y-97624049D01*
X144845483Y-97700676D01*
X144952009Y-97757616D01*
X145067597Y-97792679D01*
X145187804Y-97804518D01*
X147437804Y-97804518D01*
X147558011Y-97792679D01*
X147673599Y-97757616D01*
X147780125Y-97700676D01*
X147873496Y-97624049D01*
X147950123Y-97530678D01*
X148007063Y-97424152D01*
X148042126Y-97308564D01*
X148053965Y-97188357D01*
X148053965Y-96438357D01*
X148042126Y-96318150D01*
X148007063Y-96202562D01*
X147950123Y-96096036D01*
X147873496Y-96002665D01*
X147780125Y-95926038D01*
X147673599Y-95869098D01*
X147558011Y-95834035D01*
X147437804Y-95822196D01*
X145187804Y-95822196D01*
X145067597Y-95834035D01*
X144952009Y-95869098D01*
X144845483Y-95926038D01*
X144752112Y-96002665D01*
X144675485Y-96096036D01*
X144642999Y-96156812D01*
X143145002Y-94658815D01*
X143145002Y-94203819D01*
X143147077Y-94138361D01*
X143152063Y-94092598D01*
X143158854Y-94059423D01*
X143167027Y-94033467D01*
X143177700Y-94008488D01*
X143193075Y-93979045D01*
X143214805Y-93941579D01*
X143241464Y-93896560D01*
X143243895Y-93892359D01*
X143273127Y-93840637D01*
X143277671Y-93832208D01*
X143288889Y-93810368D01*
X143302853Y-93789470D01*
X143347329Y-93682097D01*
X143370002Y-93568110D01*
X143370002Y-93451890D01*
X143347329Y-93337903D01*
X143302853Y-93230530D01*
X143238285Y-93133897D01*
X143156105Y-93051717D01*
X143059472Y-92987149D01*
X142952099Y-92942673D01*
X142838112Y-92920000D01*
X142721892Y-92920000D01*
X142607905Y-92942673D01*
X142500532Y-92987149D01*
X142403899Y-93051717D01*
X142321719Y-93133897D01*
X142257151Y-93230530D01*
X142251161Y-93244991D01*
X142251161Y-93184999D01*
X142241723Y-93089178D01*
X142213774Y-92997040D01*
X142168386Y-92912125D01*
X142107304Y-92837696D01*
X142032875Y-92776614D01*
X141947960Y-92731226D01*
X141855822Y-92703277D01*
X141760001Y-92693839D01*
X140459999Y-92693839D01*
X140364178Y-92703277D01*
X140272040Y-92731226D01*
X140187125Y-92776614D01*
X140112696Y-92837696D01*
X140051614Y-92912125D01*
X140006226Y-92997040D01*
X139978277Y-93089178D01*
X139968839Y-93184999D01*
X139835000Y-93184999D01*
X139835000Y-92607929D01*
X139836766Y-92590000D01*
X139834768Y-92569718D01*
X139829719Y-92518448D01*
X139808848Y-92449645D01*
X139774955Y-92386236D01*
X139729342Y-92330657D01*
X139715418Y-92319230D01*
X138782066Y-91385879D01*
X138786812Y-91380096D01*
X138827580Y-91303825D01*
X138852684Y-91221066D01*
X138861161Y-91135000D01*
X138861161Y-90585000D01*
X138852684Y-90498934D01*
X138827580Y-90416175D01*
X138786812Y-90339904D01*
X138731948Y-90273052D01*
X138685581Y-90234999D01*
X139968839Y-90234999D01*
X139968839Y-90885001D01*
X139978277Y-90980822D01*
X140006226Y-91072960D01*
X140051614Y-91157875D01*
X140112696Y-91232304D01*
X140187125Y-91293386D01*
X140272040Y-91338774D01*
X140364178Y-91366723D01*
X140459999Y-91376161D01*
X141760001Y-91376161D01*
X141855822Y-91366723D01*
X141947960Y-91338774D01*
X142032875Y-91293386D01*
X142107304Y-91232304D01*
X142168386Y-91157875D01*
X142213774Y-91072960D01*
X142241723Y-90980822D01*
X142251161Y-90885001D01*
X142251161Y-90234999D01*
X142241723Y-90139178D01*
X142213774Y-90047040D01*
X142168386Y-89962125D01*
X142107304Y-89887696D01*
X142032875Y-89826614D01*
X141947960Y-89781226D01*
X141855822Y-89753277D01*
X141760001Y-89743839D01*
X140459999Y-89743839D01*
X140364178Y-89753277D01*
X140272040Y-89781226D01*
X140187125Y-89826614D01*
X140112696Y-89887696D01*
X140051614Y-89962125D01*
X140006226Y-90047040D01*
X139978277Y-90139178D01*
X139968839Y-90234999D01*
X138685581Y-90234999D01*
X138665096Y-90218188D01*
X138588825Y-90177420D01*
X138506066Y-90152316D01*
X138420000Y-90143839D01*
X138020000Y-90143839D01*
X137933934Y-90152316D01*
X137851175Y-90177420D01*
X137774904Y-90218188D01*
X137708052Y-90273052D01*
X137653188Y-90339904D01*
X137612420Y-90416175D01*
X137587316Y-90498934D01*
X137578839Y-90585000D01*
X137211161Y-90585000D01*
X137202684Y-90498934D01*
X137177580Y-90416175D01*
X137136812Y-90339904D01*
X137081948Y-90273052D01*
X137015096Y-90218188D01*
X136938825Y-90177420D01*
X136856066Y-90152316D01*
X136770000Y-90143839D01*
X136370000Y-90143839D01*
X136283934Y-90152316D01*
X136201175Y-90177420D01*
X136124904Y-90218188D01*
X136058052Y-90273052D01*
X136003188Y-90339904D01*
X135993572Y-90357894D01*
X135980361Y-90351108D01*
X135959470Y-90337149D01*
X135852097Y-90292673D01*
X135738110Y-90270000D01*
X135621890Y-90270000D01*
X135507903Y-90292673D01*
X135400530Y-90337149D01*
X135303897Y-90401717D01*
X135221717Y-90483897D01*
X135157149Y-90580530D01*
X135112673Y-90687903D01*
X135090000Y-90801890D01*
X132188078Y-90801890D01*
X131530779Y-90144592D01*
X131519343Y-90130657D01*
X131463764Y-90085045D01*
X131400355Y-90051152D01*
X131331552Y-90030281D01*
X131277931Y-90025000D01*
X131277929Y-90025000D01*
X131260000Y-90023234D01*
X131242071Y-90025000D01*
X125497928Y-90025000D01*
X125479999Y-90023234D01*
X125462070Y-90025000D01*
X125462069Y-90025000D01*
X125408448Y-90030281D01*
X125339645Y-90051152D01*
X125276236Y-90085045D01*
X125220657Y-90130657D01*
X125209221Y-90144592D01*
X123623460Y-91730353D01*
X123516265Y-91599735D01*
X123364909Y-91475521D01*
X123192227Y-91383221D01*
X123004857Y-91326383D01*
X122810000Y-91307191D01*
X122615142Y-91326383D01*
X122427772Y-91383221D01*
X122255091Y-91475521D01*
X122103735Y-91599735D01*
X121979521Y-91751091D01*
X121887221Y-91923773D01*
X121830383Y-92111143D01*
X121816000Y-92257175D01*
X117794000Y-92257175D01*
X117794000Y-92136000D01*
X117740006Y-91927789D01*
X117646429Y-91734112D01*
X117516866Y-91562412D01*
X117356295Y-91419288D01*
X117170888Y-91310240D01*
X117045384Y-91275188D01*
X116880000Y-91319034D01*
X116540000Y-91319034D01*
X116374616Y-91275188D01*
X116249112Y-91310240D01*
X116063705Y-91419288D01*
X115903134Y-91562412D01*
X115790000Y-91712340D01*
X115790000Y-89370000D01*
X144470001Y-89370000D01*
X144470000Y-94425754D01*
G37*
G04 #@! TD.AperFunction*
D19*
X135886532Y-90587000D02*
X135937895Y-90616029D01*
X135983835Y-90643233D01*
X135983934Y-90643291D01*
X136026859Y-90668187D01*
X136027352Y-90668458D01*
X136069749Y-90690598D01*
X136070638Y-90691020D01*
X136115088Y-90710013D01*
X136116264Y-90710448D01*
X136165346Y-90725902D01*
X136166613Y-90726230D01*
X136222907Y-90737753D01*
X136224078Y-90737936D01*
X136290164Y-90745137D01*
X136291137Y-90745206D01*
X136357300Y-90747304D01*
X136357300Y-90972696D01*
X136291138Y-90974793D01*
X136290164Y-90974862D01*
X136224078Y-90982063D01*
X136222907Y-90982246D01*
X136166613Y-90993769D01*
X136165346Y-90994097D01*
X136116264Y-91009551D01*
X136115088Y-91009986D01*
X136070638Y-91028979D01*
X136069749Y-91029401D01*
X136027352Y-91051541D01*
X136026859Y-91051812D01*
X135983934Y-91076708D01*
X135983835Y-91076766D01*
X135937895Y-91103970D01*
X135886532Y-91132999D01*
X135834826Y-91159559D01*
X135523322Y-90860000D01*
X135834826Y-90560441D01*
X135886532Y-90587000D01*
G04 #@! TA.AperFunction,Conductor*
D18*
G36*
X135886532Y-90587000D02*
G01*
X135937895Y-90616029D01*
X135983835Y-90643233D01*
X135983934Y-90643291D01*
X136026859Y-90668187D01*
X136027352Y-90668458D01*
X136069749Y-90690598D01*
X136070638Y-90691020D01*
X136115088Y-90710013D01*
X136116264Y-90710448D01*
X136165346Y-90725902D01*
X136166613Y-90726230D01*
X136222907Y-90737753D01*
X136224078Y-90737936D01*
X136290164Y-90745137D01*
X136291137Y-90745206D01*
X136357300Y-90747304D01*
X136357300Y-90972696D01*
X136291138Y-90974793D01*
X136290164Y-90974862D01*
X136224078Y-90982063D01*
X136222907Y-90982246D01*
X136166613Y-90993769D01*
X136165346Y-90994097D01*
X136116264Y-91009551D01*
X136115088Y-91009986D01*
X136070638Y-91028979D01*
X136069749Y-91029401D01*
X136027352Y-91051541D01*
X136026859Y-91051812D01*
X135983934Y-91076708D01*
X135983835Y-91076766D01*
X135937895Y-91103970D01*
X135886532Y-91132999D01*
X135834826Y-91159559D01*
X135523322Y-90860000D01*
X135834826Y-90560441D01*
X135886532Y-90587000D01*
G37*
G04 #@! TD.AperFunction*
D19*
X136751678Y-90860000D02*
X136393418Y-91204522D01*
X136331880Y-91172482D01*
X136272541Y-91137580D01*
X136219968Y-91104378D01*
X136171143Y-91073525D01*
X136170721Y-91073269D01*
X136122714Y-91045484D01*
X136121841Y-91045023D01*
X136071553Y-91020921D01*
X136070321Y-91020409D01*
X136014646Y-91000599D01*
X136013263Y-91000193D01*
X135949096Y-90985287D01*
X135947784Y-90985054D01*
X135872023Y-90975662D01*
X135870919Y-90975574D01*
X135792700Y-90972750D01*
X135792700Y-90747250D01*
X135870919Y-90744425D01*
X135872023Y-90744337D01*
X135947784Y-90734945D01*
X135949096Y-90734712D01*
X136013263Y-90719806D01*
X136014646Y-90719400D01*
X136070321Y-90699590D01*
X136071553Y-90699078D01*
X136121841Y-90674976D01*
X136122714Y-90674515D01*
X136170721Y-90646730D01*
X136171143Y-90646474D01*
X136219968Y-90615621D01*
X136272541Y-90582419D01*
X136331880Y-90547517D01*
X136393418Y-90515478D01*
X136751678Y-90860000D01*
G04 #@! TA.AperFunction,Conductor*
D18*
G36*
X136751678Y-90860000D02*
G01*
X136393418Y-91204522D01*
X136331880Y-91172482D01*
X136272541Y-91137580D01*
X136219968Y-91104378D01*
X136171143Y-91073525D01*
X136170721Y-91073269D01*
X136122714Y-91045484D01*
X136121841Y-91045023D01*
X136071553Y-91020921D01*
X136070321Y-91020409D01*
X136014646Y-91000599D01*
X136013263Y-91000193D01*
X135949096Y-90985287D01*
X135947784Y-90985054D01*
X135872023Y-90975662D01*
X135870919Y-90975574D01*
X135792700Y-90972750D01*
X135792700Y-90747250D01*
X135870919Y-90744425D01*
X135872023Y-90744337D01*
X135947784Y-90734945D01*
X135949096Y-90734712D01*
X136013263Y-90719806D01*
X136014646Y-90719400D01*
X136070321Y-90699590D01*
X136071553Y-90699078D01*
X136121841Y-90674976D01*
X136122714Y-90674515D01*
X136170721Y-90646730D01*
X136171143Y-90646474D01*
X136219968Y-90615621D01*
X136272541Y-90582419D01*
X136331880Y-90547517D01*
X136393418Y-90515478D01*
X136751678Y-90860000D01*
G37*
G04 #@! TD.AperFunction*
D19*
X128722618Y-98039655D02*
X128722799Y-98041235D01*
X128751982Y-98204356D01*
X128752448Y-98206172D01*
X128797930Y-98341245D01*
X128798677Y-98343010D01*
X128857875Y-98457863D01*
X128858693Y-98459232D01*
X128929025Y-98561693D01*
X128929607Y-98562474D01*
X129008491Y-98660373D01*
X129008650Y-98660566D01*
X129093360Y-98761561D01*
X129181216Y-98873332D01*
X129269679Y-99003661D01*
X129352165Y-99152945D01*
X128607420Y-99936670D01*
X127853401Y-99161866D01*
X127934409Y-99011100D01*
X128021634Y-98879491D01*
X128108513Y-98766680D01*
X128192523Y-98664776D01*
X128192668Y-98664597D01*
X128271056Y-98565922D01*
X128271620Y-98565154D01*
X128341632Y-98462000D01*
X128342433Y-98460646D01*
X128401448Y-98345139D01*
X128402183Y-98343389D01*
X128447581Y-98207657D01*
X128448040Y-98205855D01*
X128477200Y-98042026D01*
X128477380Y-98040454D01*
X128487062Y-97852700D01*
X128712940Y-97852700D01*
X128722618Y-98039655D01*
G04 #@! TA.AperFunction,Conductor*
D18*
G36*
X128722618Y-98039655D02*
G01*
X128722799Y-98041235D01*
X128751982Y-98204356D01*
X128752448Y-98206172D01*
X128797930Y-98341245D01*
X128798677Y-98343010D01*
X128857875Y-98457863D01*
X128858693Y-98459232D01*
X128929025Y-98561693D01*
X128929607Y-98562474D01*
X129008491Y-98660373D01*
X129008650Y-98660566D01*
X129093360Y-98761561D01*
X129181216Y-98873332D01*
X129269679Y-99003661D01*
X129352165Y-99152945D01*
X128607420Y-99936670D01*
X127853401Y-99161866D01*
X127934409Y-99011100D01*
X128021634Y-98879491D01*
X128108513Y-98766680D01*
X128192523Y-98664776D01*
X128192668Y-98664597D01*
X128271056Y-98565922D01*
X128271620Y-98565154D01*
X128341632Y-98462000D01*
X128342433Y-98460646D01*
X128401448Y-98345139D01*
X128402183Y-98343389D01*
X128447581Y-98207657D01*
X128448040Y-98205855D01*
X128477200Y-98042026D01*
X128477380Y-98040454D01*
X128487062Y-97852700D01*
X128712940Y-97852700D01*
X128722618Y-98039655D01*
G37*
G04 #@! TD.AperFunction*
D19*
X131642340Y-93911299D02*
X131587027Y-93929071D01*
X131530113Y-93944883D01*
X131478433Y-93958119D01*
X131478321Y-93958148D01*
X131430364Y-93970897D01*
X131429824Y-93971054D01*
X131384190Y-93985378D01*
X131383264Y-93985708D01*
X131338403Y-94003709D01*
X131337263Y-94004233D01*
X131291629Y-94028012D01*
X131290501Y-94028676D01*
X131242547Y-94060333D01*
X131241589Y-94061032D01*
X131189767Y-94102671D01*
X131189031Y-94103311D01*
X131140765Y-94148611D01*
X130981389Y-93989235D01*
X131026688Y-93940968D01*
X131027328Y-93940232D01*
X131068967Y-93888410D01*
X131069666Y-93887452D01*
X131101323Y-93839498D01*
X131101987Y-93838370D01*
X131125766Y-93792736D01*
X131126290Y-93791596D01*
X131144291Y-93746735D01*
X131144621Y-93745809D01*
X131158945Y-93700175D01*
X131159102Y-93699635D01*
X131171851Y-93651678D01*
X131171880Y-93651566D01*
X131185116Y-93599886D01*
X131200928Y-93542972D01*
X131218701Y-93487660D01*
X131650787Y-93479213D01*
X131642340Y-93911299D01*
G04 #@! TA.AperFunction,Conductor*
D18*
G36*
X131642340Y-93911299D02*
G01*
X131587027Y-93929071D01*
X131530113Y-93944883D01*
X131478433Y-93958119D01*
X131478321Y-93958148D01*
X131430364Y-93970897D01*
X131429824Y-93971054D01*
X131384190Y-93985378D01*
X131383264Y-93985708D01*
X131338403Y-94003709D01*
X131337263Y-94004233D01*
X131291629Y-94028012D01*
X131290501Y-94028676D01*
X131242547Y-94060333D01*
X131241589Y-94061032D01*
X131189767Y-94102671D01*
X131189031Y-94103311D01*
X131140765Y-94148611D01*
X130981389Y-93989235D01*
X131026688Y-93940968D01*
X131027328Y-93940232D01*
X131068967Y-93888410D01*
X131069666Y-93887452D01*
X131101323Y-93839498D01*
X131101987Y-93838370D01*
X131125766Y-93792736D01*
X131126290Y-93791596D01*
X131144291Y-93746735D01*
X131144621Y-93745809D01*
X131158945Y-93700175D01*
X131159102Y-93699635D01*
X131171851Y-93651678D01*
X131171880Y-93651566D01*
X131185116Y-93599886D01*
X131200928Y-93542972D01*
X131218701Y-93487660D01*
X131650787Y-93479213D01*
X131642340Y-93911299D01*
G37*
G04 #@! TD.AperFunction*
D19*
X135886532Y-93317000D02*
X135937895Y-93346029D01*
X135983835Y-93373233D01*
X135983934Y-93373291D01*
X136026859Y-93398187D01*
X136027352Y-93398458D01*
X136069749Y-93420598D01*
X136070638Y-93421020D01*
X136115088Y-93440013D01*
X136116264Y-93440448D01*
X136165346Y-93455902D01*
X136166613Y-93456230D01*
X136222907Y-93467753D01*
X136224078Y-93467936D01*
X136290164Y-93475137D01*
X136291137Y-93475206D01*
X136357300Y-93477304D01*
X136357300Y-93702696D01*
X136291138Y-93704793D01*
X136290164Y-93704862D01*
X136224078Y-93712063D01*
X136222907Y-93712246D01*
X136166613Y-93723769D01*
X136165346Y-93724097D01*
X136116264Y-93739551D01*
X136115088Y-93739986D01*
X136070638Y-93758979D01*
X136069749Y-93759401D01*
X136027352Y-93781541D01*
X136026859Y-93781812D01*
X135983934Y-93806708D01*
X135983835Y-93806766D01*
X135937895Y-93833970D01*
X135886532Y-93862999D01*
X135834826Y-93889559D01*
X135523322Y-93590000D01*
X135834826Y-93290441D01*
X135886532Y-93317000D01*
G04 #@! TA.AperFunction,Conductor*
D18*
G36*
X135886532Y-93317000D02*
G01*
X135937895Y-93346029D01*
X135983835Y-93373233D01*
X135983934Y-93373291D01*
X136026859Y-93398187D01*
X136027352Y-93398458D01*
X136069749Y-93420598D01*
X136070638Y-93421020D01*
X136115088Y-93440013D01*
X136116264Y-93440448D01*
X136165346Y-93455902D01*
X136166613Y-93456230D01*
X136222907Y-93467753D01*
X136224078Y-93467936D01*
X136290164Y-93475137D01*
X136291137Y-93475206D01*
X136357300Y-93477304D01*
X136357300Y-93702696D01*
X136291138Y-93704793D01*
X136290164Y-93704862D01*
X136224078Y-93712063D01*
X136222907Y-93712246D01*
X136166613Y-93723769D01*
X136165346Y-93724097D01*
X136116264Y-93739551D01*
X136115088Y-93739986D01*
X136070638Y-93758979D01*
X136069749Y-93759401D01*
X136027352Y-93781541D01*
X136026859Y-93781812D01*
X135983934Y-93806708D01*
X135983835Y-93806766D01*
X135937895Y-93833970D01*
X135886532Y-93862999D01*
X135834826Y-93889559D01*
X135523322Y-93590000D01*
X135834826Y-93290441D01*
X135886532Y-93317000D01*
G37*
G04 #@! TD.AperFunction*
D19*
X136761678Y-93590000D02*
X136403409Y-93934530D01*
X136340820Y-93902042D01*
X136280544Y-93866896D01*
X136227039Y-93833568D01*
X136227021Y-93833557D01*
X136177329Y-93802717D01*
X136176891Y-93802458D01*
X136128016Y-93774773D01*
X136127139Y-93774320D01*
X136075950Y-93750369D01*
X136074728Y-93749873D01*
X136018091Y-93730236D01*
X136016732Y-93729848D01*
X135951514Y-93715103D01*
X135950232Y-93714881D01*
X135873299Y-93705610D01*
X135872225Y-93705527D01*
X135792700Y-93702738D01*
X135792700Y-93477262D01*
X135872225Y-93474472D01*
X135873299Y-93474389D01*
X135950232Y-93465118D01*
X135951514Y-93464896D01*
X136016732Y-93450151D01*
X136018091Y-93449763D01*
X136074728Y-93430126D01*
X136075950Y-93429630D01*
X136127139Y-93405679D01*
X136128016Y-93405226D01*
X136176891Y-93377541D01*
X136177329Y-93377282D01*
X136227021Y-93346442D01*
X136227039Y-93346431D01*
X136280544Y-93313103D01*
X136340820Y-93277957D01*
X136403409Y-93245469D01*
X136761678Y-93590000D01*
G04 #@! TA.AperFunction,Conductor*
D18*
G36*
X136761678Y-93590000D02*
G01*
X136403409Y-93934530D01*
X136340820Y-93902042D01*
X136280544Y-93866896D01*
X136227039Y-93833568D01*
X136227021Y-93833557D01*
X136177329Y-93802717D01*
X136176891Y-93802458D01*
X136128016Y-93774773D01*
X136127139Y-93774320D01*
X136075950Y-93750369D01*
X136074728Y-93749873D01*
X136018091Y-93730236D01*
X136016732Y-93729848D01*
X135951514Y-93715103D01*
X135950232Y-93714881D01*
X135873299Y-93705610D01*
X135872225Y-93705527D01*
X135792700Y-93702738D01*
X135792700Y-93477262D01*
X135872225Y-93474472D01*
X135873299Y-93474389D01*
X135950232Y-93465118D01*
X135951514Y-93464896D01*
X136016732Y-93450151D01*
X136018091Y-93449763D01*
X136074728Y-93430126D01*
X136075950Y-93429630D01*
X136127139Y-93405679D01*
X136128016Y-93405226D01*
X136176891Y-93377541D01*
X136177329Y-93377282D01*
X136227021Y-93346442D01*
X136227039Y-93346431D01*
X136280544Y-93313103D01*
X136340820Y-93277957D01*
X136403409Y-93245469D01*
X136761678Y-93590000D01*
G37*
G04 #@! TD.AperFunction*
D19*
X135886532Y-96057000D02*
X135937895Y-96086029D01*
X135983835Y-96113233D01*
X135983934Y-96113291D01*
X136026859Y-96138187D01*
X136027352Y-96138458D01*
X136069749Y-96160598D01*
X136070638Y-96161020D01*
X136115088Y-96180013D01*
X136116264Y-96180448D01*
X136165346Y-96195902D01*
X136166613Y-96196230D01*
X136222907Y-96207753D01*
X136224078Y-96207936D01*
X136290164Y-96215137D01*
X136291137Y-96215206D01*
X136357300Y-96217304D01*
X136357300Y-96442696D01*
X136291138Y-96444793D01*
X136290164Y-96444862D01*
X136224078Y-96452063D01*
X136222907Y-96452246D01*
X136166613Y-96463769D01*
X136165346Y-96464097D01*
X136116264Y-96479551D01*
X136115088Y-96479986D01*
X136070638Y-96498979D01*
X136069749Y-96499401D01*
X136027352Y-96521541D01*
X136026859Y-96521812D01*
X135983934Y-96546708D01*
X135983835Y-96546766D01*
X135937895Y-96573970D01*
X135886532Y-96602999D01*
X135834826Y-96629559D01*
X135523322Y-96330000D01*
X135834826Y-96030441D01*
X135886532Y-96057000D01*
G04 #@! TA.AperFunction,Conductor*
D18*
G36*
X135886532Y-96057000D02*
G01*
X135937895Y-96086029D01*
X135983835Y-96113233D01*
X135983934Y-96113291D01*
X136026859Y-96138187D01*
X136027352Y-96138458D01*
X136069749Y-96160598D01*
X136070638Y-96161020D01*
X136115088Y-96180013D01*
X136116264Y-96180448D01*
X136165346Y-96195902D01*
X136166613Y-96196230D01*
X136222907Y-96207753D01*
X136224078Y-96207936D01*
X136290164Y-96215137D01*
X136291137Y-96215206D01*
X136357300Y-96217304D01*
X136357300Y-96442696D01*
X136291138Y-96444793D01*
X136290164Y-96444862D01*
X136224078Y-96452063D01*
X136222907Y-96452246D01*
X136166613Y-96463769D01*
X136165346Y-96464097D01*
X136116264Y-96479551D01*
X136115088Y-96479986D01*
X136070638Y-96498979D01*
X136069749Y-96499401D01*
X136027352Y-96521541D01*
X136026859Y-96521812D01*
X135983934Y-96546708D01*
X135983835Y-96546766D01*
X135937895Y-96573970D01*
X135886532Y-96602999D01*
X135834826Y-96629559D01*
X135523322Y-96330000D01*
X135834826Y-96030441D01*
X135886532Y-96057000D01*
G37*
G04 #@! TD.AperFunction*
D19*
X136751678Y-96330000D02*
X136393409Y-96674530D01*
X136330820Y-96642042D01*
X136270544Y-96606896D01*
X136217039Y-96573568D01*
X136217021Y-96573557D01*
X136167329Y-96542717D01*
X136166891Y-96542458D01*
X136118016Y-96514773D01*
X136117139Y-96514320D01*
X136065950Y-96490369D01*
X136064728Y-96489873D01*
X136008091Y-96470236D01*
X136006732Y-96469848D01*
X135941514Y-96455103D01*
X135940232Y-96454881D01*
X135863299Y-96445610D01*
X135862225Y-96445527D01*
X135782700Y-96442738D01*
X135782700Y-96217262D01*
X135862225Y-96214472D01*
X135863299Y-96214389D01*
X135940232Y-96205118D01*
X135941514Y-96204896D01*
X136006732Y-96190151D01*
X136008091Y-96189763D01*
X136064728Y-96170126D01*
X136065950Y-96169630D01*
X136117139Y-96145679D01*
X136118016Y-96145226D01*
X136166891Y-96117541D01*
X136167329Y-96117282D01*
X136217021Y-96086442D01*
X136217039Y-96086431D01*
X136270544Y-96053103D01*
X136330820Y-96017957D01*
X136393409Y-95985469D01*
X136751678Y-96330000D01*
G04 #@! TA.AperFunction,Conductor*
D18*
G36*
X136751678Y-96330000D02*
G01*
X136393409Y-96674530D01*
X136330820Y-96642042D01*
X136270544Y-96606896D01*
X136217039Y-96573568D01*
X136217021Y-96573557D01*
X136167329Y-96542717D01*
X136166891Y-96542458D01*
X136118016Y-96514773D01*
X136117139Y-96514320D01*
X136065950Y-96490369D01*
X136064728Y-96489873D01*
X136008091Y-96470236D01*
X136006732Y-96469848D01*
X135941514Y-96455103D01*
X135940232Y-96454881D01*
X135863299Y-96445610D01*
X135862225Y-96445527D01*
X135782700Y-96442738D01*
X135782700Y-96217262D01*
X135862225Y-96214472D01*
X135863299Y-96214389D01*
X135940232Y-96205118D01*
X135941514Y-96204896D01*
X136006732Y-96190151D01*
X136008091Y-96189763D01*
X136064728Y-96170126D01*
X136065950Y-96169630D01*
X136117139Y-96145679D01*
X136118016Y-96145226D01*
X136166891Y-96117541D01*
X136167329Y-96117282D01*
X136217021Y-96086442D01*
X136217039Y-96086431D01*
X136270544Y-96053103D01*
X136330820Y-96017957D01*
X136393409Y-95985469D01*
X136751678Y-96330000D01*
G37*
G04 #@! TD.AperFunction*
D19*
X126166677Y-97450000D02*
X125855173Y-97749559D01*
X125803466Y-97722999D01*
X125752103Y-97693970D01*
X125706163Y-97666766D01*
X125706064Y-97666708D01*
X125663139Y-97641812D01*
X125662646Y-97641541D01*
X125620249Y-97619401D01*
X125619360Y-97618979D01*
X125574910Y-97599986D01*
X125573734Y-97599551D01*
X125524652Y-97584097D01*
X125523385Y-97583769D01*
X125467091Y-97572246D01*
X125465920Y-97572063D01*
X125399834Y-97564862D01*
X125398860Y-97564793D01*
X125332699Y-97562696D01*
X125332699Y-97337304D01*
X125398861Y-97335206D01*
X125399834Y-97335137D01*
X125465920Y-97327936D01*
X125467091Y-97327753D01*
X125523385Y-97316230D01*
X125524652Y-97315902D01*
X125573734Y-97300448D01*
X125574910Y-97300013D01*
X125619360Y-97281020D01*
X125620249Y-97280598D01*
X125662646Y-97258458D01*
X125663139Y-97258187D01*
X125706064Y-97233291D01*
X125706163Y-97233233D01*
X125752103Y-97206029D01*
X125803466Y-97177000D01*
X125855173Y-97150441D01*
X126166677Y-97450000D01*
G04 #@! TA.AperFunction,Conductor*
D18*
G36*
X126166677Y-97450000D02*
G01*
X125855173Y-97749559D01*
X125803466Y-97722999D01*
X125752103Y-97693970D01*
X125706163Y-97666766D01*
X125706064Y-97666708D01*
X125663139Y-97641812D01*
X125662646Y-97641541D01*
X125620249Y-97619401D01*
X125619360Y-97618979D01*
X125574910Y-97599986D01*
X125573734Y-97599551D01*
X125524652Y-97584097D01*
X125523385Y-97583769D01*
X125467091Y-97572246D01*
X125465920Y-97572063D01*
X125399834Y-97564862D01*
X125398860Y-97564793D01*
X125332699Y-97562696D01*
X125332699Y-97337304D01*
X125398861Y-97335206D01*
X125399834Y-97335137D01*
X125465920Y-97327936D01*
X125467091Y-97327753D01*
X125523385Y-97316230D01*
X125524652Y-97315902D01*
X125573734Y-97300448D01*
X125574910Y-97300013D01*
X125619360Y-97281020D01*
X125620249Y-97280598D01*
X125662646Y-97258458D01*
X125663139Y-97258187D01*
X125706064Y-97233291D01*
X125706163Y-97233233D01*
X125752103Y-97206029D01*
X125803466Y-97177000D01*
X125855173Y-97150441D01*
X126166677Y-97450000D01*
G37*
G04 #@! TD.AperFunction*
D19*
X128874784Y-104282236D02*
X128711257Y-104331106D01*
X128556827Y-104362051D01*
X128415909Y-104379975D01*
X128284666Y-104392238D01*
X128284437Y-104392262D01*
X128159459Y-104406228D01*
X128158514Y-104406369D01*
X128036294Y-104429432D01*
X128034764Y-104429821D01*
X127911605Y-104469395D01*
X127909839Y-104470112D01*
X127782040Y-104533609D01*
X127780432Y-104534562D01*
X127644295Y-104629395D01*
X127643050Y-104630383D01*
X127503832Y-104755891D01*
X127344108Y-104596167D01*
X127469215Y-104457351D01*
X127470206Y-104456102D01*
X127564672Y-104320311D01*
X127565629Y-104318693D01*
X127628755Y-104191185D01*
X127629474Y-104189405D01*
X127668629Y-104066484D01*
X127669016Y-104064937D01*
X127691573Y-103942907D01*
X127691713Y-103941948D01*
X127705044Y-103817113D01*
X127705068Y-103816869D01*
X127716527Y-103685720D01*
X127733437Y-103544863D01*
X127763127Y-103390433D01*
X127810511Y-103226923D01*
X128891346Y-103201223D01*
X128874784Y-104282236D01*
G04 #@! TA.AperFunction,Conductor*
D18*
G36*
X128874784Y-104282236D02*
G01*
X128711257Y-104331106D01*
X128556827Y-104362051D01*
X128415909Y-104379975D01*
X128284666Y-104392238D01*
X128284437Y-104392262D01*
X128159459Y-104406228D01*
X128158514Y-104406369D01*
X128036294Y-104429432D01*
X128034764Y-104429821D01*
X127911605Y-104469395D01*
X127909839Y-104470112D01*
X127782040Y-104533609D01*
X127780432Y-104534562D01*
X127644295Y-104629395D01*
X127643050Y-104630383D01*
X127503832Y-104755891D01*
X127344108Y-104596167D01*
X127469215Y-104457351D01*
X127470206Y-104456102D01*
X127564672Y-104320311D01*
X127565629Y-104318693D01*
X127628755Y-104191185D01*
X127629474Y-104189405D01*
X127668629Y-104066484D01*
X127669016Y-104064937D01*
X127691573Y-103942907D01*
X127691713Y-103941948D01*
X127705044Y-103817113D01*
X127705068Y-103816869D01*
X127716527Y-103685720D01*
X127733437Y-103544863D01*
X127763127Y-103390433D01*
X127810511Y-103226923D01*
X128891346Y-103201223D01*
X128874784Y-104282236D01*
G37*
G04 #@! TD.AperFunction*
D19*
X137189031Y-98536684D02*
X137189767Y-98537324D01*
X137241589Y-98578963D01*
X137242547Y-98579662D01*
X137290501Y-98611319D01*
X137291629Y-98611983D01*
X137337263Y-98635762D01*
X137338403Y-98636286D01*
X137383264Y-98654287D01*
X137384190Y-98654617D01*
X137429824Y-98668941D01*
X137430364Y-98669098D01*
X137478321Y-98681847D01*
X137478433Y-98681876D01*
X137530113Y-98695112D01*
X137587027Y-98710924D01*
X137642340Y-98728697D01*
X137650787Y-99160783D01*
X137218701Y-99152336D01*
X137200928Y-99097023D01*
X137185116Y-99040109D01*
X137171880Y-98988429D01*
X137171851Y-98988317D01*
X137159102Y-98940360D01*
X137158945Y-98939820D01*
X137144621Y-98894186D01*
X137144291Y-98893260D01*
X137126290Y-98848399D01*
X137125766Y-98847259D01*
X137101987Y-98801625D01*
X137101323Y-98800497D01*
X137069666Y-98752543D01*
X137068967Y-98751585D01*
X137027328Y-98699763D01*
X137026688Y-98699027D01*
X136981389Y-98650761D01*
X137140765Y-98491385D01*
X137189031Y-98536684D01*
G04 #@! TA.AperFunction,Conductor*
D18*
G36*
X137189031Y-98536684D02*
G01*
X137189767Y-98537324D01*
X137241589Y-98578963D01*
X137242547Y-98579662D01*
X137290501Y-98611319D01*
X137291629Y-98611983D01*
X137337263Y-98635762D01*
X137338403Y-98636286D01*
X137383264Y-98654287D01*
X137384190Y-98654617D01*
X137429824Y-98668941D01*
X137430364Y-98669098D01*
X137478321Y-98681847D01*
X137478433Y-98681876D01*
X137530113Y-98695112D01*
X137587027Y-98710924D01*
X137642340Y-98728697D01*
X137650787Y-99160783D01*
X137218701Y-99152336D01*
X137200928Y-99097023D01*
X137185116Y-99040109D01*
X137171880Y-98988429D01*
X137171851Y-98988317D01*
X137159102Y-98940360D01*
X137158945Y-98939820D01*
X137144621Y-98894186D01*
X137144291Y-98893260D01*
X137126290Y-98848399D01*
X137125766Y-98847259D01*
X137101987Y-98801625D01*
X137101323Y-98800497D01*
X137069666Y-98752543D01*
X137068967Y-98751585D01*
X137027328Y-98699763D01*
X137026688Y-98699027D01*
X136981389Y-98650761D01*
X137140765Y-98491385D01*
X137189031Y-98536684D01*
G37*
G04 #@! TD.AperFunction*
D19*
X123944350Y-92085334D02*
X123833600Y-92207643D01*
X123832648Y-92208830D01*
X123747416Y-92329245D01*
X123746485Y-92330780D01*
X123688513Y-92443661D01*
X123687791Y-92445361D01*
X123650710Y-92554027D01*
X123650298Y-92555527D01*
X123627737Y-92663296D01*
X123627575Y-92664251D01*
X123613166Y-92774442D01*
X123613134Y-92774714D01*
X123600526Y-92890462D01*
X123583391Y-93014863D01*
X123555412Y-93151283D01*
X123512712Y-93294927D01*
X122556377Y-93313623D01*
X122575073Y-92357288D01*
X122718716Y-92314587D01*
X122855136Y-92286608D01*
X122979537Y-92269473D01*
X123095285Y-92256865D01*
X123095557Y-92256833D01*
X123205748Y-92242424D01*
X123206703Y-92242262D01*
X123314472Y-92219701D01*
X123315972Y-92219289D01*
X123424638Y-92182208D01*
X123426338Y-92181486D01*
X123539219Y-92123514D01*
X123540754Y-92122583D01*
X123661169Y-92037351D01*
X123662356Y-92036399D01*
X123784666Y-91925650D01*
X123944350Y-92085334D01*
G04 #@! TA.AperFunction,Conductor*
D18*
G36*
X123944350Y-92085334D02*
G01*
X123833600Y-92207643D01*
X123832648Y-92208830D01*
X123747416Y-92329245D01*
X123746485Y-92330780D01*
X123688513Y-92443661D01*
X123687791Y-92445361D01*
X123650710Y-92554027D01*
X123650298Y-92555527D01*
X123627737Y-92663296D01*
X123627575Y-92664251D01*
X123613166Y-92774442D01*
X123613134Y-92774714D01*
X123600526Y-92890462D01*
X123583391Y-93014863D01*
X123555412Y-93151283D01*
X123512712Y-93294927D01*
X122556377Y-93313623D01*
X122575073Y-92357288D01*
X122718716Y-92314587D01*
X122855136Y-92286608D01*
X122979537Y-92269473D01*
X123095285Y-92256865D01*
X123095557Y-92256833D01*
X123205748Y-92242424D01*
X123206703Y-92242262D01*
X123314472Y-92219701D01*
X123315972Y-92219289D01*
X123424638Y-92182208D01*
X123426338Y-92181486D01*
X123539219Y-92123514D01*
X123540754Y-92122583D01*
X123661169Y-92037351D01*
X123662356Y-92036399D01*
X123784666Y-91925650D01*
X123944350Y-92085334D01*
G37*
G04 #@! TD.AperFunction*
D19*
X143396678Y-97210000D02*
X143085174Y-97509559D01*
X143033467Y-97482999D01*
X142982104Y-97453970D01*
X142936164Y-97426766D01*
X142936065Y-97426708D01*
X142893140Y-97401812D01*
X142892647Y-97401541D01*
X142850250Y-97379401D01*
X142849361Y-97378979D01*
X142804911Y-97359986D01*
X142803735Y-97359551D01*
X142754653Y-97344097D01*
X142753386Y-97343769D01*
X142697092Y-97332246D01*
X142695921Y-97332063D01*
X142629835Y-97324862D01*
X142628861Y-97324793D01*
X142562700Y-97322696D01*
X142562700Y-97097304D01*
X142628862Y-97095206D01*
X142629835Y-97095137D01*
X142695921Y-97087936D01*
X142697092Y-97087753D01*
X142753386Y-97076230D01*
X142754653Y-97075902D01*
X142803735Y-97060448D01*
X142804911Y-97060013D01*
X142849361Y-97041020D01*
X142850250Y-97040598D01*
X142892647Y-97018458D01*
X142893140Y-97018187D01*
X142936065Y-96993291D01*
X142936164Y-96993233D01*
X142982104Y-96966029D01*
X143033467Y-96937000D01*
X143085174Y-96910441D01*
X143396678Y-97210000D01*
G04 #@! TA.AperFunction,Conductor*
D18*
G36*
X143396678Y-97210000D02*
G01*
X143085174Y-97509559D01*
X143033467Y-97482999D01*
X142982104Y-97453970D01*
X142936164Y-97426766D01*
X142936065Y-97426708D01*
X142893140Y-97401812D01*
X142892647Y-97401541D01*
X142850250Y-97379401D01*
X142849361Y-97378979D01*
X142804911Y-97359986D01*
X142803735Y-97359551D01*
X142754653Y-97344097D01*
X142753386Y-97343769D01*
X142697092Y-97332246D01*
X142695921Y-97332063D01*
X142629835Y-97324862D01*
X142628861Y-97324793D01*
X142562700Y-97322696D01*
X142562700Y-97097304D01*
X142628862Y-97095206D01*
X142629835Y-97095137D01*
X142695921Y-97087936D01*
X142697092Y-97087753D01*
X142753386Y-97076230D01*
X142754653Y-97075902D01*
X142803735Y-97060448D01*
X142804911Y-97060013D01*
X142849361Y-97041020D01*
X142850250Y-97040598D01*
X142892647Y-97018458D01*
X142893140Y-97018187D01*
X142936065Y-96993291D01*
X142936164Y-96993233D01*
X142982104Y-96966029D01*
X143033467Y-96937000D01*
X143085174Y-96910441D01*
X143396678Y-97210000D01*
G37*
G04 #@! TD.AperFunction*
D19*
X138564547Y-91036608D02*
X138543081Y-91078219D01*
X138517157Y-91125033D01*
X138517122Y-91125096D01*
X138492651Y-91169884D01*
X138492378Y-91170413D01*
X138471354Y-91213585D01*
X138470870Y-91214715D01*
X138455180Y-91256871D01*
X138454636Y-91258775D01*
X138446165Y-91300517D01*
X138445912Y-91303236D01*
X138446548Y-91345164D01*
X138446993Y-91348307D01*
X138458622Y-91391023D01*
X138459775Y-91393856D01*
X138484284Y-91437960D01*
X138485718Y-91440028D01*
X138517390Y-91477197D01*
X138358064Y-91636523D01*
X138303939Y-91580216D01*
X138253116Y-91522520D01*
X138211593Y-91470876D01*
X138176549Y-91423531D01*
X138145147Y-91378689D01*
X138114702Y-91334778D01*
X138114560Y-91334578D01*
X138082334Y-91289963D01*
X138082040Y-91289571D01*
X138045293Y-91242622D01*
X138044901Y-91242146D01*
X138000864Y-91191186D01*
X138000440Y-91190719D01*
X137952957Y-91140997D01*
X138222477Y-90680897D01*
X138564547Y-91036608D01*
G04 #@! TA.AperFunction,Conductor*
D18*
G36*
X138564547Y-91036608D02*
G01*
X138543081Y-91078219D01*
X138517157Y-91125033D01*
X138517122Y-91125096D01*
X138492651Y-91169884D01*
X138492378Y-91170413D01*
X138471354Y-91213585D01*
X138470870Y-91214715D01*
X138455180Y-91256871D01*
X138454636Y-91258775D01*
X138446165Y-91300517D01*
X138445912Y-91303236D01*
X138446548Y-91345164D01*
X138446993Y-91348307D01*
X138458622Y-91391023D01*
X138459775Y-91393856D01*
X138484284Y-91437960D01*
X138485718Y-91440028D01*
X138517390Y-91477197D01*
X138358064Y-91636523D01*
X138303939Y-91580216D01*
X138253116Y-91522520D01*
X138211593Y-91470876D01*
X138176549Y-91423531D01*
X138145147Y-91378689D01*
X138114702Y-91334778D01*
X138114560Y-91334578D01*
X138082334Y-91289963D01*
X138082040Y-91289571D01*
X138045293Y-91242622D01*
X138044901Y-91242146D01*
X138000864Y-91191186D01*
X138000440Y-91190719D01*
X137952957Y-91140997D01*
X138222477Y-90680897D01*
X138564547Y-91036608D01*
G37*
G04 #@! TD.AperFunction*
D19*
X149232342Y-103881299D02*
X149177029Y-103899071D01*
X149120115Y-103914883D01*
X149068435Y-103928119D01*
X149068323Y-103928148D01*
X149020366Y-103940897D01*
X149019826Y-103941054D01*
X148974192Y-103955378D01*
X148973266Y-103955708D01*
X148928405Y-103973709D01*
X148927265Y-103974233D01*
X148881631Y-103998012D01*
X148880503Y-103998676D01*
X148832549Y-104030333D01*
X148831591Y-104031032D01*
X148779769Y-104072671D01*
X148779033Y-104073311D01*
X148730767Y-104118611D01*
X148571391Y-103959235D01*
X148616690Y-103910968D01*
X148617330Y-103910232D01*
X148658969Y-103858410D01*
X148659668Y-103857452D01*
X148691325Y-103809498D01*
X148691989Y-103808370D01*
X148715768Y-103762736D01*
X148716292Y-103761596D01*
X148734293Y-103716735D01*
X148734623Y-103715809D01*
X148748947Y-103670175D01*
X148749104Y-103669635D01*
X148761853Y-103621678D01*
X148761882Y-103621566D01*
X148775118Y-103569886D01*
X148790930Y-103512972D01*
X148808703Y-103457660D01*
X149240789Y-103449213D01*
X149232342Y-103881299D01*
G04 #@! TA.AperFunction,Conductor*
D18*
G36*
X149232342Y-103881299D02*
G01*
X149177029Y-103899071D01*
X149120115Y-103914883D01*
X149068435Y-103928119D01*
X149068323Y-103928148D01*
X149020366Y-103940897D01*
X149019826Y-103941054D01*
X148974192Y-103955378D01*
X148973266Y-103955708D01*
X148928405Y-103973709D01*
X148927265Y-103974233D01*
X148881631Y-103998012D01*
X148880503Y-103998676D01*
X148832549Y-104030333D01*
X148831591Y-104031032D01*
X148779769Y-104072671D01*
X148779033Y-104073311D01*
X148730767Y-104118611D01*
X148571391Y-103959235D01*
X148616690Y-103910968D01*
X148617330Y-103910232D01*
X148658969Y-103858410D01*
X148659668Y-103857452D01*
X148691325Y-103809498D01*
X148691989Y-103808370D01*
X148715768Y-103762736D01*
X148716292Y-103761596D01*
X148734293Y-103716735D01*
X148734623Y-103715809D01*
X148748947Y-103670175D01*
X148749104Y-103669635D01*
X148761853Y-103621678D01*
X148761882Y-103621566D01*
X148775118Y-103569886D01*
X148790930Y-103512972D01*
X148808703Y-103457660D01*
X149240789Y-103449213D01*
X149232342Y-103881299D01*
G37*
G04 #@! TD.AperFunction*
D19*
X138574522Y-93766582D02*
X138542482Y-93828118D01*
X138507580Y-93887458D01*
X138474380Y-93940028D01*
X138443525Y-93988856D01*
X138443269Y-93989278D01*
X138415484Y-94037285D01*
X138415023Y-94038158D01*
X138390921Y-94088446D01*
X138390409Y-94089678D01*
X138370599Y-94145353D01*
X138370193Y-94146736D01*
X138355287Y-94210903D01*
X138355054Y-94212215D01*
X138345662Y-94287976D01*
X138345574Y-94289080D01*
X138342750Y-94367300D01*
X138117250Y-94367300D01*
X138114425Y-94289080D01*
X138114337Y-94287976D01*
X138104945Y-94212215D01*
X138104712Y-94210903D01*
X138089806Y-94146736D01*
X138089400Y-94145353D01*
X138069590Y-94089678D01*
X138069078Y-94088446D01*
X138044976Y-94038158D01*
X138044515Y-94037285D01*
X138016730Y-93989278D01*
X138016474Y-93988856D01*
X137985619Y-93940028D01*
X137952419Y-93887458D01*
X137917517Y-93828119D01*
X137885478Y-93766582D01*
X138230000Y-93408322D01*
X138574522Y-93766582D01*
G04 #@! TA.AperFunction,Conductor*
D18*
G36*
X138574522Y-93766582D02*
G01*
X138542482Y-93828118D01*
X138507580Y-93887458D01*
X138474380Y-93940028D01*
X138443525Y-93988856D01*
X138443269Y-93989278D01*
X138415484Y-94037285D01*
X138415023Y-94038158D01*
X138390921Y-94088446D01*
X138390409Y-94089678D01*
X138370599Y-94145353D01*
X138370193Y-94146736D01*
X138355287Y-94210903D01*
X138355054Y-94212215D01*
X138345662Y-94287976D01*
X138345574Y-94289080D01*
X138342750Y-94367300D01*
X138117250Y-94367300D01*
X138114425Y-94289080D01*
X138114337Y-94287976D01*
X138104945Y-94212215D01*
X138104712Y-94210903D01*
X138089806Y-94146736D01*
X138089400Y-94145353D01*
X138069590Y-94089678D01*
X138069078Y-94088446D01*
X138044976Y-94038158D01*
X138044515Y-94037285D01*
X138016730Y-93989278D01*
X138016474Y-93988856D01*
X137985619Y-93940028D01*
X137952419Y-93887458D01*
X137917517Y-93828119D01*
X137885478Y-93766582D01*
X138230000Y-93408322D01*
X138574522Y-93766582D01*
G37*
G04 #@! TD.AperFunction*
D19*
X138564522Y-96506582D02*
X138532482Y-96568118D01*
X138497580Y-96627458D01*
X138464380Y-96680028D01*
X138433525Y-96728856D01*
X138433269Y-96729278D01*
X138405484Y-96777285D01*
X138405023Y-96778158D01*
X138380921Y-96828446D01*
X138380409Y-96829678D01*
X138360599Y-96885353D01*
X138360193Y-96886736D01*
X138345287Y-96950903D01*
X138345054Y-96952215D01*
X138335662Y-97027976D01*
X138335574Y-97029080D01*
X138332750Y-97107300D01*
X138107250Y-97107300D01*
X138104425Y-97029080D01*
X138104337Y-97027976D01*
X138094945Y-96952215D01*
X138094712Y-96950903D01*
X138079806Y-96886736D01*
X138079400Y-96885353D01*
X138059590Y-96829678D01*
X138059078Y-96828446D01*
X138034976Y-96778158D01*
X138034515Y-96777285D01*
X138006730Y-96729278D01*
X138006474Y-96728856D01*
X137975619Y-96680028D01*
X137942419Y-96627458D01*
X137907517Y-96568119D01*
X137875478Y-96506582D01*
X138220000Y-96148322D01*
X138564522Y-96506582D01*
G04 #@! TA.AperFunction,Conductor*
D18*
G36*
X138564522Y-96506582D02*
G01*
X138532482Y-96568118D01*
X138497580Y-96627458D01*
X138464380Y-96680028D01*
X138433525Y-96728856D01*
X138433269Y-96729278D01*
X138405484Y-96777285D01*
X138405023Y-96778158D01*
X138380921Y-96828446D01*
X138380409Y-96829678D01*
X138360599Y-96885353D01*
X138360193Y-96886736D01*
X138345287Y-96950903D01*
X138345054Y-96952215D01*
X138335662Y-97027976D01*
X138335574Y-97029080D01*
X138332750Y-97107300D01*
X138107250Y-97107300D01*
X138104425Y-97029080D01*
X138104337Y-97027976D01*
X138094945Y-96952215D01*
X138094712Y-96950903D01*
X138079806Y-96886736D01*
X138079400Y-96885353D01*
X138059590Y-96829678D01*
X138059078Y-96828446D01*
X138034976Y-96778158D01*
X138034515Y-96777285D01*
X138006730Y-96729278D01*
X138006474Y-96728856D01*
X137975619Y-96680028D01*
X137942419Y-96627458D01*
X137907517Y-96568119D01*
X137875478Y-96506582D01*
X138220000Y-96148322D01*
X138564522Y-96506582D01*
G37*
G04 #@! TD.AperFunction*
D19*
X153096234Y-101241495D02*
X152992438Y-101343328D01*
X152896116Y-101433972D01*
X152810243Y-101511483D01*
X152730724Y-101580843D01*
X152653429Y-101647062D01*
X152653413Y-101647076D01*
X152574488Y-101714924D01*
X152574379Y-101715019D01*
X152489813Y-101789406D01*
X152489648Y-101789554D01*
X152395427Y-101875392D01*
X152395246Y-101875560D01*
X152287359Y-101977759D01*
X152287189Y-101977924D01*
X152170602Y-102092566D01*
X152011030Y-101932994D01*
X152084078Y-101847408D01*
X152085519Y-101845333D01*
X152135400Y-101755584D01*
X152136568Y-101752693D01*
X152159685Y-101666186D01*
X152160116Y-101662963D01*
X152160488Y-101578178D01*
X152160199Y-101575429D01*
X152141847Y-101490846D01*
X152141289Y-101488978D01*
X152108235Y-101403076D01*
X152107774Y-101402023D01*
X152064037Y-101313282D01*
X152063814Y-101312850D01*
X152013416Y-101219748D01*
X152013415Y-101219748D01*
X151960524Y-101121043D01*
X151912963Y-101023100D01*
X152589912Y-100359089D01*
X153096234Y-101241495D01*
G04 #@! TA.AperFunction,Conductor*
D18*
G36*
X153096234Y-101241495D02*
G01*
X152992438Y-101343328D01*
X152896116Y-101433972D01*
X152810243Y-101511483D01*
X152730724Y-101580843D01*
X152653429Y-101647062D01*
X152653413Y-101647076D01*
X152574488Y-101714924D01*
X152574379Y-101715019D01*
X152489813Y-101789406D01*
X152489648Y-101789554D01*
X152395427Y-101875392D01*
X152395246Y-101875560D01*
X152287359Y-101977759D01*
X152287189Y-101977924D01*
X152170602Y-102092566D01*
X152011030Y-101932994D01*
X152084078Y-101847408D01*
X152085519Y-101845333D01*
X152135400Y-101755584D01*
X152136568Y-101752693D01*
X152159685Y-101666186D01*
X152160116Y-101662963D01*
X152160488Y-101578178D01*
X152160199Y-101575429D01*
X152141847Y-101490846D01*
X152141289Y-101488978D01*
X152108235Y-101403076D01*
X152107774Y-101402023D01*
X152064037Y-101313282D01*
X152063814Y-101312850D01*
X152013416Y-101219748D01*
X152013415Y-101219748D01*
X151960524Y-101121043D01*
X151912963Y-101023100D01*
X152589912Y-100359089D01*
X153096234Y-101241495D01*
G37*
G04 #@! TD.AperFunction*
D19*
X140909557Y-98504826D02*
X140882997Y-98556532D01*
X140853968Y-98607895D01*
X140826764Y-98653835D01*
X140826706Y-98653934D01*
X140801810Y-98696859D01*
X140801539Y-98697352D01*
X140779399Y-98739749D01*
X140778977Y-98740638D01*
X140759984Y-98785088D01*
X140759549Y-98786264D01*
X140744095Y-98835346D01*
X140743767Y-98836613D01*
X140732244Y-98892907D01*
X140732061Y-98894078D01*
X140724860Y-98960164D01*
X140724791Y-98961138D01*
X140722694Y-99027300D01*
X140497302Y-99027300D01*
X140495204Y-98961137D01*
X140495135Y-98960164D01*
X140487934Y-98894078D01*
X140487751Y-98892907D01*
X140476228Y-98836613D01*
X140475900Y-98835346D01*
X140460446Y-98786264D01*
X140460011Y-98785088D01*
X140441018Y-98740638D01*
X140440596Y-98739749D01*
X140418456Y-98697352D01*
X140418185Y-98696859D01*
X140393289Y-98653934D01*
X140393231Y-98653835D01*
X140366027Y-98607895D01*
X140336998Y-98556532D01*
X140310439Y-98504826D01*
X140609998Y-98193322D01*
X140909557Y-98504826D01*
G04 #@! TA.AperFunction,Conductor*
D18*
G36*
X140909557Y-98504826D02*
G01*
X140882997Y-98556532D01*
X140853968Y-98607895D01*
X140826764Y-98653835D01*
X140826706Y-98653934D01*
X140801810Y-98696859D01*
X140801539Y-98697352D01*
X140779399Y-98739749D01*
X140778977Y-98740638D01*
X140759984Y-98785088D01*
X140759549Y-98786264D01*
X140744095Y-98835346D01*
X140743767Y-98836613D01*
X140732244Y-98892907D01*
X140732061Y-98894078D01*
X140724860Y-98960164D01*
X140724791Y-98961138D01*
X140722694Y-99027300D01*
X140497302Y-99027300D01*
X140495204Y-98961137D01*
X140495135Y-98960164D01*
X140487934Y-98894078D01*
X140487751Y-98892907D01*
X140476228Y-98836613D01*
X140475900Y-98835346D01*
X140460446Y-98786264D01*
X140460011Y-98785088D01*
X140441018Y-98740638D01*
X140440596Y-98739749D01*
X140418456Y-98697352D01*
X140418185Y-98696859D01*
X140393289Y-98653934D01*
X140393231Y-98653835D01*
X140366027Y-98607895D01*
X140336998Y-98556532D01*
X140310439Y-98504826D01*
X140609998Y-98193322D01*
X140909557Y-98504826D01*
G37*
G04 #@! TD.AperFunction*
D19*
X150546612Y-101240719D02*
X150426272Y-101351583D01*
X150309778Y-101440999D01*
X150200492Y-101510386D01*
X150095166Y-101567156D01*
X149990667Y-101618626D01*
X149990588Y-101618665D01*
X149884047Y-101672068D01*
X149883519Y-101672349D01*
X149772126Y-101734911D01*
X149771328Y-101735398D01*
X149652059Y-101814454D01*
X149651201Y-101815076D01*
X149521029Y-101917961D01*
X149520254Y-101918626D01*
X149385121Y-102044332D01*
X149225452Y-101884663D01*
X149311742Y-101787074D01*
X149312916Y-101785521D01*
X149377000Y-101685677D01*
X149378106Y-101683528D01*
X149416229Y-101588081D01*
X149416945Y-101585557D01*
X149433263Y-101492210D01*
X149433452Y-101489842D01*
X149432122Y-101396301D01*
X149431974Y-101394545D01*
X149417153Y-101298515D01*
X149416952Y-101297493D01*
X149392797Y-101196676D01*
X149392702Y-101196303D01*
X149363394Y-101088496D01*
X149333124Y-100971555D01*
X149307855Y-100851843D01*
X150127767Y-100370272D01*
X150546612Y-101240719D01*
G04 #@! TA.AperFunction,Conductor*
D18*
G36*
X150546612Y-101240719D02*
G01*
X150426272Y-101351583D01*
X150309778Y-101440999D01*
X150200492Y-101510386D01*
X150095166Y-101567156D01*
X149990667Y-101618626D01*
X149990588Y-101618665D01*
X149884047Y-101672068D01*
X149883519Y-101672349D01*
X149772126Y-101734911D01*
X149771328Y-101735398D01*
X149652059Y-101814454D01*
X149651201Y-101815076D01*
X149521029Y-101917961D01*
X149520254Y-101918626D01*
X149385121Y-102044332D01*
X149225452Y-101884663D01*
X149311742Y-101787074D01*
X149312916Y-101785521D01*
X149377000Y-101685677D01*
X149378106Y-101683528D01*
X149416229Y-101588081D01*
X149416945Y-101585557D01*
X149433263Y-101492210D01*
X149433452Y-101489842D01*
X149432122Y-101396301D01*
X149431974Y-101394545D01*
X149417153Y-101298515D01*
X149416952Y-101297493D01*
X149392797Y-101196676D01*
X149392702Y-101196303D01*
X149363394Y-101088496D01*
X149333124Y-100971555D01*
X149307855Y-100851843D01*
X150127767Y-100370272D01*
X150546612Y-101240719D01*
G37*
G04 #@! TD.AperFunction*
D19*
X131644255Y-103862455D02*
X131573407Y-103986334D01*
X131486322Y-104106838D01*
X131394811Y-104218975D01*
X131306773Y-104324905D01*
X131306389Y-104325390D01*
X131229698Y-104427397D01*
X131228829Y-104428716D01*
X131171271Y-104529192D01*
X131170136Y-104531826D01*
X131139445Y-104633229D01*
X131138960Y-104635671D01*
X131138909Y-104637381D01*
X131142817Y-104742171D01*
X131143153Y-104744638D01*
X131143790Y-104746595D01*
X131190029Y-104857230D01*
X131191877Y-104860325D01*
X131280985Y-104970379D01*
X131121498Y-105129866D01*
X131003541Y-105005942D01*
X130903112Y-104888135D01*
X130822783Y-104782214D01*
X130756313Y-104684646D01*
X130697477Y-104591878D01*
X130640233Y-104500658D01*
X130640056Y-104500383D01*
X130578293Y-104407382D01*
X130577932Y-104406868D01*
X130505529Y-104308739D01*
X130505052Y-104308132D01*
X130415853Y-104201475D01*
X130415338Y-104200895D01*
X130309735Y-104089236D01*
X130897477Y-103085897D01*
X131644255Y-103862455D01*
G04 #@! TA.AperFunction,Conductor*
D18*
G36*
X131644255Y-103862455D02*
G01*
X131573407Y-103986334D01*
X131486322Y-104106838D01*
X131394811Y-104218975D01*
X131306773Y-104324905D01*
X131306389Y-104325390D01*
X131229698Y-104427397D01*
X131228829Y-104428716D01*
X131171271Y-104529192D01*
X131170136Y-104531826D01*
X131139445Y-104633229D01*
X131138960Y-104635671D01*
X131138909Y-104637381D01*
X131142817Y-104742171D01*
X131143153Y-104744638D01*
X131143790Y-104746595D01*
X131190029Y-104857230D01*
X131191877Y-104860325D01*
X131280985Y-104970379D01*
X131121498Y-105129866D01*
X131003541Y-105005942D01*
X130903112Y-104888135D01*
X130822783Y-104782214D01*
X130756313Y-104684646D01*
X130697477Y-104591878D01*
X130640233Y-104500658D01*
X130640056Y-104500383D01*
X130578293Y-104407382D01*
X130577932Y-104406868D01*
X130505529Y-104308739D01*
X130505052Y-104308132D01*
X130415853Y-104201475D01*
X130415338Y-104200895D01*
X130309735Y-104089236D01*
X130897477Y-103085897D01*
X131644255Y-103862455D01*
G37*
G04 #@! TD.AperFunction*
D19*
X137879559Y-104124826D02*
X137852999Y-104176532D01*
X137823970Y-104227895D01*
X137796766Y-104273835D01*
X137796708Y-104273934D01*
X137771812Y-104316859D01*
X137771541Y-104317352D01*
X137749401Y-104359749D01*
X137748979Y-104360638D01*
X137729986Y-104405088D01*
X137729551Y-104406264D01*
X137714097Y-104455346D01*
X137713769Y-104456613D01*
X137702246Y-104512907D01*
X137702063Y-104514078D01*
X137694862Y-104580164D01*
X137694793Y-104581138D01*
X137692696Y-104647300D01*
X137467304Y-104647300D01*
X137465206Y-104581137D01*
X137465137Y-104580164D01*
X137457936Y-104514078D01*
X137457753Y-104512907D01*
X137446230Y-104456613D01*
X137445902Y-104455346D01*
X137430448Y-104406264D01*
X137430013Y-104405088D01*
X137411020Y-104360638D01*
X137410598Y-104359749D01*
X137388458Y-104317352D01*
X137388187Y-104316859D01*
X137363291Y-104273934D01*
X137363233Y-104273835D01*
X137336029Y-104227895D01*
X137307000Y-104176532D01*
X137280441Y-104124826D01*
X137580000Y-103813322D01*
X137879559Y-104124826D01*
G04 #@! TA.AperFunction,Conductor*
D18*
G36*
X137879559Y-104124826D02*
G01*
X137852999Y-104176532D01*
X137823970Y-104227895D01*
X137796766Y-104273835D01*
X137796708Y-104273934D01*
X137771812Y-104316859D01*
X137771541Y-104317352D01*
X137749401Y-104359749D01*
X137748979Y-104360638D01*
X137729986Y-104405088D01*
X137729551Y-104406264D01*
X137714097Y-104455346D01*
X137713769Y-104456613D01*
X137702246Y-104512907D01*
X137702063Y-104514078D01*
X137694862Y-104580164D01*
X137694793Y-104581138D01*
X137692696Y-104647300D01*
X137467304Y-104647300D01*
X137465206Y-104581137D01*
X137465137Y-104580164D01*
X137457936Y-104514078D01*
X137457753Y-104512907D01*
X137446230Y-104456613D01*
X137445902Y-104455346D01*
X137430448Y-104406264D01*
X137430013Y-104405088D01*
X137411020Y-104360638D01*
X137410598Y-104359749D01*
X137388458Y-104317352D01*
X137388187Y-104316859D01*
X137363291Y-104273934D01*
X137363233Y-104273835D01*
X137336029Y-104227895D01*
X137307000Y-104176532D01*
X137280441Y-104124826D01*
X137580000Y-103813322D01*
X137879559Y-104124826D01*
G37*
G04 #@! TD.AperFunction*
D19*
X140861299Y-96537660D02*
X140879071Y-96592972D01*
X140894883Y-96649886D01*
X140908119Y-96701566D01*
X140908148Y-96701678D01*
X140920897Y-96749635D01*
X140921054Y-96750175D01*
X140935378Y-96795809D01*
X140935708Y-96796735D01*
X140953709Y-96841596D01*
X140954233Y-96842736D01*
X140978012Y-96888370D01*
X140978676Y-96889498D01*
X141010333Y-96937452D01*
X141011032Y-96938410D01*
X141052671Y-96990232D01*
X141053311Y-96990968D01*
X141098611Y-97039235D01*
X140939235Y-97198611D01*
X140890968Y-97153311D01*
X140890232Y-97152671D01*
X140838410Y-97111032D01*
X140837452Y-97110333D01*
X140789498Y-97078676D01*
X140788370Y-97078012D01*
X140742736Y-97054233D01*
X140741596Y-97053709D01*
X140696735Y-97035708D01*
X140695809Y-97035378D01*
X140650175Y-97021054D01*
X140649635Y-97020897D01*
X140601678Y-97008148D01*
X140601566Y-97008119D01*
X140549886Y-96994883D01*
X140492972Y-96979071D01*
X140437660Y-96961299D01*
X140429213Y-96529213D01*
X140861299Y-96537660D01*
G04 #@! TA.AperFunction,Conductor*
D18*
G36*
X140861299Y-96537660D02*
G01*
X140879071Y-96592972D01*
X140894883Y-96649886D01*
X140908119Y-96701566D01*
X140908148Y-96701678D01*
X140920897Y-96749635D01*
X140921054Y-96750175D01*
X140935378Y-96795809D01*
X140935708Y-96796735D01*
X140953709Y-96841596D01*
X140954233Y-96842736D01*
X140978012Y-96888370D01*
X140978676Y-96889498D01*
X141010333Y-96937452D01*
X141011032Y-96938410D01*
X141052671Y-96990232D01*
X141053311Y-96990968D01*
X141098611Y-97039235D01*
X140939235Y-97198611D01*
X140890968Y-97153311D01*
X140890232Y-97152671D01*
X140838410Y-97111032D01*
X140837452Y-97110333D01*
X140789498Y-97078676D01*
X140788370Y-97078012D01*
X140742736Y-97054233D01*
X140741596Y-97053709D01*
X140696735Y-97035708D01*
X140695809Y-97035378D01*
X140650175Y-97021054D01*
X140649635Y-97020897D01*
X140601678Y-97008148D01*
X140601566Y-97008119D01*
X140549886Y-96994883D01*
X140492972Y-96979071D01*
X140437660Y-96961299D01*
X140429213Y-96529213D01*
X140861299Y-96537660D01*
G37*
G04 #@! TD.AperFunction*
D19*
X147853350Y-100711063D02*
X146970983Y-101227942D01*
X146871153Y-101127636D01*
X146780632Y-101035735D01*
X146701863Y-100954931D01*
X146630391Y-100880988D01*
X146561760Y-100809668D01*
X146561756Y-100809664D01*
X146491520Y-100736738D01*
X146491495Y-100736712D01*
X146415226Y-100657971D01*
X146415188Y-100657932D01*
X146328440Y-100569148D01*
X146328397Y-100569104D01*
X146226724Y-100466050D01*
X146226682Y-100466008D01*
X146114580Y-100353435D01*
X146274143Y-100193872D01*
X146358805Y-100265322D01*
X146361067Y-100266847D01*
X146449872Y-100313725D01*
X146453035Y-100314889D01*
X146538548Y-100333971D01*
X146541982Y-100334258D01*
X146625686Y-100329851D01*
X146628476Y-100329389D01*
X146711854Y-100305797D01*
X146713656Y-100305136D01*
X146798193Y-100266666D01*
X146799160Y-100266176D01*
X146886338Y-100217132D01*
X146886692Y-100216925D01*
X146977950Y-100161639D01*
X147074525Y-100104563D01*
X147170144Y-100054057D01*
X147853350Y-100711063D01*
G04 #@! TA.AperFunction,Conductor*
D18*
G36*
X147853350Y-100711063D02*
G01*
X146970983Y-101227942D01*
X146871153Y-101127636D01*
X146780632Y-101035735D01*
X146701863Y-100954931D01*
X146630391Y-100880988D01*
X146561760Y-100809668D01*
X146561756Y-100809664D01*
X146491520Y-100736738D01*
X146491495Y-100736712D01*
X146415226Y-100657971D01*
X146415188Y-100657932D01*
X146328440Y-100569148D01*
X146328397Y-100569104D01*
X146226724Y-100466050D01*
X146226682Y-100466008D01*
X146114580Y-100353435D01*
X146274143Y-100193872D01*
X146358805Y-100265322D01*
X146361067Y-100266847D01*
X146449872Y-100313725D01*
X146453035Y-100314889D01*
X146538548Y-100333971D01*
X146541982Y-100334258D01*
X146625686Y-100329851D01*
X146628476Y-100329389D01*
X146711854Y-100305797D01*
X146713656Y-100305136D01*
X146798193Y-100266666D01*
X146799160Y-100266176D01*
X146886338Y-100217132D01*
X146886692Y-100216925D01*
X146977950Y-100161639D01*
X147074525Y-100104563D01*
X147170144Y-100054057D01*
X147853350Y-100711063D01*
G37*
G04 #@! TD.AperFunction*
D19*
X146669478Y-96814968D02*
X145980798Y-97471274D01*
X145850655Y-97399999D01*
X145735771Y-97323455D01*
X145636881Y-97247814D01*
X145547154Y-97175106D01*
X145546935Y-97174932D01*
X145459816Y-97107457D01*
X145459021Y-97106889D01*
X145367852Y-97046890D01*
X145366495Y-97046112D01*
X145264491Y-96995725D01*
X145262770Y-96995027D01*
X145143147Y-96956389D01*
X145141394Y-96955957D01*
X144997367Y-96931207D01*
X144995848Y-96931040D01*
X144832700Y-96922917D01*
X144832700Y-96697085D01*
X144996390Y-96688959D01*
X144997902Y-96688793D01*
X145142408Y-96664063D01*
X145144151Y-96663636D01*
X145264217Y-96625060D01*
X145265926Y-96624371D01*
X145368367Y-96574113D01*
X145369712Y-96573348D01*
X145461343Y-96513568D01*
X145462127Y-96513013D01*
X145549764Y-96445875D01*
X145549973Y-96445712D01*
X145640298Y-96373481D01*
X145739890Y-96298487D01*
X145855623Y-96222773D01*
X145986760Y-96152467D01*
X146669478Y-96814968D01*
G04 #@! TA.AperFunction,Conductor*
D18*
G36*
X146669478Y-96814968D02*
G01*
X145980798Y-97471274D01*
X145850655Y-97399999D01*
X145735771Y-97323455D01*
X145636881Y-97247814D01*
X145547154Y-97175106D01*
X145546935Y-97174932D01*
X145459816Y-97107457D01*
X145459021Y-97106889D01*
X145367852Y-97046890D01*
X145366495Y-97046112D01*
X145264491Y-96995725D01*
X145262770Y-96995027D01*
X145143147Y-96956389D01*
X145141394Y-96955957D01*
X144997367Y-96931207D01*
X144995848Y-96931040D01*
X144832700Y-96922917D01*
X144832700Y-96697085D01*
X144996390Y-96688959D01*
X144997902Y-96688793D01*
X145142408Y-96664063D01*
X145144151Y-96663636D01*
X145264217Y-96625060D01*
X145265926Y-96624371D01*
X145368367Y-96574113D01*
X145369712Y-96573348D01*
X145461343Y-96513568D01*
X145462127Y-96513013D01*
X145549764Y-96445875D01*
X145549973Y-96445712D01*
X145640298Y-96373481D01*
X145739890Y-96298487D01*
X145855623Y-96222773D01*
X145986760Y-96152467D01*
X146669478Y-96814968D01*
G37*
G04 #@! TD.AperFunction*
D19*
X143079561Y-93664826D02*
X143053001Y-93716532D01*
X143023972Y-93767895D01*
X142996768Y-93813835D01*
X142996710Y-93813934D01*
X142971814Y-93856859D01*
X142971543Y-93857352D01*
X142949403Y-93899749D01*
X142948981Y-93900638D01*
X142929988Y-93945088D01*
X142929553Y-93946264D01*
X142914099Y-93995346D01*
X142913771Y-93996613D01*
X142902248Y-94052907D01*
X142902065Y-94054078D01*
X142894864Y-94120164D01*
X142894795Y-94121138D01*
X142892698Y-94187300D01*
X142667306Y-94187300D01*
X142665208Y-94121137D01*
X142665139Y-94120164D01*
X142657938Y-94054078D01*
X142657755Y-94052907D01*
X142646232Y-93996613D01*
X142645904Y-93995346D01*
X142630450Y-93946264D01*
X142630015Y-93945088D01*
X142611022Y-93900638D01*
X142610600Y-93899749D01*
X142588460Y-93857352D01*
X142588189Y-93856859D01*
X142563293Y-93813934D01*
X142563235Y-93813835D01*
X142536031Y-93767895D01*
X142507002Y-93716532D01*
X142480443Y-93664826D01*
X142780002Y-93353322D01*
X143079561Y-93664826D01*
G04 #@! TA.AperFunction,Conductor*
D18*
G36*
X143079561Y-93664826D02*
G01*
X143053001Y-93716532D01*
X143023972Y-93767895D01*
X142996768Y-93813835D01*
X142996710Y-93813934D01*
X142971814Y-93856859D01*
X142971543Y-93857352D01*
X142949403Y-93899749D01*
X142948981Y-93900638D01*
X142929988Y-93945088D01*
X142929553Y-93946264D01*
X142914099Y-93995346D01*
X142913771Y-93996613D01*
X142902248Y-94052907D01*
X142902065Y-94054078D01*
X142894864Y-94120164D01*
X142894795Y-94121138D01*
X142892698Y-94187300D01*
X142667306Y-94187300D01*
X142665208Y-94121137D01*
X142665139Y-94120164D01*
X142657938Y-94054078D01*
X142657755Y-94052907D01*
X142646232Y-93996613D01*
X142645904Y-93995346D01*
X142630450Y-93946264D01*
X142630015Y-93945088D01*
X142611022Y-93900638D01*
X142610600Y-93899749D01*
X142588460Y-93857352D01*
X142588189Y-93856859D01*
X142563293Y-93813934D01*
X142563235Y-93813835D01*
X142536031Y-93767895D01*
X142507002Y-93716532D01*
X142480443Y-93664826D01*
X142780002Y-93353322D01*
X143079561Y-93664826D01*
G37*
G04 #@! TD.AperFunction*
M02*
