G04 #@! TF.GenerationSoftware,KiCad,Pcbnew,(6.0.0-0)*
G04 #@! TF.CreationDate,2021-12-28T14:08:48-05:00*
G04 #@! TF.ProjectId,9DIN2VGA_Bottom,3944494e-3256-4474-915f-426f74746f6d,1*
G04 #@! TF.SameCoordinates,Original*
G04 #@! TF.FileFunction,Legend,Bot*
G04 #@! TF.FilePolarity,Positive*
%FSLAX46Y46*%
G04 Gerber Fmt 4.6, Leading zero omitted, Abs format (unit mm)*
G04 Created by KiCad (PCBNEW (6.0.0-0)) date 2021-12-28 14:08:48*
%MOMM*%
%LPD*%
G01*
G04 APERTURE LIST*
G04 Aperture macros list*
%AMRoundRect*
0 Rectangle with rounded corners*
0 $1 Rounding radius*
0 $2 $3 $4 $5 $6 $7 $8 $9 X,Y pos of 4 corners*
0 Add a 4 corners polygon primitive as box body*
4,1,4,$2,$3,$4,$5,$6,$7,$8,$9,$2,$3,0*
0 Add four circle primitives for the rounded corners*
1,1,$1+$1,$2,$3*
1,1,$1+$1,$4,$5*
1,1,$1+$1,$6,$7*
1,1,$1+$1,$8,$9*
0 Add four rect primitives between the rounded corners*
20,1,$1+$1,$2,$3,$4,$5,0*
20,1,$1+$1,$4,$5,$6,$7,0*
20,1,$1+$1,$6,$7,$8,$9,0*
20,1,$1+$1,$8,$9,$2,$3,0*%
G04 Aperture macros list end*
%ADD10C,0.200000*%
%ADD11RoundRect,0.350800X-0.300000X-1.450000X0.300000X-1.450000X0.300000X1.450000X-0.300000X1.450000X0*%
%ADD12RoundRect,0.425800X-0.375000X-1.125000X0.375000X-1.125000X0.375000X1.125000X-0.375000X1.125000X0*%
%ADD13RoundRect,0.425800X1.375000X-0.375000X1.375000X0.375000X-1.375000X0.375000X-1.375000X-0.375000X0*%
%ADD14RoundRect,0.550800X-0.500000X-0.500000X0.500000X-0.500000X0.500000X0.500000X-0.500000X0.500000X0*%
%ADD15C,2.101600*%
G04 APERTURE END LIST*
D10*
X139562857Y-92015714D02*
X139634285Y-92230000D01*
X139705714Y-92301428D01*
X139848571Y-92372857D01*
X140062857Y-92372857D01*
X140205714Y-92301428D01*
X140277142Y-92230000D01*
X140348571Y-92087142D01*
X140348571Y-91515714D01*
X138848571Y-91515714D01*
X138848571Y-92015714D01*
X138920000Y-92158571D01*
X138991428Y-92230000D01*
X139134285Y-92301428D01*
X139277142Y-92301428D01*
X139420000Y-92230000D01*
X139491428Y-92158571D01*
X139562857Y-92015714D01*
X139562857Y-91515714D01*
X138848571Y-93301428D02*
X138848571Y-93587142D01*
X138920000Y-93730000D01*
X139062857Y-93872857D01*
X139348571Y-93944285D01*
X139848571Y-93944285D01*
X140134285Y-93872857D01*
X140277142Y-93730000D01*
X140348571Y-93587142D01*
X140348571Y-93301428D01*
X140277142Y-93158571D01*
X140134285Y-93015714D01*
X139848571Y-92944285D01*
X139348571Y-92944285D01*
X139062857Y-93015714D01*
X138920000Y-93158571D01*
X138848571Y-93301428D01*
X138848571Y-94372857D02*
X138848571Y-95230000D01*
X140348571Y-94801428D02*
X138848571Y-94801428D01*
X138848571Y-95515714D02*
X138848571Y-96372857D01*
X140348571Y-95944285D02*
X138848571Y-95944285D01*
X138848571Y-97158571D02*
X138848571Y-97444285D01*
X138920000Y-97587142D01*
X139062857Y-97730000D01*
X139348571Y-97801428D01*
X139848571Y-97801428D01*
X140134285Y-97730000D01*
X140277142Y-97587142D01*
X140348571Y-97444285D01*
X140348571Y-97158571D01*
X140277142Y-97015714D01*
X140134285Y-96872857D01*
X139848571Y-96801428D01*
X139348571Y-96801428D01*
X139062857Y-96872857D01*
X138920000Y-97015714D01*
X138848571Y-97158571D01*
X140348571Y-98444285D02*
X138848571Y-98444285D01*
X139920000Y-98944285D01*
X138848571Y-99444285D01*
X140348571Y-99444285D01*
%LPC*%
D11*
X140680000Y-88280000D03*
X138680000Y-88280000D03*
D12*
X142250000Y-103935418D03*
X139690000Y-103935418D03*
X137130000Y-103935418D03*
D13*
X135960000Y-100015418D03*
D14*
X142860000Y-97735418D03*
D15*
X143340000Y-97735418D03*
M02*
