G04 #@! TF.GenerationSoftware,KiCad,Pcbnew,(6.0.0-0)*
G04 #@! TF.CreationDate,2021-12-28T14:08:48-05:00*
G04 #@! TF.ProjectId,9DIN2VGA_Bottom,3944494e-3256-4474-915f-426f74746f6d,1*
G04 #@! TF.SameCoordinates,Original*
G04 #@! TF.FileFunction,Legend,Top*
G04 #@! TF.FilePolarity,Positive*
%FSLAX46Y46*%
G04 Gerber Fmt 4.6, Leading zero omitted, Abs format (unit mm)*
G04 Created by KiCad (PCBNEW (6.0.0-0)) date 2021-12-28 14:08:48*
%MOMM*%
%LPD*%
G01*
G04 APERTURE LIST*
G04 Aperture macros list*
%AMRoundRect*
0 Rectangle with rounded corners*
0 $1 Rounding radius*
0 $2 $3 $4 $5 $6 $7 $8 $9 X,Y pos of 4 corners*
0 Add a 4 corners polygon primitive as box body*
4,1,4,$2,$3,$4,$5,$6,$7,$8,$9,$2,$3,0*
0 Add four circle primitives for the rounded corners*
1,1,$1+$1,$2,$3*
1,1,$1+$1,$4,$5*
1,1,$1+$1,$6,$7*
1,1,$1+$1,$8,$9*
0 Add four rect primitives between the rounded corners*
20,1,$1+$1,$2,$3,$4,$5,0*
20,1,$1+$1,$4,$5,$6,$7,0*
20,1,$1+$1,$6,$7,$8,$9,0*
20,1,$1+$1,$8,$9,$2,$3,0*%
G04 Aperture macros list end*
%ADD10C,0.187500*%
%ADD11RoundRect,0.350800X-0.300000X-1.450000X0.300000X-1.450000X0.300000X1.450000X-0.300000X1.450000X0*%
%ADD12RoundRect,0.425800X-0.375000X-1.125000X0.375000X-1.125000X0.375000X1.125000X-0.375000X1.125000X0*%
%ADD13RoundRect,0.425800X1.375000X-0.375000X1.375000X0.375000X-1.375000X0.375000X-1.375000X-0.375000X0*%
%ADD14RoundRect,0.550800X-0.500000X-0.500000X0.500000X-0.500000X0.500000X0.500000X-0.500000X0.500000X0*%
%ADD15C,2.101600*%
G04 APERTURE END LIST*
D10*
X138675535Y-100587142D02*
X138675535Y-100158571D01*
X139425535Y-100372857D02*
X138675535Y-100372857D01*
X139425535Y-99908571D02*
X138675535Y-99908571D01*
X139425535Y-99587142D02*
X139032678Y-99587142D01*
X138961250Y-99622857D01*
X138925535Y-99694285D01*
X138925535Y-99801428D01*
X138961250Y-99872857D01*
X138996964Y-99908571D01*
X139425535Y-99230000D02*
X138925535Y-99230000D01*
X138675535Y-99230000D02*
X138711250Y-99265714D01*
X138746964Y-99230000D01*
X138711250Y-99194285D01*
X138675535Y-99230000D01*
X138746964Y-99230000D01*
X139389821Y-98908571D02*
X139425535Y-98837142D01*
X139425535Y-98694285D01*
X139389821Y-98622857D01*
X139318392Y-98587142D01*
X139282678Y-98587142D01*
X139211250Y-98622857D01*
X139175535Y-98694285D01*
X139175535Y-98801428D01*
X139139821Y-98872857D01*
X139068392Y-98908571D01*
X139032678Y-98908571D01*
X138961250Y-98872857D01*
X138925535Y-98801428D01*
X138925535Y-98694285D01*
X138961250Y-98622857D01*
X139389821Y-97730000D02*
X139425535Y-97658571D01*
X139425535Y-97515714D01*
X139389821Y-97444285D01*
X139318392Y-97408571D01*
X139282678Y-97408571D01*
X139211250Y-97444285D01*
X139175535Y-97515714D01*
X139175535Y-97622857D01*
X139139821Y-97694285D01*
X139068392Y-97730000D01*
X139032678Y-97730000D01*
X138961250Y-97694285D01*
X138925535Y-97622857D01*
X138925535Y-97515714D01*
X138961250Y-97444285D01*
X139425535Y-97087142D02*
X138925535Y-97087142D01*
X138675535Y-97087142D02*
X138711250Y-97122857D01*
X138746964Y-97087142D01*
X138711250Y-97051428D01*
X138675535Y-97087142D01*
X138746964Y-97087142D01*
X139425535Y-96408571D02*
X138675535Y-96408571D01*
X139389821Y-96408571D02*
X139425535Y-96480000D01*
X139425535Y-96622857D01*
X139389821Y-96694285D01*
X139354107Y-96730000D01*
X139282678Y-96765714D01*
X139068392Y-96765714D01*
X138996964Y-96730000D01*
X138961250Y-96694285D01*
X138925535Y-96622857D01*
X138925535Y-96480000D01*
X138961250Y-96408571D01*
X139389821Y-95765714D02*
X139425535Y-95837142D01*
X139425535Y-95980000D01*
X139389821Y-96051428D01*
X139318392Y-96087142D01*
X139032678Y-96087142D01*
X138961250Y-96051428D01*
X138925535Y-95980000D01*
X138925535Y-95837142D01*
X138961250Y-95765714D01*
X139032678Y-95730000D01*
X139104107Y-95730000D01*
X139175535Y-96087142D01*
X139389821Y-94872857D02*
X139425535Y-94801428D01*
X139425535Y-94658571D01*
X139389821Y-94587142D01*
X139318392Y-94551428D01*
X139282678Y-94551428D01*
X139211250Y-94587142D01*
X139175535Y-94658571D01*
X139175535Y-94765714D01*
X139139821Y-94837142D01*
X139068392Y-94872857D01*
X139032678Y-94872857D01*
X138961250Y-94837142D01*
X138925535Y-94765714D01*
X138925535Y-94658571D01*
X138961250Y-94587142D01*
X139425535Y-94230000D02*
X138675535Y-94230000D01*
X139425535Y-93908571D02*
X139032678Y-93908571D01*
X138961250Y-93944285D01*
X138925535Y-94015714D01*
X138925535Y-94122857D01*
X138961250Y-94194285D01*
X138996964Y-94230000D01*
X139425535Y-93444285D02*
X139389821Y-93515714D01*
X139354107Y-93551428D01*
X139282678Y-93587142D01*
X139068392Y-93587142D01*
X138996964Y-93551428D01*
X138961250Y-93515714D01*
X138925535Y-93444285D01*
X138925535Y-93337142D01*
X138961250Y-93265714D01*
X138996964Y-93230000D01*
X139068392Y-93194285D01*
X139282678Y-93194285D01*
X139354107Y-93230000D01*
X139389821Y-93265714D01*
X139425535Y-93337142D01*
X139425535Y-93444285D01*
X138925535Y-92551428D02*
X139425535Y-92551428D01*
X138925535Y-92872857D02*
X139318392Y-92872857D01*
X139389821Y-92837142D01*
X139425535Y-92765714D01*
X139425535Y-92658571D01*
X139389821Y-92587142D01*
X139354107Y-92551428D01*
X139425535Y-92087142D02*
X139389821Y-92158571D01*
X139318392Y-92194285D01*
X138675535Y-92194285D01*
X139425535Y-91480000D02*
X138675535Y-91480000D01*
X139389821Y-91480000D02*
X139425535Y-91551428D01*
X139425535Y-91694285D01*
X139389821Y-91765714D01*
X139354107Y-91801428D01*
X139282678Y-91837142D01*
X139068392Y-91837142D01*
X138996964Y-91801428D01*
X138961250Y-91765714D01*
X138925535Y-91694285D01*
X138925535Y-91551428D01*
X138961250Y-91480000D01*
X140633035Y-100087142D02*
X139883035Y-100087142D01*
X140633035Y-99658571D01*
X139883035Y-99658571D01*
X139883035Y-99158571D02*
X139883035Y-99015714D01*
X139918750Y-98944285D01*
X139990178Y-98872857D01*
X140133035Y-98837142D01*
X140383035Y-98837142D01*
X140525892Y-98872857D01*
X140597321Y-98944285D01*
X140633035Y-99015714D01*
X140633035Y-99158571D01*
X140597321Y-99230000D01*
X140525892Y-99301428D01*
X140383035Y-99337142D01*
X140133035Y-99337142D01*
X139990178Y-99301428D01*
X139918750Y-99230000D01*
X139883035Y-99158571D01*
X139883035Y-98622857D02*
X139883035Y-98194285D01*
X140633035Y-98408571D02*
X139883035Y-98408571D01*
X140633035Y-97372857D02*
X139883035Y-97372857D01*
X140168750Y-97372857D02*
X140133035Y-97301428D01*
X140133035Y-97158571D01*
X140168750Y-97087142D01*
X140204464Y-97051428D01*
X140275892Y-97015714D01*
X140490178Y-97015714D01*
X140561607Y-97051428D01*
X140597321Y-97087142D01*
X140633035Y-97158571D01*
X140633035Y-97301428D01*
X140597321Y-97372857D01*
X140597321Y-96408571D02*
X140633035Y-96480000D01*
X140633035Y-96622857D01*
X140597321Y-96694285D01*
X140525892Y-96730000D01*
X140240178Y-96730000D01*
X140168750Y-96694285D01*
X140133035Y-96622857D01*
X140133035Y-96480000D01*
X140168750Y-96408571D01*
X140240178Y-96372857D01*
X140311607Y-96372857D01*
X140383035Y-96730000D01*
X140133035Y-95551428D02*
X140633035Y-95372857D01*
X140133035Y-95194285D01*
X140633035Y-94908571D02*
X140133035Y-94908571D01*
X139883035Y-94908571D02*
X139918750Y-94944285D01*
X139954464Y-94908571D01*
X139918750Y-94872857D01*
X139883035Y-94908571D01*
X139954464Y-94908571D01*
X140597321Y-94587142D02*
X140633035Y-94515714D01*
X140633035Y-94372857D01*
X140597321Y-94301428D01*
X140525892Y-94265714D01*
X140490178Y-94265714D01*
X140418750Y-94301428D01*
X140383035Y-94372857D01*
X140383035Y-94480000D01*
X140347321Y-94551428D01*
X140275892Y-94587142D01*
X140240178Y-94587142D01*
X140168750Y-94551428D01*
X140133035Y-94480000D01*
X140133035Y-94372857D01*
X140168750Y-94301428D01*
X140633035Y-93944285D02*
X140133035Y-93944285D01*
X139883035Y-93944285D02*
X139918750Y-93980000D01*
X139954464Y-93944285D01*
X139918750Y-93908571D01*
X139883035Y-93944285D01*
X139954464Y-93944285D01*
X140633035Y-93587142D02*
X139883035Y-93587142D01*
X140168750Y-93587142D02*
X140133035Y-93515714D01*
X140133035Y-93372857D01*
X140168750Y-93301428D01*
X140204464Y-93265714D01*
X140275892Y-93230000D01*
X140490178Y-93230000D01*
X140561607Y-93265714D01*
X140597321Y-93301428D01*
X140633035Y-93372857D01*
X140633035Y-93515714D01*
X140597321Y-93587142D01*
X140633035Y-92801428D02*
X140597321Y-92872857D01*
X140525892Y-92908571D01*
X139883035Y-92908571D01*
X140597321Y-92230000D02*
X140633035Y-92301428D01*
X140633035Y-92444285D01*
X140597321Y-92515714D01*
X140525892Y-92551428D01*
X140240178Y-92551428D01*
X140168750Y-92515714D01*
X140133035Y-92444285D01*
X140133035Y-92301428D01*
X140168750Y-92230000D01*
X140240178Y-92194285D01*
X140311607Y-92194285D01*
X140383035Y-92551428D01*
X140561607Y-91872857D02*
X140597321Y-91837142D01*
X140633035Y-91872857D01*
X140597321Y-91908571D01*
X140561607Y-91872857D01*
X140633035Y-91872857D01*
%LPC*%
D11*
X138678287Y-88280000D03*
X140678287Y-88280000D03*
D12*
X142250000Y-103935418D03*
X139690000Y-103935418D03*
X137130000Y-103935418D03*
D13*
X135960000Y-100015418D03*
D14*
X142860000Y-97735418D03*
D15*
X143340000Y-97735418D03*
M02*
