G04 #@! TF.GenerationSoftware,KiCad,Pcbnew,(6.0.0-0)*
G04 #@! TF.CreationDate,2021-12-28T14:08:48-05:00*
G04 #@! TF.ProjectId,9DIN2VGA_Bottom,3944494e-3256-4474-915f-426f74746f6d,1*
G04 #@! TF.SameCoordinates,Original*
G04 #@! TF.FileFunction,Copper,L2,Bot*
G04 #@! TF.FilePolarity,Positive*
%FSLAX46Y46*%
G04 Gerber Fmt 4.6, Leading zero omitted, Abs format (unit mm)*
G04 Created by KiCad (PCBNEW (6.0.0-0)) date 2021-12-28 14:08:48*
%MOMM*%
%LPD*%
G01*
G04 APERTURE LIST*
G04 Aperture macros list*
%AMRoundRect*
0 Rectangle with rounded corners*
0 $1 Rounding radius*
0 $2 $3 $4 $5 $6 $7 $8 $9 X,Y pos of 4 corners*
0 Add a 4 corners polygon primitive as box body*
4,1,4,$2,$3,$4,$5,$6,$7,$8,$9,$2,$3,0*
0 Add four circle primitives for the rounded corners*
1,1,$1+$1,$2,$3*
1,1,$1+$1,$4,$5*
1,1,$1+$1,$6,$7*
1,1,$1+$1,$8,$9*
0 Add four rect primitives between the rounded corners*
20,1,$1+$1,$2,$3,$4,$5,0*
20,1,$1+$1,$4,$5,$6,$7,0*
20,1,$1+$1,$6,$7,$8,$9,0*
20,1,$1+$1,$8,$9,$2,$3,0*%
G04 Aperture macros list end*
G04 #@! TA.AperFunction,SMDPad,CuDef*
%ADD10RoundRect,0.300000X-0.300000X-1.450000X0.300000X-1.450000X0.300000X1.450000X-0.300000X1.450000X0*%
G04 #@! TD*
G04 #@! TA.AperFunction,ComponentPad*
%ADD11C,0.700000*%
G04 #@! TD*
G04 #@! TA.AperFunction,ComponentPad*
%ADD12RoundRect,0.375000X-0.375000X-1.125000X0.375000X-1.125000X0.375000X1.125000X-0.375000X1.125000X0*%
G04 #@! TD*
G04 #@! TA.AperFunction,ComponentPad*
%ADD13RoundRect,0.375000X1.375000X-0.375000X1.375000X0.375000X-1.375000X0.375000X-1.375000X-0.375000X0*%
G04 #@! TD*
G04 #@! TA.AperFunction,ComponentPad*
%ADD14RoundRect,0.500000X-0.500000X-0.500000X0.500000X-0.500000X0.500000X0.500000X-0.500000X0.500000X0*%
G04 #@! TD*
G04 #@! TA.AperFunction,ComponentPad*
%ADD15C,2.000000*%
G04 #@! TD*
G04 #@! TA.AperFunction,ViaPad*
%ADD16C,0.700000*%
G04 #@! TD*
G04 #@! TA.AperFunction,Conductor*
%ADD17C,0.250000*%
G04 #@! TD*
G04 APERTURE END LIST*
D10*
X140680000Y-88280000D03*
X138680000Y-88280000D03*
D11*
X139680000Y-95210000D03*
D12*
X142250000Y-103935418D03*
X139690000Y-103935418D03*
X137130000Y-103935418D03*
D13*
X135960000Y-100015418D03*
D14*
X142860000Y-97735418D03*
D15*
X143340000Y-97735418D03*
D16*
X139680000Y-97320000D03*
X137770000Y-92270000D03*
X137000000Y-87650000D03*
X142070000Y-91030000D03*
X140990000Y-101470000D03*
D17*
X140680000Y-88030000D02*
X141050000Y-88400000D01*
X141050000Y-88400000D02*
X141050000Y-99590000D01*
X141050000Y-99590000D02*
X142290000Y-100830000D01*
X142290000Y-100830000D02*
X142290000Y-103300000D01*
X139690000Y-101130000D02*
X139690000Y-103310000D01*
X138650000Y-100090000D02*
X139690000Y-101130000D01*
X138680000Y-94359802D02*
X138650000Y-94389802D01*
X138650000Y-94389802D02*
X138650000Y-100090000D01*
X138680000Y-88030000D02*
X138680000Y-94359802D01*
G04 #@! TA.AperFunction,Conductor*
G36*
X139896061Y-86668482D02*
G01*
X139923081Y-86715282D01*
X139922511Y-86742733D01*
X139922547Y-86742736D01*
X139922094Y-86747533D01*
X139919675Y-86773112D01*
X139919675Y-86773114D01*
X139919500Y-86774969D01*
X139919501Y-89785030D01*
X139919676Y-89786878D01*
X139919676Y-89786886D01*
X139922094Y-89812471D01*
X139922547Y-89817264D01*
X139968429Y-89947916D01*
X140050699Y-90059301D01*
X140162084Y-90141571D01*
X140167658Y-90143528D01*
X140167659Y-90143529D01*
X140288191Y-90185857D01*
X140292736Y-90187453D01*
X140300972Y-90188232D01*
X140323112Y-90190325D01*
X140323123Y-90190326D01*
X140324969Y-90190500D01*
X140335085Y-90190500D01*
X140685500Y-90190499D01*
X140736280Y-90208981D01*
X140763300Y-90255781D01*
X140764500Y-90269499D01*
X140764500Y-99538526D01*
X140764153Y-99543255D01*
X140762671Y-99547571D01*
X140762945Y-99554862D01*
X140764444Y-99594798D01*
X140764500Y-99597762D01*
X140764500Y-99616552D01*
X140765166Y-99620129D01*
X140765355Y-99622172D01*
X140765633Y-99626469D01*
X140766661Y-99653853D01*
X140771640Y-99665442D01*
X140776717Y-99682155D01*
X140777691Y-99687384D01*
X140777692Y-99687388D01*
X140779028Y-99694559D01*
X140782855Y-99700767D01*
X140792888Y-99717045D01*
X140798220Y-99727310D01*
X140808645Y-99751574D01*
X140812457Y-99756215D01*
X140817848Y-99761606D01*
X140829237Y-99776014D01*
X140831007Y-99778886D01*
X140831010Y-99778889D01*
X140834837Y-99785098D01*
X140855782Y-99801025D01*
X140857722Y-99802500D01*
X140865765Y-99809523D01*
X141981361Y-100925119D01*
X142004199Y-100974095D01*
X142004500Y-100980980D01*
X142004500Y-102195919D01*
X141986018Y-102246699D01*
X141939218Y-102273719D01*
X141925500Y-102274919D01*
X141833394Y-102274919D01*
X141818341Y-102276740D01*
X141751102Y-102284876D01*
X141751099Y-102284877D01*
X141746064Y-102285486D01*
X141609649Y-102339496D01*
X141492784Y-102428202D01*
X141404078Y-102545067D01*
X141350068Y-102681482D01*
X141339500Y-102768811D01*
X141339500Y-103701000D01*
X141321018Y-103751780D01*
X141274218Y-103778800D01*
X141260500Y-103780000D01*
X140679499Y-103780000D01*
X140628719Y-103761518D01*
X140601699Y-103714718D01*
X140600499Y-103701000D01*
X140600499Y-102768812D01*
X140589932Y-102681482D01*
X140535922Y-102545067D01*
X140447216Y-102428202D01*
X140330351Y-102339496D01*
X140193936Y-102285486D01*
X140188901Y-102284877D01*
X140188898Y-102284876D01*
X140135520Y-102278417D01*
X140106607Y-102274918D01*
X140054500Y-102274918D01*
X140003720Y-102256436D01*
X139976700Y-102209636D01*
X139975500Y-102195918D01*
X139975500Y-101181473D01*
X139975847Y-101176744D01*
X139977329Y-101172428D01*
X139975556Y-101125200D01*
X139975500Y-101122237D01*
X139975500Y-101103448D01*
X139974834Y-101099871D01*
X139974645Y-101097828D01*
X139974367Y-101093531D01*
X139973613Y-101073437D01*
X139973613Y-101073435D01*
X139973339Y-101066147D01*
X139968360Y-101054558D01*
X139963283Y-101037845D01*
X139962309Y-101032616D01*
X139962308Y-101032612D01*
X139960972Y-101025441D01*
X139947112Y-101002955D01*
X139941780Y-100992690D01*
X139936749Y-100980980D01*
X139931355Y-100968426D01*
X139927543Y-100963785D01*
X139922152Y-100958394D01*
X139910763Y-100943986D01*
X139908993Y-100941114D01*
X139908990Y-100941111D01*
X139905163Y-100934902D01*
X139882279Y-100917500D01*
X139874235Y-100910477D01*
X138958639Y-99994881D01*
X138935801Y-99945905D01*
X138935500Y-99939020D01*
X138935500Y-94513556D01*
X138942064Y-94482542D01*
X138945540Y-94477474D01*
X138951638Y-94451779D01*
X138955127Y-94440748D01*
X138962846Y-94421400D01*
X138962846Y-94421399D01*
X138964914Y-94416216D01*
X138965500Y-94410239D01*
X138965500Y-94402610D01*
X138967635Y-94384369D01*
X138968413Y-94381090D01*
X138970098Y-94373990D01*
X138966222Y-94345511D01*
X138965500Y-94334857D01*
X138965500Y-90268956D01*
X138983982Y-90218176D01*
X139030782Y-90191156D01*
X139037061Y-90190307D01*
X139050943Y-90188995D01*
X139062473Y-90187906D01*
X139062475Y-90187906D01*
X139067264Y-90187453D01*
X139163747Y-90153570D01*
X139192341Y-90143529D01*
X139192342Y-90143528D01*
X139197916Y-90141571D01*
X139309301Y-90059301D01*
X139391571Y-89947916D01*
X139437453Y-89817264D01*
X139438232Y-89809028D01*
X139440325Y-89786888D01*
X139440326Y-89786877D01*
X139440500Y-89785031D01*
X139440499Y-86774970D01*
X139440324Y-86773112D01*
X139437906Y-86747528D01*
X139437906Y-86747527D01*
X139437453Y-86742736D01*
X139437989Y-86742685D01*
X139444727Y-86692368D01*
X139484649Y-86655947D01*
X139514720Y-86650000D01*
X139845281Y-86650000D01*
X139896061Y-86668482D01*
G37*
G04 #@! TD.AperFunction*
G04 #@! TA.AperFunction,Conductor*
G36*
X137896061Y-86668482D02*
G01*
X137923081Y-86715282D01*
X137922511Y-86742733D01*
X137922547Y-86742736D01*
X137922094Y-86747533D01*
X137919675Y-86773112D01*
X137919675Y-86773114D01*
X137919500Y-86774969D01*
X137919501Y-89785030D01*
X137919676Y-89786878D01*
X137919676Y-89786886D01*
X137922094Y-89812471D01*
X137922547Y-89817264D01*
X137968429Y-89947916D01*
X138050699Y-90059301D01*
X138162084Y-90141571D01*
X138167658Y-90143528D01*
X138167659Y-90143529D01*
X138288191Y-90185857D01*
X138292736Y-90187453D01*
X138303499Y-90188470D01*
X138322935Y-90190308D01*
X138371751Y-90213488D01*
X138394246Y-90262622D01*
X138394500Y-90268957D01*
X138394500Y-94236048D01*
X138387936Y-94267061D01*
X138384459Y-94272130D01*
X138378375Y-94297771D01*
X138378361Y-94297829D01*
X138374872Y-94308860D01*
X138365086Y-94333388D01*
X138364500Y-94339365D01*
X138364500Y-94346995D01*
X138362365Y-94365234D01*
X138359902Y-94375614D01*
X138360886Y-94382844D01*
X138360886Y-94382845D01*
X138363778Y-94404093D01*
X138364500Y-94414747D01*
X138364500Y-100038526D01*
X138364153Y-100043255D01*
X138362671Y-100047571D01*
X138362945Y-100054862D01*
X138364444Y-100094798D01*
X138364500Y-100097762D01*
X138364500Y-100116552D01*
X138365166Y-100120129D01*
X138365355Y-100122172D01*
X138365633Y-100126469D01*
X138366661Y-100153853D01*
X138371640Y-100165442D01*
X138376717Y-100182155D01*
X138377691Y-100187384D01*
X138377692Y-100187388D01*
X138379028Y-100194559D01*
X138382855Y-100200767D01*
X138392888Y-100217045D01*
X138398220Y-100227310D01*
X138408645Y-100251574D01*
X138412457Y-100256215D01*
X138417848Y-100261606D01*
X138429237Y-100276014D01*
X138431007Y-100278886D01*
X138431010Y-100278889D01*
X138434837Y-100285098D01*
X138455782Y-100301025D01*
X138457722Y-100302500D01*
X138465765Y-100309523D01*
X139381361Y-101225119D01*
X139404199Y-101274095D01*
X139404500Y-101280980D01*
X139404500Y-102195919D01*
X139386018Y-102246699D01*
X139339218Y-102273719D01*
X139325500Y-102274919D01*
X139273394Y-102274919D01*
X139258341Y-102276740D01*
X139191102Y-102284876D01*
X139191099Y-102284877D01*
X139186064Y-102285486D01*
X139049649Y-102339496D01*
X138932784Y-102428202D01*
X138844078Y-102545067D01*
X138790068Y-102681482D01*
X138779500Y-102768811D01*
X138779500Y-103701000D01*
X138761018Y-103751780D01*
X138714218Y-103778800D01*
X138700500Y-103780000D01*
X138119499Y-103780000D01*
X138068719Y-103761518D01*
X138041699Y-103714718D01*
X138040499Y-103701000D01*
X138040499Y-102768812D01*
X138029932Y-102681482D01*
X137975922Y-102545067D01*
X137887216Y-102428202D01*
X137770351Y-102339496D01*
X137633936Y-102285486D01*
X137628901Y-102284877D01*
X137628898Y-102284876D01*
X137575520Y-102278417D01*
X137546607Y-102274918D01*
X137130088Y-102274918D01*
X136713394Y-102274919D01*
X136698341Y-102276740D01*
X136631102Y-102284876D01*
X136631099Y-102284877D01*
X136626064Y-102285486D01*
X136489649Y-102339496D01*
X136372784Y-102428202D01*
X136284078Y-102545067D01*
X136282096Y-102550073D01*
X136272452Y-102574431D01*
X136236574Y-102614841D01*
X136183115Y-102622735D01*
X136137088Y-102594420D01*
X136120000Y-102545349D01*
X136120000Y-101004917D01*
X136138482Y-100954137D01*
X136185282Y-100927117D01*
X136199000Y-100925917D01*
X137376606Y-100925917D01*
X137391659Y-100924096D01*
X137458898Y-100915960D01*
X137458901Y-100915959D01*
X137463936Y-100915350D01*
X137600351Y-100861340D01*
X137717216Y-100772634D01*
X137799331Y-100664452D01*
X137802668Y-100660056D01*
X137805922Y-100655769D01*
X137859932Y-100519354D01*
X137870500Y-100432025D01*
X137870499Y-99598812D01*
X137865181Y-99554862D01*
X137860542Y-99516520D01*
X137860541Y-99516517D01*
X137859932Y-99511482D01*
X137805922Y-99375067D01*
X137717216Y-99258202D01*
X137600351Y-99169496D01*
X137463936Y-99115486D01*
X137458901Y-99114877D01*
X137458898Y-99114876D01*
X137405520Y-99108417D01*
X137376607Y-99104918D01*
X136199000Y-99104918D01*
X136148220Y-99086436D01*
X136121200Y-99039636D01*
X136120000Y-99025918D01*
X136120000Y-86729000D01*
X136138482Y-86678220D01*
X136185282Y-86651200D01*
X136199000Y-86650000D01*
X137845281Y-86650000D01*
X137896061Y-86668482D01*
G37*
G04 #@! TD.AperFunction*
G04 #@! TA.AperFunction,Conductor*
G36*
X143221780Y-86668482D02*
G01*
X143248800Y-86715282D01*
X143250000Y-86729000D01*
X143250000Y-102520092D01*
X143231518Y-102570872D01*
X143184718Y-102597892D01*
X143131500Y-102588508D01*
X143101776Y-102554072D01*
X143100547Y-102554764D01*
X143097904Y-102550073D01*
X143095922Y-102545067D01*
X143007216Y-102428202D01*
X142890351Y-102339496D01*
X142753936Y-102285486D01*
X142748901Y-102284877D01*
X142748898Y-102284876D01*
X142695520Y-102278417D01*
X142666607Y-102274918D01*
X142654500Y-102274918D01*
X142603720Y-102256436D01*
X142576700Y-102209636D01*
X142575500Y-102195918D01*
X142575500Y-100881474D01*
X142575847Y-100876745D01*
X142577329Y-100872429D01*
X142575556Y-100825201D01*
X142575500Y-100822238D01*
X142575500Y-100803448D01*
X142574834Y-100799871D01*
X142574645Y-100797828D01*
X142574367Y-100793531D01*
X142573613Y-100773437D01*
X142573613Y-100773435D01*
X142573339Y-100766147D01*
X142568360Y-100754558D01*
X142563283Y-100737845D01*
X142562309Y-100732616D01*
X142562308Y-100732612D01*
X142560972Y-100725441D01*
X142547112Y-100702955D01*
X142541780Y-100692690D01*
X142533555Y-100673547D01*
X142531355Y-100668426D01*
X142527543Y-100663785D01*
X142522152Y-100658394D01*
X142510763Y-100643986D01*
X142508993Y-100641114D01*
X142508990Y-100641111D01*
X142505163Y-100634902D01*
X142482279Y-100617500D01*
X142474235Y-100610477D01*
X141358639Y-99494881D01*
X141335801Y-99445905D01*
X141335500Y-99439020D01*
X141335500Y-90049843D01*
X141350954Y-90002907D01*
X141388063Y-89952666D01*
X141388064Y-89952664D01*
X141391571Y-89947916D01*
X141437453Y-89817264D01*
X141438232Y-89809028D01*
X141440325Y-89786888D01*
X141440326Y-89786877D01*
X141440500Y-89785031D01*
X141440499Y-86774970D01*
X141440324Y-86773112D01*
X141437906Y-86747528D01*
X141437906Y-86747527D01*
X141437453Y-86742736D01*
X141437989Y-86742685D01*
X141444727Y-86692368D01*
X141484649Y-86655947D01*
X141514720Y-86650000D01*
X143171000Y-86650000D01*
X143221780Y-86668482D01*
G37*
G04 #@! TD.AperFunction*
M02*
