G04 #@! TF.GenerationSoftware,KiCad,Pcbnew,(5.1.10-1-10_14)*
G04 #@! TF.CreationDate,2021-11-21T17:36:43-05:00*
G04 #@! TF.ProjectId,9DIN2VGA_Bottom,3944494e-3256-4474-915f-426f74746f6d,1*
G04 #@! TF.SameCoordinates,Original*
G04 #@! TF.FileFunction,Legend,Top*
G04 #@! TF.FilePolarity,Positive*
%FSLAX46Y46*%
G04 Gerber Fmt 4.6, Leading zero omitted, Abs format (unit mm)*
G04 Created by KiCad (PCBNEW (5.1.10-1-10_14)) date 2021-11-21 17:36:43*
%MOMM*%
%LPD*%
G01*
G04 APERTURE LIST*
%ADD10C,0.187500*%
%ADD11C,2.101600*%
G04 APERTURE END LIST*
D10*
X138623035Y-100587142D02*
X138623035Y-100158571D01*
X139373035Y-100372857D02*
X138623035Y-100372857D01*
X139373035Y-99908571D02*
X138623035Y-99908571D01*
X139373035Y-99587142D02*
X138980178Y-99587142D01*
X138908750Y-99622857D01*
X138873035Y-99694285D01*
X138873035Y-99801428D01*
X138908750Y-99872857D01*
X138944464Y-99908571D01*
X139373035Y-99230000D02*
X138873035Y-99230000D01*
X138623035Y-99230000D02*
X138658750Y-99265714D01*
X138694464Y-99230000D01*
X138658750Y-99194285D01*
X138623035Y-99230000D01*
X138694464Y-99230000D01*
X139337321Y-98908571D02*
X139373035Y-98837142D01*
X139373035Y-98694285D01*
X139337321Y-98622857D01*
X139265892Y-98587142D01*
X139230178Y-98587142D01*
X139158750Y-98622857D01*
X139123035Y-98694285D01*
X139123035Y-98801428D01*
X139087321Y-98872857D01*
X139015892Y-98908571D01*
X138980178Y-98908571D01*
X138908750Y-98872857D01*
X138873035Y-98801428D01*
X138873035Y-98694285D01*
X138908750Y-98622857D01*
X139337321Y-97730000D02*
X139373035Y-97658571D01*
X139373035Y-97515714D01*
X139337321Y-97444285D01*
X139265892Y-97408571D01*
X139230178Y-97408571D01*
X139158750Y-97444285D01*
X139123035Y-97515714D01*
X139123035Y-97622857D01*
X139087321Y-97694285D01*
X139015892Y-97730000D01*
X138980178Y-97730000D01*
X138908750Y-97694285D01*
X138873035Y-97622857D01*
X138873035Y-97515714D01*
X138908750Y-97444285D01*
X139373035Y-97087142D02*
X138873035Y-97087142D01*
X138623035Y-97087142D02*
X138658750Y-97122857D01*
X138694464Y-97087142D01*
X138658750Y-97051428D01*
X138623035Y-97087142D01*
X138694464Y-97087142D01*
X139373035Y-96408571D02*
X138623035Y-96408571D01*
X139337321Y-96408571D02*
X139373035Y-96480000D01*
X139373035Y-96622857D01*
X139337321Y-96694285D01*
X139301607Y-96730000D01*
X139230178Y-96765714D01*
X139015892Y-96765714D01*
X138944464Y-96730000D01*
X138908750Y-96694285D01*
X138873035Y-96622857D01*
X138873035Y-96480000D01*
X138908750Y-96408571D01*
X139337321Y-95765714D02*
X139373035Y-95837142D01*
X139373035Y-95980000D01*
X139337321Y-96051428D01*
X139265892Y-96087142D01*
X138980178Y-96087142D01*
X138908750Y-96051428D01*
X138873035Y-95980000D01*
X138873035Y-95837142D01*
X138908750Y-95765714D01*
X138980178Y-95730000D01*
X139051607Y-95730000D01*
X139123035Y-96087142D01*
X139337321Y-94872857D02*
X139373035Y-94801428D01*
X139373035Y-94658571D01*
X139337321Y-94587142D01*
X139265892Y-94551428D01*
X139230178Y-94551428D01*
X139158750Y-94587142D01*
X139123035Y-94658571D01*
X139123035Y-94765714D01*
X139087321Y-94837142D01*
X139015892Y-94872857D01*
X138980178Y-94872857D01*
X138908750Y-94837142D01*
X138873035Y-94765714D01*
X138873035Y-94658571D01*
X138908750Y-94587142D01*
X139373035Y-94230000D02*
X138623035Y-94230000D01*
X139373035Y-93908571D02*
X138980178Y-93908571D01*
X138908750Y-93944285D01*
X138873035Y-94015714D01*
X138873035Y-94122857D01*
X138908750Y-94194285D01*
X138944464Y-94230000D01*
X139373035Y-93444285D02*
X139337321Y-93515714D01*
X139301607Y-93551428D01*
X139230178Y-93587142D01*
X139015892Y-93587142D01*
X138944464Y-93551428D01*
X138908750Y-93515714D01*
X138873035Y-93444285D01*
X138873035Y-93337142D01*
X138908750Y-93265714D01*
X138944464Y-93230000D01*
X139015892Y-93194285D01*
X139230178Y-93194285D01*
X139301607Y-93230000D01*
X139337321Y-93265714D01*
X139373035Y-93337142D01*
X139373035Y-93444285D01*
X138873035Y-92551428D02*
X139373035Y-92551428D01*
X138873035Y-92872857D02*
X139265892Y-92872857D01*
X139337321Y-92837142D01*
X139373035Y-92765714D01*
X139373035Y-92658571D01*
X139337321Y-92587142D01*
X139301607Y-92551428D01*
X139373035Y-92087142D02*
X139337321Y-92158571D01*
X139265892Y-92194285D01*
X138623035Y-92194285D01*
X139373035Y-91480000D02*
X138623035Y-91480000D01*
X139337321Y-91480000D02*
X139373035Y-91551428D01*
X139373035Y-91694285D01*
X139337321Y-91765714D01*
X139301607Y-91801428D01*
X139230178Y-91837142D01*
X139015892Y-91837142D01*
X138944464Y-91801428D01*
X138908750Y-91765714D01*
X138873035Y-91694285D01*
X138873035Y-91551428D01*
X138908750Y-91480000D01*
X140685535Y-100087142D02*
X139935535Y-100087142D01*
X140685535Y-99658571D01*
X139935535Y-99658571D01*
X139935535Y-99158571D02*
X139935535Y-99015714D01*
X139971250Y-98944285D01*
X140042678Y-98872857D01*
X140185535Y-98837142D01*
X140435535Y-98837142D01*
X140578392Y-98872857D01*
X140649821Y-98944285D01*
X140685535Y-99015714D01*
X140685535Y-99158571D01*
X140649821Y-99230000D01*
X140578392Y-99301428D01*
X140435535Y-99337142D01*
X140185535Y-99337142D01*
X140042678Y-99301428D01*
X139971250Y-99230000D01*
X139935535Y-99158571D01*
X139935535Y-98622857D02*
X139935535Y-98194285D01*
X140685535Y-98408571D02*
X139935535Y-98408571D01*
X140685535Y-97372857D02*
X139935535Y-97372857D01*
X140221250Y-97372857D02*
X140185535Y-97301428D01*
X140185535Y-97158571D01*
X140221250Y-97087142D01*
X140256964Y-97051428D01*
X140328392Y-97015714D01*
X140542678Y-97015714D01*
X140614107Y-97051428D01*
X140649821Y-97087142D01*
X140685535Y-97158571D01*
X140685535Y-97301428D01*
X140649821Y-97372857D01*
X140649821Y-96408571D02*
X140685535Y-96480000D01*
X140685535Y-96622857D01*
X140649821Y-96694285D01*
X140578392Y-96730000D01*
X140292678Y-96730000D01*
X140221250Y-96694285D01*
X140185535Y-96622857D01*
X140185535Y-96480000D01*
X140221250Y-96408571D01*
X140292678Y-96372857D01*
X140364107Y-96372857D01*
X140435535Y-96730000D01*
X140185535Y-95551428D02*
X140685535Y-95372857D01*
X140185535Y-95194285D01*
X140685535Y-94908571D02*
X140185535Y-94908571D01*
X139935535Y-94908571D02*
X139971250Y-94944285D01*
X140006964Y-94908571D01*
X139971250Y-94872857D01*
X139935535Y-94908571D01*
X140006964Y-94908571D01*
X140649821Y-94587142D02*
X140685535Y-94515714D01*
X140685535Y-94372857D01*
X140649821Y-94301428D01*
X140578392Y-94265714D01*
X140542678Y-94265714D01*
X140471250Y-94301428D01*
X140435535Y-94372857D01*
X140435535Y-94480000D01*
X140399821Y-94551428D01*
X140328392Y-94587142D01*
X140292678Y-94587142D01*
X140221250Y-94551428D01*
X140185535Y-94480000D01*
X140185535Y-94372857D01*
X140221250Y-94301428D01*
X140685535Y-93944285D02*
X140185535Y-93944285D01*
X139935535Y-93944285D02*
X139971250Y-93980000D01*
X140006964Y-93944285D01*
X139971250Y-93908571D01*
X139935535Y-93944285D01*
X140006964Y-93944285D01*
X140685535Y-93587142D02*
X139935535Y-93587142D01*
X140221250Y-93587142D02*
X140185535Y-93515714D01*
X140185535Y-93372857D01*
X140221250Y-93301428D01*
X140256964Y-93265714D01*
X140328392Y-93230000D01*
X140542678Y-93230000D01*
X140614107Y-93265714D01*
X140649821Y-93301428D01*
X140685535Y-93372857D01*
X140685535Y-93515714D01*
X140649821Y-93587142D01*
X140685535Y-92801428D02*
X140649821Y-92872857D01*
X140578392Y-92908571D01*
X139935535Y-92908571D01*
X140649821Y-92230000D02*
X140685535Y-92301428D01*
X140685535Y-92444285D01*
X140649821Y-92515714D01*
X140578392Y-92551428D01*
X140292678Y-92551428D01*
X140221250Y-92515714D01*
X140185535Y-92444285D01*
X140185535Y-92301428D01*
X140221250Y-92230000D01*
X140292678Y-92194285D01*
X140364107Y-92194285D01*
X140435535Y-92551428D01*
X140614107Y-91872857D02*
X140649821Y-91837142D01*
X140685535Y-91872857D01*
X140649821Y-91908571D01*
X140614107Y-91872857D01*
X140685535Y-91872857D01*
%LPC*%
G36*
G01*
X140027487Y-89755400D02*
X140027487Y-86804600D01*
G75*
G02*
X140352887Y-86479200I325400J0D01*
G01*
X141003687Y-86479200D01*
G75*
G02*
X141329087Y-86804600I0J-325400D01*
G01*
X141329087Y-89755400D01*
G75*
G02*
X141003687Y-90080800I-325400J0D01*
G01*
X140352887Y-90080800D01*
G75*
G02*
X140027487Y-89755400I0J325400D01*
G01*
G37*
G36*
G01*
X138027487Y-89755400D02*
X138027487Y-86804600D01*
G75*
G02*
X138352887Y-86479200I325400J0D01*
G01*
X139003687Y-86479200D01*
G75*
G02*
X139329087Y-86804600I0J-325400D01*
G01*
X139329087Y-89755400D01*
G75*
G02*
X139003687Y-90080800I-325400J0D01*
G01*
X138352887Y-90080800D01*
G75*
G02*
X138027487Y-89755400I0J325400D01*
G01*
G37*
G36*
G01*
X136329200Y-105085818D02*
X136329200Y-102785018D01*
G75*
G02*
X136729600Y-102384618I400400J0D01*
G01*
X137530400Y-102384618D01*
G75*
G02*
X137930800Y-102785018I0J-400400D01*
G01*
X137930800Y-105085818D01*
G75*
G02*
X137530400Y-105486218I-400400J0D01*
G01*
X136729600Y-105486218D01*
G75*
G02*
X136329200Y-105085818I0J400400D01*
G01*
G37*
D11*
X143340000Y-97735418D03*
G36*
G01*
X137360400Y-100816218D02*
X134559600Y-100816218D01*
G75*
G02*
X134159200Y-100415818I0J400400D01*
G01*
X134159200Y-99615018D01*
G75*
G02*
X134559600Y-99214618I400400J0D01*
G01*
X137360400Y-99214618D01*
G75*
G02*
X137760800Y-99615018I0J-400400D01*
G01*
X137760800Y-100415818D01*
G75*
G02*
X137360400Y-100816218I-400400J0D01*
G01*
G37*
G36*
G01*
X138889200Y-105085818D02*
X138889200Y-102785018D01*
G75*
G02*
X139289600Y-102384618I400400J0D01*
G01*
X140090400Y-102384618D01*
G75*
G02*
X140490800Y-102785018I0J-400400D01*
G01*
X140490800Y-105085818D01*
G75*
G02*
X140090400Y-105486218I-400400J0D01*
G01*
X139289600Y-105486218D01*
G75*
G02*
X138889200Y-105085818I0J400400D01*
G01*
G37*
G36*
G01*
X141449200Y-105085818D02*
X141449200Y-102785018D01*
G75*
G02*
X141849600Y-102384618I400400J0D01*
G01*
X142650400Y-102384618D01*
G75*
G02*
X143050800Y-102785018I0J-400400D01*
G01*
X143050800Y-105085818D01*
G75*
G02*
X142650400Y-105486218I-400400J0D01*
G01*
X141849600Y-105486218D01*
G75*
G02*
X141449200Y-105085818I0J400400D01*
G01*
G37*
M02*
